%TF.GenerationSoftware,KiCad,Pcbnew,(5.0.1)-3*%
%TF.CreationDate,2018-12-08T15:20:53+01:00*%
%TF.ProjectId,SamplrPad,53616D706C725061642E6B696361645F,rev?*%
%TF.SameCoordinates,Original*%
%TF.FileFunction,Soldermask,Bot*%
%TF.FilePolarity,Negative*%
%FSLAX46Y46*%
G04 Gerber Fmt 4.6, Leading zero omitted, Abs format (unit mm)*
G04 Created by KiCad (PCBNEW (5.0.1)-3) date 8/12/2018 15:20:53*
%MOMM*%
%LPD*%
G01*
G04 APERTURE LIST*
%ADD10C,0.150000*%
G04 APERTURE END LIST*
D10*
X141089189Y-57745369D02*
X142279815Y-57745369D01*
X141089189Y-56554743D02*
X142279815Y-56554743D01*
X81557889Y-57745369D02*
X82748515Y-57745369D01*
X81557889Y-56554743D02*
X82748515Y-56554743D01*
X138112624Y-56554743D02*
X139303250Y-56554743D01*
X135136059Y-56554743D02*
X136326685Y-56554743D01*
X141089189Y-57745369D02*
G75*
G02X141089189Y-56554743I0J595313D01*
G01*
X139303250Y-56554743D02*
G75*
G02X139303250Y-57745369I0J-595313D01*
G01*
X138112624Y-57745369D02*
X139303250Y-57745369D01*
X138112624Y-57745369D02*
G75*
G02X138112624Y-56554743I0J595313D01*
G01*
X136326685Y-56554743D02*
G75*
G02X136326685Y-57745369I0J-595313D01*
G01*
X132159494Y-56554743D02*
X133350120Y-56554743D01*
X135136059Y-57745369D02*
X136326685Y-57745369D01*
X135136059Y-57745369D02*
G75*
G02X135136059Y-56554743I0J595313D01*
G01*
X133350120Y-56554743D02*
G75*
G02X133350120Y-57745369I0J-595313D01*
G01*
X129182929Y-56554743D02*
X130373555Y-56554743D01*
X132159494Y-57745369D02*
X133350120Y-57745369D01*
X132159494Y-57745369D02*
G75*
G02X132159494Y-56554743I0J595313D01*
G01*
X130373555Y-56554743D02*
G75*
G02X130373555Y-57745369I0J-595313D01*
G01*
X126206364Y-56554743D02*
X127396990Y-56554743D01*
X129182929Y-57745369D02*
X130373555Y-57745369D01*
X129182929Y-57745369D02*
G75*
G02X129182929Y-56554743I0J595313D01*
G01*
X127396990Y-56554743D02*
G75*
G02X127396990Y-57745369I0J-595313D01*
G01*
X123229799Y-56554743D02*
X124420425Y-56554743D01*
X126206364Y-57745369D02*
X127396990Y-57745369D01*
X126206364Y-57745369D02*
G75*
G02X126206364Y-56554743I0J595313D01*
G01*
X124420425Y-56554743D02*
G75*
G02X124420425Y-57745369I0J-595313D01*
G01*
X120253234Y-56554743D02*
X121443860Y-56554743D01*
X123229799Y-57745369D02*
X124420425Y-57745369D01*
X123229799Y-57745369D02*
G75*
G02X123229799Y-56554743I0J595313D01*
G01*
X121443860Y-56554743D02*
G75*
G02X121443860Y-57745369I0J-595313D01*
G01*
X117276669Y-56554743D02*
X118467295Y-56554743D01*
X120253234Y-57745369D02*
X121443860Y-57745369D01*
X120253234Y-57745369D02*
G75*
G02X120253234Y-56554743I0J595313D01*
G01*
X118467295Y-56554743D02*
G75*
G02X118467295Y-57745369I0J-595313D01*
G01*
X114300104Y-56554743D02*
X115490730Y-56554743D01*
X117276669Y-57745369D02*
X118467295Y-57745369D01*
X117276669Y-57745369D02*
G75*
G02X117276669Y-56554743I0J595313D01*
G01*
X115490730Y-56554743D02*
G75*
G02X115490730Y-57745369I0J-595313D01*
G01*
X111323539Y-56554743D02*
X112514165Y-56554743D01*
X114300104Y-57745369D02*
X115490730Y-57745369D01*
X114300104Y-57745369D02*
G75*
G02X114300104Y-56554743I0J595313D01*
G01*
X112514165Y-56554743D02*
G75*
G02X112514165Y-57745369I0J-595313D01*
G01*
X108346974Y-56554743D02*
X109537600Y-56554743D01*
X111323539Y-57745369D02*
X112514165Y-57745369D01*
X111323539Y-57745369D02*
G75*
G02X111323539Y-56554743I0J595313D01*
G01*
X109537600Y-56554743D02*
G75*
G02X109537600Y-57745369I0J-595313D01*
G01*
X105370409Y-56554743D02*
X106561035Y-56554743D01*
X108346974Y-57745369D02*
X109537600Y-57745369D01*
X108346974Y-57745369D02*
G75*
G02X108346974Y-56554743I0J595313D01*
G01*
X106561035Y-56554743D02*
G75*
G02X106561035Y-57745369I0J-595313D01*
G01*
X102393844Y-56554743D02*
X103584470Y-56554743D01*
X105370409Y-57745369D02*
X106561035Y-57745369D01*
X105370409Y-57745369D02*
G75*
G02X105370409Y-56554743I0J595313D01*
G01*
X103584470Y-56554743D02*
G75*
G02X103584470Y-57745369I0J-595313D01*
G01*
X99417279Y-56554743D02*
X100607905Y-56554743D01*
X102393844Y-57745369D02*
X103584470Y-57745369D01*
X102393844Y-57745369D02*
G75*
G02X102393844Y-56554743I0J595313D01*
G01*
X100607905Y-56554743D02*
G75*
G02X100607905Y-57745369I0J-595313D01*
G01*
X96440714Y-56554743D02*
X97631340Y-56554743D01*
X99417279Y-57745369D02*
X100607905Y-57745369D01*
X99417279Y-57745369D02*
G75*
G02X99417279Y-56554743I0J595313D01*
G01*
X97631340Y-56554743D02*
G75*
G02X97631340Y-57745369I0J-595313D01*
G01*
X93464149Y-56554743D02*
X94654775Y-56554743D01*
X96440714Y-57745369D02*
X97631340Y-57745369D01*
X96440714Y-57745369D02*
G75*
G02X96440714Y-56554743I0J595313D01*
G01*
X94654775Y-56554743D02*
G75*
G02X94654775Y-57745369I0J-595313D01*
G01*
X90487584Y-56554743D02*
X91678210Y-56554743D01*
X93464149Y-57745369D02*
X94654775Y-57745369D01*
X93464149Y-57745369D02*
G75*
G02X93464149Y-56554743I0J595313D01*
G01*
X91678210Y-56554743D02*
G75*
G02X91678210Y-57745369I0J-595313D01*
G01*
X87511019Y-56554743D02*
X88701645Y-56554743D01*
X90487584Y-57745369D02*
X91678210Y-57745369D01*
X90487584Y-57745369D02*
G75*
G02X90487584Y-56554743I0J595313D01*
G01*
X88701645Y-56554743D02*
G75*
G02X88701645Y-57745369I0J-595313D01*
G01*
X84534454Y-56554743D02*
X85725080Y-56554743D01*
X87511019Y-57745369D02*
X88701645Y-57745369D01*
X87511019Y-57745369D02*
G75*
G02X87511019Y-56554743I0J595313D01*
G01*
X85725080Y-56554743D02*
G75*
G02X85725080Y-57745369I0J-595313D01*
G01*
X84534454Y-57745369D02*
X85725080Y-57745369D01*
X84534454Y-57745369D02*
G75*
G02X84534454Y-56554743I0J595313D01*
G01*
X82748515Y-56554743D02*
G75*
G02X82748515Y-57745369I0J-595313D01*
G01*
X142279815Y-16073459D02*
G75*
G02X144661067Y-18454711I0J-2381252D01*
G01*
X144661067Y-54173491D02*
G75*
G02X142279815Y-56554743I-2381252J0D01*
G01*
X81557889Y-56554743D02*
G75*
G02X79176637Y-54173491I0J2381252D01*
G01*
X79176637Y-18454711D02*
G75*
G02X81557889Y-16073459I2381252J0D01*
G01*
X144661067Y-18454711D02*
X144661067Y-54173491D01*
X142279815Y-98226653D02*
X81557889Y-98226653D01*
X79176637Y-54173491D02*
X79176637Y-18454711D01*
X79176637Y-60126621D02*
G75*
G02X81557889Y-57745369I2381252J0D01*
G01*
X142279815Y-57745369D02*
G75*
G02X144661067Y-60126621I0J-2381252D01*
G01*
X144661067Y-95845401D02*
G75*
G02X142279815Y-98226653I-2381252J0D01*
G01*
X81557889Y-98226653D02*
G75*
G02X79176637Y-95845401I0J2381252D01*
G01*
X144661067Y-60126621D02*
X144661067Y-95845401D01*
X81557889Y-16073459D02*
X142279815Y-16073459D01*
X79176637Y-95845401D02*
X79176637Y-60126621D01*
G36*
X142615549Y-94738633D02*
X142825017Y-94825397D01*
X143013538Y-94951363D01*
X143173853Y-95111678D01*
X143299819Y-95300199D01*
X143386583Y-95509667D01*
X143430815Y-95732036D01*
X143430815Y-95958766D01*
X143386583Y-96181135D01*
X143299819Y-96390603D01*
X143173853Y-96579124D01*
X143013538Y-96739439D01*
X142825017Y-96865405D01*
X142615549Y-96952169D01*
X142393180Y-96996401D01*
X142166450Y-96996401D01*
X141944081Y-96952169D01*
X141734613Y-96865405D01*
X141546092Y-96739439D01*
X141385777Y-96579124D01*
X141259811Y-96390603D01*
X141173047Y-96181135D01*
X141128815Y-95958766D01*
X141128815Y-95732036D01*
X141173047Y-95509667D01*
X141259811Y-95300199D01*
X141385777Y-95111678D01*
X141546092Y-94951363D01*
X141734613Y-94825397D01*
X141944081Y-94738633D01*
X142166450Y-94694401D01*
X142393180Y-94694401D01*
X142615549Y-94738633D01*
X142615549Y-94738633D01*
G37*
G36*
X81893623Y-94738633D02*
X82103091Y-94825397D01*
X82291612Y-94951363D01*
X82451927Y-95111678D01*
X82577893Y-95300199D01*
X82664657Y-95509667D01*
X82708889Y-95732036D01*
X82708889Y-95958766D01*
X82664657Y-96181135D01*
X82577893Y-96390603D01*
X82451927Y-96579124D01*
X82291612Y-96739439D01*
X82103091Y-96865405D01*
X81893623Y-96952169D01*
X81671254Y-96996401D01*
X81444524Y-96996401D01*
X81222155Y-96952169D01*
X81012687Y-96865405D01*
X80824166Y-96739439D01*
X80663851Y-96579124D01*
X80537885Y-96390603D01*
X80451121Y-96181135D01*
X80406889Y-95958766D01*
X80406889Y-95732036D01*
X80451121Y-95509667D01*
X80537885Y-95300199D01*
X80663851Y-95111678D01*
X80824166Y-94951363D01*
X81012687Y-94825397D01*
X81222155Y-94738633D01*
X81444524Y-94694401D01*
X81671254Y-94694401D01*
X81893623Y-94738633D01*
X81893623Y-94738633D01*
G37*
G36*
X104479751Y-90451215D02*
X104569327Y-90469033D01*
X104738085Y-90538935D01*
X104738086Y-90538936D01*
X104889966Y-90640419D01*
X105019123Y-90769576D01*
X105019125Y-90769579D01*
X105120607Y-90921457D01*
X105190509Y-91090215D01*
X105226144Y-91269367D01*
X105226144Y-91452029D01*
X105190509Y-91631181D01*
X105120607Y-91799939D01*
X105120606Y-91799940D01*
X105019123Y-91951820D01*
X104889966Y-92080977D01*
X104889963Y-92080979D01*
X104738085Y-92182461D01*
X104569327Y-92252363D01*
X104479751Y-92270180D01*
X104390177Y-92287998D01*
X104207511Y-92287998D01*
X104117937Y-92270180D01*
X104028361Y-92252363D01*
X103859603Y-92182461D01*
X103707725Y-92080979D01*
X103707722Y-92080977D01*
X103578565Y-91951820D01*
X103477082Y-91799940D01*
X103477081Y-91799939D01*
X103407179Y-91631181D01*
X103371544Y-91452029D01*
X103371544Y-91269367D01*
X103407179Y-91090215D01*
X103477081Y-90921457D01*
X103578563Y-90769579D01*
X103578565Y-90769576D01*
X103707722Y-90640419D01*
X103859602Y-90538936D01*
X103859603Y-90538935D01*
X104028361Y-90469033D01*
X104117937Y-90451215D01*
X104207511Y-90433398D01*
X104390177Y-90433398D01*
X104479751Y-90451215D01*
X104479751Y-90451215D01*
G37*
G36*
X119719751Y-90451215D02*
X119809327Y-90469033D01*
X119978085Y-90538935D01*
X119978086Y-90538936D01*
X120129966Y-90640419D01*
X120259123Y-90769576D01*
X120259125Y-90769579D01*
X120360607Y-90921457D01*
X120430509Y-91090215D01*
X120466144Y-91269367D01*
X120466144Y-91452029D01*
X120430509Y-91631181D01*
X120360607Y-91799939D01*
X120360606Y-91799940D01*
X120259123Y-91951820D01*
X120129966Y-92080977D01*
X120129963Y-92080979D01*
X119978085Y-92182461D01*
X119809327Y-92252363D01*
X119719751Y-92270180D01*
X119630177Y-92287998D01*
X119447511Y-92287998D01*
X119357937Y-92270180D01*
X119268361Y-92252363D01*
X119099603Y-92182461D01*
X118947725Y-92080979D01*
X118947722Y-92080977D01*
X118818565Y-91951820D01*
X118717082Y-91799940D01*
X118717081Y-91799939D01*
X118647179Y-91631181D01*
X118611544Y-91452029D01*
X118611544Y-91269367D01*
X118647179Y-91090215D01*
X118717081Y-90921457D01*
X118818563Y-90769579D01*
X118818565Y-90769576D01*
X118947722Y-90640419D01*
X119099602Y-90538936D01*
X119099603Y-90538935D01*
X119268361Y-90469033D01*
X119357937Y-90451215D01*
X119447511Y-90433398D01*
X119630177Y-90433398D01*
X119719751Y-90451215D01*
X119719751Y-90451215D01*
G37*
G36*
X119719751Y-87911216D02*
X119809327Y-87929033D01*
X119978085Y-87998935D01*
X120127915Y-88099048D01*
X120129966Y-88100419D01*
X120259123Y-88229576D01*
X120259125Y-88229579D01*
X120360607Y-88381457D01*
X120430509Y-88550215D01*
X120466144Y-88729367D01*
X120466144Y-88912029D01*
X120430509Y-89091181D01*
X120360607Y-89259939D01*
X120318352Y-89323178D01*
X120259123Y-89411820D01*
X120129966Y-89540977D01*
X120129963Y-89540979D01*
X119978085Y-89642461D01*
X119809327Y-89712363D01*
X119719751Y-89730181D01*
X119630177Y-89747998D01*
X119447511Y-89747998D01*
X119357937Y-89730180D01*
X119268361Y-89712363D01*
X119099603Y-89642461D01*
X118947725Y-89540979D01*
X118947722Y-89540977D01*
X118818565Y-89411820D01*
X118759336Y-89323178D01*
X118717081Y-89259939D01*
X118647179Y-89091181D01*
X118611544Y-88912029D01*
X118611544Y-88729367D01*
X118647179Y-88550215D01*
X118717081Y-88381457D01*
X118818563Y-88229579D01*
X118818565Y-88229576D01*
X118947722Y-88100419D01*
X118949773Y-88099048D01*
X119099603Y-87998935D01*
X119268361Y-87929033D01*
X119357937Y-87911216D01*
X119447511Y-87893398D01*
X119630177Y-87893398D01*
X119719751Y-87911216D01*
X119719751Y-87911216D01*
G37*
G36*
X104479751Y-87911216D02*
X104569327Y-87929033D01*
X104738085Y-87998935D01*
X104887915Y-88099048D01*
X104889966Y-88100419D01*
X105019123Y-88229576D01*
X105019125Y-88229579D01*
X105120607Y-88381457D01*
X105190509Y-88550215D01*
X105226144Y-88729367D01*
X105226144Y-88912029D01*
X105190509Y-89091181D01*
X105120607Y-89259939D01*
X105078352Y-89323178D01*
X105019123Y-89411820D01*
X104889966Y-89540977D01*
X104889963Y-89540979D01*
X104738085Y-89642461D01*
X104569327Y-89712363D01*
X104479751Y-89730181D01*
X104390177Y-89747998D01*
X104207511Y-89747998D01*
X104117937Y-89730180D01*
X104028361Y-89712363D01*
X103859603Y-89642461D01*
X103707725Y-89540979D01*
X103707722Y-89540977D01*
X103578565Y-89411820D01*
X103519336Y-89323178D01*
X103477081Y-89259939D01*
X103407179Y-89091181D01*
X103371544Y-88912029D01*
X103371544Y-88729367D01*
X103407179Y-88550215D01*
X103477081Y-88381457D01*
X103578563Y-88229579D01*
X103578565Y-88229576D01*
X103707722Y-88100419D01*
X103709773Y-88099048D01*
X103859603Y-87998935D01*
X104028361Y-87929033D01*
X104117937Y-87911216D01*
X104207511Y-87893398D01*
X104390177Y-87893398D01*
X104479751Y-87911216D01*
X104479751Y-87911216D01*
G37*
G36*
X131565332Y-85544695D02*
X131565334Y-85544696D01*
X131565335Y-85544696D01*
X131937483Y-85698844D01*
X132272408Y-85922634D01*
X132557237Y-86207463D01*
X132781027Y-86542388D01*
X132935175Y-86914536D01*
X132935176Y-86914539D01*
X133013760Y-87309605D01*
X133013760Y-87712417D01*
X132936582Y-88100417D01*
X132935175Y-88107486D01*
X132781027Y-88479634D01*
X132557237Y-88814559D01*
X132272408Y-89099388D01*
X131937483Y-89323178D01*
X131565335Y-89477326D01*
X131565334Y-89477326D01*
X131565332Y-89477327D01*
X131170266Y-89555911D01*
X130767454Y-89555911D01*
X130372388Y-89477327D01*
X130372386Y-89477326D01*
X130372385Y-89477326D01*
X130000237Y-89323178D01*
X129665312Y-89099388D01*
X129380483Y-88814559D01*
X129156693Y-88479634D01*
X129002545Y-88107486D01*
X129001139Y-88100417D01*
X128923960Y-87712417D01*
X128923960Y-87309605D01*
X129002544Y-86914539D01*
X129002545Y-86914536D01*
X129156693Y-86542388D01*
X129380483Y-86207463D01*
X129665312Y-85922634D01*
X130000237Y-85698844D01*
X130372385Y-85544696D01*
X130372386Y-85544696D01*
X130372388Y-85544695D01*
X130767454Y-85466111D01*
X131170266Y-85466111D01*
X131565332Y-85544695D01*
X131565332Y-85544695D01*
G37*
G36*
X112515316Y-85544695D02*
X112515318Y-85544696D01*
X112515319Y-85544696D01*
X112887467Y-85698844D01*
X113222392Y-85922634D01*
X113507221Y-86207463D01*
X113731011Y-86542388D01*
X113885159Y-86914536D01*
X113885160Y-86914539D01*
X113963744Y-87309605D01*
X113963744Y-87712417D01*
X113886566Y-88100417D01*
X113885159Y-88107486D01*
X113731011Y-88479634D01*
X113507221Y-88814559D01*
X113222392Y-89099388D01*
X112887467Y-89323178D01*
X112515319Y-89477326D01*
X112515318Y-89477326D01*
X112515316Y-89477327D01*
X112120250Y-89555911D01*
X111717438Y-89555911D01*
X111322372Y-89477327D01*
X111322370Y-89477326D01*
X111322369Y-89477326D01*
X110950221Y-89323178D01*
X110615296Y-89099388D01*
X110330467Y-88814559D01*
X110106677Y-88479634D01*
X109952529Y-88107486D01*
X109951123Y-88100417D01*
X109873944Y-87712417D01*
X109873944Y-87309605D01*
X109952528Y-86914539D01*
X109952529Y-86914536D01*
X110106677Y-86542388D01*
X110330467Y-86207463D01*
X110615296Y-85922634D01*
X110950221Y-85698844D01*
X111322369Y-85544696D01*
X111322370Y-85544696D01*
X111322372Y-85544695D01*
X111717438Y-85466111D01*
X112120250Y-85466111D01*
X112515316Y-85544695D01*
X112515316Y-85544695D01*
G37*
G36*
X93465300Y-85544695D02*
X93465302Y-85544696D01*
X93465303Y-85544696D01*
X93837451Y-85698844D01*
X94172376Y-85922634D01*
X94457205Y-86207463D01*
X94680995Y-86542388D01*
X94835143Y-86914536D01*
X94835144Y-86914539D01*
X94913728Y-87309605D01*
X94913728Y-87712417D01*
X94836550Y-88100417D01*
X94835143Y-88107486D01*
X94680995Y-88479634D01*
X94457205Y-88814559D01*
X94172376Y-89099388D01*
X93837451Y-89323178D01*
X93465303Y-89477326D01*
X93465302Y-89477326D01*
X93465300Y-89477327D01*
X93070234Y-89555911D01*
X92667422Y-89555911D01*
X92272356Y-89477327D01*
X92272354Y-89477326D01*
X92272353Y-89477326D01*
X91900205Y-89323178D01*
X91565280Y-89099388D01*
X91280451Y-88814559D01*
X91056661Y-88479634D01*
X90902513Y-88107486D01*
X90901107Y-88100417D01*
X90823928Y-87712417D01*
X90823928Y-87309605D01*
X90902512Y-86914539D01*
X90902513Y-86914536D01*
X91056661Y-86542388D01*
X91280451Y-86207463D01*
X91565280Y-85922634D01*
X91900205Y-85698844D01*
X92272353Y-85544696D01*
X92272354Y-85544696D01*
X92272356Y-85544695D01*
X92667422Y-85466111D01*
X93070234Y-85466111D01*
X93465300Y-85544695D01*
X93465300Y-85544695D01*
G37*
G36*
X117268948Y-86620596D02*
X117437470Y-86690400D01*
X117589135Y-86791739D01*
X117718116Y-86920720D01*
X117819455Y-87072385D01*
X117889259Y-87240907D01*
X117924844Y-87419808D01*
X117924844Y-87602214D01*
X117889259Y-87781115D01*
X117819455Y-87949637D01*
X117718116Y-88101302D01*
X117589135Y-88230283D01*
X117437470Y-88331622D01*
X117268948Y-88401426D01*
X117090047Y-88437011D01*
X116907641Y-88437011D01*
X116728740Y-88401426D01*
X116560218Y-88331622D01*
X116408553Y-88230283D01*
X116279572Y-88101302D01*
X116178233Y-87949637D01*
X116108429Y-87781115D01*
X116072844Y-87602214D01*
X116072844Y-87419808D01*
X116108429Y-87240907D01*
X116178233Y-87072385D01*
X116279572Y-86920720D01*
X116408553Y-86791739D01*
X116560218Y-86690400D01*
X116728740Y-86620596D01*
X116907641Y-86585011D01*
X117090047Y-86585011D01*
X117268948Y-86620596D01*
X117268948Y-86620596D01*
G37*
G36*
X98218932Y-86620596D02*
X98387454Y-86690400D01*
X98539119Y-86791739D01*
X98668100Y-86920720D01*
X98769439Y-87072385D01*
X98839243Y-87240907D01*
X98874828Y-87419808D01*
X98874828Y-87602214D01*
X98839243Y-87781115D01*
X98769439Y-87949637D01*
X98668100Y-88101302D01*
X98539119Y-88230283D01*
X98387454Y-88331622D01*
X98218932Y-88401426D01*
X98040031Y-88437011D01*
X97857625Y-88437011D01*
X97678724Y-88401426D01*
X97510202Y-88331622D01*
X97358537Y-88230283D01*
X97229556Y-88101302D01*
X97128217Y-87949637D01*
X97058413Y-87781115D01*
X97022828Y-87602214D01*
X97022828Y-87419808D01*
X97058413Y-87240907D01*
X97128217Y-87072385D01*
X97229556Y-86920720D01*
X97358537Y-86791739D01*
X97510202Y-86690400D01*
X97678724Y-86620596D01*
X97857625Y-86585011D01*
X98040031Y-86585011D01*
X98218932Y-86620596D01*
X98218932Y-86620596D01*
G37*
G36*
X88058932Y-86620596D02*
X88227454Y-86690400D01*
X88379119Y-86791739D01*
X88508100Y-86920720D01*
X88609439Y-87072385D01*
X88679243Y-87240907D01*
X88714828Y-87419808D01*
X88714828Y-87602214D01*
X88679243Y-87781115D01*
X88609439Y-87949637D01*
X88508100Y-88101302D01*
X88379119Y-88230283D01*
X88227454Y-88331622D01*
X88058932Y-88401426D01*
X87880031Y-88437011D01*
X87697625Y-88437011D01*
X87518724Y-88401426D01*
X87350202Y-88331622D01*
X87198537Y-88230283D01*
X87069556Y-88101302D01*
X86968217Y-87949637D01*
X86898413Y-87781115D01*
X86862828Y-87602214D01*
X86862828Y-87419808D01*
X86898413Y-87240907D01*
X86968217Y-87072385D01*
X87069556Y-86920720D01*
X87198537Y-86791739D01*
X87350202Y-86690400D01*
X87518724Y-86620596D01*
X87697625Y-86585011D01*
X87880031Y-86585011D01*
X88058932Y-86620596D01*
X88058932Y-86620596D01*
G37*
G36*
X136318964Y-86620596D02*
X136487486Y-86690400D01*
X136639151Y-86791739D01*
X136768132Y-86920720D01*
X136869471Y-87072385D01*
X136939275Y-87240907D01*
X136974860Y-87419808D01*
X136974860Y-87602214D01*
X136939275Y-87781115D01*
X136869471Y-87949637D01*
X136768132Y-88101302D01*
X136639151Y-88230283D01*
X136487486Y-88331622D01*
X136318964Y-88401426D01*
X136140063Y-88437011D01*
X135957657Y-88437011D01*
X135778756Y-88401426D01*
X135610234Y-88331622D01*
X135458569Y-88230283D01*
X135329588Y-88101302D01*
X135228249Y-87949637D01*
X135158445Y-87781115D01*
X135122860Y-87602214D01*
X135122860Y-87419808D01*
X135158445Y-87240907D01*
X135228249Y-87072385D01*
X135329588Y-86920720D01*
X135458569Y-86791739D01*
X135610234Y-86690400D01*
X135778756Y-86620596D01*
X135957657Y-86585011D01*
X136140063Y-86585011D01*
X136318964Y-86620596D01*
X136318964Y-86620596D01*
G37*
G36*
X126158964Y-86620596D02*
X126327486Y-86690400D01*
X126479151Y-86791739D01*
X126608132Y-86920720D01*
X126709471Y-87072385D01*
X126779275Y-87240907D01*
X126814860Y-87419808D01*
X126814860Y-87602214D01*
X126779275Y-87781115D01*
X126709471Y-87949637D01*
X126608132Y-88101302D01*
X126479151Y-88230283D01*
X126327486Y-88331622D01*
X126158964Y-88401426D01*
X125980063Y-88437011D01*
X125797657Y-88437011D01*
X125618756Y-88401426D01*
X125450234Y-88331622D01*
X125298569Y-88230283D01*
X125169588Y-88101302D01*
X125068249Y-87949637D01*
X124998445Y-87781115D01*
X124962860Y-87602214D01*
X124962860Y-87419808D01*
X124998445Y-87240907D01*
X125068249Y-87072385D01*
X125169588Y-86920720D01*
X125298569Y-86791739D01*
X125450234Y-86690400D01*
X125618756Y-86620596D01*
X125797657Y-86585011D01*
X125980063Y-86585011D01*
X126158964Y-86620596D01*
X126158964Y-86620596D01*
G37*
G36*
X107108948Y-86620596D02*
X107277470Y-86690400D01*
X107429135Y-86791739D01*
X107558116Y-86920720D01*
X107659455Y-87072385D01*
X107729259Y-87240907D01*
X107764844Y-87419808D01*
X107764844Y-87602214D01*
X107729259Y-87781115D01*
X107659455Y-87949637D01*
X107558116Y-88101302D01*
X107429135Y-88230283D01*
X107277470Y-88331622D01*
X107108948Y-88401426D01*
X106930047Y-88437011D01*
X106747641Y-88437011D01*
X106568740Y-88401426D01*
X106400218Y-88331622D01*
X106248553Y-88230283D01*
X106119572Y-88101302D01*
X106018233Y-87949637D01*
X105948429Y-87781115D01*
X105912844Y-87602214D01*
X105912844Y-87419808D01*
X105948429Y-87240907D01*
X106018233Y-87072385D01*
X106119572Y-86920720D01*
X106248553Y-86791739D01*
X106400218Y-86690400D01*
X106568740Y-86620596D01*
X106747641Y-86585011D01*
X106930047Y-86585011D01*
X107108948Y-86620596D01*
X107108948Y-86620596D01*
G37*
G36*
X85377995Y-86425531D02*
X85532867Y-86489681D01*
X85672248Y-86582813D01*
X85790782Y-86701347D01*
X85883914Y-86840728D01*
X85948064Y-86995600D01*
X85980767Y-87160012D01*
X85980767Y-87327644D01*
X85948064Y-87492056D01*
X85883914Y-87646928D01*
X85790782Y-87786309D01*
X85672248Y-87904843D01*
X85532867Y-87997975D01*
X85377995Y-88062125D01*
X85213583Y-88094828D01*
X85045951Y-88094828D01*
X84881539Y-88062125D01*
X84726667Y-87997975D01*
X84587286Y-87904843D01*
X84468752Y-87786309D01*
X84375620Y-87646928D01*
X84311470Y-87492056D01*
X84278767Y-87327644D01*
X84278767Y-87160012D01*
X84311470Y-86995600D01*
X84375620Y-86840728D01*
X84468752Y-86701347D01*
X84587286Y-86582813D01*
X84726667Y-86489681D01*
X84881539Y-86425531D01*
X85045951Y-86392828D01*
X85213583Y-86392828D01*
X85377995Y-86425531D01*
X85377995Y-86425531D01*
G37*
G36*
X101451446Y-86425531D02*
X101606318Y-86489681D01*
X101745699Y-86582813D01*
X101864233Y-86701347D01*
X101957365Y-86840728D01*
X102021515Y-86995600D01*
X102054218Y-87160012D01*
X102054218Y-87327644D01*
X102021515Y-87492056D01*
X101957365Y-87646928D01*
X101864233Y-87786309D01*
X101745699Y-87904843D01*
X101606318Y-87997975D01*
X101451446Y-88062125D01*
X101287034Y-88094828D01*
X101119402Y-88094828D01*
X100954990Y-88062125D01*
X100800118Y-87997975D01*
X100660737Y-87904843D01*
X100542203Y-87786309D01*
X100449071Y-87646928D01*
X100384921Y-87492056D01*
X100352218Y-87327644D01*
X100352218Y-87160012D01*
X100384921Y-86995600D01*
X100449071Y-86840728D01*
X100542203Y-86701347D01*
X100660737Y-86582813D01*
X100800118Y-86489681D01*
X100954990Y-86425531D01*
X101119402Y-86392828D01*
X101287034Y-86392828D01*
X101451446Y-86425531D01*
X101451446Y-86425531D01*
G37*
G36*
X122882714Y-86425531D02*
X123037586Y-86489681D01*
X123176967Y-86582813D01*
X123295501Y-86701347D01*
X123388633Y-86840728D01*
X123452783Y-86995600D01*
X123485486Y-87160012D01*
X123485486Y-87327644D01*
X123452783Y-87492056D01*
X123388633Y-87646928D01*
X123295501Y-87786309D01*
X123176967Y-87904843D01*
X123037586Y-87997975D01*
X122882714Y-88062125D01*
X122718302Y-88094828D01*
X122550670Y-88094828D01*
X122386258Y-88062125D01*
X122231386Y-87997975D01*
X122092005Y-87904843D01*
X121973471Y-87786309D01*
X121880339Y-87646928D01*
X121816189Y-87492056D01*
X121783486Y-87327644D01*
X121783486Y-87160012D01*
X121816189Y-86995600D01*
X121880339Y-86840728D01*
X121973471Y-86701347D01*
X122092005Y-86582813D01*
X122231386Y-86489681D01*
X122386258Y-86425531D01*
X122550670Y-86392828D01*
X122718302Y-86392828D01*
X122882714Y-86425531D01*
X122882714Y-86425531D01*
G37*
G36*
X119719751Y-85371215D02*
X119809327Y-85389033D01*
X119978085Y-85458935D01*
X120106433Y-85544695D01*
X120129966Y-85560419D01*
X120259123Y-85689576D01*
X120259125Y-85689579D01*
X120360607Y-85841457D01*
X120430509Y-86010215D01*
X120466144Y-86189367D01*
X120466144Y-86372029D01*
X120430509Y-86551181D01*
X120360607Y-86719939D01*
X120279898Y-86840728D01*
X120259123Y-86871820D01*
X120129966Y-87000977D01*
X120129963Y-87000979D01*
X119978085Y-87102461D01*
X119809327Y-87172363D01*
X119719751Y-87190181D01*
X119630177Y-87207998D01*
X119447511Y-87207998D01*
X119357937Y-87190181D01*
X119268361Y-87172363D01*
X119099603Y-87102461D01*
X118947725Y-87000979D01*
X118947722Y-87000977D01*
X118818565Y-86871820D01*
X118797790Y-86840728D01*
X118717081Y-86719939D01*
X118647179Y-86551181D01*
X118611544Y-86372029D01*
X118611544Y-86189367D01*
X118647179Y-86010215D01*
X118717081Y-85841457D01*
X118818563Y-85689579D01*
X118818565Y-85689576D01*
X118947722Y-85560419D01*
X118971255Y-85544695D01*
X119099603Y-85458935D01*
X119268361Y-85389033D01*
X119357937Y-85371216D01*
X119447511Y-85353398D01*
X119630177Y-85353398D01*
X119719751Y-85371215D01*
X119719751Y-85371215D01*
G37*
G36*
X104479751Y-85371215D02*
X104569327Y-85389033D01*
X104738085Y-85458935D01*
X104866433Y-85544695D01*
X104889966Y-85560419D01*
X105019123Y-85689576D01*
X105019125Y-85689579D01*
X105120607Y-85841457D01*
X105190509Y-86010215D01*
X105226144Y-86189367D01*
X105226144Y-86372029D01*
X105190509Y-86551181D01*
X105120607Y-86719939D01*
X105039898Y-86840728D01*
X105019123Y-86871820D01*
X104889966Y-87000977D01*
X104889963Y-87000979D01*
X104738085Y-87102461D01*
X104569327Y-87172363D01*
X104479751Y-87190181D01*
X104390177Y-87207998D01*
X104207511Y-87207998D01*
X104117937Y-87190181D01*
X104028361Y-87172363D01*
X103859603Y-87102461D01*
X103707725Y-87000979D01*
X103707722Y-87000977D01*
X103578565Y-86871820D01*
X103557790Y-86840728D01*
X103477081Y-86719939D01*
X103407179Y-86551181D01*
X103371544Y-86372029D01*
X103371544Y-86189367D01*
X103407179Y-86010215D01*
X103477081Y-85841457D01*
X103578563Y-85689579D01*
X103578565Y-85689576D01*
X103707722Y-85560419D01*
X103731255Y-85544695D01*
X103859603Y-85458935D01*
X104028361Y-85389033D01*
X104117937Y-85371215D01*
X104207511Y-85353398D01*
X104390177Y-85353398D01*
X104479751Y-85371215D01*
X104479751Y-85371215D01*
G37*
G36*
X89288255Y-83817608D02*
X89401855Y-83840204D01*
X89615873Y-83928853D01*
X89739082Y-84011179D01*
X89808487Y-84057554D01*
X89972285Y-84221352D01*
X89972287Y-84221355D01*
X90100986Y-84413966D01*
X90189635Y-84627984D01*
X90234828Y-84855185D01*
X90234828Y-85086837D01*
X90189635Y-85314038D01*
X90100986Y-85528056D01*
X89993061Y-85689576D01*
X89972285Y-85720670D01*
X89808487Y-85884468D01*
X89808484Y-85884470D01*
X89615873Y-86013169D01*
X89401855Y-86101818D01*
X89288254Y-86124415D01*
X89174655Y-86147011D01*
X88943001Y-86147011D01*
X88829402Y-86124415D01*
X88715801Y-86101818D01*
X88501783Y-86013169D01*
X88309172Y-85884470D01*
X88309169Y-85884468D01*
X88145371Y-85720670D01*
X88124595Y-85689576D01*
X88016670Y-85528056D01*
X87928021Y-85314038D01*
X87882828Y-85086837D01*
X87882828Y-84855185D01*
X87928021Y-84627984D01*
X88016670Y-84413966D01*
X88145369Y-84221355D01*
X88145371Y-84221352D01*
X88309169Y-84057554D01*
X88378574Y-84011179D01*
X88501783Y-83928853D01*
X88715801Y-83840204D01*
X88829401Y-83817608D01*
X88943001Y-83795011D01*
X89174655Y-83795011D01*
X89288255Y-83817608D01*
X89288255Y-83817608D01*
G37*
G36*
X127388287Y-83817608D02*
X127501887Y-83840204D01*
X127715905Y-83928853D01*
X127839114Y-84011179D01*
X127908519Y-84057554D01*
X128072317Y-84221352D01*
X128072319Y-84221355D01*
X128201018Y-84413966D01*
X128289667Y-84627984D01*
X128334860Y-84855185D01*
X128334860Y-85086837D01*
X128289667Y-85314038D01*
X128201018Y-85528056D01*
X128093093Y-85689576D01*
X128072317Y-85720670D01*
X127908519Y-85884468D01*
X127908516Y-85884470D01*
X127715905Y-86013169D01*
X127501887Y-86101818D01*
X127388286Y-86124415D01*
X127274687Y-86147011D01*
X127043033Y-86147011D01*
X126929434Y-86124415D01*
X126815833Y-86101818D01*
X126601815Y-86013169D01*
X126409204Y-85884470D01*
X126409201Y-85884468D01*
X126245403Y-85720670D01*
X126224627Y-85689576D01*
X126116702Y-85528056D01*
X126028053Y-85314038D01*
X125982860Y-85086837D01*
X125982860Y-84855185D01*
X126028053Y-84627984D01*
X126116702Y-84413966D01*
X126245401Y-84221355D01*
X126245403Y-84221352D01*
X126409201Y-84057554D01*
X126478606Y-84011179D01*
X126601815Y-83928853D01*
X126815833Y-83840204D01*
X126929433Y-83817608D01*
X127043033Y-83795011D01*
X127274687Y-83795011D01*
X127388287Y-83817608D01*
X127388287Y-83817608D01*
G37*
G36*
X108338271Y-83817608D02*
X108451871Y-83840204D01*
X108665889Y-83928853D01*
X108789098Y-84011179D01*
X108858503Y-84057554D01*
X109022301Y-84221352D01*
X109022303Y-84221355D01*
X109151002Y-84413966D01*
X109239651Y-84627984D01*
X109284844Y-84855185D01*
X109284844Y-85086837D01*
X109239651Y-85314038D01*
X109151002Y-85528056D01*
X109043077Y-85689576D01*
X109022301Y-85720670D01*
X108858503Y-85884468D01*
X108858500Y-85884470D01*
X108665889Y-86013169D01*
X108451871Y-86101818D01*
X108338270Y-86124415D01*
X108224671Y-86147011D01*
X107993017Y-86147011D01*
X107879418Y-86124415D01*
X107765817Y-86101818D01*
X107551799Y-86013169D01*
X107359188Y-85884470D01*
X107359185Y-85884468D01*
X107195387Y-85720670D01*
X107174611Y-85689576D01*
X107066686Y-85528056D01*
X106978037Y-85314038D01*
X106932844Y-85086837D01*
X106932844Y-84855185D01*
X106978037Y-84627984D01*
X107066686Y-84413966D01*
X107195385Y-84221355D01*
X107195387Y-84221352D01*
X107359185Y-84057554D01*
X107428590Y-84011179D01*
X107551799Y-83928853D01*
X107765817Y-83840204D01*
X107879417Y-83817608D01*
X107993017Y-83795011D01*
X108224671Y-83795011D01*
X108338271Y-83817608D01*
X108338271Y-83817608D01*
G37*
G36*
X104479751Y-82831216D02*
X104569327Y-82849033D01*
X104738085Y-82918935D01*
X104887915Y-83019048D01*
X104889966Y-83020419D01*
X105019123Y-83149576D01*
X105019125Y-83149579D01*
X105120607Y-83301457D01*
X105190509Y-83470215D01*
X105226144Y-83649367D01*
X105226144Y-83832029D01*
X105190509Y-84011181D01*
X105120607Y-84179939D01*
X105020494Y-84329769D01*
X105019123Y-84331820D01*
X104889966Y-84460977D01*
X104889963Y-84460979D01*
X104738085Y-84562461D01*
X104569327Y-84632363D01*
X104479751Y-84650180D01*
X104390177Y-84667998D01*
X104207511Y-84667998D01*
X104117937Y-84650180D01*
X104028361Y-84632363D01*
X103859603Y-84562461D01*
X103707725Y-84460979D01*
X103707722Y-84460977D01*
X103578565Y-84331820D01*
X103577194Y-84329769D01*
X103477081Y-84179939D01*
X103407179Y-84011181D01*
X103371544Y-83832029D01*
X103371544Y-83649367D01*
X103407179Y-83470215D01*
X103477081Y-83301457D01*
X103578563Y-83149579D01*
X103578565Y-83149576D01*
X103707722Y-83020419D01*
X103709773Y-83019048D01*
X103859603Y-82918935D01*
X104028361Y-82849033D01*
X104117937Y-82831216D01*
X104207511Y-82813398D01*
X104390177Y-82813398D01*
X104479751Y-82831216D01*
X104479751Y-82831216D01*
G37*
G36*
X119719751Y-82831216D02*
X119809327Y-82849033D01*
X119978085Y-82918935D01*
X120127915Y-83019048D01*
X120129966Y-83020419D01*
X120259123Y-83149576D01*
X120259125Y-83149579D01*
X120360607Y-83301457D01*
X120430509Y-83470215D01*
X120466144Y-83649367D01*
X120466144Y-83832029D01*
X120430509Y-84011181D01*
X120360607Y-84179939D01*
X120260494Y-84329769D01*
X120259123Y-84331820D01*
X120129966Y-84460977D01*
X120129963Y-84460979D01*
X119978085Y-84562461D01*
X119809327Y-84632363D01*
X119719751Y-84650180D01*
X119630177Y-84667998D01*
X119447511Y-84667998D01*
X119357937Y-84650180D01*
X119268361Y-84632363D01*
X119099603Y-84562461D01*
X118947725Y-84460979D01*
X118947722Y-84460977D01*
X118818565Y-84331820D01*
X118817194Y-84329769D01*
X118717081Y-84179939D01*
X118647179Y-84011181D01*
X118611544Y-83832029D01*
X118611544Y-83649367D01*
X118647179Y-83470215D01*
X118717081Y-83301457D01*
X118818563Y-83149579D01*
X118818565Y-83149576D01*
X118947722Y-83020419D01*
X118949773Y-83019048D01*
X119099603Y-82918935D01*
X119268361Y-82849033D01*
X119357937Y-82831216D01*
X119447511Y-82813398D01*
X119630177Y-82813398D01*
X119719751Y-82831216D01*
X119719751Y-82831216D01*
G37*
G36*
X95638255Y-81277608D02*
X95751855Y-81300204D01*
X95965873Y-81388853D01*
X96089082Y-81471179D01*
X96158487Y-81517554D01*
X96322285Y-81681352D01*
X96322287Y-81681355D01*
X96450986Y-81873966D01*
X96539635Y-82087984D01*
X96584828Y-82315185D01*
X96584828Y-82546837D01*
X96539635Y-82774038D01*
X96450986Y-82988056D01*
X96343061Y-83149576D01*
X96322285Y-83180670D01*
X96158487Y-83344468D01*
X96158484Y-83344470D01*
X95965873Y-83473169D01*
X95751855Y-83561818D01*
X95638254Y-83584415D01*
X95524655Y-83607011D01*
X95293001Y-83607011D01*
X95179402Y-83584415D01*
X95065801Y-83561818D01*
X94851783Y-83473169D01*
X94659172Y-83344470D01*
X94659169Y-83344468D01*
X94495371Y-83180670D01*
X94474595Y-83149576D01*
X94366670Y-82988056D01*
X94278021Y-82774038D01*
X94232828Y-82546837D01*
X94232828Y-82315185D01*
X94278021Y-82087984D01*
X94366670Y-81873966D01*
X94495369Y-81681355D01*
X94495371Y-81681352D01*
X94659169Y-81517554D01*
X94728574Y-81471179D01*
X94851783Y-81388853D01*
X95065801Y-81300204D01*
X95179401Y-81277608D01*
X95293001Y-81255011D01*
X95524655Y-81255011D01*
X95638255Y-81277608D01*
X95638255Y-81277608D01*
G37*
G36*
X133738287Y-81277608D02*
X133851887Y-81300204D01*
X134065905Y-81388853D01*
X134189114Y-81471179D01*
X134258519Y-81517554D01*
X134422317Y-81681352D01*
X134422319Y-81681355D01*
X134551018Y-81873966D01*
X134639667Y-82087984D01*
X134684860Y-82315185D01*
X134684860Y-82546837D01*
X134639667Y-82774038D01*
X134551018Y-82988056D01*
X134443093Y-83149576D01*
X134422317Y-83180670D01*
X134258519Y-83344468D01*
X134258516Y-83344470D01*
X134065905Y-83473169D01*
X133851887Y-83561818D01*
X133738287Y-83584414D01*
X133624687Y-83607011D01*
X133393033Y-83607011D01*
X133279434Y-83584415D01*
X133165833Y-83561818D01*
X132951815Y-83473169D01*
X132759204Y-83344470D01*
X132759201Y-83344468D01*
X132595403Y-83180670D01*
X132574627Y-83149576D01*
X132466702Y-82988056D01*
X132378053Y-82774038D01*
X132332860Y-82546837D01*
X132332860Y-82315185D01*
X132378053Y-82087984D01*
X132466702Y-81873966D01*
X132595401Y-81681355D01*
X132595403Y-81681352D01*
X132759201Y-81517554D01*
X132828606Y-81471179D01*
X132951815Y-81388853D01*
X133165833Y-81300204D01*
X133279433Y-81277608D01*
X133393033Y-81255011D01*
X133624687Y-81255011D01*
X133738287Y-81277608D01*
X133738287Y-81277608D01*
G37*
G36*
X114688271Y-81277608D02*
X114801871Y-81300204D01*
X115015889Y-81388853D01*
X115139098Y-81471179D01*
X115208503Y-81517554D01*
X115372301Y-81681352D01*
X115372303Y-81681355D01*
X115501002Y-81873966D01*
X115589651Y-82087984D01*
X115634844Y-82315185D01*
X115634844Y-82546837D01*
X115589651Y-82774038D01*
X115501002Y-82988056D01*
X115393077Y-83149576D01*
X115372301Y-83180670D01*
X115208503Y-83344468D01*
X115208500Y-83344470D01*
X115015889Y-83473169D01*
X114801871Y-83561818D01*
X114688270Y-83584415D01*
X114574671Y-83607011D01*
X114343017Y-83607011D01*
X114229418Y-83584415D01*
X114115817Y-83561818D01*
X113901799Y-83473169D01*
X113709188Y-83344470D01*
X113709185Y-83344468D01*
X113545387Y-83180670D01*
X113524611Y-83149576D01*
X113416686Y-82988056D01*
X113328037Y-82774038D01*
X113282844Y-82546837D01*
X113282844Y-82315185D01*
X113328037Y-82087984D01*
X113416686Y-81873966D01*
X113545385Y-81681355D01*
X113545387Y-81681352D01*
X113709185Y-81517554D01*
X113778590Y-81471179D01*
X113901799Y-81388853D01*
X114115817Y-81300204D01*
X114229417Y-81277608D01*
X114343017Y-81255011D01*
X114574671Y-81255011D01*
X114688271Y-81277608D01*
X114688271Y-81277608D01*
G37*
G36*
X119719751Y-80291216D02*
X119809327Y-80309033D01*
X119978085Y-80378935D01*
X119978086Y-80378936D01*
X120129966Y-80480419D01*
X120259123Y-80609576D01*
X120259125Y-80609579D01*
X120360607Y-80761457D01*
X120430509Y-80930215D01*
X120466144Y-81109367D01*
X120466144Y-81292029D01*
X120430509Y-81471181D01*
X120360607Y-81639939D01*
X120260494Y-81789769D01*
X120259123Y-81791820D01*
X120129966Y-81920977D01*
X120129963Y-81920979D01*
X119978085Y-82022461D01*
X119809327Y-82092363D01*
X119719751Y-82110180D01*
X119630177Y-82127998D01*
X119447511Y-82127998D01*
X119357937Y-82110180D01*
X119268361Y-82092363D01*
X119099603Y-82022461D01*
X118947725Y-81920979D01*
X118947722Y-81920977D01*
X118818565Y-81791820D01*
X118817194Y-81789769D01*
X118717081Y-81639939D01*
X118647179Y-81471181D01*
X118611544Y-81292029D01*
X118611544Y-81109367D01*
X118647179Y-80930215D01*
X118717081Y-80761457D01*
X118818563Y-80609579D01*
X118818565Y-80609576D01*
X118947722Y-80480419D01*
X119099602Y-80378936D01*
X119099603Y-80378935D01*
X119268361Y-80309033D01*
X119357937Y-80291216D01*
X119447511Y-80273398D01*
X119630177Y-80273398D01*
X119719751Y-80291216D01*
X119719751Y-80291216D01*
G37*
G36*
X104479751Y-80291216D02*
X104569327Y-80309033D01*
X104738085Y-80378935D01*
X104738086Y-80378936D01*
X104889966Y-80480419D01*
X105019123Y-80609576D01*
X105019125Y-80609579D01*
X105120607Y-80761457D01*
X105190509Y-80930215D01*
X105226144Y-81109367D01*
X105226144Y-81292029D01*
X105190509Y-81471181D01*
X105120607Y-81639939D01*
X105020494Y-81789769D01*
X105019123Y-81791820D01*
X104889966Y-81920977D01*
X104889963Y-81920979D01*
X104738085Y-82022461D01*
X104569327Y-82092363D01*
X104479751Y-82110180D01*
X104390177Y-82127998D01*
X104207511Y-82127998D01*
X104117937Y-82110180D01*
X104028361Y-82092363D01*
X103859603Y-82022461D01*
X103707725Y-81920979D01*
X103707722Y-81920977D01*
X103578565Y-81791820D01*
X103577194Y-81789769D01*
X103477081Y-81639939D01*
X103407179Y-81471181D01*
X103371544Y-81292029D01*
X103371544Y-81109367D01*
X103407179Y-80930215D01*
X103477081Y-80761457D01*
X103578563Y-80609579D01*
X103578565Y-80609576D01*
X103707722Y-80480419D01*
X103859602Y-80378936D01*
X103859603Y-80378935D01*
X104028361Y-80309033D01*
X104117937Y-80291216D01*
X104207511Y-80273398D01*
X104390177Y-80273398D01*
X104479751Y-80291216D01*
X104479751Y-80291216D01*
G37*
G36*
X102054218Y-80294828D02*
X100352218Y-80294828D01*
X100352218Y-78592828D01*
X102054218Y-78592828D01*
X102054218Y-80294828D01*
X102054218Y-80294828D01*
G37*
G36*
X85980767Y-80294828D02*
X84278767Y-80294828D01*
X84278767Y-78592828D01*
X85980767Y-78592828D01*
X85980767Y-80294828D01*
X85980767Y-80294828D01*
G37*
G36*
X123485486Y-80294828D02*
X121783486Y-80294828D01*
X121783486Y-78592828D01*
X123485486Y-78592828D01*
X123485486Y-80294828D01*
X123485486Y-80294828D01*
G37*
G36*
X104479751Y-77751216D02*
X104569327Y-77769033D01*
X104738085Y-77838935D01*
X104738086Y-77838936D01*
X104889966Y-77940419D01*
X105019123Y-78069576D01*
X105019125Y-78069579D01*
X105120607Y-78221457D01*
X105190509Y-78390215D01*
X105226144Y-78569367D01*
X105226144Y-78752029D01*
X105190509Y-78931181D01*
X105120607Y-79099939D01*
X105120606Y-79099940D01*
X105019123Y-79251820D01*
X104889966Y-79380977D01*
X104889963Y-79380979D01*
X104738085Y-79482461D01*
X104569327Y-79552363D01*
X104479751Y-79570181D01*
X104390177Y-79587998D01*
X104207511Y-79587998D01*
X104117937Y-79570181D01*
X104028361Y-79552363D01*
X103859603Y-79482461D01*
X103707725Y-79380979D01*
X103707722Y-79380977D01*
X103578565Y-79251820D01*
X103477082Y-79099940D01*
X103477081Y-79099939D01*
X103407179Y-78931181D01*
X103371544Y-78752029D01*
X103371544Y-78569367D01*
X103407179Y-78390215D01*
X103477081Y-78221457D01*
X103578563Y-78069579D01*
X103578565Y-78069576D01*
X103707722Y-77940419D01*
X103859602Y-77838936D01*
X103859603Y-77838935D01*
X104028361Y-77769033D01*
X104117937Y-77751216D01*
X104207511Y-77733398D01*
X104390177Y-77733398D01*
X104479751Y-77751216D01*
X104479751Y-77751216D01*
G37*
G36*
X119719751Y-77751216D02*
X119809327Y-77769033D01*
X119978085Y-77838935D01*
X119978086Y-77838936D01*
X120129966Y-77940419D01*
X120259123Y-78069576D01*
X120259125Y-78069579D01*
X120360607Y-78221457D01*
X120430509Y-78390215D01*
X120466144Y-78569367D01*
X120466144Y-78752029D01*
X120430509Y-78931181D01*
X120360607Y-79099939D01*
X120360606Y-79099940D01*
X120259123Y-79251820D01*
X120129966Y-79380977D01*
X120129963Y-79380979D01*
X119978085Y-79482461D01*
X119809327Y-79552363D01*
X119719751Y-79570181D01*
X119630177Y-79587998D01*
X119447511Y-79587998D01*
X119357937Y-79570181D01*
X119268361Y-79552363D01*
X119099603Y-79482461D01*
X118947725Y-79380979D01*
X118947722Y-79380977D01*
X118818565Y-79251820D01*
X118717082Y-79099940D01*
X118717081Y-79099939D01*
X118647179Y-78931181D01*
X118611544Y-78752029D01*
X118611544Y-78569367D01*
X118647179Y-78390215D01*
X118717081Y-78221457D01*
X118818563Y-78069579D01*
X118818565Y-78069576D01*
X118947722Y-77940419D01*
X119099602Y-77838936D01*
X119099603Y-77838935D01*
X119268361Y-77769033D01*
X119357937Y-77751216D01*
X119447511Y-77733398D01*
X119630177Y-77733398D01*
X119719751Y-77751216D01*
X119719751Y-77751216D01*
G37*
G36*
X123485486Y-77974507D02*
X121783486Y-77974507D01*
X121783486Y-76272507D01*
X123485486Y-76272507D01*
X123485486Y-77974507D01*
X123485486Y-77974507D01*
G37*
G36*
X102054218Y-77379194D02*
X100352218Y-77379194D01*
X100352218Y-75677194D01*
X102054218Y-75677194D01*
X102054218Y-77379194D01*
X102054218Y-77379194D01*
G37*
G36*
X85980767Y-77379194D02*
X84278767Y-77379194D01*
X84278767Y-75677194D01*
X85980767Y-75677194D01*
X85980767Y-77379194D01*
X85980767Y-77379194D01*
G37*
G36*
X119719751Y-75211215D02*
X119809327Y-75229033D01*
X119978085Y-75298935D01*
X119978086Y-75298936D01*
X120129966Y-75400419D01*
X120259123Y-75529576D01*
X120259125Y-75529579D01*
X120360607Y-75681457D01*
X120430509Y-75850215D01*
X120466144Y-76029367D01*
X120466144Y-76212029D01*
X120430509Y-76391181D01*
X120360607Y-76559939D01*
X120360606Y-76559940D01*
X120259123Y-76711820D01*
X120129966Y-76840977D01*
X120129963Y-76840979D01*
X119978085Y-76942461D01*
X119809327Y-77012363D01*
X119719751Y-77030181D01*
X119630177Y-77047998D01*
X119447511Y-77047998D01*
X119357937Y-77030181D01*
X119268361Y-77012363D01*
X119099603Y-76942461D01*
X118947725Y-76840979D01*
X118947722Y-76840977D01*
X118818565Y-76711820D01*
X118717082Y-76559940D01*
X118717081Y-76559939D01*
X118647179Y-76391181D01*
X118611544Y-76212029D01*
X118611544Y-76029367D01*
X118647179Y-75850215D01*
X118717081Y-75681457D01*
X118818563Y-75529579D01*
X118818565Y-75529576D01*
X118947722Y-75400419D01*
X119099602Y-75298936D01*
X119099603Y-75298935D01*
X119268361Y-75229033D01*
X119357937Y-75211215D01*
X119447511Y-75193398D01*
X119630177Y-75193398D01*
X119719751Y-75211215D01*
X119719751Y-75211215D01*
G37*
G36*
X104479751Y-75211215D02*
X104569327Y-75229033D01*
X104738085Y-75298935D01*
X104738086Y-75298936D01*
X104889966Y-75400419D01*
X105019123Y-75529576D01*
X105019125Y-75529579D01*
X105120607Y-75681457D01*
X105190509Y-75850215D01*
X105226144Y-76029367D01*
X105226144Y-76212029D01*
X105190509Y-76391181D01*
X105120607Y-76559939D01*
X105120606Y-76559940D01*
X105019123Y-76711820D01*
X104889966Y-76840977D01*
X104889963Y-76840979D01*
X104738085Y-76942461D01*
X104569327Y-77012363D01*
X104479751Y-77030181D01*
X104390177Y-77047998D01*
X104207511Y-77047998D01*
X104117937Y-77030181D01*
X104028361Y-77012363D01*
X103859603Y-76942461D01*
X103707725Y-76840979D01*
X103707722Y-76840977D01*
X103578565Y-76711820D01*
X103477082Y-76559940D01*
X103477081Y-76559939D01*
X103407179Y-76391181D01*
X103371544Y-76212029D01*
X103371544Y-76029367D01*
X103407179Y-75850215D01*
X103477081Y-75681457D01*
X103578563Y-75529579D01*
X103578565Y-75529576D01*
X103707722Y-75400419D01*
X103859602Y-75298936D01*
X103859603Y-75298935D01*
X104028361Y-75229033D01*
X104117937Y-75211215D01*
X104207511Y-75193398D01*
X104390177Y-75193398D01*
X104479751Y-75211215D01*
X104479751Y-75211215D01*
G37*
G36*
X129519868Y-77012003D02*
X127417868Y-77012003D01*
X127417868Y-74910003D01*
X129519868Y-74910003D01*
X129519868Y-77012003D01*
X129519868Y-77012003D01*
G37*
G36*
X131275433Y-74950392D02*
X131466702Y-75029618D01*
X131638844Y-75144640D01*
X131785231Y-75291027D01*
X131900253Y-75463169D01*
X131979479Y-75654438D01*
X132019868Y-75857487D01*
X132019868Y-76064519D01*
X131979479Y-76267568D01*
X131900253Y-76458837D01*
X131785231Y-76630979D01*
X131638844Y-76777366D01*
X131466702Y-76892388D01*
X131275433Y-76971614D01*
X131072384Y-77012003D01*
X130865352Y-77012003D01*
X130662303Y-76971614D01*
X130471034Y-76892388D01*
X130298892Y-76777366D01*
X130152505Y-76630979D01*
X130037483Y-76458837D01*
X129958257Y-76267568D01*
X129917868Y-76064519D01*
X129917868Y-75857487D01*
X129958257Y-75654438D01*
X130037483Y-75463169D01*
X130152505Y-75291027D01*
X130298892Y-75144640D01*
X130471034Y-75029618D01*
X130662303Y-74950392D01*
X130865352Y-74910003D01*
X131072384Y-74910003D01*
X131275433Y-74950392D01*
X131275433Y-74950392D01*
G37*
G36*
X133775433Y-74950392D02*
X133966702Y-75029618D01*
X134138844Y-75144640D01*
X134285231Y-75291027D01*
X134400253Y-75463169D01*
X134479479Y-75654438D01*
X134519868Y-75857487D01*
X134519868Y-76064519D01*
X134479479Y-76267568D01*
X134400253Y-76458837D01*
X134285231Y-76630979D01*
X134138844Y-76777366D01*
X133966702Y-76892388D01*
X133775433Y-76971614D01*
X133572384Y-77012003D01*
X133365352Y-77012003D01*
X133162303Y-76971614D01*
X132971034Y-76892388D01*
X132798892Y-76777366D01*
X132652505Y-76630979D01*
X132537483Y-76458837D01*
X132458257Y-76267568D01*
X132417868Y-76064519D01*
X132417868Y-75857487D01*
X132458257Y-75654438D01*
X132537483Y-75463169D01*
X132652505Y-75291027D01*
X132798892Y-75144640D01*
X132971034Y-75029618D01*
X133162303Y-74950392D01*
X133365352Y-74910003D01*
X133572384Y-74910003D01*
X133775433Y-74950392D01*
X133775433Y-74950392D01*
G37*
G36*
X119719751Y-72671215D02*
X119809327Y-72689033D01*
X119978085Y-72758935D01*
X119978086Y-72758936D01*
X120129966Y-72860419D01*
X120259123Y-72989576D01*
X120259125Y-72989579D01*
X120360607Y-73141457D01*
X120430509Y-73310215D01*
X120466144Y-73489367D01*
X120466144Y-73672029D01*
X120430509Y-73851181D01*
X120360607Y-74019939D01*
X120360606Y-74019940D01*
X120259123Y-74171820D01*
X120129966Y-74300977D01*
X120129963Y-74300979D01*
X119978085Y-74402461D01*
X119809327Y-74472363D01*
X119719751Y-74490181D01*
X119630177Y-74507998D01*
X119447511Y-74507998D01*
X119357937Y-74490181D01*
X119268361Y-74472363D01*
X119099603Y-74402461D01*
X118947725Y-74300979D01*
X118947722Y-74300977D01*
X118818565Y-74171820D01*
X118717082Y-74019940D01*
X118717081Y-74019939D01*
X118647179Y-73851181D01*
X118611544Y-73672029D01*
X118611544Y-73489367D01*
X118647179Y-73310215D01*
X118717081Y-73141457D01*
X118818563Y-72989579D01*
X118818565Y-72989576D01*
X118947722Y-72860419D01*
X119099602Y-72758936D01*
X119099603Y-72758935D01*
X119268361Y-72689033D01*
X119357937Y-72671215D01*
X119447511Y-72653398D01*
X119630177Y-72653398D01*
X119719751Y-72671215D01*
X119719751Y-72671215D01*
G37*
G36*
X104479751Y-72671215D02*
X104569327Y-72689033D01*
X104738085Y-72758935D01*
X104738086Y-72758936D01*
X104889966Y-72860419D01*
X105019123Y-72989576D01*
X105019125Y-72989579D01*
X105120607Y-73141457D01*
X105190509Y-73310215D01*
X105226144Y-73489367D01*
X105226144Y-73672029D01*
X105190509Y-73851181D01*
X105120607Y-74019939D01*
X105120606Y-74019940D01*
X105019123Y-74171820D01*
X104889966Y-74300977D01*
X104889963Y-74300979D01*
X104738085Y-74402461D01*
X104569327Y-74472363D01*
X104479751Y-74490181D01*
X104390177Y-74507998D01*
X104207511Y-74507998D01*
X104117937Y-74490181D01*
X104028361Y-74472363D01*
X103859603Y-74402461D01*
X103707725Y-74300979D01*
X103707722Y-74300977D01*
X103578565Y-74171820D01*
X103477082Y-74019940D01*
X103477081Y-74019939D01*
X103407179Y-73851181D01*
X103371544Y-73672029D01*
X103371544Y-73489367D01*
X103407179Y-73310215D01*
X103477081Y-73141457D01*
X103578563Y-72989579D01*
X103578565Y-72989576D01*
X103707722Y-72860419D01*
X103859602Y-72758936D01*
X103859603Y-72758935D01*
X104028361Y-72689033D01*
X104117937Y-72671215D01*
X104207511Y-72653398D01*
X104390177Y-72653398D01*
X104479751Y-72671215D01*
X104479751Y-72671215D01*
G37*
G36*
X104479751Y-70131215D02*
X104569327Y-70149033D01*
X104738085Y-70218935D01*
X104819253Y-70273170D01*
X104889966Y-70320419D01*
X105019123Y-70449576D01*
X105019125Y-70449579D01*
X105120607Y-70601457D01*
X105190509Y-70770215D01*
X105226144Y-70949367D01*
X105226144Y-71132029D01*
X105190509Y-71311181D01*
X105120607Y-71479939D01*
X105120606Y-71479940D01*
X105019123Y-71631820D01*
X104889966Y-71760977D01*
X104889963Y-71760979D01*
X104738085Y-71862461D01*
X104569327Y-71932363D01*
X104479751Y-71950181D01*
X104390177Y-71967998D01*
X104207511Y-71967998D01*
X104117937Y-71950181D01*
X104028361Y-71932363D01*
X103859603Y-71862461D01*
X103707725Y-71760979D01*
X103707722Y-71760977D01*
X103578565Y-71631820D01*
X103477082Y-71479940D01*
X103477081Y-71479939D01*
X103407179Y-71311181D01*
X103371544Y-71132029D01*
X103371544Y-70949367D01*
X103407179Y-70770215D01*
X103477081Y-70601457D01*
X103578563Y-70449579D01*
X103578565Y-70449576D01*
X103707722Y-70320419D01*
X103778435Y-70273170D01*
X103859603Y-70218935D01*
X104028361Y-70149033D01*
X104117937Y-70131215D01*
X104207511Y-70113398D01*
X104390177Y-70113398D01*
X104479751Y-70131215D01*
X104479751Y-70131215D01*
G37*
G36*
X119719751Y-70131215D02*
X119809327Y-70149033D01*
X119978085Y-70218935D01*
X120059253Y-70273170D01*
X120129966Y-70320419D01*
X120259123Y-70449576D01*
X120259125Y-70449579D01*
X120360607Y-70601457D01*
X120430509Y-70770215D01*
X120466144Y-70949367D01*
X120466144Y-71132029D01*
X120430509Y-71311181D01*
X120360607Y-71479939D01*
X120360606Y-71479940D01*
X120259123Y-71631820D01*
X120129966Y-71760977D01*
X120129963Y-71760979D01*
X119978085Y-71862461D01*
X119809327Y-71932363D01*
X119719751Y-71950181D01*
X119630177Y-71967998D01*
X119447511Y-71967998D01*
X119357937Y-71950181D01*
X119268361Y-71932363D01*
X119099603Y-71862461D01*
X118947725Y-71760979D01*
X118947722Y-71760977D01*
X118818565Y-71631820D01*
X118717082Y-71479940D01*
X118717081Y-71479939D01*
X118647179Y-71311181D01*
X118611544Y-71132029D01*
X118611544Y-70949367D01*
X118647179Y-70770215D01*
X118717081Y-70601457D01*
X118818563Y-70449579D01*
X118818565Y-70449576D01*
X118947722Y-70320419D01*
X119018435Y-70273170D01*
X119099603Y-70218935D01*
X119268361Y-70149033D01*
X119357937Y-70131215D01*
X119447511Y-70113398D01*
X119630177Y-70113398D01*
X119719751Y-70131215D01*
X119719751Y-70131215D01*
G37*
G36*
X131565340Y-66494687D02*
X131565342Y-66494688D01*
X131565343Y-66494688D01*
X131937491Y-66648836D01*
X132272416Y-66872626D01*
X132557245Y-67157455D01*
X132781035Y-67492380D01*
X132935181Y-67864523D01*
X132935184Y-67864531D01*
X133013768Y-68259597D01*
X133013768Y-68662409D01*
X132935186Y-69057467D01*
X132935183Y-69057478D01*
X132781035Y-69429626D01*
X132557245Y-69764551D01*
X132272416Y-70049380D01*
X131937491Y-70273170D01*
X131565343Y-70427318D01*
X131565342Y-70427318D01*
X131565340Y-70427319D01*
X131170274Y-70505903D01*
X130767462Y-70505903D01*
X130372396Y-70427319D01*
X130372394Y-70427318D01*
X130372393Y-70427318D01*
X130000245Y-70273170D01*
X129665320Y-70049380D01*
X129380491Y-69764551D01*
X129156701Y-69429626D01*
X129002553Y-69057478D01*
X129002551Y-69057467D01*
X128923968Y-68662409D01*
X128923968Y-68259597D01*
X129002552Y-67864531D01*
X129002555Y-67864523D01*
X129156701Y-67492380D01*
X129380491Y-67157455D01*
X129665320Y-66872626D01*
X130000245Y-66648836D01*
X130372393Y-66494688D01*
X130372394Y-66494688D01*
X130372396Y-66494687D01*
X130767462Y-66416103D01*
X131170274Y-66416103D01*
X131565340Y-66494687D01*
X131565340Y-66494687D01*
G37*
G36*
X112515316Y-66494679D02*
X112515318Y-66494680D01*
X112515319Y-66494680D01*
X112887467Y-66648828D01*
X113222392Y-66872618D01*
X113507221Y-67157447D01*
X113731011Y-67492372D01*
X113850323Y-67780419D01*
X113885160Y-67864523D01*
X113963744Y-68259589D01*
X113963744Y-68662401D01*
X113895152Y-69007235D01*
X113885159Y-69057470D01*
X113731011Y-69429618D01*
X113507221Y-69764543D01*
X113222392Y-70049372D01*
X112887467Y-70273162D01*
X112515319Y-70427310D01*
X112515318Y-70427310D01*
X112515316Y-70427311D01*
X112120250Y-70505895D01*
X111717438Y-70505895D01*
X111322372Y-70427311D01*
X111322370Y-70427310D01*
X111322369Y-70427310D01*
X110950221Y-70273162D01*
X110615296Y-70049372D01*
X110330467Y-69764543D01*
X110106677Y-69429618D01*
X109952529Y-69057470D01*
X109942537Y-69007235D01*
X109873944Y-68662401D01*
X109873944Y-68259589D01*
X109952528Y-67864523D01*
X109987365Y-67780419D01*
X110106677Y-67492372D01*
X110330467Y-67157447D01*
X110615296Y-66872618D01*
X110950221Y-66648828D01*
X111322369Y-66494680D01*
X111322370Y-66494680D01*
X111322372Y-66494679D01*
X111717438Y-66416095D01*
X112120250Y-66416095D01*
X112515316Y-66494679D01*
X112515316Y-66494679D01*
G37*
G36*
X93465300Y-66494679D02*
X93465302Y-66494680D01*
X93465303Y-66494680D01*
X93837451Y-66648828D01*
X94172376Y-66872618D01*
X94457205Y-67157447D01*
X94680995Y-67492372D01*
X94800307Y-67780419D01*
X94835144Y-67864523D01*
X94913728Y-68259589D01*
X94913728Y-68662401D01*
X94845136Y-69007235D01*
X94835143Y-69057470D01*
X94680995Y-69429618D01*
X94457205Y-69764543D01*
X94172376Y-70049372D01*
X93837451Y-70273162D01*
X93465303Y-70427310D01*
X93465302Y-70427310D01*
X93465300Y-70427311D01*
X93070234Y-70505895D01*
X92667422Y-70505895D01*
X92272356Y-70427311D01*
X92272354Y-70427310D01*
X92272353Y-70427310D01*
X91900205Y-70273162D01*
X91565280Y-70049372D01*
X91280451Y-69764543D01*
X91056661Y-69429618D01*
X90902513Y-69057470D01*
X90892521Y-69007235D01*
X90823928Y-68662401D01*
X90823928Y-68259589D01*
X90902512Y-67864523D01*
X90937349Y-67780419D01*
X91056661Y-67492372D01*
X91280451Y-67157447D01*
X91565280Y-66872618D01*
X91900205Y-66648828D01*
X92272353Y-66494680D01*
X92272354Y-66494680D01*
X92272356Y-66494679D01*
X92667422Y-66416095D01*
X93070234Y-66416095D01*
X93465300Y-66494679D01*
X93465300Y-66494679D01*
G37*
G36*
X122882714Y-68505210D02*
X123037586Y-68569360D01*
X123176967Y-68662492D01*
X123295501Y-68781026D01*
X123388633Y-68920407D01*
X123452783Y-69075279D01*
X123485486Y-69239691D01*
X123485486Y-69407323D01*
X123452783Y-69571735D01*
X123388633Y-69726607D01*
X123295501Y-69865988D01*
X123176967Y-69984522D01*
X123037586Y-70077654D01*
X122882714Y-70141804D01*
X122718302Y-70174507D01*
X122550670Y-70174507D01*
X122386258Y-70141804D01*
X122231386Y-70077654D01*
X122092005Y-69984522D01*
X121973471Y-69865988D01*
X121880339Y-69726607D01*
X121816189Y-69571735D01*
X121783486Y-69407323D01*
X121783486Y-69239691D01*
X121816189Y-69075279D01*
X121880339Y-68920407D01*
X121973471Y-68781026D01*
X122092005Y-68662492D01*
X122231386Y-68569360D01*
X122386258Y-68505210D01*
X122550670Y-68472507D01*
X122718302Y-68472507D01*
X122882714Y-68505210D01*
X122882714Y-68505210D01*
G37*
G36*
X136765099Y-67124486D02*
X136953786Y-67181724D01*
X137127685Y-67274674D01*
X137280107Y-67399764D01*
X137405197Y-67552186D01*
X137498147Y-67726084D01*
X137555385Y-67914771D01*
X137569868Y-68061827D01*
X137569868Y-68860178D01*
X137555385Y-69007229D01*
X137555384Y-69007232D01*
X137502895Y-69180267D01*
X137498144Y-69195927D01*
X137405197Y-69369820D01*
X137280107Y-69522242D01*
X137127685Y-69647332D01*
X136953787Y-69740282D01*
X136765100Y-69797520D01*
X136568868Y-69816846D01*
X136372637Y-69797520D01*
X136183950Y-69740282D01*
X136010052Y-69647332D01*
X135960290Y-69606493D01*
X135939916Y-69592879D01*
X135905377Y-69580521D01*
X135720427Y-69543732D01*
X135515508Y-69458852D01*
X135331083Y-69335623D01*
X135174248Y-69178788D01*
X135051019Y-68994363D01*
X134966139Y-68789444D01*
X134922868Y-68571906D01*
X134922868Y-68350100D01*
X134966139Y-68132562D01*
X135051019Y-67927643D01*
X135174248Y-67743218D01*
X135331083Y-67586383D01*
X135515508Y-67463154D01*
X135720426Y-67378274D01*
X135905375Y-67341486D01*
X135928824Y-67334373D01*
X135950435Y-67322822D01*
X135960288Y-67315514D01*
X136010051Y-67274674D01*
X136183949Y-67181724D01*
X136372636Y-67124486D01*
X136568868Y-67105160D01*
X136765099Y-67124486D01*
X136765099Y-67124486D01*
G37*
G36*
X125565099Y-67124486D02*
X125753786Y-67181724D01*
X125927685Y-67274674D01*
X125977448Y-67315514D01*
X125997822Y-67329128D01*
X126020461Y-67338505D01*
X126032361Y-67341486D01*
X126217310Y-67378274D01*
X126422228Y-67463154D01*
X126606653Y-67586383D01*
X126763488Y-67743218D01*
X126886717Y-67927643D01*
X126971597Y-68132562D01*
X127014868Y-68350100D01*
X127014868Y-68571906D01*
X126971597Y-68789444D01*
X126886717Y-68994363D01*
X126763488Y-69178788D01*
X126606653Y-69335623D01*
X126422228Y-69458852D01*
X126217310Y-69543732D01*
X126032361Y-69580520D01*
X126008912Y-69587633D01*
X125987301Y-69599184D01*
X125977448Y-69606492D01*
X125927685Y-69647332D01*
X125753787Y-69740282D01*
X125565100Y-69797520D01*
X125368868Y-69816846D01*
X125172637Y-69797520D01*
X124983950Y-69740282D01*
X124810052Y-69647332D01*
X124657630Y-69522242D01*
X124532540Y-69369820D01*
X124439590Y-69195922D01*
X124382351Y-69007235D01*
X124367868Y-68860179D01*
X124367868Y-68061828D01*
X124382351Y-67914772D01*
X124439589Y-67726085D01*
X124532539Y-67552186D01*
X124657629Y-67399764D01*
X124810051Y-67274674D01*
X124983949Y-67181724D01*
X125172636Y-67124486D01*
X125368868Y-67105160D01*
X125565099Y-67124486D01*
X125565099Y-67124486D01*
G37*
G36*
X101451446Y-67909897D02*
X101606318Y-67974047D01*
X101745699Y-68067179D01*
X101864233Y-68185713D01*
X101957365Y-68325094D01*
X102021515Y-68479966D01*
X102054218Y-68644378D01*
X102054218Y-68812010D01*
X102021515Y-68976422D01*
X101957365Y-69131294D01*
X101864233Y-69270675D01*
X101745699Y-69389209D01*
X101606318Y-69482341D01*
X101451446Y-69546491D01*
X101287034Y-69579194D01*
X101119402Y-69579194D01*
X100954990Y-69546491D01*
X100800118Y-69482341D01*
X100660737Y-69389209D01*
X100542203Y-69270675D01*
X100449071Y-69131294D01*
X100384921Y-68976422D01*
X100352218Y-68812010D01*
X100352218Y-68644378D01*
X100384921Y-68479966D01*
X100449071Y-68325094D01*
X100542203Y-68185713D01*
X100660737Y-68067179D01*
X100800118Y-67974047D01*
X100954990Y-67909897D01*
X101119402Y-67877194D01*
X101287034Y-67877194D01*
X101451446Y-67909897D01*
X101451446Y-67909897D01*
G37*
G36*
X85377995Y-67909897D02*
X85532867Y-67974047D01*
X85672248Y-68067179D01*
X85790782Y-68185713D01*
X85883914Y-68325094D01*
X85948064Y-68479966D01*
X85980767Y-68644378D01*
X85980767Y-68812010D01*
X85948064Y-68976422D01*
X85883914Y-69131294D01*
X85790782Y-69270675D01*
X85672248Y-69389209D01*
X85532867Y-69482341D01*
X85377995Y-69546491D01*
X85213583Y-69579194D01*
X85045951Y-69579194D01*
X84881539Y-69546491D01*
X84726667Y-69482341D01*
X84587286Y-69389209D01*
X84468752Y-69270675D01*
X84375620Y-69131294D01*
X84311470Y-68976422D01*
X84278767Y-68812010D01*
X84278767Y-68644378D01*
X84311470Y-68479966D01*
X84375620Y-68325094D01*
X84468752Y-68185713D01*
X84587286Y-68067179D01*
X84726667Y-67974047D01*
X84881539Y-67909897D01*
X85045951Y-67877194D01*
X85213583Y-67877194D01*
X85377995Y-67909897D01*
X85377995Y-67909897D01*
G37*
G36*
X119719751Y-67591215D02*
X119809327Y-67609033D01*
X119978085Y-67678935D01*
X120072058Y-67741726D01*
X120129966Y-67780419D01*
X120259123Y-67909576D01*
X120259125Y-67909579D01*
X120360607Y-68061457D01*
X120430509Y-68230215D01*
X120448326Y-68319791D01*
X120458273Y-68369793D01*
X120466144Y-68409367D01*
X120466144Y-68592029D01*
X120430509Y-68771181D01*
X120360607Y-68939939D01*
X120360606Y-68939940D01*
X120259123Y-69091820D01*
X120129966Y-69220977D01*
X120129963Y-69220979D01*
X119978085Y-69322461D01*
X119809327Y-69392363D01*
X119734117Y-69407323D01*
X119630177Y-69427998D01*
X119447511Y-69427998D01*
X119343571Y-69407323D01*
X119268361Y-69392363D01*
X119099603Y-69322461D01*
X118947725Y-69220979D01*
X118947722Y-69220977D01*
X118818565Y-69091820D01*
X118717082Y-68939940D01*
X118717081Y-68939939D01*
X118647179Y-68771181D01*
X118611544Y-68592029D01*
X118611544Y-68409367D01*
X118619416Y-68369793D01*
X118629362Y-68319791D01*
X118647179Y-68230215D01*
X118717081Y-68061457D01*
X118818563Y-67909579D01*
X118818565Y-67909576D01*
X118947722Y-67780419D01*
X119005630Y-67741726D01*
X119099603Y-67678935D01*
X119268361Y-67609033D01*
X119357937Y-67591215D01*
X119447511Y-67573398D01*
X119630177Y-67573398D01*
X119719751Y-67591215D01*
X119719751Y-67591215D01*
G37*
G36*
X104479751Y-67591215D02*
X104569327Y-67609033D01*
X104738085Y-67678935D01*
X104832058Y-67741726D01*
X104889966Y-67780419D01*
X105019123Y-67909576D01*
X105019125Y-67909579D01*
X105120607Y-68061457D01*
X105190509Y-68230215D01*
X105208326Y-68319791D01*
X105218273Y-68369793D01*
X105226144Y-68409367D01*
X105226144Y-68592029D01*
X105190509Y-68771181D01*
X105120607Y-68939939D01*
X105120606Y-68939940D01*
X105019123Y-69091820D01*
X104889966Y-69220977D01*
X104889963Y-69220979D01*
X104738085Y-69322461D01*
X104569327Y-69392363D01*
X104494117Y-69407323D01*
X104390177Y-69427998D01*
X104207511Y-69427998D01*
X104103571Y-69407323D01*
X104028361Y-69392363D01*
X103859603Y-69322461D01*
X103707725Y-69220979D01*
X103707722Y-69220977D01*
X103578565Y-69091820D01*
X103477082Y-68939940D01*
X103477081Y-68939939D01*
X103407179Y-68771181D01*
X103371544Y-68592029D01*
X103371544Y-68409367D01*
X103379416Y-68369793D01*
X103389362Y-68319791D01*
X103407179Y-68230215D01*
X103477081Y-68061457D01*
X103578563Y-67909579D01*
X103578565Y-67909576D01*
X103707722Y-67780419D01*
X103765630Y-67741726D01*
X103859603Y-67678935D01*
X104028361Y-67609033D01*
X104117937Y-67591215D01*
X104207511Y-67573398D01*
X104390177Y-67573398D01*
X104479751Y-67591215D01*
X104479751Y-67591215D01*
G37*
G36*
X98218932Y-67570580D02*
X98387454Y-67640384D01*
X98539119Y-67741723D01*
X98668100Y-67870704D01*
X98769439Y-68022369D01*
X98839243Y-68190891D01*
X98874828Y-68369792D01*
X98874828Y-68552198D01*
X98839243Y-68731099D01*
X98769439Y-68899621D01*
X98668100Y-69051286D01*
X98539119Y-69180267D01*
X98387454Y-69281606D01*
X98218932Y-69351410D01*
X98040031Y-69386995D01*
X97857625Y-69386995D01*
X97678724Y-69351410D01*
X97510202Y-69281606D01*
X97358537Y-69180267D01*
X97229556Y-69051286D01*
X97128217Y-68899621D01*
X97058413Y-68731099D01*
X97022828Y-68552198D01*
X97022828Y-68369792D01*
X97058413Y-68190891D01*
X97128217Y-68022369D01*
X97229556Y-67870704D01*
X97358537Y-67741723D01*
X97510202Y-67640384D01*
X97678724Y-67570580D01*
X97857625Y-67534995D01*
X98040031Y-67534995D01*
X98218932Y-67570580D01*
X98218932Y-67570580D01*
G37*
G36*
X107108948Y-67570580D02*
X107277470Y-67640384D01*
X107429135Y-67741723D01*
X107558116Y-67870704D01*
X107659455Y-68022369D01*
X107729259Y-68190891D01*
X107764844Y-68369792D01*
X107764844Y-68552198D01*
X107729259Y-68731099D01*
X107659455Y-68899621D01*
X107558116Y-69051286D01*
X107429135Y-69180267D01*
X107277470Y-69281606D01*
X107108948Y-69351410D01*
X106930047Y-69386995D01*
X106747641Y-69386995D01*
X106568740Y-69351410D01*
X106400218Y-69281606D01*
X106248553Y-69180267D01*
X106119572Y-69051286D01*
X106018233Y-68899621D01*
X105948429Y-68731099D01*
X105912844Y-68552198D01*
X105912844Y-68369792D01*
X105948429Y-68190891D01*
X106018233Y-68022369D01*
X106119572Y-67870704D01*
X106248553Y-67741723D01*
X106400218Y-67640384D01*
X106568740Y-67570580D01*
X106747641Y-67534995D01*
X106930047Y-67534995D01*
X107108948Y-67570580D01*
X107108948Y-67570580D01*
G37*
G36*
X117268948Y-67570580D02*
X117437470Y-67640384D01*
X117589135Y-67741723D01*
X117718116Y-67870704D01*
X117819455Y-68022369D01*
X117889259Y-68190891D01*
X117924844Y-68369792D01*
X117924844Y-68552198D01*
X117889259Y-68731099D01*
X117819455Y-68899621D01*
X117718116Y-69051286D01*
X117589135Y-69180267D01*
X117437470Y-69281606D01*
X117268948Y-69351410D01*
X117090047Y-69386995D01*
X116907641Y-69386995D01*
X116728740Y-69351410D01*
X116560218Y-69281606D01*
X116408553Y-69180267D01*
X116279572Y-69051286D01*
X116178233Y-68899621D01*
X116108429Y-68731099D01*
X116072844Y-68552198D01*
X116072844Y-68369792D01*
X116108429Y-68190891D01*
X116178233Y-68022369D01*
X116279572Y-67870704D01*
X116408553Y-67741723D01*
X116560218Y-67640384D01*
X116728740Y-67570580D01*
X116907641Y-67534995D01*
X117090047Y-67534995D01*
X117268948Y-67570580D01*
X117268948Y-67570580D01*
G37*
G36*
X88058932Y-67570580D02*
X88227454Y-67640384D01*
X88379119Y-67741723D01*
X88508100Y-67870704D01*
X88609439Y-68022369D01*
X88679243Y-68190891D01*
X88714828Y-68369792D01*
X88714828Y-68552198D01*
X88679243Y-68731099D01*
X88609439Y-68899621D01*
X88508100Y-69051286D01*
X88379119Y-69180267D01*
X88227454Y-69281606D01*
X88058932Y-69351410D01*
X87880031Y-69386995D01*
X87697625Y-69386995D01*
X87518724Y-69351410D01*
X87350202Y-69281606D01*
X87198537Y-69180267D01*
X87069556Y-69051286D01*
X86968217Y-68899621D01*
X86898413Y-68731099D01*
X86862828Y-68552198D01*
X86862828Y-68369792D01*
X86898413Y-68190891D01*
X86968217Y-68022369D01*
X87069556Y-67870704D01*
X87198537Y-67741723D01*
X87350202Y-67640384D01*
X87518724Y-67570580D01*
X87697625Y-67534995D01*
X87880031Y-67534995D01*
X88058932Y-67570580D01*
X88058932Y-67570580D01*
G37*
G36*
X127388294Y-64767599D02*
X127501895Y-64790196D01*
X127715913Y-64878845D01*
X127907226Y-65006677D01*
X127908527Y-65007546D01*
X128072325Y-65171344D01*
X128072327Y-65171347D01*
X128201026Y-65363958D01*
X128289672Y-65577969D01*
X128289675Y-65577977D01*
X128334867Y-65805169D01*
X128334868Y-65805177D01*
X128334868Y-66036829D01*
X128289675Y-66264030D01*
X128201026Y-66478048D01*
X128189908Y-66494687D01*
X128072325Y-66670662D01*
X127908527Y-66834460D01*
X127908524Y-66834462D01*
X127715913Y-66963161D01*
X127501895Y-67051810D01*
X127388295Y-67074406D01*
X127274695Y-67097003D01*
X127043041Y-67097003D01*
X126929441Y-67074406D01*
X126815841Y-67051810D01*
X126601823Y-66963161D01*
X126409212Y-66834462D01*
X126409209Y-66834460D01*
X126245411Y-66670662D01*
X126127828Y-66494687D01*
X126116710Y-66478048D01*
X126028061Y-66264030D01*
X125982868Y-66036829D01*
X125982868Y-65805177D01*
X125982870Y-65805169D01*
X126028061Y-65577977D01*
X126028064Y-65577969D01*
X126116710Y-65363958D01*
X126245409Y-65171347D01*
X126245411Y-65171344D01*
X126409209Y-65007546D01*
X126410510Y-65006677D01*
X126601823Y-64878845D01*
X126815841Y-64790196D01*
X126929442Y-64767599D01*
X127043041Y-64745003D01*
X127274695Y-64745003D01*
X127388294Y-64767599D01*
X127388294Y-64767599D01*
G37*
G36*
X108338271Y-64767592D02*
X108451871Y-64790188D01*
X108665889Y-64878837D01*
X108857202Y-65006669D01*
X108858503Y-65007538D01*
X109022301Y-65171336D01*
X109022303Y-65171339D01*
X109151002Y-65363950D01*
X109239651Y-65577968D01*
X109239653Y-65577977D01*
X109284844Y-65805168D01*
X109284844Y-66036822D01*
X109284842Y-66036830D01*
X109239651Y-66264022D01*
X109151002Y-66478040D01*
X109036885Y-66648828D01*
X109022301Y-66670654D01*
X108858503Y-66834452D01*
X108858500Y-66834454D01*
X108665889Y-66963153D01*
X108451871Y-67051802D01*
X108338270Y-67074399D01*
X108224671Y-67096995D01*
X107993017Y-67096995D01*
X107879418Y-67074399D01*
X107765817Y-67051802D01*
X107551799Y-66963153D01*
X107359188Y-66834454D01*
X107359185Y-66834452D01*
X107195387Y-66670654D01*
X107180803Y-66648828D01*
X107066686Y-66478040D01*
X106978037Y-66264022D01*
X106932846Y-66036830D01*
X106932844Y-66036822D01*
X106932844Y-65805168D01*
X106978035Y-65577977D01*
X106978037Y-65577968D01*
X107066686Y-65363950D01*
X107195385Y-65171339D01*
X107195387Y-65171336D01*
X107359185Y-65007538D01*
X107360486Y-65006669D01*
X107551799Y-64878837D01*
X107765817Y-64790188D01*
X107879417Y-64767592D01*
X107993017Y-64744995D01*
X108224671Y-64744995D01*
X108338271Y-64767592D01*
X108338271Y-64767592D01*
G37*
G36*
X89288255Y-64767592D02*
X89401855Y-64790188D01*
X89615873Y-64878837D01*
X89807186Y-65006669D01*
X89808487Y-65007538D01*
X89972285Y-65171336D01*
X89972287Y-65171339D01*
X90100986Y-65363950D01*
X90189635Y-65577968D01*
X90189637Y-65577977D01*
X90234828Y-65805168D01*
X90234828Y-66036822D01*
X90234826Y-66036830D01*
X90189635Y-66264022D01*
X90100986Y-66478040D01*
X89986869Y-66648828D01*
X89972285Y-66670654D01*
X89808487Y-66834452D01*
X89808484Y-66834454D01*
X89615873Y-66963153D01*
X89401855Y-67051802D01*
X89288254Y-67074399D01*
X89174655Y-67096995D01*
X88943001Y-67096995D01*
X88829402Y-67074399D01*
X88715801Y-67051802D01*
X88501783Y-66963153D01*
X88309172Y-66834454D01*
X88309169Y-66834452D01*
X88145371Y-66670654D01*
X88130787Y-66648828D01*
X88016670Y-66478040D01*
X87928021Y-66264022D01*
X87882830Y-66036830D01*
X87882828Y-66036822D01*
X87882828Y-65805168D01*
X87928019Y-65577977D01*
X87928021Y-65577968D01*
X88016670Y-65363950D01*
X88145369Y-65171339D01*
X88145371Y-65171336D01*
X88309169Y-65007538D01*
X88310470Y-65006669D01*
X88501783Y-64878837D01*
X88715801Y-64790188D01*
X88829401Y-64767592D01*
X88943001Y-64744995D01*
X89174655Y-64744995D01*
X89288255Y-64767592D01*
X89288255Y-64767592D01*
G37*
G36*
X104479751Y-65051215D02*
X104569327Y-65069033D01*
X104738085Y-65138935D01*
X104887915Y-65239048D01*
X104889966Y-65240419D01*
X105019123Y-65369576D01*
X105019125Y-65369579D01*
X105120607Y-65521457D01*
X105190509Y-65690215D01*
X105190509Y-65690217D01*
X105213375Y-65805169D01*
X105226144Y-65869367D01*
X105226144Y-66052029D01*
X105190509Y-66231181D01*
X105120607Y-66399939D01*
X105020494Y-66549769D01*
X105019123Y-66551820D01*
X104889966Y-66680977D01*
X104889963Y-66680979D01*
X104738085Y-66782461D01*
X104569327Y-66852363D01*
X104479751Y-66870180D01*
X104390177Y-66887998D01*
X104207511Y-66887998D01*
X104117937Y-66870180D01*
X104028361Y-66852363D01*
X103859603Y-66782461D01*
X103707725Y-66680979D01*
X103707722Y-66680977D01*
X103578565Y-66551820D01*
X103577194Y-66549769D01*
X103477081Y-66399939D01*
X103407179Y-66231181D01*
X103371544Y-66052029D01*
X103371544Y-65869367D01*
X103384314Y-65805169D01*
X103407179Y-65690217D01*
X103407179Y-65690215D01*
X103477081Y-65521457D01*
X103578563Y-65369579D01*
X103578565Y-65369576D01*
X103707722Y-65240419D01*
X103709773Y-65239048D01*
X103859603Y-65138935D01*
X104028361Y-65069033D01*
X104117937Y-65051215D01*
X104207511Y-65033398D01*
X104390177Y-65033398D01*
X104479751Y-65051215D01*
X104479751Y-65051215D01*
G37*
G36*
X119719751Y-65051215D02*
X119809327Y-65069033D01*
X119978085Y-65138935D01*
X120127915Y-65239048D01*
X120129966Y-65240419D01*
X120259123Y-65369576D01*
X120259125Y-65369579D01*
X120360607Y-65521457D01*
X120430509Y-65690215D01*
X120430509Y-65690217D01*
X120453375Y-65805169D01*
X120466144Y-65869367D01*
X120466144Y-66052029D01*
X120430509Y-66231181D01*
X120360607Y-66399939D01*
X120260494Y-66549769D01*
X120259123Y-66551820D01*
X120129966Y-66680977D01*
X120129963Y-66680979D01*
X119978085Y-66782461D01*
X119809327Y-66852363D01*
X119719751Y-66870180D01*
X119630177Y-66887998D01*
X119447511Y-66887998D01*
X119357937Y-66870180D01*
X119268361Y-66852363D01*
X119099603Y-66782461D01*
X118947725Y-66680979D01*
X118947722Y-66680977D01*
X118818565Y-66551820D01*
X118817194Y-66549769D01*
X118717081Y-66399939D01*
X118647179Y-66231181D01*
X118611544Y-66052029D01*
X118611544Y-65869367D01*
X118624314Y-65805169D01*
X118647179Y-65690217D01*
X118647179Y-65690215D01*
X118717081Y-65521457D01*
X118818563Y-65369579D01*
X118818565Y-65369576D01*
X118947722Y-65240419D01*
X118949773Y-65239048D01*
X119099603Y-65138935D01*
X119268361Y-65069033D01*
X119357937Y-65051215D01*
X119447511Y-65033398D01*
X119630177Y-65033398D01*
X119719751Y-65051215D01*
X119719751Y-65051215D01*
G37*
G36*
X91912897Y-62806636D02*
X92104166Y-62885862D01*
X92276308Y-63000884D01*
X92422695Y-63147271D01*
X92537717Y-63319413D01*
X92616943Y-63510682D01*
X92657332Y-63713731D01*
X92657332Y-63920763D01*
X92616943Y-64123812D01*
X92537717Y-64315081D01*
X92422695Y-64487223D01*
X92276308Y-64633610D01*
X92104166Y-64748632D01*
X91912897Y-64827858D01*
X91709848Y-64868247D01*
X91502816Y-64868247D01*
X91299767Y-64827858D01*
X91108498Y-64748632D01*
X90936356Y-64633610D01*
X90789969Y-64487223D01*
X90674947Y-64315081D01*
X90595721Y-64123812D01*
X90555332Y-63920763D01*
X90555332Y-63713731D01*
X90595721Y-63510682D01*
X90674947Y-63319413D01*
X90789969Y-63147271D01*
X90936356Y-63000884D01*
X91108498Y-62885862D01*
X91299767Y-62806636D01*
X91502816Y-62766247D01*
X91709848Y-62766247D01*
X91912897Y-62806636D01*
X91912897Y-62806636D01*
G37*
G36*
X84912897Y-62806636D02*
X85104166Y-62885862D01*
X85276308Y-63000884D01*
X85422695Y-63147271D01*
X85537717Y-63319413D01*
X85616943Y-63510682D01*
X85657332Y-63713731D01*
X85657332Y-63920763D01*
X85616943Y-64123812D01*
X85537717Y-64315081D01*
X85422695Y-64487223D01*
X85276308Y-64633610D01*
X85104166Y-64748632D01*
X84912897Y-64827858D01*
X84709848Y-64868247D01*
X84502816Y-64868247D01*
X84299767Y-64827858D01*
X84108498Y-64748632D01*
X83936356Y-64633610D01*
X83789969Y-64487223D01*
X83674947Y-64315081D01*
X83595721Y-64123812D01*
X83555332Y-63920763D01*
X83555332Y-63713731D01*
X83595721Y-63510682D01*
X83674947Y-63319413D01*
X83789969Y-63147271D01*
X83936356Y-63000884D01*
X84108498Y-62885862D01*
X84299767Y-62806636D01*
X84502816Y-62766247D01*
X84709848Y-62766247D01*
X84912897Y-62806636D01*
X84912897Y-62806636D01*
G37*
G36*
X133775433Y-60450392D02*
X133966702Y-60529618D01*
X134138844Y-60644640D01*
X134285231Y-60791027D01*
X134400253Y-60963169D01*
X134479479Y-61154438D01*
X134519868Y-61357487D01*
X134519868Y-61564519D01*
X134479479Y-61767568D01*
X134400253Y-61958837D01*
X134285231Y-62130979D01*
X134180479Y-62235731D01*
X134164933Y-62254673D01*
X134153382Y-62276284D01*
X134146269Y-62299733D01*
X134143867Y-62324119D01*
X134146269Y-62348505D01*
X134153382Y-62371954D01*
X134164933Y-62393565D01*
X134180479Y-62412507D01*
X134199418Y-62428050D01*
X134247376Y-62460095D01*
X134258527Y-62467546D01*
X134422325Y-62631344D01*
X134422327Y-62631347D01*
X134551026Y-62823958D01*
X134639672Y-63037969D01*
X134639675Y-63037977D01*
X134684868Y-63265176D01*
X134684868Y-63496830D01*
X134681845Y-63512029D01*
X134639675Y-63724030D01*
X134551026Y-63938048D01*
X134501735Y-64011817D01*
X134422325Y-64130662D01*
X134258527Y-64294460D01*
X134258524Y-64294462D01*
X134065913Y-64423161D01*
X133851895Y-64511810D01*
X133738294Y-64534407D01*
X133624695Y-64557003D01*
X133393041Y-64557003D01*
X133279442Y-64534407D01*
X133165841Y-64511810D01*
X132951823Y-64423161D01*
X132759212Y-64294462D01*
X132759209Y-64294460D01*
X132595411Y-64130662D01*
X132516001Y-64011817D01*
X132466710Y-63938048D01*
X132378061Y-63724030D01*
X132335891Y-63512029D01*
X132332868Y-63496830D01*
X132332868Y-63265176D01*
X132378061Y-63037977D01*
X132378064Y-63037969D01*
X132466710Y-62823958D01*
X132595409Y-62631347D01*
X132595411Y-62631344D01*
X132759211Y-62467544D01*
X132770359Y-62460095D01*
X132789301Y-62444549D01*
X132804846Y-62425607D01*
X132816397Y-62403996D01*
X132823510Y-62380547D01*
X132825912Y-62356161D01*
X132823510Y-62331774D01*
X132816396Y-62308325D01*
X132804845Y-62286715D01*
X132789300Y-62267774D01*
X132652505Y-62130979D01*
X132537483Y-61958837D01*
X132458257Y-61767568D01*
X132417868Y-61564519D01*
X132417868Y-61357487D01*
X132458257Y-61154438D01*
X132537483Y-60963169D01*
X132652505Y-60791027D01*
X132798892Y-60644640D01*
X132971034Y-60529618D01*
X133162303Y-60450392D01*
X133365352Y-60410003D01*
X133572384Y-60410003D01*
X133775433Y-60450392D01*
X133775433Y-60450392D01*
G37*
G36*
X95638255Y-62227592D02*
X95751855Y-62250188D01*
X95965873Y-62338837D01*
X96147348Y-62460095D01*
X96158487Y-62467538D01*
X96322285Y-62631336D01*
X96322287Y-62631339D01*
X96450986Y-62823950D01*
X96539635Y-63037968D01*
X96539637Y-63037977D01*
X96584828Y-63265168D01*
X96584828Y-63496822D01*
X96584826Y-63496830D01*
X96539635Y-63724022D01*
X96450986Y-63938040D01*
X96326857Y-64123812D01*
X96322285Y-64130654D01*
X96158487Y-64294452D01*
X96158484Y-64294454D01*
X95965873Y-64423153D01*
X95751855Y-64511802D01*
X95638255Y-64534398D01*
X95524655Y-64556995D01*
X95293001Y-64556995D01*
X95179401Y-64534398D01*
X95065801Y-64511802D01*
X94851783Y-64423153D01*
X94659172Y-64294454D01*
X94659169Y-64294452D01*
X94495371Y-64130654D01*
X94490799Y-64123812D01*
X94366670Y-63938040D01*
X94278021Y-63724022D01*
X94232830Y-63496830D01*
X94232828Y-63496822D01*
X94232828Y-63265168D01*
X94278019Y-63037977D01*
X94278021Y-63037968D01*
X94366670Y-62823950D01*
X94495369Y-62631339D01*
X94495371Y-62631336D01*
X94659169Y-62467538D01*
X94670308Y-62460095D01*
X94851783Y-62338837D01*
X95065801Y-62250188D01*
X95179401Y-62227592D01*
X95293001Y-62204995D01*
X95524655Y-62204995D01*
X95638255Y-62227592D01*
X95638255Y-62227592D01*
G37*
G36*
X114688271Y-62227592D02*
X114801871Y-62250188D01*
X115015889Y-62338837D01*
X115197364Y-62460095D01*
X115208503Y-62467538D01*
X115372301Y-62631336D01*
X115372303Y-62631339D01*
X115501002Y-62823950D01*
X115589651Y-63037968D01*
X115589653Y-63037977D01*
X115634844Y-63265168D01*
X115634844Y-63496822D01*
X115634842Y-63496830D01*
X115589651Y-63724022D01*
X115501002Y-63938040D01*
X115376873Y-64123812D01*
X115372301Y-64130654D01*
X115208503Y-64294452D01*
X115208500Y-64294454D01*
X115015889Y-64423153D01*
X114801871Y-64511802D01*
X114688271Y-64534398D01*
X114574671Y-64556995D01*
X114343017Y-64556995D01*
X114229417Y-64534398D01*
X114115817Y-64511802D01*
X113901799Y-64423153D01*
X113709188Y-64294454D01*
X113709185Y-64294452D01*
X113545387Y-64130654D01*
X113540815Y-64123812D01*
X113416686Y-63938040D01*
X113328037Y-63724022D01*
X113282846Y-63496830D01*
X113282844Y-63496822D01*
X113282844Y-63265168D01*
X113328035Y-63037977D01*
X113328037Y-63037968D01*
X113416686Y-62823950D01*
X113545385Y-62631339D01*
X113545387Y-62631336D01*
X113709185Y-62467538D01*
X113720324Y-62460095D01*
X113901799Y-62338837D01*
X114115817Y-62250188D01*
X114229417Y-62227592D01*
X114343017Y-62204995D01*
X114574671Y-62204995D01*
X114688271Y-62227592D01*
X114688271Y-62227592D01*
G37*
G36*
X105226144Y-64347998D02*
X103371544Y-64347998D01*
X103371544Y-62493398D01*
X105226144Y-62493398D01*
X105226144Y-64347998D01*
X105226144Y-64347998D01*
G37*
G36*
X119719751Y-62511216D02*
X119809327Y-62529033D01*
X119978085Y-62598935D01*
X120127915Y-62699048D01*
X120129966Y-62700419D01*
X120259123Y-62829576D01*
X120259125Y-62829579D01*
X120360607Y-62981457D01*
X120430509Y-63150215D01*
X120430509Y-63150217D01*
X120453375Y-63265169D01*
X120466144Y-63329367D01*
X120466144Y-63512029D01*
X120430509Y-63691181D01*
X120360607Y-63859939D01*
X120308422Y-63938039D01*
X120259123Y-64011820D01*
X120129966Y-64140977D01*
X120129963Y-64140979D01*
X119978085Y-64242461D01*
X119809327Y-64312363D01*
X119719751Y-64330180D01*
X119630177Y-64347998D01*
X119447511Y-64347998D01*
X119357937Y-64330180D01*
X119268361Y-64312363D01*
X119099603Y-64242461D01*
X118947725Y-64140979D01*
X118947722Y-64140977D01*
X118818565Y-64011820D01*
X118769266Y-63938039D01*
X118717081Y-63859939D01*
X118647179Y-63691181D01*
X118611544Y-63512029D01*
X118611544Y-63329367D01*
X118624314Y-63265169D01*
X118647179Y-63150217D01*
X118647179Y-63150215D01*
X118717081Y-62981457D01*
X118818563Y-62829579D01*
X118818565Y-62829576D01*
X118947722Y-62700419D01*
X118949773Y-62699048D01*
X119099603Y-62598935D01*
X119268361Y-62529033D01*
X119357937Y-62511216D01*
X119447511Y-62493398D01*
X119630177Y-62493398D01*
X119719751Y-62511216D01*
X119719751Y-62511216D01*
G37*
G36*
X128775433Y-60450392D02*
X128966702Y-60529618D01*
X129138844Y-60644640D01*
X129285231Y-60791027D01*
X129400253Y-60963169D01*
X129479479Y-61154438D01*
X129519868Y-61357487D01*
X129519868Y-61564519D01*
X129479479Y-61767568D01*
X129400253Y-61958837D01*
X129285231Y-62130979D01*
X129138844Y-62277366D01*
X128966702Y-62392388D01*
X128775433Y-62471614D01*
X128572384Y-62512003D01*
X128365352Y-62512003D01*
X128162303Y-62471614D01*
X127971034Y-62392388D01*
X127798892Y-62277366D01*
X127652505Y-62130979D01*
X127537483Y-61958837D01*
X127458257Y-61767568D01*
X127417868Y-61564519D01*
X127417868Y-61357487D01*
X127458257Y-61154438D01*
X127537483Y-60963169D01*
X127652505Y-60791027D01*
X127798892Y-60644640D01*
X127971034Y-60529618D01*
X128162303Y-60450392D01*
X128365352Y-60410003D01*
X128572384Y-60410003D01*
X128775433Y-60450392D01*
X128775433Y-60450392D01*
G37*
G36*
X86119144Y-60450871D02*
X86283116Y-60518791D01*
X86430686Y-60617394D01*
X86556185Y-60742893D01*
X86654788Y-60890463D01*
X86722708Y-61054435D01*
X86757332Y-61228506D01*
X86757332Y-61405988D01*
X86722708Y-61580059D01*
X86654788Y-61744031D01*
X86556185Y-61891601D01*
X86430686Y-62017100D01*
X86283116Y-62115703D01*
X86119144Y-62183623D01*
X85945073Y-62218247D01*
X85767591Y-62218247D01*
X85593520Y-62183623D01*
X85429548Y-62115703D01*
X85281978Y-62017100D01*
X85156479Y-61891601D01*
X85057876Y-61744031D01*
X84989956Y-61580059D01*
X84955332Y-61405988D01*
X84955332Y-61228506D01*
X84989956Y-61054435D01*
X85057876Y-60890463D01*
X85156479Y-60742893D01*
X85281978Y-60617394D01*
X85429548Y-60518791D01*
X85593520Y-60450871D01*
X85767591Y-60416247D01*
X85945073Y-60416247D01*
X86119144Y-60450871D01*
X86119144Y-60450871D01*
G37*
G36*
X90619144Y-60450871D02*
X90783116Y-60518791D01*
X90930686Y-60617394D01*
X91056185Y-60742893D01*
X91154788Y-60890463D01*
X91222708Y-61054435D01*
X91257332Y-61228506D01*
X91257332Y-61405988D01*
X91222708Y-61580059D01*
X91154788Y-61744031D01*
X91056185Y-61891601D01*
X90930686Y-62017100D01*
X90783116Y-62115703D01*
X90619144Y-62183623D01*
X90445073Y-62218247D01*
X90267591Y-62218247D01*
X90093520Y-62183623D01*
X89929548Y-62115703D01*
X89781978Y-62017100D01*
X89656479Y-61891601D01*
X89557876Y-61744031D01*
X89489956Y-61580059D01*
X89455332Y-61405988D01*
X89455332Y-61228506D01*
X89489956Y-61054435D01*
X89557876Y-60890463D01*
X89656479Y-60742893D01*
X89781978Y-60617394D01*
X89929548Y-60518791D01*
X90093520Y-60450871D01*
X90267591Y-60416247D01*
X90445073Y-60416247D01*
X90619144Y-60450871D01*
X90619144Y-60450871D01*
G37*
G36*
X81893623Y-59019853D02*
X82103091Y-59106617D01*
X82291612Y-59232583D01*
X82451927Y-59392898D01*
X82577893Y-59581419D01*
X82664657Y-59790887D01*
X82708889Y-60013256D01*
X82708889Y-60239986D01*
X82664657Y-60462355D01*
X82577893Y-60671823D01*
X82451927Y-60860344D01*
X82291612Y-61020659D01*
X82103091Y-61146625D01*
X81893623Y-61233389D01*
X81671254Y-61277621D01*
X81444524Y-61277621D01*
X81222155Y-61233389D01*
X81012687Y-61146625D01*
X80824166Y-61020659D01*
X80663851Y-60860344D01*
X80537885Y-60671823D01*
X80451121Y-60462355D01*
X80406889Y-60239986D01*
X80406889Y-60013256D01*
X80451121Y-59790887D01*
X80537885Y-59581419D01*
X80663851Y-59392898D01*
X80824166Y-59232583D01*
X81012687Y-59106617D01*
X81222155Y-59019853D01*
X81444524Y-58975621D01*
X81671254Y-58975621D01*
X81893623Y-59019853D01*
X81893623Y-59019853D01*
G37*
G36*
X142615549Y-59019853D02*
X142825017Y-59106617D01*
X143013538Y-59232583D01*
X143173853Y-59392898D01*
X143299819Y-59581419D01*
X143386583Y-59790887D01*
X143430815Y-60013256D01*
X143430815Y-60239986D01*
X143386583Y-60462355D01*
X143299819Y-60671823D01*
X143173853Y-60860344D01*
X143013538Y-61020659D01*
X142825017Y-61146625D01*
X142615549Y-61233389D01*
X142393180Y-61277621D01*
X142166450Y-61277621D01*
X141944081Y-61233389D01*
X141734613Y-61146625D01*
X141546092Y-61020659D01*
X141385777Y-60860344D01*
X141259811Y-60671823D01*
X141173047Y-60462355D01*
X141128815Y-60239986D01*
X141128815Y-60013256D01*
X141173047Y-59790887D01*
X141259811Y-59581419D01*
X141385777Y-59392898D01*
X141546092Y-59232583D01*
X141734613Y-59106617D01*
X141944081Y-59019853D01*
X142166450Y-58975621D01*
X142393180Y-58975621D01*
X142615549Y-59019853D01*
X142615549Y-59019853D01*
G37*
G36*
X81893623Y-53066723D02*
X82103091Y-53153487D01*
X82291612Y-53279453D01*
X82451927Y-53439768D01*
X82577893Y-53628289D01*
X82664657Y-53837757D01*
X82708889Y-54060126D01*
X82708889Y-54286856D01*
X82664657Y-54509225D01*
X82577893Y-54718693D01*
X82451927Y-54907214D01*
X82291612Y-55067529D01*
X82103091Y-55193495D01*
X81893623Y-55280259D01*
X81671254Y-55324491D01*
X81444524Y-55324491D01*
X81222155Y-55280259D01*
X81012687Y-55193495D01*
X80824166Y-55067529D01*
X80663851Y-54907214D01*
X80537885Y-54718693D01*
X80451121Y-54509225D01*
X80406889Y-54286856D01*
X80406889Y-54060126D01*
X80451121Y-53837757D01*
X80537885Y-53628289D01*
X80663851Y-53439768D01*
X80824166Y-53279453D01*
X81012687Y-53153487D01*
X81222155Y-53066723D01*
X81444524Y-53022491D01*
X81671254Y-53022491D01*
X81893623Y-53066723D01*
X81893623Y-53066723D01*
G37*
G36*
X142615549Y-53066723D02*
X142825017Y-53153487D01*
X143013538Y-53279453D01*
X143173853Y-53439768D01*
X143299819Y-53628289D01*
X143386583Y-53837757D01*
X143430815Y-54060126D01*
X143430815Y-54286856D01*
X143386583Y-54509225D01*
X143299819Y-54718693D01*
X143173853Y-54907214D01*
X143013538Y-55067529D01*
X142825017Y-55193495D01*
X142615549Y-55280259D01*
X142393180Y-55324491D01*
X142166450Y-55324491D01*
X141944081Y-55280259D01*
X141734613Y-55193495D01*
X141546092Y-55067529D01*
X141385777Y-54907214D01*
X141259811Y-54718693D01*
X141173047Y-54509225D01*
X141128815Y-54286856D01*
X141128815Y-54060126D01*
X141173047Y-53837757D01*
X141259811Y-53628289D01*
X141385777Y-53439768D01*
X141546092Y-53279453D01*
X141734613Y-53153487D01*
X141944081Y-53066723D01*
X142166450Y-53022491D01*
X142393180Y-53022491D01*
X142615549Y-53066723D01*
X142615549Y-53066723D01*
G37*
G36*
X81893623Y-17347943D02*
X82103091Y-17434707D01*
X82291612Y-17560673D01*
X82451927Y-17720988D01*
X82577893Y-17909509D01*
X82664657Y-18118977D01*
X82708889Y-18341346D01*
X82708889Y-18568076D01*
X82664657Y-18790445D01*
X82577893Y-18999913D01*
X82451927Y-19188434D01*
X82291612Y-19348749D01*
X82103091Y-19474715D01*
X81893623Y-19561479D01*
X81671254Y-19605711D01*
X81444524Y-19605711D01*
X81222155Y-19561479D01*
X81012687Y-19474715D01*
X80824166Y-19348749D01*
X80663851Y-19188434D01*
X80537885Y-18999913D01*
X80451121Y-18790445D01*
X80406889Y-18568076D01*
X80406889Y-18341346D01*
X80451121Y-18118977D01*
X80537885Y-17909509D01*
X80663851Y-17720988D01*
X80824166Y-17560673D01*
X81012687Y-17434707D01*
X81222155Y-17347943D01*
X81444524Y-17303711D01*
X81671254Y-17303711D01*
X81893623Y-17347943D01*
X81893623Y-17347943D01*
G37*
G36*
X142615549Y-17347943D02*
X142825017Y-17434707D01*
X143013538Y-17560673D01*
X143173853Y-17720988D01*
X143299819Y-17909509D01*
X143386583Y-18118977D01*
X143430815Y-18341346D01*
X143430815Y-18568076D01*
X143386583Y-18790445D01*
X143299819Y-18999913D01*
X143173853Y-19188434D01*
X143013538Y-19348749D01*
X142825017Y-19474715D01*
X142615549Y-19561479D01*
X142393180Y-19605711D01*
X142166450Y-19605711D01*
X141944081Y-19561479D01*
X141734613Y-19474715D01*
X141546092Y-19348749D01*
X141385777Y-19188434D01*
X141259811Y-18999913D01*
X141173047Y-18790445D01*
X141128815Y-18568076D01*
X141128815Y-18341346D01*
X141173047Y-18118977D01*
X141259811Y-17909509D01*
X141385777Y-17720988D01*
X141546092Y-17560673D01*
X141734613Y-17434707D01*
X141944081Y-17347943D01*
X142166450Y-17303711D01*
X142393180Y-17303711D01*
X142615549Y-17347943D01*
X142615549Y-17347943D01*
G37*
M02*
