%TF.GenerationSoftware,KiCad,Pcbnew,(5.0.1)-3*%
%TF.CreationDate,2018-12-08T15:20:53+01:00*%
%TF.ProjectId,SamplrPad,53616D706C725061642E6B696361645F,rev?*%
%TF.SameCoordinates,Original*%
%TF.FileFunction,Legend,Bot*%
%TF.FilePolarity,Positive*%
%FSLAX46Y46*%
G04 Gerber Fmt 4.6, Leading zero omitted, Abs format (unit mm)*
G04 Created by KiCad (PCBNEW (5.0.1)-3) date 8/12/2018 15:20:53*
%MOMM*%
%LPD*%
G01*
G04 APERTURE LIST*
%ADD10C,0.150000*%
%ADD11C,0.381000*%
%ADD12C,0.200000*%
G04 APERTURE END LIST*
D10*
X141089189Y-57745369D02*
X142279815Y-57745369D01*
X141089189Y-56554743D02*
X142279815Y-56554743D01*
X81557889Y-57745369D02*
X82748515Y-57745369D01*
X81557889Y-56554743D02*
X82748515Y-56554743D01*
X138112624Y-56554743D02*
X139303250Y-56554743D01*
X135136059Y-56554743D02*
X136326685Y-56554743D01*
X141089189Y-57745369D02*
G75*
G02X141089189Y-56554743I0J595313D01*
G01*
X139303250Y-56554743D02*
G75*
G02X139303250Y-57745369I0J-595313D01*
G01*
X138112624Y-57745369D02*
X139303250Y-57745369D01*
X138112624Y-57745369D02*
G75*
G02X138112624Y-56554743I0J595313D01*
G01*
X136326685Y-56554743D02*
G75*
G02X136326685Y-57745369I0J-595313D01*
G01*
X132159494Y-56554743D02*
X133350120Y-56554743D01*
X135136059Y-57745369D02*
X136326685Y-57745369D01*
X135136059Y-57745369D02*
G75*
G02X135136059Y-56554743I0J595313D01*
G01*
X133350120Y-56554743D02*
G75*
G02X133350120Y-57745369I0J-595313D01*
G01*
X129182929Y-56554743D02*
X130373555Y-56554743D01*
X132159494Y-57745369D02*
X133350120Y-57745369D01*
X132159494Y-57745369D02*
G75*
G02X132159494Y-56554743I0J595313D01*
G01*
X130373555Y-56554743D02*
G75*
G02X130373555Y-57745369I0J-595313D01*
G01*
X126206364Y-56554743D02*
X127396990Y-56554743D01*
X129182929Y-57745369D02*
X130373555Y-57745369D01*
X129182929Y-57745369D02*
G75*
G02X129182929Y-56554743I0J595313D01*
G01*
X127396990Y-56554743D02*
G75*
G02X127396990Y-57745369I0J-595313D01*
G01*
X123229799Y-56554743D02*
X124420425Y-56554743D01*
X126206364Y-57745369D02*
X127396990Y-57745369D01*
X126206364Y-57745369D02*
G75*
G02X126206364Y-56554743I0J595313D01*
G01*
X124420425Y-56554743D02*
G75*
G02X124420425Y-57745369I0J-595313D01*
G01*
X120253234Y-56554743D02*
X121443860Y-56554743D01*
X123229799Y-57745369D02*
X124420425Y-57745369D01*
X123229799Y-57745369D02*
G75*
G02X123229799Y-56554743I0J595313D01*
G01*
X121443860Y-56554743D02*
G75*
G02X121443860Y-57745369I0J-595313D01*
G01*
X117276669Y-56554743D02*
X118467295Y-56554743D01*
X120253234Y-57745369D02*
X121443860Y-57745369D01*
X120253234Y-57745369D02*
G75*
G02X120253234Y-56554743I0J595313D01*
G01*
X118467295Y-56554743D02*
G75*
G02X118467295Y-57745369I0J-595313D01*
G01*
X114300104Y-56554743D02*
X115490730Y-56554743D01*
X117276669Y-57745369D02*
X118467295Y-57745369D01*
X117276669Y-57745369D02*
G75*
G02X117276669Y-56554743I0J595313D01*
G01*
X115490730Y-56554743D02*
G75*
G02X115490730Y-57745369I0J-595313D01*
G01*
X111323539Y-56554743D02*
X112514165Y-56554743D01*
X114300104Y-57745369D02*
X115490730Y-57745369D01*
X114300104Y-57745369D02*
G75*
G02X114300104Y-56554743I0J595313D01*
G01*
X112514165Y-56554743D02*
G75*
G02X112514165Y-57745369I0J-595313D01*
G01*
X108346974Y-56554743D02*
X109537600Y-56554743D01*
X111323539Y-57745369D02*
X112514165Y-57745369D01*
X111323539Y-57745369D02*
G75*
G02X111323539Y-56554743I0J595313D01*
G01*
X109537600Y-56554743D02*
G75*
G02X109537600Y-57745369I0J-595313D01*
G01*
X105370409Y-56554743D02*
X106561035Y-56554743D01*
X108346974Y-57745369D02*
X109537600Y-57745369D01*
X108346974Y-57745369D02*
G75*
G02X108346974Y-56554743I0J595313D01*
G01*
X106561035Y-56554743D02*
G75*
G02X106561035Y-57745369I0J-595313D01*
G01*
X102393844Y-56554743D02*
X103584470Y-56554743D01*
X105370409Y-57745369D02*
X106561035Y-57745369D01*
X105370409Y-57745369D02*
G75*
G02X105370409Y-56554743I0J595313D01*
G01*
X103584470Y-56554743D02*
G75*
G02X103584470Y-57745369I0J-595313D01*
G01*
X99417279Y-56554743D02*
X100607905Y-56554743D01*
X102393844Y-57745369D02*
X103584470Y-57745369D01*
X102393844Y-57745369D02*
G75*
G02X102393844Y-56554743I0J595313D01*
G01*
X100607905Y-56554743D02*
G75*
G02X100607905Y-57745369I0J-595313D01*
G01*
X96440714Y-56554743D02*
X97631340Y-56554743D01*
X99417279Y-57745369D02*
X100607905Y-57745369D01*
X99417279Y-57745369D02*
G75*
G02X99417279Y-56554743I0J595313D01*
G01*
X97631340Y-56554743D02*
G75*
G02X97631340Y-57745369I0J-595313D01*
G01*
X93464149Y-56554743D02*
X94654775Y-56554743D01*
X96440714Y-57745369D02*
X97631340Y-57745369D01*
X96440714Y-57745369D02*
G75*
G02X96440714Y-56554743I0J595313D01*
G01*
X94654775Y-56554743D02*
G75*
G02X94654775Y-57745369I0J-595313D01*
G01*
X90487584Y-56554743D02*
X91678210Y-56554743D01*
X93464149Y-57745369D02*
X94654775Y-57745369D01*
X93464149Y-57745369D02*
G75*
G02X93464149Y-56554743I0J595313D01*
G01*
X91678210Y-56554743D02*
G75*
G02X91678210Y-57745369I0J-595313D01*
G01*
X87511019Y-56554743D02*
X88701645Y-56554743D01*
X90487584Y-57745369D02*
X91678210Y-57745369D01*
X90487584Y-57745369D02*
G75*
G02X90487584Y-56554743I0J595313D01*
G01*
X88701645Y-56554743D02*
G75*
G02X88701645Y-57745369I0J-595313D01*
G01*
X84534454Y-56554743D02*
X85725080Y-56554743D01*
X87511019Y-57745369D02*
X88701645Y-57745369D01*
X87511019Y-57745369D02*
G75*
G02X87511019Y-56554743I0J595313D01*
G01*
X85725080Y-56554743D02*
G75*
G02X85725080Y-57745369I0J-595313D01*
G01*
X84534454Y-57745369D02*
X85725080Y-57745369D01*
X84534454Y-57745369D02*
G75*
G02X84534454Y-56554743I0J595313D01*
G01*
X82748515Y-56554743D02*
G75*
G02X82748515Y-57745369I0J-595313D01*
G01*
X142279815Y-16073459D02*
G75*
G02X144661067Y-18454711I0J-2381252D01*
G01*
X144661067Y-54173491D02*
G75*
G02X142279815Y-56554743I-2381252J0D01*
G01*
X81557889Y-56554743D02*
G75*
G02X79176637Y-54173491I0J2381252D01*
G01*
X79176637Y-18454711D02*
G75*
G02X81557889Y-16073459I2381252J0D01*
G01*
X144661067Y-18454711D02*
X144661067Y-54173491D01*
X142279815Y-98226653D02*
X81557889Y-98226653D01*
X79176637Y-54173491D02*
X79176637Y-18454711D01*
X79176637Y-60126621D02*
G75*
G02X81557889Y-57745369I2381252J0D01*
G01*
X142279815Y-57745369D02*
G75*
G02X144661067Y-60126621I0J-2381252D01*
G01*
X144661067Y-95845401D02*
G75*
G02X142279815Y-98226653I-2381252J0D01*
G01*
X81557889Y-98226653D02*
G75*
G02X79176637Y-95845401I0J2381252D01*
G01*
X144661067Y-60126621D02*
X144661067Y-95845401D01*
X81557889Y-16073459D02*
X142279815Y-16073459D01*
X79176637Y-95845401D02*
X79176637Y-60126621D01*
D11*
X105568844Y-64690698D02*
X103028844Y-64690698D01*
X105568844Y-62150698D02*
X105568844Y-64690698D01*
X120808844Y-92630698D02*
X120808844Y-59610698D01*
X103028844Y-92630698D02*
X120808844Y-92630698D01*
X103028844Y-59610698D02*
X103028844Y-92630698D01*
X120808844Y-59610698D02*
X103028844Y-59610698D01*
X105568844Y-62150698D02*
X103028844Y-62150698D01*
D10*
X86606332Y-58567247D02*
X86606332Y-57467247D01*
X86606332Y-57467247D02*
X89606332Y-57467247D01*
X89606332Y-57467247D02*
X89606332Y-58567247D01*
X84356332Y-65317247D02*
X91856332Y-65317247D01*
X84356332Y-62367247D02*
X84356332Y-58767247D01*
X84356332Y-58767247D02*
X91856332Y-58767247D01*
X91856332Y-58767247D02*
X91856332Y-62367247D01*
D12*
X123834486Y-86143828D02*
X123834486Y-80543828D01*
X121434486Y-86143828D02*
X123834486Y-86143828D01*
X121434486Y-80543828D02*
X121434486Y-86143828D01*
X121434486Y-80543828D02*
X123834486Y-80543828D01*
X121434486Y-80718828D02*
X123834486Y-80718828D01*
X121434486Y-80893828D02*
X123834486Y-80893828D01*
X121434486Y-81068828D02*
X123834486Y-81068828D01*
X121434486Y-81168828D02*
X123834486Y-81168828D01*
X121434486Y-81268828D02*
X123834486Y-81268828D01*
X102403218Y-86143828D02*
X102403218Y-80543828D01*
X100003218Y-86143828D02*
X102403218Y-86143828D01*
X100003218Y-80543828D02*
X100003218Y-86143828D01*
X100003218Y-80543828D02*
X102403218Y-80543828D01*
X100003218Y-80718828D02*
X102403218Y-80718828D01*
X100003218Y-80893828D02*
X102403218Y-80893828D01*
X100003218Y-81068828D02*
X102403218Y-81068828D01*
X100003218Y-81168828D02*
X102403218Y-81168828D01*
X100003218Y-81268828D02*
X102403218Y-81268828D01*
X86329767Y-86143828D02*
X86329767Y-80543828D01*
X83929767Y-86143828D02*
X86329767Y-86143828D01*
X83929767Y-80543828D02*
X83929767Y-86143828D01*
X83929767Y-80543828D02*
X86329767Y-80543828D01*
X83929767Y-80718828D02*
X86329767Y-80718828D01*
X83929767Y-80893828D02*
X86329767Y-80893828D01*
X83929767Y-81068828D02*
X86329767Y-81068828D01*
X83929767Y-81168828D02*
X86329767Y-81168828D01*
X83929767Y-81268828D02*
X86329767Y-81268828D01*
X121434486Y-70423507D02*
X121434486Y-76023507D01*
X123834486Y-70423507D02*
X121434486Y-70423507D01*
X123834486Y-76023507D02*
X123834486Y-70423507D01*
X123834486Y-76023507D02*
X121434486Y-76023507D01*
X123834486Y-75848507D02*
X121434486Y-75848507D01*
X123834486Y-75673507D02*
X121434486Y-75673507D01*
X123834486Y-75498507D02*
X121434486Y-75498507D01*
X123834486Y-75398507D02*
X121434486Y-75398507D01*
X123834486Y-75298507D02*
X121434486Y-75298507D01*
X100003218Y-69828194D02*
X100003218Y-75428194D01*
X102403218Y-69828194D02*
X100003218Y-69828194D01*
X102403218Y-75428194D02*
X102403218Y-69828194D01*
X102403218Y-75428194D02*
X100003218Y-75428194D01*
X102403218Y-75253194D02*
X100003218Y-75253194D01*
X102403218Y-75078194D02*
X100003218Y-75078194D01*
X102403218Y-74903194D02*
X100003218Y-74903194D01*
X102403218Y-74803194D02*
X100003218Y-74803194D01*
X102403218Y-74703194D02*
X100003218Y-74703194D01*
X83929767Y-69828194D02*
X83929767Y-75428194D01*
X86329767Y-69828194D02*
X83929767Y-69828194D01*
X86329767Y-75428194D02*
X86329767Y-69828194D01*
X86329767Y-75428194D02*
X83929767Y-75428194D01*
X86329767Y-75253194D02*
X83929767Y-75253194D01*
X86329767Y-75078194D02*
X83929767Y-75078194D01*
X86329767Y-74903194D02*
X83929767Y-74903194D01*
X86329767Y-74803194D02*
X83929767Y-74803194D01*
X86329767Y-74703194D02*
X83929767Y-74703194D01*
D10*
X103497544Y-62619398D02*
X103497544Y-64221998D01*
X105100144Y-64221998D01*
X105100144Y-62619398D01*
X103497544Y-62619398D01*
X105100144Y-65960698D02*
G75*
G03X105100144Y-65960698I-801300J0D01*
G01*
X105100144Y-68500698D02*
G75*
G03X105100144Y-68500698I-801300J0D01*
G01*
X105100144Y-71040698D02*
G75*
G03X105100144Y-71040698I-801300J0D01*
G01*
X105100144Y-73580698D02*
G75*
G03X105100144Y-73580698I-801300J0D01*
G01*
X105100144Y-76120698D02*
G75*
G03X105100144Y-76120698I-801300J0D01*
G01*
X105100144Y-78660698D02*
G75*
G03X105100144Y-78660698I-801300J0D01*
G01*
X105100144Y-81200698D02*
G75*
G03X105100144Y-81200698I-801300J0D01*
G01*
X105100144Y-83740698D02*
G75*
G03X105100144Y-83740698I-801300J0D01*
G01*
X105100144Y-86280698D02*
G75*
G03X105100144Y-86280698I-801300J0D01*
G01*
X105100144Y-88820698D02*
G75*
G03X105100144Y-88820698I-801300J0D01*
G01*
X120340144Y-91360698D02*
G75*
G03X120340144Y-91360698I-801300J0D01*
G01*
X120340144Y-88820698D02*
G75*
G03X120340144Y-88820698I-801300J0D01*
G01*
X120340144Y-86280698D02*
G75*
G03X120340144Y-86280698I-801300J0D01*
G01*
X120340144Y-83740698D02*
G75*
G03X120340144Y-83740698I-801300J0D01*
G01*
X120340144Y-81200698D02*
G75*
G03X120340144Y-81200698I-801300J0D01*
G01*
X120340144Y-78660698D02*
G75*
G03X120340144Y-78660698I-801300J0D01*
G01*
X120340144Y-76120698D02*
G75*
G03X120340144Y-76120698I-801300J0D01*
G01*
X120340144Y-73580698D02*
G75*
G03X120340144Y-73580698I-801300J0D01*
G01*
X120340144Y-71040698D02*
G75*
G03X120340144Y-71040698I-801300J0D01*
G01*
X120340144Y-68500698D02*
G75*
G03X120340144Y-68500698I-801300J0D01*
G01*
X120340144Y-65960698D02*
G75*
G03X120340144Y-65960698I-801300J0D01*
G01*
X105100144Y-91360698D02*
G75*
G03X105100144Y-91360698I-801300J0D01*
G01*
X120340144Y-63420698D02*
G75*
G03X120340144Y-63420698I-801300J0D01*
G01*
X91131332Y-61317247D02*
G75*
G03X91131332Y-61317247I-775000J0D01*
G01*
X86631332Y-61317247D02*
G75*
G03X86631332Y-61317247I-775000J0D01*
G01*
X92531332Y-63817247D02*
G75*
G03X92531332Y-63817247I-925000J0D01*
G01*
X85531332Y-63817247D02*
G75*
G03X85531332Y-63817247I-925000J0D01*
G01*
X123359486Y-87243828D02*
G75*
G03X123359486Y-87243828I-725000J0D01*
G01*
X121909486Y-78718828D02*
X121909486Y-80168828D01*
X123359486Y-80168828D01*
X123359486Y-78718828D01*
X121909486Y-78718828D01*
X101928218Y-87243828D02*
G75*
G03X101928218Y-87243828I-725000J0D01*
G01*
X100478218Y-78718828D02*
X100478218Y-80168828D01*
X101928218Y-80168828D01*
X101928218Y-78718828D01*
X100478218Y-78718828D01*
X85854767Y-87243828D02*
G75*
G03X85854767Y-87243828I-725000J0D01*
G01*
X84404767Y-78718828D02*
X84404767Y-80168828D01*
X85854767Y-80168828D01*
X85854767Y-78718828D01*
X84404767Y-78718828D01*
X123359486Y-69323507D02*
G75*
G03X123359486Y-69323507I-725000J0D01*
G01*
X121909486Y-76398507D02*
X121909486Y-77848507D01*
X123359486Y-77848507D01*
X123359486Y-76398507D01*
X121909486Y-76398507D01*
X101928218Y-68728194D02*
G75*
G03X101928218Y-68728194I-725000J0D01*
G01*
X100478218Y-75803194D02*
X100478218Y-77253194D01*
X101928218Y-77253194D01*
X101928218Y-75803194D01*
X100478218Y-75803194D01*
X85854767Y-68728194D02*
G75*
G03X85854767Y-68728194I-725000J0D01*
G01*
X84404767Y-75803194D02*
X84404767Y-77253194D01*
X85854767Y-77253194D01*
X85854767Y-75803194D01*
X84404767Y-75803194D01*
X106684304Y-66322602D02*
X106684304Y-65522602D01*
X106493828Y-65522602D01*
X106379542Y-65560698D01*
X106303351Y-65636888D01*
X106265256Y-65713078D01*
X106227161Y-65865459D01*
X106227161Y-65979745D01*
X106265256Y-66132126D01*
X106303351Y-66208317D01*
X106379542Y-66284507D01*
X106493828Y-66322602D01*
X106684304Y-66322602D01*
X105922399Y-65598793D02*
X105884304Y-65560698D01*
X105808113Y-65522602D01*
X105617637Y-65522602D01*
X105541447Y-65560698D01*
X105503351Y-65598793D01*
X105465256Y-65674983D01*
X105465256Y-65751174D01*
X105503351Y-65865459D01*
X105960494Y-66322602D01*
X105465256Y-66322602D01*
X107048320Y-76482602D02*
X107048320Y-75682602D01*
X106857844Y-75682602D01*
X106743558Y-75720698D01*
X106667367Y-75796888D01*
X106629272Y-75873078D01*
X106591177Y-76025459D01*
X106591177Y-76139745D01*
X106629272Y-76292126D01*
X106667367Y-76368317D01*
X106743558Y-76444507D01*
X106857844Y-76482602D01*
X107048320Y-76482602D01*
X106095939Y-75682602D02*
X106019748Y-75682602D01*
X105943558Y-75720698D01*
X105905463Y-75758793D01*
X105867367Y-75834983D01*
X105829272Y-75987364D01*
X105829272Y-76177840D01*
X105867367Y-76330221D01*
X105905463Y-76406412D01*
X105943558Y-76444507D01*
X106019748Y-76482602D01*
X106095939Y-76482602D01*
X106172129Y-76444507D01*
X106210224Y-76406412D01*
X106248320Y-76330221D01*
X106286415Y-76177840D01*
X106286415Y-75987364D01*
X106248320Y-75834983D01*
X106210224Y-75758793D01*
X106172129Y-75720698D01*
X106095939Y-75682602D01*
X107048320Y-73942602D02*
X107048320Y-73142602D01*
X106857844Y-73142602D01*
X106743558Y-73180698D01*
X106667367Y-73256888D01*
X106629272Y-73333078D01*
X106591177Y-73485459D01*
X106591177Y-73599745D01*
X106629272Y-73752126D01*
X106667367Y-73828317D01*
X106743558Y-73904507D01*
X106857844Y-73942602D01*
X107048320Y-73942602D01*
X105829272Y-73942602D02*
X106286415Y-73942602D01*
X106057844Y-73942602D02*
X106057844Y-73142602D01*
X106134034Y-73256888D01*
X106210224Y-73333078D01*
X106286415Y-73371174D01*
X107067367Y-70640698D02*
X107143558Y-70602602D01*
X107257844Y-70602602D01*
X107372129Y-70640698D01*
X107448320Y-70716888D01*
X107486415Y-70793078D01*
X107524510Y-70945459D01*
X107524510Y-71059745D01*
X107486415Y-71212126D01*
X107448320Y-71288317D01*
X107372129Y-71364507D01*
X107257844Y-71402602D01*
X107181653Y-71402602D01*
X107067367Y-71364507D01*
X107029272Y-71326412D01*
X107029272Y-71059745D01*
X107181653Y-71059745D01*
X106686415Y-71402602D02*
X106686415Y-70602602D01*
X106229272Y-71402602D01*
X106229272Y-70602602D01*
X105848320Y-71402602D02*
X105848320Y-70602602D01*
X105657844Y-70602602D01*
X105543558Y-70640698D01*
X105467367Y-70716888D01*
X105429272Y-70793078D01*
X105391177Y-70945459D01*
X105391177Y-71059745D01*
X105429272Y-71212126D01*
X105467367Y-71288317D01*
X105543558Y-71364507D01*
X105657844Y-71402602D01*
X105848320Y-71402602D01*
X109453351Y-68100698D02*
X109529542Y-68062602D01*
X109643828Y-68062602D01*
X109758113Y-68100698D01*
X109834304Y-68176888D01*
X109872399Y-68253078D01*
X109910494Y-68405459D01*
X109910494Y-68519745D01*
X109872399Y-68672126D01*
X109834304Y-68748317D01*
X109758113Y-68824507D01*
X109643828Y-68862602D01*
X109567637Y-68862602D01*
X109453351Y-68824507D01*
X109415256Y-68786412D01*
X109415256Y-68519745D01*
X109567637Y-68519745D01*
X109072399Y-68862602D02*
X109072399Y-68062602D01*
X108615256Y-68862602D01*
X108615256Y-68062602D01*
X108234304Y-68862602D02*
X108234304Y-68062602D01*
X108043828Y-68062602D01*
X107929542Y-68100698D01*
X107853351Y-68176888D01*
X107815256Y-68253078D01*
X107777161Y-68405459D01*
X107777161Y-68519745D01*
X107815256Y-68672126D01*
X107853351Y-68748317D01*
X107929542Y-68824507D01*
X108043828Y-68862602D01*
X108234304Y-68862602D01*
X107048320Y-79022602D02*
X107048320Y-78222602D01*
X106857844Y-78222602D01*
X106743558Y-78260698D01*
X106667367Y-78336888D01*
X106629272Y-78413078D01*
X106591177Y-78565459D01*
X106591177Y-78679745D01*
X106629272Y-78832126D01*
X106667367Y-78908317D01*
X106743558Y-78984507D01*
X106857844Y-79022602D01*
X107048320Y-79022602D01*
X105905463Y-78489269D02*
X105905463Y-79022602D01*
X106095939Y-78184507D02*
X106286415Y-78755936D01*
X105791177Y-78755936D01*
X106591177Y-81486412D02*
X106629272Y-81524507D01*
X106743558Y-81562602D01*
X106819748Y-81562602D01*
X106934034Y-81524507D01*
X107010224Y-81448317D01*
X107048320Y-81372126D01*
X107086415Y-81219745D01*
X107086415Y-81105459D01*
X107048320Y-80953078D01*
X107010224Y-80876888D01*
X106934034Y-80800698D01*
X106819748Y-80762602D01*
X106743558Y-80762602D01*
X106629272Y-80800698D01*
X106591177Y-80838793D01*
X105905463Y-80762602D02*
X106057844Y-80762602D01*
X106134034Y-80800698D01*
X106172129Y-80838793D01*
X106248320Y-80953078D01*
X106286415Y-81105459D01*
X106286415Y-81410221D01*
X106248320Y-81486412D01*
X106210224Y-81524507D01*
X106134034Y-81562602D01*
X105981653Y-81562602D01*
X105905463Y-81524507D01*
X105867367Y-81486412D01*
X105829272Y-81410221D01*
X105829272Y-81219745D01*
X105867367Y-81143555D01*
X105905463Y-81105459D01*
X105981653Y-81067364D01*
X106134034Y-81067364D01*
X106210224Y-81105459D01*
X106248320Y-81143555D01*
X106286415Y-81219745D01*
X107048320Y-84102602D02*
X107048320Y-83302602D01*
X106857844Y-83302602D01*
X106743558Y-83340698D01*
X106667367Y-83416888D01*
X106629272Y-83493078D01*
X106591177Y-83645459D01*
X106591177Y-83759745D01*
X106629272Y-83912126D01*
X106667367Y-83988317D01*
X106743558Y-84064507D01*
X106857844Y-84102602D01*
X107048320Y-84102602D01*
X106324510Y-83302602D02*
X105791177Y-83302602D01*
X106134034Y-84102602D01*
X107010224Y-86223555D02*
X106743558Y-86223555D01*
X106629272Y-86642602D02*
X107010224Y-86642602D01*
X107010224Y-85842602D01*
X106629272Y-85842602D01*
X105943558Y-85842602D02*
X106095939Y-85842602D01*
X106172129Y-85880698D01*
X106210224Y-85918793D01*
X106286415Y-86033078D01*
X106324510Y-86185459D01*
X106324510Y-86490221D01*
X106286415Y-86566412D01*
X106248320Y-86604507D01*
X106172129Y-86642602D01*
X106019748Y-86642602D01*
X105943558Y-86604507D01*
X105905463Y-86566412D01*
X105867367Y-86490221D01*
X105867367Y-86299745D01*
X105905463Y-86223555D01*
X105943558Y-86185459D01*
X106019748Y-86147364D01*
X106172129Y-86147364D01*
X106248320Y-86185459D01*
X106286415Y-86223555D01*
X106324510Y-86299745D01*
X106781653Y-88763555D02*
X106667367Y-88801650D01*
X106629272Y-88839745D01*
X106591177Y-88915936D01*
X106591177Y-89030221D01*
X106629272Y-89106412D01*
X106667367Y-89144507D01*
X106743558Y-89182602D01*
X107048320Y-89182602D01*
X107048320Y-88382602D01*
X106781653Y-88382602D01*
X106705463Y-88420698D01*
X106667367Y-88458793D01*
X106629272Y-88534983D01*
X106629272Y-88611174D01*
X106667367Y-88687364D01*
X106705463Y-88725459D01*
X106781653Y-88763555D01*
X107048320Y-88763555D01*
X105905463Y-88649269D02*
X105905463Y-89182602D01*
X106095939Y-88344507D02*
X106286415Y-88915936D01*
X105791177Y-88915936D01*
X106781653Y-91303555D02*
X106667367Y-91341650D01*
X106629272Y-91379745D01*
X106591177Y-91455936D01*
X106591177Y-91570221D01*
X106629272Y-91646412D01*
X106667367Y-91684507D01*
X106743558Y-91722602D01*
X107048320Y-91722602D01*
X107048320Y-90922602D01*
X106781653Y-90922602D01*
X106705463Y-90960698D01*
X106667367Y-90998793D01*
X106629272Y-91074983D01*
X106629272Y-91151174D01*
X106667367Y-91227364D01*
X106705463Y-91265459D01*
X106781653Y-91303555D01*
X107048320Y-91303555D01*
X105867367Y-90922602D02*
X106248320Y-90922602D01*
X106286415Y-91303555D01*
X106248320Y-91265459D01*
X106172129Y-91227364D01*
X105981653Y-91227364D01*
X105905463Y-91265459D01*
X105867367Y-91303555D01*
X105829272Y-91379745D01*
X105829272Y-91570221D01*
X105867367Y-91646412D01*
X105905463Y-91684507D01*
X105981653Y-91722602D01*
X106172129Y-91722602D01*
X106248320Y-91684507D01*
X106286415Y-91646412D01*
X117703653Y-91303555D02*
X117589367Y-91341650D01*
X117551272Y-91379745D01*
X117513177Y-91455936D01*
X117513177Y-91570221D01*
X117551272Y-91646412D01*
X117589367Y-91684507D01*
X117665558Y-91722602D01*
X117970320Y-91722602D01*
X117970320Y-90922602D01*
X117703653Y-90922602D01*
X117627463Y-90960698D01*
X117589367Y-90998793D01*
X117551272Y-91074983D01*
X117551272Y-91151174D01*
X117589367Y-91227364D01*
X117627463Y-91265459D01*
X117703653Y-91303555D01*
X117970320Y-91303555D01*
X116827463Y-90922602D02*
X116979844Y-90922602D01*
X117056034Y-90960698D01*
X117094129Y-90998793D01*
X117170320Y-91113078D01*
X117208415Y-91265459D01*
X117208415Y-91570221D01*
X117170320Y-91646412D01*
X117132224Y-91684507D01*
X117056034Y-91722602D01*
X116903653Y-91722602D01*
X116827463Y-91684507D01*
X116789367Y-91646412D01*
X116751272Y-91570221D01*
X116751272Y-91379745D01*
X116789367Y-91303555D01*
X116827463Y-91265459D01*
X116903653Y-91227364D01*
X117056034Y-91227364D01*
X117132224Y-91265459D01*
X117170320Y-91303555D01*
X117208415Y-91379745D01*
X117703653Y-86223555D02*
X117589367Y-86261650D01*
X117551272Y-86299745D01*
X117513177Y-86375936D01*
X117513177Y-86490221D01*
X117551272Y-86566412D01*
X117589367Y-86604507D01*
X117665558Y-86642602D01*
X117970320Y-86642602D01*
X117970320Y-85842602D01*
X117703653Y-85842602D01*
X117627463Y-85880698D01*
X117589367Y-85918793D01*
X117551272Y-85994983D01*
X117551272Y-86071174D01*
X117589367Y-86147364D01*
X117627463Y-86185459D01*
X117703653Y-86223555D01*
X117970320Y-86223555D01*
X117246510Y-85842602D02*
X116751272Y-85842602D01*
X117017939Y-86147364D01*
X116903653Y-86147364D01*
X116827463Y-86185459D01*
X116789367Y-86223555D01*
X116751272Y-86299745D01*
X116751272Y-86490221D01*
X116789367Y-86566412D01*
X116827463Y-86604507D01*
X116903653Y-86642602D01*
X117132224Y-86642602D01*
X117208415Y-86604507D01*
X117246510Y-86566412D01*
X117703653Y-83683555D02*
X117589367Y-83721650D01*
X117551272Y-83759745D01*
X117513177Y-83835936D01*
X117513177Y-83950221D01*
X117551272Y-84026412D01*
X117589367Y-84064507D01*
X117665558Y-84102602D01*
X117970320Y-84102602D01*
X117970320Y-83302602D01*
X117703653Y-83302602D01*
X117627463Y-83340698D01*
X117589367Y-83378793D01*
X117551272Y-83454983D01*
X117551272Y-83531174D01*
X117589367Y-83607364D01*
X117627463Y-83645459D01*
X117703653Y-83683555D01*
X117970320Y-83683555D01*
X116751272Y-84102602D02*
X117208415Y-84102602D01*
X116979844Y-84102602D02*
X116979844Y-83302602D01*
X117056034Y-83416888D01*
X117132224Y-83493078D01*
X117208415Y-83531174D01*
X117646510Y-73523555D02*
X117913177Y-73523555D01*
X117913177Y-73942602D02*
X117913177Y-73142602D01*
X117532224Y-73142602D01*
X116884605Y-73409269D02*
X116884605Y-73942602D01*
X117075082Y-73104507D02*
X117265558Y-73675936D01*
X116770320Y-73675936D01*
X118446510Y-70602602D02*
X118179844Y-71402602D01*
X117913177Y-70602602D01*
X117189367Y-71326412D02*
X117227463Y-71364507D01*
X117341748Y-71402602D01*
X117417939Y-71402602D01*
X117532224Y-71364507D01*
X117608415Y-71288317D01*
X117646510Y-71212126D01*
X117684605Y-71059745D01*
X117684605Y-70945459D01*
X117646510Y-70793078D01*
X117608415Y-70716888D01*
X117532224Y-70640698D01*
X117417939Y-70602602D01*
X117341748Y-70602602D01*
X117227463Y-70640698D01*
X117189367Y-70678793D01*
X116389367Y-71326412D02*
X116427463Y-71364507D01*
X116541748Y-71402602D01*
X116617939Y-71402602D01*
X116732224Y-71364507D01*
X116808415Y-71288317D01*
X116846510Y-71212126D01*
X116884605Y-71059745D01*
X116884605Y-70945459D01*
X116846510Y-70793078D01*
X116808415Y-70716888D01*
X116732224Y-70640698D01*
X116617939Y-70602602D01*
X116541748Y-70602602D01*
X116427463Y-70640698D01*
X116389367Y-70678793D01*
X117989367Y-65560698D02*
X118065558Y-65522602D01*
X118179844Y-65522602D01*
X118294129Y-65560698D01*
X118370320Y-65636888D01*
X118408415Y-65713078D01*
X118446510Y-65865459D01*
X118446510Y-65979745D01*
X118408415Y-66132126D01*
X118370320Y-66208317D01*
X118294129Y-66284507D01*
X118179844Y-66322602D01*
X118103653Y-66322602D01*
X117989367Y-66284507D01*
X117951272Y-66246412D01*
X117951272Y-65979745D01*
X118103653Y-65979745D01*
X117608415Y-66322602D02*
X117608415Y-65522602D01*
X117151272Y-66322602D01*
X117151272Y-65522602D01*
X116770320Y-66322602D02*
X116770320Y-65522602D01*
X116579844Y-65522602D01*
X116465558Y-65560698D01*
X116389367Y-65636888D01*
X116351272Y-65713078D01*
X116313177Y-65865459D01*
X116313177Y-65979745D01*
X116351272Y-66132126D01*
X116389367Y-66208317D01*
X116465558Y-66284507D01*
X116579844Y-66322602D01*
X116770320Y-66322602D01*
X117932224Y-63782602D02*
X118198891Y-63401650D01*
X118389367Y-63782602D02*
X118389367Y-62982602D01*
X118084605Y-62982602D01*
X118008415Y-63020698D01*
X117970320Y-63058793D01*
X117932224Y-63134983D01*
X117932224Y-63249269D01*
X117970320Y-63325459D01*
X118008415Y-63363555D01*
X118084605Y-63401650D01*
X118389367Y-63401650D01*
X117627463Y-63554031D02*
X117246510Y-63554031D01*
X117703653Y-63782602D02*
X117436986Y-62982602D01*
X117170320Y-63782602D01*
X116979844Y-62982602D02*
X116789367Y-63782602D01*
X116636986Y-63211174D01*
X116484605Y-63782602D01*
X116294129Y-62982602D01*
X117646510Y-76063555D02*
X117913177Y-76063555D01*
X117913177Y-76482602D02*
X117913177Y-75682602D01*
X117532224Y-75682602D01*
X116846510Y-75682602D02*
X117227463Y-75682602D01*
X117265558Y-76063555D01*
X117227463Y-76025459D01*
X117151272Y-75987364D01*
X116960796Y-75987364D01*
X116884605Y-76025459D01*
X116846510Y-76063555D01*
X116808415Y-76139745D01*
X116808415Y-76330221D01*
X116846510Y-76406412D01*
X116884605Y-76444507D01*
X116960796Y-76482602D01*
X117151272Y-76482602D01*
X117227463Y-76444507D01*
X117265558Y-76406412D01*
X117646510Y-78603555D02*
X117913177Y-78603555D01*
X117913177Y-79022602D02*
X117913177Y-78222602D01*
X117532224Y-78222602D01*
X116884605Y-78222602D02*
X117036986Y-78222602D01*
X117113177Y-78260698D01*
X117151272Y-78298793D01*
X117227463Y-78413078D01*
X117265558Y-78565459D01*
X117265558Y-78870221D01*
X117227463Y-78946412D01*
X117189367Y-78984507D01*
X117113177Y-79022602D01*
X116960796Y-79022602D01*
X116884605Y-78984507D01*
X116846510Y-78946412D01*
X116808415Y-78870221D01*
X116808415Y-78679745D01*
X116846510Y-78603555D01*
X116884605Y-78565459D01*
X116960796Y-78527364D01*
X117113177Y-78527364D01*
X117189367Y-78565459D01*
X117227463Y-78603555D01*
X117265558Y-78679745D01*
X117646510Y-81143555D02*
X117913177Y-81143555D01*
X117913177Y-81562602D02*
X117913177Y-80762602D01*
X117532224Y-80762602D01*
X117303653Y-80762602D02*
X116770320Y-80762602D01*
X117113177Y-81562602D01*
X117703653Y-88763555D02*
X117589367Y-88801650D01*
X117551272Y-88839745D01*
X117513177Y-88915936D01*
X117513177Y-89030221D01*
X117551272Y-89106412D01*
X117589367Y-89144507D01*
X117665558Y-89182602D01*
X117970320Y-89182602D01*
X117970320Y-88382602D01*
X117703653Y-88382602D01*
X117627463Y-88420698D01*
X117589367Y-88458793D01*
X117551272Y-88534983D01*
X117551272Y-88611174D01*
X117589367Y-88687364D01*
X117627463Y-88725459D01*
X117703653Y-88763555D01*
X117970320Y-88763555D01*
X117208415Y-88458793D02*
X117170320Y-88420698D01*
X117094129Y-88382602D01*
X116903653Y-88382602D01*
X116827463Y-88420698D01*
X116789367Y-88458793D01*
X116751272Y-88534983D01*
X116751272Y-88611174D01*
X116789367Y-88725459D01*
X117246510Y-89182602D01*
X116751272Y-89182602D01*
X110537448Y-62982602D02*
X110080305Y-62982602D01*
X110308876Y-63782602D02*
X110308876Y-62982602D01*
X109889829Y-62982602D02*
X109356495Y-63782602D01*
X109356495Y-62982602D02*
X109889829Y-63782602D01*
X108899352Y-62982602D02*
X108823162Y-62982602D01*
X108746972Y-63020698D01*
X108708876Y-63058793D01*
X108670781Y-63134983D01*
X108632686Y-63287364D01*
X108632686Y-63477840D01*
X108670781Y-63630221D01*
X108708876Y-63706412D01*
X108746972Y-63744507D01*
X108823162Y-63782602D01*
X108899352Y-63782602D01*
X108975543Y-63744507D01*
X109013638Y-63706412D01*
X109051733Y-63630221D01*
X109089829Y-63477840D01*
X109089829Y-63287364D01*
X109051733Y-63134983D01*
X109013638Y-63058793D01*
X108975543Y-63020698D01*
X108899352Y-62982602D01*
X107718400Y-62944507D02*
X108404114Y-63973078D01*
X107451733Y-63782602D02*
X107451733Y-62982602D01*
X107261257Y-62982602D01*
X107146972Y-63020698D01*
X107070781Y-63096888D01*
X107032686Y-63173078D01*
X106994591Y-63325459D01*
X106994591Y-63439745D01*
X107032686Y-63592126D01*
X107070781Y-63668317D01*
X107146972Y-63744507D01*
X107261257Y-63782602D01*
X107451733Y-63782602D01*
X106727924Y-62982602D02*
X106232686Y-62982602D01*
X106499352Y-63287364D01*
X106385067Y-63287364D01*
X106308876Y-63325459D01*
X106270781Y-63363555D01*
X106232686Y-63439745D01*
X106232686Y-63630221D01*
X106270781Y-63706412D01*
X106308876Y-63744507D01*
X106385067Y-63782602D01*
X106613638Y-63782602D01*
X106689829Y-63744507D01*
X106727924Y-63706412D01*
X115531923Y-68842602D02*
X115798589Y-68461650D01*
X115989066Y-68842602D02*
X115989066Y-68042602D01*
X115684304Y-68042602D01*
X115608113Y-68080698D01*
X115570018Y-68118793D01*
X115531923Y-68194983D01*
X115531923Y-68309269D01*
X115570018Y-68385459D01*
X115608113Y-68423555D01*
X115684304Y-68461650D01*
X115989066Y-68461650D01*
X115227161Y-68804507D02*
X115112875Y-68842602D01*
X114922399Y-68842602D01*
X114846208Y-68804507D01*
X114808113Y-68766412D01*
X114770018Y-68690221D01*
X114770018Y-68614031D01*
X114808113Y-68537840D01*
X114846208Y-68499745D01*
X114922399Y-68461650D01*
X115074780Y-68423555D01*
X115150970Y-68385459D01*
X115189066Y-68347364D01*
X115227161Y-68271174D01*
X115227161Y-68194983D01*
X115189066Y-68118793D01*
X115150970Y-68080698D01*
X115074780Y-68042602D01*
X114884304Y-68042602D01*
X114770018Y-68080698D01*
X114541447Y-68042602D02*
X114084304Y-68042602D01*
X114312875Y-68842602D02*
X114312875Y-68042602D01*
X124921390Y-82753351D02*
X124121390Y-82753351D01*
X124121390Y-82943828D01*
X124159486Y-83058113D01*
X124235676Y-83134304D01*
X124311866Y-83172399D01*
X124464247Y-83210494D01*
X124578533Y-83210494D01*
X124730914Y-83172399D01*
X124807105Y-83134304D01*
X124883295Y-83058113D01*
X124921390Y-82943828D01*
X124921390Y-82753351D01*
X124121390Y-83896208D02*
X124121390Y-83743828D01*
X124159486Y-83667637D01*
X124197581Y-83629542D01*
X124311866Y-83553351D01*
X124464247Y-83515256D01*
X124769009Y-83515256D01*
X124845200Y-83553351D01*
X124883295Y-83591447D01*
X124921390Y-83667637D01*
X124921390Y-83820018D01*
X124883295Y-83896208D01*
X124845200Y-83934304D01*
X124769009Y-83972399D01*
X124578533Y-83972399D01*
X124502343Y-83934304D01*
X124464247Y-83896208D01*
X124426152Y-83820018D01*
X124426152Y-83667637D01*
X124464247Y-83591447D01*
X124502343Y-83553351D01*
X124578533Y-83515256D01*
X99705732Y-82845518D02*
X98905732Y-82845518D01*
X98905732Y-83035995D01*
X98943828Y-83150280D01*
X99020018Y-83226471D01*
X99096208Y-83264566D01*
X99248589Y-83302661D01*
X99362875Y-83302661D01*
X99515256Y-83264566D01*
X99591447Y-83226471D01*
X99667637Y-83150280D01*
X99705732Y-83035995D01*
X99705732Y-82845518D01*
X98905732Y-84026471D02*
X98905732Y-83645518D01*
X99286685Y-83607423D01*
X99248589Y-83645518D01*
X99210494Y-83721709D01*
X99210494Y-83912185D01*
X99248589Y-83988375D01*
X99286685Y-84026471D01*
X99362875Y-84064566D01*
X99553351Y-84064566D01*
X99629542Y-84026471D01*
X99667637Y-83988375D01*
X99705732Y-83912185D01*
X99705732Y-83721709D01*
X99667637Y-83645518D01*
X99629542Y-83607423D01*
X83455732Y-82753351D02*
X82655732Y-82753351D01*
X82655732Y-82943828D01*
X82693828Y-83058113D01*
X82770018Y-83134304D01*
X82846208Y-83172399D01*
X82998589Y-83210494D01*
X83112875Y-83210494D01*
X83265256Y-83172399D01*
X83341447Y-83134304D01*
X83417637Y-83058113D01*
X83455732Y-82943828D01*
X83455732Y-82753351D01*
X82922399Y-83896208D02*
X83455732Y-83896208D01*
X82617637Y-83705732D02*
X83189066Y-83515256D01*
X83189066Y-84010494D01*
X124955732Y-72595518D02*
X124155732Y-72595518D01*
X124155732Y-72785995D01*
X124193828Y-72900280D01*
X124270018Y-72976471D01*
X124346208Y-73014566D01*
X124498589Y-73052661D01*
X124612875Y-73052661D01*
X124765256Y-73014566D01*
X124841447Y-72976471D01*
X124917637Y-72900280D01*
X124955732Y-72785995D01*
X124955732Y-72595518D01*
X124155732Y-73319328D02*
X124155732Y-73814566D01*
X124460494Y-73547899D01*
X124460494Y-73662185D01*
X124498589Y-73738375D01*
X124536685Y-73776471D01*
X124612875Y-73814566D01*
X124803351Y-73814566D01*
X124879542Y-73776471D01*
X124917637Y-73738375D01*
X124955732Y-73662185D01*
X124955732Y-73433614D01*
X124917637Y-73357423D01*
X124879542Y-73319328D01*
X99640122Y-72037717D02*
X98840122Y-72037717D01*
X98840122Y-72228194D01*
X98878218Y-72342479D01*
X98954408Y-72418670D01*
X99030598Y-72456765D01*
X99182979Y-72494860D01*
X99297265Y-72494860D01*
X99449646Y-72456765D01*
X99525837Y-72418670D01*
X99602027Y-72342479D01*
X99640122Y-72228194D01*
X99640122Y-72037717D01*
X98916313Y-72799622D02*
X98878218Y-72837717D01*
X98840122Y-72913908D01*
X98840122Y-73104384D01*
X98878218Y-73180574D01*
X98916313Y-73218670D01*
X98992503Y-73256765D01*
X99068694Y-73256765D01*
X99182979Y-73218670D01*
X99640122Y-72761527D01*
X99640122Y-73256765D01*
X83455732Y-72037717D02*
X82655732Y-72037717D01*
X82655732Y-72228194D01*
X82693828Y-72342479D01*
X82770018Y-72418670D01*
X82846208Y-72456765D01*
X82998589Y-72494860D01*
X83112875Y-72494860D01*
X83265256Y-72456765D01*
X83341447Y-72418670D01*
X83417637Y-72342479D01*
X83455732Y-72228194D01*
X83455732Y-72037717D01*
X83455732Y-73256765D02*
X83455732Y-72799622D01*
X83455732Y-73028194D02*
X82655732Y-73028194D01*
X82770018Y-72952003D01*
X82846208Y-72875813D01*
X82884304Y-72799622D01*
M02*
