M48
;DRILL file {KiCad (5.0.1)-3} date 8/12/2018 15:21:52
;FORMAT={-:-/ absolute / inch / decimal}
FMAT,2
INCH,TZ
T1C0.0276
T2C0.0394
T3C0.0430
T4C0.0512
T5C0.0579
%
G90
G05
M72
T1
X4.8281Y-3.1277
X3.9844Y-2.7058
X3.9844Y-3.1277
X3.9844Y-3.4348
X3.3516Y-2.7058
X3.3516Y-3.0129
X4.8281Y-2.7293
X4.8281Y-3.0364
X3.3516Y-3.1277
X3.3516Y-3.4348
X4.8281Y-3.4348
X3.9844Y-3.0129
T2
X5.0578Y-2.4197
X5.0578Y-2.9906
X5.1563Y-2.9906
X5.2547Y-2.4197
X5.2547Y-2.9906
X3.3802Y-2.4141
X3.5573Y-2.4141
T3
X4.1063Y-2.4969
X4.1063Y-2.5969
X4.1063Y-2.6969
X4.1063Y-2.7969
X4.1063Y-2.8969
X4.1063Y-2.9969
X4.1063Y-3.0969
X4.1063Y-3.1969
X4.1063Y-3.2969
X4.1063Y-3.3969
X4.1063Y-3.4969
X4.1063Y-3.5969
X4.7063Y-2.4969
X4.7063Y-2.5969
X4.7063Y-2.6969
X4.7063Y-2.7969
X4.7063Y-2.8969
X4.7063Y-2.9969
X4.7063Y-3.0969
X4.7063Y-3.1969
X4.7063Y-3.2969
X4.7063Y-3.3969
X4.7063Y-3.4969
X4.7063Y-3.5969
T4
X3.331Y-2.5125
X3.6065Y-2.5125
T5
X3.5063Y-2.5953
X3.7563Y-2.4953
X3.5063Y-3.3453
X3.7563Y-3.2453
X4.2563Y-2.5953
X4.5063Y-2.4953
X5.0063Y-3.3453
X5.2563Y-3.2453
X5.0063Y-2.5953
X5.2563Y-2.4953
X4.2563Y-3.3453
X4.5063Y-3.2453
T0
M30
