M48
;DRILL file {KiCad (5.0.1)-3} date 8/12/2018 15:21:52
;FORMAT={-:-/ absolute / inch / decimal}
FMAT,2
INCH,TZ
T1C0.0591
T2C0.0689
T3C0.0866
T4C0.1570
%
G90
G05
M72
T2
X4.2063Y-2.6953
X4.6063Y-2.6953
X4.9563Y-3.4453
X5.3563Y-3.4453
X4.9563Y-2.6953
X5.3563Y-2.6953
X3.4563Y-2.6953
X3.8563Y-2.6953
X4.2063Y-3.4453
X4.6063Y-3.4453
X3.4563Y-3.4453
X3.8563Y-3.4453
T3
X5.6016Y-0.7266
X5.6016Y-2.1328
X5.6016Y-2.3672
X3.2109Y-2.1328
X5.6016Y-3.7734
X3.2109Y-2.3672
X3.2109Y-0.7266
X3.2109Y-3.7734
T4
X4.4063Y-2.6953
X5.1563Y-2.6953
X3.6563Y-2.6953
X4.4063Y-3.4453
X3.6563Y-3.4453
X5.1563Y-3.4453
T1
X4.9358Y-2.7091G85X4.9358Y-2.6815
G05
X5.3767Y-2.7091G85X5.3767Y-2.6815
G05
T0
M30
