%TF.GenerationSoftware,KiCad,Pcbnew,(5.0.1)-3*%
%TF.CreationDate,2018-12-08T15:20:53+01:00*%
%TF.ProjectId,SamplrPad,53616D706C725061642E6B696361645F,rev?*%
%TF.SameCoordinates,Original*%
%TF.FileFunction,Copper,L2,Bot,Signal*%
%TF.FilePolarity,Positive*%
%FSLAX46Y46*%
G04 Gerber Fmt 4.6, Leading zero omitted, Abs format (unit mm)*
G04 Created by KiCad (PCBNEW (5.0.1)-3) date 8/12/2018 15:20:53*
%MOMM*%
%LPD*%
G01*
G04 APERTURE LIST*
%ADD10C,0.150000*%
%ADD11R,1.752600X1.752600*%
%ADD12C,1.752600*%
%ADD13C,2.150000*%
%ADD14C,2.250000*%
%ADD15C,2.000000*%
%ADD16O,1.900000X2.600000*%
%ADD17R,2.000000X2.000000*%
%ADD18C,1.700000*%
%ADD19C,1.600000*%
%ADD20R,1.600000X1.600000*%
%ADD21C,0.250000*%
%ADD22C,0.254000*%
G04 APERTURE END LIST*
D10*
X141089189Y-57745369D02*
X142279815Y-57745369D01*
X141089189Y-56554743D02*
X142279815Y-56554743D01*
X81557889Y-57745369D02*
X82748515Y-57745369D01*
X81557889Y-56554743D02*
X82748515Y-56554743D01*
X138112624Y-56554743D02*
X139303250Y-56554743D01*
X135136059Y-56554743D02*
X136326685Y-56554743D01*
X141089189Y-57745369D02*
G75*
G02X141089189Y-56554743I0J595313D01*
G01*
X139303250Y-56554743D02*
G75*
G02X139303250Y-57745369I0J-595313D01*
G01*
X138112624Y-57745369D02*
X139303250Y-57745369D01*
X138112624Y-57745369D02*
G75*
G02X138112624Y-56554743I0J595313D01*
G01*
X136326685Y-56554743D02*
G75*
G02X136326685Y-57745369I0J-595313D01*
G01*
X132159494Y-56554743D02*
X133350120Y-56554743D01*
X135136059Y-57745369D02*
X136326685Y-57745369D01*
X135136059Y-57745369D02*
G75*
G02X135136059Y-56554743I0J595313D01*
G01*
X133350120Y-56554743D02*
G75*
G02X133350120Y-57745369I0J-595313D01*
G01*
X129182929Y-56554743D02*
X130373555Y-56554743D01*
X132159494Y-57745369D02*
X133350120Y-57745369D01*
X132159494Y-57745369D02*
G75*
G02X132159494Y-56554743I0J595313D01*
G01*
X130373555Y-56554743D02*
G75*
G02X130373555Y-57745369I0J-595313D01*
G01*
X126206364Y-56554743D02*
X127396990Y-56554743D01*
X129182929Y-57745369D02*
X130373555Y-57745369D01*
X129182929Y-57745369D02*
G75*
G02X129182929Y-56554743I0J595313D01*
G01*
X127396990Y-56554743D02*
G75*
G02X127396990Y-57745369I0J-595313D01*
G01*
X123229799Y-56554743D02*
X124420425Y-56554743D01*
X126206364Y-57745369D02*
X127396990Y-57745369D01*
X126206364Y-57745369D02*
G75*
G02X126206364Y-56554743I0J595313D01*
G01*
X124420425Y-56554743D02*
G75*
G02X124420425Y-57745369I0J-595313D01*
G01*
X120253234Y-56554743D02*
X121443860Y-56554743D01*
X123229799Y-57745369D02*
X124420425Y-57745369D01*
X123229799Y-57745369D02*
G75*
G02X123229799Y-56554743I0J595313D01*
G01*
X121443860Y-56554743D02*
G75*
G02X121443860Y-57745369I0J-595313D01*
G01*
X117276669Y-56554743D02*
X118467295Y-56554743D01*
X120253234Y-57745369D02*
X121443860Y-57745369D01*
X120253234Y-57745369D02*
G75*
G02X120253234Y-56554743I0J595313D01*
G01*
X118467295Y-56554743D02*
G75*
G02X118467295Y-57745369I0J-595313D01*
G01*
X114300104Y-56554743D02*
X115490730Y-56554743D01*
X117276669Y-57745369D02*
X118467295Y-57745369D01*
X117276669Y-57745369D02*
G75*
G02X117276669Y-56554743I0J595313D01*
G01*
X115490730Y-56554743D02*
G75*
G02X115490730Y-57745369I0J-595313D01*
G01*
X111323539Y-56554743D02*
X112514165Y-56554743D01*
X114300104Y-57745369D02*
X115490730Y-57745369D01*
X114300104Y-57745369D02*
G75*
G02X114300104Y-56554743I0J595313D01*
G01*
X112514165Y-56554743D02*
G75*
G02X112514165Y-57745369I0J-595313D01*
G01*
X108346974Y-56554743D02*
X109537600Y-56554743D01*
X111323539Y-57745369D02*
X112514165Y-57745369D01*
X111323539Y-57745369D02*
G75*
G02X111323539Y-56554743I0J595313D01*
G01*
X109537600Y-56554743D02*
G75*
G02X109537600Y-57745369I0J-595313D01*
G01*
X105370409Y-56554743D02*
X106561035Y-56554743D01*
X108346974Y-57745369D02*
X109537600Y-57745369D01*
X108346974Y-57745369D02*
G75*
G02X108346974Y-56554743I0J595313D01*
G01*
X106561035Y-56554743D02*
G75*
G02X106561035Y-57745369I0J-595313D01*
G01*
X102393844Y-56554743D02*
X103584470Y-56554743D01*
X105370409Y-57745369D02*
X106561035Y-57745369D01*
X105370409Y-57745369D02*
G75*
G02X105370409Y-56554743I0J595313D01*
G01*
X103584470Y-56554743D02*
G75*
G02X103584470Y-57745369I0J-595313D01*
G01*
X99417279Y-56554743D02*
X100607905Y-56554743D01*
X102393844Y-57745369D02*
X103584470Y-57745369D01*
X102393844Y-57745369D02*
G75*
G02X102393844Y-56554743I0J595313D01*
G01*
X100607905Y-56554743D02*
G75*
G02X100607905Y-57745369I0J-595313D01*
G01*
X96440714Y-56554743D02*
X97631340Y-56554743D01*
X99417279Y-57745369D02*
X100607905Y-57745369D01*
X99417279Y-57745369D02*
G75*
G02X99417279Y-56554743I0J595313D01*
G01*
X97631340Y-56554743D02*
G75*
G02X97631340Y-57745369I0J-595313D01*
G01*
X93464149Y-56554743D02*
X94654775Y-56554743D01*
X96440714Y-57745369D02*
X97631340Y-57745369D01*
X96440714Y-57745369D02*
G75*
G02X96440714Y-56554743I0J595313D01*
G01*
X94654775Y-56554743D02*
G75*
G02X94654775Y-57745369I0J-595313D01*
G01*
X90487584Y-56554743D02*
X91678210Y-56554743D01*
X93464149Y-57745369D02*
X94654775Y-57745369D01*
X93464149Y-57745369D02*
G75*
G02X93464149Y-56554743I0J595313D01*
G01*
X91678210Y-56554743D02*
G75*
G02X91678210Y-57745369I0J-595313D01*
G01*
X87511019Y-56554743D02*
X88701645Y-56554743D01*
X90487584Y-57745369D02*
X91678210Y-57745369D01*
X90487584Y-57745369D02*
G75*
G02X90487584Y-56554743I0J595313D01*
G01*
X88701645Y-56554743D02*
G75*
G02X88701645Y-57745369I0J-595313D01*
G01*
X84534454Y-56554743D02*
X85725080Y-56554743D01*
X87511019Y-57745369D02*
X88701645Y-57745369D01*
X87511019Y-57745369D02*
G75*
G02X87511019Y-56554743I0J595313D01*
G01*
X85725080Y-56554743D02*
G75*
G02X85725080Y-57745369I0J-595313D01*
G01*
X84534454Y-57745369D02*
X85725080Y-57745369D01*
X84534454Y-57745369D02*
G75*
G02X84534454Y-56554743I0J595313D01*
G01*
X82748515Y-56554743D02*
G75*
G02X82748515Y-57745369I0J-595313D01*
G01*
X142279815Y-16073459D02*
G75*
G02X144661067Y-18454711I0J-2381252D01*
G01*
X144661067Y-54173491D02*
G75*
G02X142279815Y-56554743I-2381252J0D01*
G01*
X81557889Y-56554743D02*
G75*
G02X79176637Y-54173491I0J2381252D01*
G01*
X79176637Y-18454711D02*
G75*
G02X81557889Y-16073459I2381252J0D01*
G01*
X144661067Y-18454711D02*
X144661067Y-54173491D01*
X142279815Y-98226653D02*
X81557889Y-98226653D01*
X79176637Y-54173491D02*
X79176637Y-18454711D01*
X79176637Y-60126621D02*
G75*
G02X81557889Y-57745369I2381252J0D01*
G01*
X142279815Y-57745369D02*
G75*
G02X144661067Y-60126621I0J-2381252D01*
G01*
X144661067Y-95845401D02*
G75*
G02X142279815Y-98226653I-2381252J0D01*
G01*
X81557889Y-98226653D02*
G75*
G02X79176637Y-95845401I0J2381252D01*
G01*
X144661067Y-60126621D02*
X144661067Y-95845401D01*
X81557889Y-16073459D02*
X142279815Y-16073459D01*
X79176637Y-95845401D02*
X79176637Y-60126621D01*
D11*
X104298844Y-63420698D03*
D12*
X104298844Y-65960698D03*
X104298844Y-68500698D03*
X104298844Y-71040698D03*
X104298844Y-73580698D03*
X104298844Y-76120698D03*
X104298844Y-78660698D03*
X104298844Y-81200698D03*
X104298844Y-83740698D03*
X104298844Y-86280698D03*
X104298844Y-88820698D03*
X119538844Y-91360698D03*
X119538844Y-88820698D03*
X119538844Y-86280698D03*
X119538844Y-83740698D03*
X119538844Y-81200698D03*
X119538844Y-78660698D03*
X119538844Y-76120698D03*
X119538844Y-73580698D03*
X119538844Y-71040698D03*
X119538844Y-68500698D03*
X119538844Y-65960698D03*
X104298844Y-91360698D03*
X119538844Y-63420698D03*
D13*
X136048868Y-68461003D03*
X125888868Y-68461003D03*
D14*
X127158868Y-65921003D03*
X133508868Y-63381003D03*
D15*
X133468868Y-61461003D03*
X128468868Y-61461003D03*
D16*
X136568868Y-68461003D03*
X125368868Y-68461003D03*
D15*
X133468868Y-75961003D03*
X130968868Y-75961003D03*
D17*
X128468868Y-75961003D03*
D14*
X108108844Y-65920995D03*
X114458844Y-63380995D03*
X89058828Y-65920995D03*
X95408828Y-63380995D03*
X89058828Y-84971011D03*
X95408828Y-82431011D03*
X108108844Y-84971011D03*
X114458844Y-82431011D03*
X127158860Y-84971011D03*
X133508860Y-82431011D03*
D18*
X90356332Y-61317247D03*
X85856332Y-61317247D03*
D15*
X91606332Y-63817247D03*
X84606332Y-63817247D03*
D19*
X122634486Y-87243828D03*
D20*
X122634486Y-79443828D03*
D19*
X101203218Y-87243828D03*
D20*
X101203218Y-79443828D03*
D19*
X85129767Y-87243828D03*
D20*
X85129767Y-79443828D03*
D19*
X122634486Y-69323507D03*
D20*
X122634486Y-77123507D03*
D19*
X101203218Y-68728194D03*
D20*
X101203218Y-76528194D03*
D19*
X85129767Y-68728194D03*
D20*
X85129767Y-76528194D03*
D21*
X118662545Y-67624399D02*
X119538844Y-68500698D01*
X118299140Y-67260994D02*
X118662545Y-67624399D01*
X116192841Y-67260994D02*
X118299140Y-67260994D01*
X110249094Y-61317247D02*
X116192841Y-67260994D01*
X90356332Y-61317247D02*
X110249094Y-61317247D01*
X89058828Y-84720995D02*
X88843828Y-84935995D01*
X91082889Y-73580698D02*
X89058828Y-75604759D01*
X104298844Y-73580698D02*
X91082889Y-73580698D01*
X89058828Y-65920995D02*
X89058828Y-75604759D01*
X89058828Y-75604759D02*
X89058828Y-84720995D01*
X108108844Y-84701011D02*
X108343828Y-84935995D01*
X105806966Y-76120698D02*
X108108844Y-73818820D01*
X104298844Y-76120698D02*
X105806966Y-76120698D01*
X108108844Y-65920995D02*
X108108844Y-73818820D01*
X108108844Y-73818820D02*
X108108844Y-84701011D01*
X127158860Y-84751027D02*
X127343828Y-84935995D01*
X120769157Y-84971011D02*
X119538844Y-83740698D01*
X127158860Y-84971011D02*
X120769157Y-84971011D01*
X127158860Y-83380021D02*
X127158860Y-84971011D01*
X127143867Y-83365028D02*
X127158860Y-83380021D01*
X127143867Y-67526994D02*
X127143867Y-83365028D01*
X127158868Y-67511993D02*
X127143867Y-67526994D01*
X127158868Y-65921003D02*
X127158868Y-67511993D01*
X127158868Y-62771003D02*
X127158868Y-65921003D01*
X128468868Y-61461003D02*
X127158868Y-62771003D01*
D22*
G36*
X140273782Y-58161348D02*
X140273784Y-58161349D01*
X140273786Y-58161351D01*
X140466921Y-58290398D01*
X140609311Y-58349377D01*
X140722857Y-58396410D01*
X140812161Y-58414174D01*
X140843553Y-58420418D01*
X140950673Y-58441726D01*
X140950675Y-58441726D01*
X141019263Y-58455369D01*
X141780801Y-58455369D01*
X141297016Y-58655759D01*
X140808953Y-59143822D01*
X140544815Y-59781508D01*
X140544815Y-60471734D01*
X140808953Y-61109420D01*
X141297016Y-61597483D01*
X141934702Y-61861621D01*
X142624928Y-61861621D01*
X143262614Y-61597483D01*
X143750677Y-61109420D01*
X143951067Y-60625635D01*
X143951068Y-95346389D01*
X143750677Y-94862602D01*
X143262614Y-94374539D01*
X142624928Y-94110401D01*
X141934702Y-94110401D01*
X141297016Y-94374539D01*
X140808953Y-94862602D01*
X140544815Y-95500288D01*
X140544815Y-96190514D01*
X140808953Y-96828200D01*
X141297016Y-97316263D01*
X141780801Y-97516653D01*
X82056903Y-97516653D01*
X82540688Y-97316263D01*
X83028751Y-96828200D01*
X83292889Y-96190514D01*
X83292889Y-95500288D01*
X83028751Y-94862602D01*
X82540688Y-94374539D01*
X81903002Y-94110401D01*
X81212776Y-94110401D01*
X80575090Y-94374539D01*
X80087027Y-94862602D01*
X79886637Y-95346387D01*
X79886637Y-78643828D01*
X83682327Y-78643828D01*
X83682327Y-80243828D01*
X83731610Y-80491593D01*
X83871958Y-80701637D01*
X84082002Y-80841985D01*
X84329767Y-80891268D01*
X85929767Y-80891268D01*
X86177532Y-80841985D01*
X86387576Y-80701637D01*
X86527924Y-80491593D01*
X86577207Y-80243828D01*
X86577207Y-78643828D01*
X86527924Y-78396063D01*
X86387576Y-78186019D01*
X86177532Y-78045671D01*
X85929767Y-77996388D01*
X84329767Y-77996388D01*
X84082002Y-78045671D01*
X83871958Y-78186019D01*
X83731610Y-78396063D01*
X83682327Y-78643828D01*
X79886637Y-78643828D01*
X79886637Y-75728194D01*
X83682327Y-75728194D01*
X83682327Y-77328194D01*
X83731610Y-77575959D01*
X83871958Y-77786003D01*
X84082002Y-77926351D01*
X84329767Y-77975634D01*
X85929767Y-77975634D01*
X86177532Y-77926351D01*
X86387576Y-77786003D01*
X86527924Y-77575959D01*
X86577207Y-77328194D01*
X86577207Y-75728194D01*
X86527924Y-75480429D01*
X86387576Y-75270385D01*
X86177532Y-75130037D01*
X85929767Y-75080754D01*
X84329767Y-75080754D01*
X84082002Y-75130037D01*
X83871958Y-75270385D01*
X83731610Y-75480429D01*
X83682327Y-75728194D01*
X79886637Y-75728194D01*
X79886637Y-68442755D01*
X83694767Y-68442755D01*
X83694767Y-69013633D01*
X83913233Y-69541056D01*
X84316905Y-69944728D01*
X84844328Y-70163194D01*
X85415206Y-70163194D01*
X85942629Y-69944728D01*
X86346301Y-69541056D01*
X86474047Y-69232651D01*
X86508712Y-69316341D01*
X86933482Y-69741111D01*
X87488470Y-69970995D01*
X88089186Y-69970995D01*
X88298828Y-69884158D01*
X88298829Y-75529903D01*
X88298828Y-75529908D01*
X88298828Y-75529912D01*
X88283940Y-75604759D01*
X88298828Y-75679606D01*
X88298829Y-83380803D01*
X88061868Y-83478955D01*
X87566772Y-83974051D01*
X87298828Y-84620925D01*
X87298828Y-85321097D01*
X87566772Y-85967971D01*
X87599812Y-86001011D01*
X87488470Y-86001011D01*
X86933482Y-86230895D01*
X86508712Y-86655665D01*
X86474043Y-86739363D01*
X86346301Y-86430966D01*
X85942629Y-86027294D01*
X85415206Y-85808828D01*
X84844328Y-85808828D01*
X84316905Y-86027294D01*
X83913233Y-86430966D01*
X83694767Y-86958389D01*
X83694767Y-87529267D01*
X83913233Y-88056690D01*
X84316905Y-88460362D01*
X84844328Y-88678828D01*
X85415206Y-88678828D01*
X85942629Y-88460362D01*
X86346301Y-88056690D01*
X86363372Y-88015476D01*
X86508712Y-88366357D01*
X86933482Y-88791127D01*
X87488470Y-89021011D01*
X88089186Y-89021011D01*
X88644174Y-88791127D01*
X89068944Y-88366357D01*
X89298828Y-87811369D01*
X89298828Y-87210653D01*
X89206640Y-86988090D01*
X90239928Y-86988090D01*
X90239928Y-88033932D01*
X90640154Y-89000163D01*
X91379676Y-89739685D01*
X92345907Y-90139911D01*
X93391749Y-90139911D01*
X94357980Y-89739685D01*
X95097502Y-89000163D01*
X95497728Y-88033932D01*
X95497728Y-87210653D01*
X96438828Y-87210653D01*
X96438828Y-87811369D01*
X96668712Y-88366357D01*
X97093482Y-88791127D01*
X97648470Y-89021011D01*
X98249186Y-89021011D01*
X98804174Y-88791127D01*
X99228944Y-88366357D01*
X99458828Y-87811369D01*
X99458828Y-87210653D01*
X99354337Y-86958389D01*
X99768218Y-86958389D01*
X99768218Y-87529267D01*
X99986684Y-88056690D01*
X100390356Y-88460362D01*
X100917779Y-88678828D01*
X101488657Y-88678828D01*
X102016080Y-88460362D01*
X102419752Y-88056690D01*
X102638218Y-87529267D01*
X102638218Y-86958389D01*
X102419752Y-86430966D01*
X102016080Y-86027294D01*
X101488657Y-85808828D01*
X100917779Y-85808828D01*
X100390356Y-86027294D01*
X99986684Y-86430966D01*
X99768218Y-86958389D01*
X99354337Y-86958389D01*
X99228944Y-86655665D01*
X98804174Y-86230895D01*
X98249186Y-86001011D01*
X97648470Y-86001011D01*
X97093482Y-86230895D01*
X96668712Y-86655665D01*
X96438828Y-87210653D01*
X95497728Y-87210653D01*
X95497728Y-86988090D01*
X95097502Y-86021859D01*
X94357980Y-85282337D01*
X93391749Y-84882111D01*
X92345907Y-84882111D01*
X91379676Y-85282337D01*
X90640154Y-86021859D01*
X90239928Y-86988090D01*
X89206640Y-86988090D01*
X89100153Y-86731011D01*
X89408914Y-86731011D01*
X90055788Y-86463067D01*
X90550884Y-85967971D01*
X90818828Y-85321097D01*
X90818828Y-84620925D01*
X90550884Y-83974051D01*
X90055788Y-83478955D01*
X89818828Y-83380803D01*
X89818828Y-82080925D01*
X93648828Y-82080925D01*
X93648828Y-82781097D01*
X93916772Y-83427971D01*
X94411868Y-83923067D01*
X95058742Y-84191011D01*
X95758914Y-84191011D01*
X96405788Y-83923067D01*
X96900884Y-83427971D01*
X97168828Y-82781097D01*
X97168828Y-82080925D01*
X96900884Y-81434051D01*
X96405788Y-80938955D01*
X95758914Y-80671011D01*
X95058742Y-80671011D01*
X94411868Y-80938955D01*
X93916772Y-81434051D01*
X93648828Y-82080925D01*
X89818828Y-82080925D01*
X89818828Y-78643828D01*
X99755778Y-78643828D01*
X99755778Y-80243828D01*
X99805061Y-80491593D01*
X99945409Y-80701637D01*
X100155453Y-80841985D01*
X100403218Y-80891268D01*
X102003218Y-80891268D01*
X102250983Y-80841985D01*
X102461027Y-80701637D01*
X102601375Y-80491593D01*
X102650658Y-80243828D01*
X102650658Y-78643828D01*
X102601375Y-78396063D01*
X102461027Y-78186019D01*
X102250983Y-78045671D01*
X102003218Y-77996388D01*
X100403218Y-77996388D01*
X100155453Y-78045671D01*
X99945409Y-78186019D01*
X99805061Y-78396063D01*
X99755778Y-78643828D01*
X89818828Y-78643828D01*
X89818828Y-75919560D01*
X90010194Y-75728194D01*
X99755778Y-75728194D01*
X99755778Y-77328194D01*
X99805061Y-77575959D01*
X99945409Y-77786003D01*
X100155453Y-77926351D01*
X100403218Y-77975634D01*
X102003218Y-77975634D01*
X102250983Y-77926351D01*
X102461027Y-77786003D01*
X102601375Y-77575959D01*
X102650658Y-77328194D01*
X102650658Y-75728194D01*
X102601375Y-75480429D01*
X102461027Y-75270385D01*
X102250983Y-75130037D01*
X102003218Y-75080754D01*
X100403218Y-75080754D01*
X100155453Y-75130037D01*
X99945409Y-75270385D01*
X99805061Y-75480429D01*
X99755778Y-75728194D01*
X90010194Y-75728194D01*
X91397691Y-74340698D01*
X102977827Y-74340698D01*
X103017626Y-74436781D01*
X103431543Y-74850698D01*
X103017626Y-75264615D01*
X102787544Y-75820082D01*
X102787544Y-76421314D01*
X103017626Y-76976781D01*
X103431543Y-77390698D01*
X103017626Y-77804615D01*
X102787544Y-78360082D01*
X102787544Y-78961314D01*
X103017626Y-79516781D01*
X103431543Y-79930698D01*
X103017626Y-80344615D01*
X102787544Y-80900082D01*
X102787544Y-81501314D01*
X103017626Y-82056781D01*
X103431543Y-82470698D01*
X103017626Y-82884615D01*
X102787544Y-83440082D01*
X102787544Y-84041314D01*
X103017626Y-84596781D01*
X103431543Y-85010698D01*
X103017626Y-85424615D01*
X102787544Y-85980082D01*
X102787544Y-86581314D01*
X103017626Y-87136781D01*
X103431543Y-87550698D01*
X103017626Y-87964615D01*
X102787544Y-88520082D01*
X102787544Y-89121314D01*
X103017626Y-89676781D01*
X103431543Y-90090698D01*
X103017626Y-90504615D01*
X102787544Y-91060082D01*
X102787544Y-91661314D01*
X103017626Y-92216781D01*
X103442761Y-92641916D01*
X103998228Y-92871998D01*
X104599460Y-92871998D01*
X105154927Y-92641916D01*
X105580062Y-92216781D01*
X105810144Y-91661314D01*
X105810144Y-91060082D01*
X105580062Y-90504615D01*
X105166145Y-90090698D01*
X105580062Y-89676781D01*
X105810144Y-89121314D01*
X105810144Y-88617773D01*
X105983498Y-88791127D01*
X106538486Y-89021011D01*
X107139202Y-89021011D01*
X107694190Y-88791127D01*
X108118960Y-88366357D01*
X108348844Y-87811369D01*
X108348844Y-87210653D01*
X108256656Y-86988090D01*
X109289944Y-86988090D01*
X109289944Y-88033932D01*
X109690170Y-89000163D01*
X110429692Y-89739685D01*
X111395923Y-90139911D01*
X112441765Y-90139911D01*
X113407996Y-89739685D01*
X114147518Y-89000163D01*
X114547744Y-88033932D01*
X114547744Y-86988090D01*
X114147518Y-86021859D01*
X113407996Y-85282337D01*
X112441765Y-84882111D01*
X111395923Y-84882111D01*
X110429692Y-85282337D01*
X109690170Y-86021859D01*
X109289944Y-86988090D01*
X108256656Y-86988090D01*
X108150169Y-86731011D01*
X108458930Y-86731011D01*
X109105804Y-86463067D01*
X109600900Y-85967971D01*
X109868844Y-85321097D01*
X109868844Y-84620925D01*
X109600900Y-83974051D01*
X109105804Y-83478955D01*
X108868844Y-83380803D01*
X108868844Y-82080925D01*
X112698844Y-82080925D01*
X112698844Y-82781097D01*
X112966788Y-83427971D01*
X113461884Y-83923067D01*
X114108758Y-84191011D01*
X114808930Y-84191011D01*
X115455804Y-83923067D01*
X115950900Y-83427971D01*
X116218844Y-82781097D01*
X116218844Y-82080925D01*
X115950900Y-81434051D01*
X115455804Y-80938955D01*
X114808930Y-80671011D01*
X114108758Y-80671011D01*
X113461884Y-80938955D01*
X112966788Y-81434051D01*
X112698844Y-82080925D01*
X108868844Y-82080925D01*
X108868844Y-73893668D01*
X108883732Y-73818821D01*
X108868844Y-73743974D01*
X108868844Y-67938074D01*
X109289944Y-67938074D01*
X109289944Y-68983916D01*
X109690170Y-69950147D01*
X110429692Y-70689669D01*
X111395923Y-71089895D01*
X112441765Y-71089895D01*
X113407996Y-70689669D01*
X114147518Y-69950147D01*
X114547744Y-68983916D01*
X114547744Y-67938074D01*
X114147518Y-66971843D01*
X113407996Y-66232321D01*
X112441765Y-65832095D01*
X111395923Y-65832095D01*
X110429692Y-66232321D01*
X109690170Y-66971843D01*
X109289944Y-67938074D01*
X108868844Y-67938074D01*
X108868844Y-67511203D01*
X109105804Y-67413051D01*
X109600900Y-66917955D01*
X109868844Y-66271081D01*
X109868844Y-65570909D01*
X109600900Y-64924035D01*
X109105804Y-64428939D01*
X108458930Y-64160995D01*
X107758758Y-64160995D01*
X107111884Y-64428939D01*
X106616788Y-64924035D01*
X106348844Y-65570909D01*
X106348844Y-66271081D01*
X106616788Y-66917955D01*
X106649828Y-66950995D01*
X106538486Y-66950995D01*
X105983498Y-67180879D01*
X105558728Y-67605649D01*
X105530885Y-67672867D01*
X105361845Y-67617302D01*
X104478449Y-68500698D01*
X105361845Y-69384094D01*
X105561013Y-69318626D01*
X105983498Y-69741111D01*
X106538486Y-69970995D01*
X107139202Y-69970995D01*
X107348845Y-69884158D01*
X107348845Y-73504017D01*
X105582460Y-75270403D01*
X105580062Y-75264615D01*
X105166145Y-74850698D01*
X105580062Y-74436781D01*
X105810144Y-73881314D01*
X105810144Y-73280082D01*
X105580062Y-72724615D01*
X105154927Y-72299480D01*
X105122324Y-72285976D01*
X105182240Y-72103699D01*
X104298844Y-71220303D01*
X103415448Y-72103699D01*
X103475364Y-72285976D01*
X103442761Y-72299480D01*
X103017626Y-72724615D01*
X102977827Y-72820698D01*
X91157737Y-72820698D01*
X91082889Y-72805810D01*
X91008041Y-72820698D01*
X91008037Y-72820698D01*
X90786352Y-72864794D01*
X90534960Y-73032769D01*
X90492560Y-73096225D01*
X89818828Y-73769957D01*
X89818828Y-67938074D01*
X90239928Y-67938074D01*
X90239928Y-68983916D01*
X90640154Y-69950147D01*
X91379676Y-70689669D01*
X92345907Y-71089895D01*
X93391749Y-71089895D01*
X94077868Y-70805695D01*
X102775962Y-70805695D01*
X102801953Y-71406366D01*
X102981817Y-71840594D01*
X103235843Y-71924094D01*
X104119239Y-71040698D01*
X104478449Y-71040698D01*
X105361845Y-71924094D01*
X105615871Y-71840594D01*
X105821726Y-71275701D01*
X105795735Y-70675030D01*
X105615871Y-70240802D01*
X105361845Y-70157302D01*
X104478449Y-71040698D01*
X104119239Y-71040698D01*
X103235843Y-70157302D01*
X102981817Y-70240802D01*
X102775962Y-70805695D01*
X94077868Y-70805695D01*
X94357980Y-70689669D01*
X95097502Y-69950147D01*
X95497728Y-68983916D01*
X95497728Y-68160637D01*
X96438828Y-68160637D01*
X96438828Y-68761353D01*
X96668712Y-69316341D01*
X97093482Y-69741111D01*
X97648470Y-69970995D01*
X98249186Y-69970995D01*
X98804174Y-69741111D01*
X99228944Y-69316341D01*
X99458828Y-68761353D01*
X99458828Y-68442755D01*
X99768218Y-68442755D01*
X99768218Y-69013633D01*
X99986684Y-69541056D01*
X100390356Y-69944728D01*
X100917779Y-70163194D01*
X101488657Y-70163194D01*
X102016080Y-69944728D01*
X102397109Y-69563699D01*
X103415448Y-69563699D01*
X103483490Y-69770698D01*
X103415448Y-69977697D01*
X104298844Y-70861093D01*
X105182240Y-69977697D01*
X105114198Y-69770698D01*
X105182240Y-69563699D01*
X104298844Y-68680303D01*
X103415448Y-69563699D01*
X102397109Y-69563699D01*
X102419752Y-69541056D01*
X102638218Y-69013633D01*
X102638218Y-68442755D01*
X102564878Y-68265695D01*
X102775962Y-68265695D01*
X102801953Y-68866366D01*
X102981817Y-69300594D01*
X103235843Y-69384094D01*
X104119239Y-68500698D01*
X103235843Y-67617302D01*
X102981817Y-67700802D01*
X102775962Y-68265695D01*
X102564878Y-68265695D01*
X102419752Y-67915332D01*
X102016080Y-67511660D01*
X101488657Y-67293194D01*
X100917779Y-67293194D01*
X100390356Y-67511660D01*
X99986684Y-67915332D01*
X99768218Y-68442755D01*
X99458828Y-68442755D01*
X99458828Y-68160637D01*
X99228944Y-67605649D01*
X98804174Y-67180879D01*
X98249186Y-66950995D01*
X97648470Y-66950995D01*
X97093482Y-67180879D01*
X96668712Y-67605649D01*
X96438828Y-68160637D01*
X95497728Y-68160637D01*
X95497728Y-67938074D01*
X95097502Y-66971843D01*
X94357980Y-66232321D01*
X93391749Y-65832095D01*
X92345907Y-65832095D01*
X91379676Y-66232321D01*
X90640154Y-66971843D01*
X90239928Y-67938074D01*
X89818828Y-67938074D01*
X89818828Y-67511203D01*
X90055788Y-67413051D01*
X90550884Y-66917955D01*
X90818828Y-66271081D01*
X90818828Y-65570909D01*
X90656952Y-65180106D01*
X90680179Y-65203333D01*
X91281110Y-65452247D01*
X91931554Y-65452247D01*
X92532485Y-65203333D01*
X92992418Y-64743400D01*
X93241332Y-64142469D01*
X93241332Y-63492025D01*
X92992418Y-62891094D01*
X92532485Y-62431161D01*
X91931554Y-62182247D01*
X91591439Y-62182247D01*
X91615254Y-62158432D01*
X91648882Y-62077247D01*
X94223560Y-62077247D01*
X93916772Y-62384035D01*
X93648828Y-63030909D01*
X93648828Y-63731081D01*
X93916772Y-64377955D01*
X94411868Y-64873051D01*
X95058742Y-65140995D01*
X95758914Y-65140995D01*
X96405788Y-64873051D01*
X96900884Y-64377955D01*
X97168828Y-63731081D01*
X97168828Y-63030909D01*
X96900884Y-62384035D01*
X96594096Y-62077247D01*
X102978716Y-62077247D01*
X102964735Y-62086589D01*
X102824387Y-62296633D01*
X102775104Y-62544398D01*
X102775104Y-64296998D01*
X102824387Y-64544763D01*
X102964735Y-64754807D01*
X103174779Y-64895155D01*
X103218408Y-64903833D01*
X103017626Y-65104615D01*
X102787544Y-65660082D01*
X102787544Y-66261314D01*
X103017626Y-66816781D01*
X103442761Y-67241916D01*
X103475364Y-67255420D01*
X103415448Y-67437697D01*
X104298844Y-68321093D01*
X105182240Y-67437697D01*
X105122324Y-67255420D01*
X105154927Y-67241916D01*
X105580062Y-66816781D01*
X105810144Y-66261314D01*
X105810144Y-65660082D01*
X105580062Y-65104615D01*
X105379280Y-64903833D01*
X105422909Y-64895155D01*
X105632953Y-64754807D01*
X105773301Y-64544763D01*
X105822584Y-64296998D01*
X105822584Y-62544398D01*
X105773301Y-62296633D01*
X105632953Y-62086589D01*
X105618972Y-62077247D01*
X109934293Y-62077247D01*
X115602511Y-67745466D01*
X115638502Y-67799330D01*
X115488844Y-68160637D01*
X115488844Y-68761353D01*
X115718728Y-69316341D01*
X116143498Y-69741111D01*
X116698486Y-69970995D01*
X117299202Y-69970995D01*
X117854190Y-69741111D01*
X118252030Y-69343271D01*
X118257626Y-69356781D01*
X118671543Y-69770698D01*
X118257626Y-70184615D01*
X118027544Y-70740082D01*
X118027544Y-71341314D01*
X118257626Y-71896781D01*
X118671543Y-72310698D01*
X118257626Y-72724615D01*
X118027544Y-73280082D01*
X118027544Y-73881314D01*
X118257626Y-74436781D01*
X118671543Y-74850698D01*
X118257626Y-75264615D01*
X118027544Y-75820082D01*
X118027544Y-76421314D01*
X118257626Y-76976781D01*
X118671543Y-77390698D01*
X118257626Y-77804615D01*
X118027544Y-78360082D01*
X118027544Y-78961314D01*
X118257626Y-79516781D01*
X118671543Y-79930698D01*
X118257626Y-80344615D01*
X118027544Y-80900082D01*
X118027544Y-81501314D01*
X118257626Y-82056781D01*
X118671543Y-82470698D01*
X118257626Y-82884615D01*
X118027544Y-83440082D01*
X118027544Y-84041314D01*
X118257626Y-84596781D01*
X118671543Y-85010698D01*
X118257626Y-85424615D01*
X118027544Y-85980082D01*
X118027544Y-86404249D01*
X117854190Y-86230895D01*
X117299202Y-86001011D01*
X116698486Y-86001011D01*
X116143498Y-86230895D01*
X115718728Y-86655665D01*
X115488844Y-87210653D01*
X115488844Y-87811369D01*
X115718728Y-88366357D01*
X116143498Y-88791127D01*
X116698486Y-89021011D01*
X117299202Y-89021011D01*
X117854190Y-88791127D01*
X118027544Y-88617773D01*
X118027544Y-89121314D01*
X118257626Y-89676781D01*
X118671543Y-90090698D01*
X118257626Y-90504615D01*
X118027544Y-91060082D01*
X118027544Y-91661314D01*
X118257626Y-92216781D01*
X118682761Y-92641916D01*
X119238228Y-92871998D01*
X119839460Y-92871998D01*
X120394927Y-92641916D01*
X120820062Y-92216781D01*
X121050144Y-91661314D01*
X121050144Y-91060082D01*
X120820062Y-90504615D01*
X120406145Y-90090698D01*
X120820062Y-89676781D01*
X121050144Y-89121314D01*
X121050144Y-88520082D01*
X120820062Y-87964615D01*
X120406145Y-87550698D01*
X120820062Y-87136781D01*
X120893954Y-86958389D01*
X121199486Y-86958389D01*
X121199486Y-87529267D01*
X121417952Y-88056690D01*
X121821624Y-88460362D01*
X122349047Y-88678828D01*
X122919925Y-88678828D01*
X123447348Y-88460362D01*
X123851020Y-88056690D01*
X124069486Y-87529267D01*
X124069486Y-86958389D01*
X123851020Y-86430966D01*
X123447348Y-86027294D01*
X122919925Y-85808828D01*
X122349047Y-85808828D01*
X121821624Y-86027294D01*
X121417952Y-86430966D01*
X121199486Y-86958389D01*
X120893954Y-86958389D01*
X121050144Y-86581314D01*
X121050144Y-85980082D01*
X120946975Y-85731011D01*
X125568652Y-85731011D01*
X125666804Y-85967971D01*
X125699844Y-86001011D01*
X125588502Y-86001011D01*
X125033514Y-86230895D01*
X124608744Y-86655665D01*
X124378860Y-87210653D01*
X124378860Y-87811369D01*
X124608744Y-88366357D01*
X125033514Y-88791127D01*
X125588502Y-89021011D01*
X126189218Y-89021011D01*
X126744206Y-88791127D01*
X127168976Y-88366357D01*
X127398860Y-87811369D01*
X127398860Y-87210653D01*
X127306672Y-86988090D01*
X128339960Y-86988090D01*
X128339960Y-88033932D01*
X128740186Y-89000163D01*
X129479708Y-89739685D01*
X130445939Y-90139911D01*
X131491781Y-90139911D01*
X132458012Y-89739685D01*
X133197534Y-89000163D01*
X133597760Y-88033932D01*
X133597760Y-87210653D01*
X134538860Y-87210653D01*
X134538860Y-87811369D01*
X134768744Y-88366357D01*
X135193514Y-88791127D01*
X135748502Y-89021011D01*
X136349218Y-89021011D01*
X136904206Y-88791127D01*
X137328976Y-88366357D01*
X137558860Y-87811369D01*
X137558860Y-87210653D01*
X137328976Y-86655665D01*
X136904206Y-86230895D01*
X136349218Y-86001011D01*
X135748502Y-86001011D01*
X135193514Y-86230895D01*
X134768744Y-86655665D01*
X134538860Y-87210653D01*
X133597760Y-87210653D01*
X133597760Y-86988090D01*
X133197534Y-86021859D01*
X132458012Y-85282337D01*
X131491781Y-84882111D01*
X130445939Y-84882111D01*
X129479708Y-85282337D01*
X128740186Y-86021859D01*
X128339960Y-86988090D01*
X127306672Y-86988090D01*
X127200185Y-86731011D01*
X127508946Y-86731011D01*
X128155820Y-86463067D01*
X128650916Y-85967971D01*
X128918860Y-85321097D01*
X128918860Y-84620925D01*
X128650916Y-83974051D01*
X128155820Y-83478955D01*
X127932471Y-83386441D01*
X127933748Y-83380020D01*
X127918860Y-83305173D01*
X127918860Y-83305169D01*
X127903867Y-83229794D01*
X127903867Y-82080925D01*
X131748860Y-82080925D01*
X131748860Y-82781097D01*
X132016804Y-83427971D01*
X132511900Y-83923067D01*
X133158774Y-84191011D01*
X133858946Y-84191011D01*
X134505820Y-83923067D01*
X135000916Y-83427971D01*
X135268860Y-82781097D01*
X135268860Y-82080925D01*
X135000916Y-81434051D01*
X134505820Y-80938955D01*
X133858946Y-80671011D01*
X133158774Y-80671011D01*
X132511900Y-80938955D01*
X132016804Y-81434051D01*
X131748860Y-82080925D01*
X127903867Y-82080925D01*
X127903867Y-77608443D01*
X129468868Y-77608443D01*
X129716633Y-77559160D01*
X129926677Y-77418812D01*
X130043930Y-77243332D01*
X130094604Y-77380390D01*
X130704329Y-77606911D01*
X131354328Y-77582859D01*
X131843132Y-77380390D01*
X131941795Y-77113535D01*
X130968868Y-76140608D01*
X130954726Y-76154751D01*
X130775121Y-75975146D01*
X130789263Y-75961003D01*
X131148473Y-75961003D01*
X132121400Y-76933930D01*
X132127354Y-76931728D01*
X132542715Y-77347089D01*
X133143646Y-77596003D01*
X133794090Y-77596003D01*
X134395021Y-77347089D01*
X134854954Y-76887156D01*
X135103868Y-76286225D01*
X135103868Y-75635781D01*
X134854954Y-75034850D01*
X134395021Y-74574917D01*
X133794090Y-74326003D01*
X133143646Y-74326003D01*
X132542715Y-74574917D01*
X132127354Y-74990278D01*
X132121400Y-74988076D01*
X131148473Y-75961003D01*
X130789263Y-75961003D01*
X130775121Y-75946861D01*
X130954726Y-75767256D01*
X130968868Y-75781398D01*
X131941795Y-74808471D01*
X131843132Y-74541616D01*
X131233407Y-74315095D01*
X130583408Y-74339147D01*
X130094604Y-74541616D01*
X130043930Y-74678674D01*
X129926677Y-74503194D01*
X129716633Y-74362846D01*
X129468868Y-74313563D01*
X127903867Y-74313563D01*
X127903867Y-67938082D01*
X128339968Y-67938082D01*
X128339968Y-68983924D01*
X128740194Y-69950155D01*
X129479716Y-70689677D01*
X130445947Y-71089903D01*
X131491789Y-71089903D01*
X132458020Y-70689677D01*
X133197542Y-69950155D01*
X133597768Y-68983924D01*
X133597768Y-68120863D01*
X134338868Y-68120863D01*
X134338868Y-68801143D01*
X134599200Y-69429640D01*
X135080231Y-69910671D01*
X135708728Y-70171003D01*
X135751330Y-70171003D01*
X135950433Y-70304039D01*
X136568868Y-70427054D01*
X137187304Y-70304039D01*
X137711589Y-69953724D01*
X138061904Y-69429439D01*
X138153868Y-68967105D01*
X138153868Y-67954900D01*
X138061904Y-67492567D01*
X137711589Y-66968282D01*
X137187303Y-66617967D01*
X136568868Y-66494952D01*
X135950432Y-66617967D01*
X135751329Y-66751003D01*
X135708728Y-66751003D01*
X135080231Y-67011335D01*
X134599200Y-67492366D01*
X134338868Y-68120863D01*
X133597768Y-68120863D01*
X133597768Y-67938082D01*
X133197542Y-66971851D01*
X132458020Y-66232329D01*
X131491789Y-65832103D01*
X130445947Y-65832103D01*
X129479716Y-66232329D01*
X128740194Y-66971851D01*
X128339968Y-67938082D01*
X127903867Y-67938082D01*
X127903867Y-67662260D01*
X127918868Y-67586845D01*
X127918868Y-67586841D01*
X127933756Y-67511993D01*
X127932479Y-67505573D01*
X128155828Y-67413059D01*
X128650924Y-66917963D01*
X128918868Y-66271089D01*
X128918868Y-65570917D01*
X128650924Y-64924043D01*
X128155828Y-64428947D01*
X127918868Y-64330795D01*
X127918868Y-63085804D01*
X127977492Y-63027180D01*
X128143646Y-63096003D01*
X128794090Y-63096003D01*
X128951221Y-63030917D01*
X131748868Y-63030917D01*
X131748868Y-63731089D01*
X132016812Y-64377963D01*
X132511908Y-64873059D01*
X133158782Y-65141003D01*
X133858954Y-65141003D01*
X134505828Y-64873059D01*
X135000924Y-64377963D01*
X135268868Y-63731089D01*
X135268868Y-63030917D01*
X135000924Y-62384043D01*
X134898619Y-62281738D01*
X135103868Y-61786225D01*
X135103868Y-61135781D01*
X134854954Y-60534850D01*
X134395021Y-60074917D01*
X133794090Y-59826003D01*
X133143646Y-59826003D01*
X132542715Y-60074917D01*
X132082782Y-60534850D01*
X131833868Y-61135781D01*
X131833868Y-61786225D01*
X132062548Y-62338307D01*
X132016812Y-62384043D01*
X131748868Y-63030917D01*
X128951221Y-63030917D01*
X129395021Y-62847089D01*
X129854954Y-62387156D01*
X130103868Y-61786225D01*
X130103868Y-61135781D01*
X129854954Y-60534850D01*
X129395021Y-60074917D01*
X128794090Y-59826003D01*
X128143646Y-59826003D01*
X127542715Y-60074917D01*
X127082782Y-60534850D01*
X126833868Y-61135781D01*
X126833868Y-61786225D01*
X126902691Y-61952379D01*
X126674398Y-62180672D01*
X126610939Y-62223074D01*
X126442964Y-62474467D01*
X126398868Y-62696152D01*
X126398868Y-62696156D01*
X126383980Y-62771003D01*
X126398868Y-62845850D01*
X126398868Y-64330795D01*
X126161908Y-64428947D01*
X125666812Y-64924043D01*
X125398868Y-65570917D01*
X125398868Y-66271089D01*
X125502615Y-66521556D01*
X125368868Y-66494952D01*
X124750432Y-66617967D01*
X124226147Y-66968282D01*
X123875832Y-67492568D01*
X123783868Y-67954901D01*
X123783868Y-68443493D01*
X123447348Y-68106973D01*
X122919925Y-67888507D01*
X122349047Y-67888507D01*
X121821624Y-68106973D01*
X121417952Y-68510645D01*
X121199486Y-69038068D01*
X121199486Y-69608946D01*
X121417952Y-70136369D01*
X121821624Y-70540041D01*
X122349047Y-70758507D01*
X122919925Y-70758507D01*
X123447348Y-70540041D01*
X123851020Y-70136369D01*
X124041278Y-69677047D01*
X124226147Y-69953724D01*
X124750433Y-70304039D01*
X125368868Y-70427054D01*
X125987304Y-70304039D01*
X126186407Y-70171003D01*
X126229008Y-70171003D01*
X126383867Y-70106858D01*
X126383868Y-83290176D01*
X126368979Y-83365028D01*
X126374153Y-83391037D01*
X126161900Y-83478955D01*
X125666804Y-83974051D01*
X125568652Y-84211011D01*
X121083960Y-84211011D01*
X121010345Y-84137397D01*
X121050144Y-84041314D01*
X121050144Y-83440082D01*
X120820062Y-82884615D01*
X120406145Y-82470698D01*
X120820062Y-82056781D01*
X121050144Y-81501314D01*
X121050144Y-80900082D01*
X120820062Y-80344615D01*
X120406145Y-79930698D01*
X120820062Y-79516781D01*
X121050144Y-78961314D01*
X121050144Y-78360082D01*
X120820062Y-77804615D01*
X120406145Y-77390698D01*
X120820062Y-76976781D01*
X121050144Y-76421314D01*
X121050144Y-76323507D01*
X121187046Y-76323507D01*
X121187046Y-77923507D01*
X121236329Y-78171272D01*
X121311430Y-78283668D01*
X121236329Y-78396063D01*
X121187046Y-78643828D01*
X121187046Y-80243828D01*
X121236329Y-80491593D01*
X121376677Y-80701637D01*
X121586721Y-80841985D01*
X121834486Y-80891268D01*
X123434486Y-80891268D01*
X123682251Y-80841985D01*
X123892295Y-80701637D01*
X124032643Y-80491593D01*
X124081926Y-80243828D01*
X124081926Y-78643828D01*
X124032643Y-78396063D01*
X123957542Y-78283668D01*
X124032643Y-78171272D01*
X124081926Y-77923507D01*
X124081926Y-76323507D01*
X124032643Y-76075742D01*
X123892295Y-75865698D01*
X123682251Y-75725350D01*
X123434486Y-75676067D01*
X121834486Y-75676067D01*
X121586721Y-75725350D01*
X121376677Y-75865698D01*
X121236329Y-76075742D01*
X121187046Y-76323507D01*
X121050144Y-76323507D01*
X121050144Y-75820082D01*
X120820062Y-75264615D01*
X120406145Y-74850698D01*
X120820062Y-74436781D01*
X121050144Y-73881314D01*
X121050144Y-73280082D01*
X120820062Y-72724615D01*
X120406145Y-72310698D01*
X120820062Y-71896781D01*
X121050144Y-71341314D01*
X121050144Y-70740082D01*
X120820062Y-70184615D01*
X120406145Y-69770698D01*
X120820062Y-69356781D01*
X121050144Y-68801314D01*
X121050144Y-68200082D01*
X120820062Y-67644615D01*
X120394927Y-67219480D01*
X120362324Y-67205976D01*
X120422240Y-67023699D01*
X119538844Y-66140303D01*
X119524702Y-66154446D01*
X119345097Y-65974841D01*
X119359239Y-65960698D01*
X119718449Y-65960698D01*
X120601845Y-66844094D01*
X120855871Y-66760594D01*
X121061726Y-66195701D01*
X121035735Y-65595030D01*
X120855871Y-65160802D01*
X120601845Y-65077302D01*
X119718449Y-65960698D01*
X119359239Y-65960698D01*
X118475843Y-65077302D01*
X118221817Y-65160802D01*
X118015962Y-65725695D01*
X118041953Y-66326366D01*
X118114287Y-66500994D01*
X116507643Y-66500994D01*
X115048437Y-65041788D01*
X115455804Y-64873051D01*
X115950900Y-64377955D01*
X116218844Y-63731081D01*
X116218844Y-63120082D01*
X118027544Y-63120082D01*
X118027544Y-63721314D01*
X118257626Y-64276781D01*
X118682761Y-64701916D01*
X118715364Y-64715420D01*
X118655448Y-64897697D01*
X119538844Y-65781093D01*
X120422240Y-64897697D01*
X120362324Y-64715420D01*
X120394927Y-64701916D01*
X120820062Y-64276781D01*
X121050144Y-63721314D01*
X121050144Y-63120082D01*
X120820062Y-62564615D01*
X120394927Y-62139480D01*
X119839460Y-61909398D01*
X119238228Y-61909398D01*
X118682761Y-62139480D01*
X118257626Y-62564615D01*
X118027544Y-63120082D01*
X116218844Y-63120082D01*
X116218844Y-63030909D01*
X115950900Y-62384035D01*
X115455804Y-61888939D01*
X114808930Y-61620995D01*
X114108758Y-61620995D01*
X113461884Y-61888939D01*
X112966788Y-62384035D01*
X112798051Y-62791403D01*
X110839425Y-60832777D01*
X110797023Y-60769318D01*
X110545631Y-60601343D01*
X110323946Y-60557247D01*
X110323941Y-60557247D01*
X110249094Y-60542359D01*
X110174247Y-60557247D01*
X91648882Y-60557247D01*
X91615254Y-60476062D01*
X91197517Y-60058325D01*
X90651717Y-59832247D01*
X90060947Y-59832247D01*
X89515147Y-60058325D01*
X89097410Y-60476062D01*
X88871332Y-61021862D01*
X88871332Y-61612632D01*
X89097410Y-62158432D01*
X89515147Y-62576169D01*
X90060947Y-62802247D01*
X90309093Y-62802247D01*
X90220246Y-62891094D01*
X89971332Y-63492025D01*
X89971332Y-64142469D01*
X90114178Y-64487329D01*
X90055788Y-64428939D01*
X89408914Y-64160995D01*
X88708742Y-64160995D01*
X88061868Y-64428939D01*
X87566772Y-64924035D01*
X87298828Y-65570909D01*
X87298828Y-66271081D01*
X87566772Y-66917955D01*
X87599812Y-66950995D01*
X87488470Y-66950995D01*
X86933482Y-67180879D01*
X86508712Y-67605649D01*
X86363369Y-67956538D01*
X86346301Y-67915332D01*
X85942629Y-67511660D01*
X85415206Y-67293194D01*
X84844328Y-67293194D01*
X84316905Y-67511660D01*
X83913233Y-67915332D01*
X83694767Y-68442755D01*
X79886637Y-68442755D01*
X79886637Y-63492025D01*
X82971332Y-63492025D01*
X82971332Y-64142469D01*
X83220246Y-64743400D01*
X83680179Y-65203333D01*
X84281110Y-65452247D01*
X84931554Y-65452247D01*
X85532485Y-65203333D01*
X85992418Y-64743400D01*
X86241332Y-64142469D01*
X86241332Y-63492025D01*
X85992418Y-62891094D01*
X85902970Y-62801646D01*
X86217790Y-62787562D01*
X86640412Y-62612506D01*
X86720685Y-62361205D01*
X85856332Y-61496852D01*
X85842190Y-61510995D01*
X85662585Y-61331390D01*
X85676727Y-61317247D01*
X86035937Y-61317247D01*
X86900290Y-62181600D01*
X87151591Y-62101327D01*
X87353050Y-61545968D01*
X87326647Y-60955789D01*
X87151591Y-60533167D01*
X86900290Y-60452894D01*
X86035937Y-61317247D01*
X85676727Y-61317247D01*
X84812374Y-60452894D01*
X84561073Y-60533167D01*
X84359614Y-61088526D01*
X84386017Y-61678705D01*
X84561073Y-62101327D01*
X84812372Y-62181599D01*
X84811724Y-62182247D01*
X84281110Y-62182247D01*
X83680179Y-62431161D01*
X83220246Y-62891094D01*
X82971332Y-63492025D01*
X79886637Y-63492025D01*
X79886637Y-60625635D01*
X80087027Y-61109420D01*
X80575090Y-61597483D01*
X81212776Y-61861621D01*
X81903002Y-61861621D01*
X82540688Y-61597483D01*
X83028751Y-61109420D01*
X83292889Y-60471734D01*
X83292889Y-60273289D01*
X84991979Y-60273289D01*
X85856332Y-61137642D01*
X86720685Y-60273289D01*
X86640412Y-60021988D01*
X86085053Y-59820529D01*
X85494874Y-59846932D01*
X85072252Y-60021988D01*
X84991979Y-60273289D01*
X83292889Y-60273289D01*
X83292889Y-59781508D01*
X83028751Y-59143822D01*
X82540688Y-58655759D01*
X82056903Y-58455369D01*
X82818441Y-58455369D01*
X82887029Y-58441726D01*
X82887031Y-58441726D01*
X82994151Y-58420418D01*
X83025543Y-58414174D01*
X83114842Y-58396411D01*
X83114844Y-58396411D01*
X83114847Y-58396410D01*
X83184481Y-58367566D01*
X83370784Y-58290398D01*
X83563918Y-58161351D01*
X83563920Y-58161349D01*
X83563922Y-58161348D01*
X83641485Y-58083785D01*
X83719047Y-58161348D01*
X83719049Y-58161349D01*
X83719051Y-58161351D01*
X83912186Y-58290398D01*
X84054576Y-58349377D01*
X84168122Y-58396410D01*
X84257426Y-58414174D01*
X84288818Y-58420418D01*
X84395938Y-58441726D01*
X84395940Y-58441726D01*
X84464528Y-58455369D01*
X85795006Y-58455369D01*
X85863594Y-58441726D01*
X85863596Y-58441726D01*
X85970716Y-58420418D01*
X86002108Y-58414174D01*
X86091407Y-58396411D01*
X86091409Y-58396411D01*
X86091412Y-58396410D01*
X86161046Y-58367566D01*
X86347349Y-58290398D01*
X86540483Y-58161351D01*
X86540485Y-58161349D01*
X86540487Y-58161348D01*
X86618050Y-58083785D01*
X86695612Y-58161348D01*
X86695614Y-58161349D01*
X86695616Y-58161351D01*
X86888751Y-58290398D01*
X87031141Y-58349377D01*
X87144687Y-58396410D01*
X87233991Y-58414174D01*
X87265383Y-58420418D01*
X87372503Y-58441726D01*
X87372505Y-58441726D01*
X87441093Y-58455369D01*
X88771571Y-58455369D01*
X88840159Y-58441726D01*
X88840161Y-58441726D01*
X88947281Y-58420418D01*
X88978673Y-58414174D01*
X89067972Y-58396411D01*
X89067974Y-58396411D01*
X89067977Y-58396410D01*
X89137611Y-58367566D01*
X89323914Y-58290398D01*
X89517048Y-58161351D01*
X89517050Y-58161349D01*
X89517052Y-58161348D01*
X89594615Y-58083785D01*
X89672177Y-58161348D01*
X89672179Y-58161349D01*
X89672181Y-58161351D01*
X89865316Y-58290398D01*
X90007706Y-58349377D01*
X90121252Y-58396410D01*
X90210556Y-58414174D01*
X90241948Y-58420418D01*
X90349068Y-58441726D01*
X90349070Y-58441726D01*
X90417658Y-58455369D01*
X91748136Y-58455369D01*
X91816724Y-58441726D01*
X91816726Y-58441726D01*
X91923846Y-58420418D01*
X91955238Y-58414174D01*
X92044537Y-58396411D01*
X92044539Y-58396411D01*
X92044542Y-58396410D01*
X92114176Y-58367566D01*
X92300479Y-58290398D01*
X92493613Y-58161351D01*
X92493615Y-58161349D01*
X92493617Y-58161348D01*
X92571180Y-58083785D01*
X92648742Y-58161348D01*
X92648744Y-58161349D01*
X92648746Y-58161351D01*
X92841881Y-58290398D01*
X92984271Y-58349377D01*
X93097817Y-58396410D01*
X93187121Y-58414174D01*
X93218513Y-58420418D01*
X93325633Y-58441726D01*
X93325635Y-58441726D01*
X93394223Y-58455369D01*
X94724701Y-58455369D01*
X94793289Y-58441726D01*
X94793291Y-58441726D01*
X94900411Y-58420418D01*
X94931803Y-58414174D01*
X95021102Y-58396411D01*
X95021104Y-58396411D01*
X95021107Y-58396410D01*
X95090741Y-58367566D01*
X95277044Y-58290398D01*
X95470178Y-58161351D01*
X95470180Y-58161349D01*
X95470182Y-58161348D01*
X95547745Y-58083785D01*
X95625307Y-58161348D01*
X95625309Y-58161349D01*
X95625311Y-58161351D01*
X95818446Y-58290398D01*
X95960836Y-58349377D01*
X96074382Y-58396410D01*
X96163686Y-58414174D01*
X96195078Y-58420418D01*
X96302198Y-58441726D01*
X96302200Y-58441726D01*
X96370788Y-58455369D01*
X97701266Y-58455369D01*
X97769854Y-58441726D01*
X97769856Y-58441726D01*
X97876976Y-58420418D01*
X97908368Y-58414174D01*
X97997667Y-58396411D01*
X97997669Y-58396411D01*
X97997672Y-58396410D01*
X98067306Y-58367566D01*
X98253609Y-58290398D01*
X98446743Y-58161351D01*
X98446745Y-58161349D01*
X98446747Y-58161348D01*
X98524310Y-58083785D01*
X98601872Y-58161348D01*
X98601874Y-58161349D01*
X98601876Y-58161351D01*
X98795011Y-58290398D01*
X98937401Y-58349377D01*
X99050947Y-58396410D01*
X99140251Y-58414174D01*
X99171643Y-58420418D01*
X99278763Y-58441726D01*
X99278765Y-58441726D01*
X99347353Y-58455369D01*
X100677831Y-58455369D01*
X100746419Y-58441726D01*
X100746421Y-58441726D01*
X100853541Y-58420418D01*
X100884933Y-58414174D01*
X100974232Y-58396411D01*
X100974234Y-58396411D01*
X100974237Y-58396410D01*
X101043871Y-58367566D01*
X101230174Y-58290398D01*
X101423308Y-58161351D01*
X101423310Y-58161349D01*
X101423312Y-58161348D01*
X101500875Y-58083785D01*
X101578437Y-58161348D01*
X101578439Y-58161349D01*
X101578441Y-58161351D01*
X101771576Y-58290398D01*
X101913966Y-58349377D01*
X102027512Y-58396410D01*
X102116816Y-58414174D01*
X102148208Y-58420418D01*
X102255328Y-58441726D01*
X102255330Y-58441726D01*
X102323918Y-58455369D01*
X103654396Y-58455369D01*
X103722984Y-58441726D01*
X103722986Y-58441726D01*
X103830106Y-58420418D01*
X103861498Y-58414174D01*
X103950797Y-58396411D01*
X103950799Y-58396411D01*
X103950802Y-58396410D01*
X104020436Y-58367566D01*
X104206739Y-58290398D01*
X104399873Y-58161351D01*
X104399875Y-58161349D01*
X104399877Y-58161348D01*
X104477440Y-58083785D01*
X104555002Y-58161348D01*
X104555004Y-58161349D01*
X104555006Y-58161351D01*
X104748141Y-58290398D01*
X104890531Y-58349377D01*
X105004077Y-58396410D01*
X105093381Y-58414174D01*
X105124773Y-58420418D01*
X105231893Y-58441726D01*
X105231895Y-58441726D01*
X105300483Y-58455369D01*
X106630961Y-58455369D01*
X106699549Y-58441726D01*
X106699551Y-58441726D01*
X106806671Y-58420418D01*
X106838063Y-58414174D01*
X106927362Y-58396411D01*
X106927364Y-58396411D01*
X106927367Y-58396410D01*
X106997001Y-58367566D01*
X107183304Y-58290398D01*
X107376438Y-58161351D01*
X107376440Y-58161349D01*
X107376442Y-58161348D01*
X107454005Y-58083785D01*
X107531567Y-58161348D01*
X107531569Y-58161349D01*
X107531571Y-58161351D01*
X107724706Y-58290398D01*
X107867096Y-58349377D01*
X107980642Y-58396410D01*
X108069946Y-58414174D01*
X108101338Y-58420418D01*
X108208458Y-58441726D01*
X108208460Y-58441726D01*
X108277048Y-58455369D01*
X109607526Y-58455369D01*
X109676114Y-58441726D01*
X109676116Y-58441726D01*
X109783236Y-58420418D01*
X109814628Y-58414174D01*
X109903927Y-58396411D01*
X109903929Y-58396411D01*
X109903932Y-58396410D01*
X109973566Y-58367566D01*
X110159869Y-58290398D01*
X110353003Y-58161351D01*
X110353005Y-58161349D01*
X110353007Y-58161348D01*
X110430570Y-58083785D01*
X110508132Y-58161348D01*
X110508134Y-58161349D01*
X110508136Y-58161351D01*
X110701271Y-58290398D01*
X110843661Y-58349377D01*
X110957207Y-58396410D01*
X111046511Y-58414174D01*
X111077903Y-58420418D01*
X111185023Y-58441726D01*
X111185025Y-58441726D01*
X111253613Y-58455369D01*
X112584091Y-58455369D01*
X112652679Y-58441726D01*
X112652681Y-58441726D01*
X112759801Y-58420418D01*
X112791193Y-58414174D01*
X112880492Y-58396411D01*
X112880494Y-58396411D01*
X112880497Y-58396410D01*
X112950131Y-58367566D01*
X113136434Y-58290398D01*
X113329568Y-58161351D01*
X113329570Y-58161349D01*
X113329572Y-58161348D01*
X113407135Y-58083785D01*
X113484697Y-58161348D01*
X113484699Y-58161349D01*
X113484701Y-58161351D01*
X113677836Y-58290398D01*
X113820226Y-58349377D01*
X113933772Y-58396410D01*
X114023076Y-58414174D01*
X114054468Y-58420418D01*
X114161588Y-58441726D01*
X114161590Y-58441726D01*
X114230178Y-58455369D01*
X115560656Y-58455369D01*
X115629244Y-58441726D01*
X115629246Y-58441726D01*
X115736366Y-58420418D01*
X115767758Y-58414174D01*
X115857057Y-58396411D01*
X115857059Y-58396411D01*
X115857062Y-58396410D01*
X115926696Y-58367566D01*
X116112999Y-58290398D01*
X116306133Y-58161351D01*
X116306135Y-58161349D01*
X116306137Y-58161348D01*
X116383700Y-58083785D01*
X116461262Y-58161348D01*
X116461264Y-58161349D01*
X116461266Y-58161351D01*
X116654401Y-58290398D01*
X116796791Y-58349377D01*
X116910337Y-58396410D01*
X116999641Y-58414174D01*
X117031033Y-58420418D01*
X117138153Y-58441726D01*
X117138155Y-58441726D01*
X117206743Y-58455369D01*
X118537221Y-58455369D01*
X118605809Y-58441726D01*
X118605811Y-58441726D01*
X118712931Y-58420418D01*
X118744323Y-58414174D01*
X118833622Y-58396411D01*
X118833624Y-58396411D01*
X118833627Y-58396410D01*
X118903261Y-58367566D01*
X119089564Y-58290398D01*
X119282698Y-58161351D01*
X119282700Y-58161349D01*
X119282702Y-58161348D01*
X119360265Y-58083785D01*
X119437827Y-58161348D01*
X119437829Y-58161349D01*
X119437831Y-58161351D01*
X119630966Y-58290398D01*
X119773356Y-58349377D01*
X119886902Y-58396410D01*
X119976206Y-58414174D01*
X120007598Y-58420418D01*
X120114718Y-58441726D01*
X120114720Y-58441726D01*
X120183308Y-58455369D01*
X121513786Y-58455369D01*
X121582374Y-58441726D01*
X121582376Y-58441726D01*
X121689496Y-58420418D01*
X121720888Y-58414174D01*
X121810187Y-58396411D01*
X121810189Y-58396411D01*
X121810192Y-58396410D01*
X121879826Y-58367566D01*
X122066129Y-58290398D01*
X122259263Y-58161351D01*
X122259265Y-58161349D01*
X122259267Y-58161348D01*
X122336830Y-58083785D01*
X122414392Y-58161348D01*
X122414394Y-58161349D01*
X122414396Y-58161351D01*
X122607531Y-58290398D01*
X122749921Y-58349377D01*
X122863467Y-58396410D01*
X122952771Y-58414174D01*
X122984163Y-58420418D01*
X123091283Y-58441726D01*
X123091285Y-58441726D01*
X123159873Y-58455369D01*
X124490351Y-58455369D01*
X124558939Y-58441726D01*
X124558941Y-58441726D01*
X124666061Y-58420418D01*
X124697453Y-58414174D01*
X124786752Y-58396411D01*
X124786754Y-58396411D01*
X124786757Y-58396410D01*
X124856391Y-58367566D01*
X125042694Y-58290398D01*
X125235828Y-58161351D01*
X125235830Y-58161349D01*
X125235832Y-58161348D01*
X125313395Y-58083785D01*
X125390957Y-58161348D01*
X125390959Y-58161349D01*
X125390961Y-58161351D01*
X125584096Y-58290398D01*
X125726486Y-58349377D01*
X125840032Y-58396410D01*
X125929336Y-58414174D01*
X125960728Y-58420418D01*
X126067848Y-58441726D01*
X126067850Y-58441726D01*
X126136438Y-58455369D01*
X127466916Y-58455369D01*
X127535504Y-58441726D01*
X127535506Y-58441726D01*
X127642626Y-58420418D01*
X127674018Y-58414174D01*
X127763317Y-58396411D01*
X127763319Y-58396411D01*
X127763322Y-58396410D01*
X127832956Y-58367566D01*
X128019259Y-58290398D01*
X128212393Y-58161351D01*
X128212395Y-58161349D01*
X128212397Y-58161348D01*
X128289960Y-58083785D01*
X128367522Y-58161348D01*
X128367524Y-58161349D01*
X128367526Y-58161351D01*
X128560661Y-58290398D01*
X128703051Y-58349377D01*
X128816597Y-58396410D01*
X128905901Y-58414174D01*
X128937293Y-58420418D01*
X129044413Y-58441726D01*
X129044415Y-58441726D01*
X129113003Y-58455369D01*
X130443481Y-58455369D01*
X130512069Y-58441726D01*
X130512071Y-58441726D01*
X130619191Y-58420418D01*
X130650583Y-58414174D01*
X130739882Y-58396411D01*
X130739884Y-58396411D01*
X130739887Y-58396410D01*
X130809521Y-58367566D01*
X130995824Y-58290398D01*
X131188958Y-58161351D01*
X131188960Y-58161349D01*
X131188962Y-58161348D01*
X131266525Y-58083785D01*
X131344087Y-58161348D01*
X131344089Y-58161349D01*
X131344091Y-58161351D01*
X131537226Y-58290398D01*
X131679616Y-58349377D01*
X131793162Y-58396410D01*
X131882466Y-58414174D01*
X131913858Y-58420418D01*
X132020978Y-58441726D01*
X132020980Y-58441726D01*
X132089568Y-58455369D01*
X133420046Y-58455369D01*
X133488634Y-58441726D01*
X133488636Y-58441726D01*
X133595756Y-58420418D01*
X133627148Y-58414174D01*
X133716447Y-58396411D01*
X133716449Y-58396411D01*
X133716452Y-58396410D01*
X133786086Y-58367566D01*
X133972389Y-58290398D01*
X134165523Y-58161351D01*
X134165525Y-58161349D01*
X134165527Y-58161348D01*
X134243090Y-58083785D01*
X134320652Y-58161348D01*
X134320654Y-58161349D01*
X134320656Y-58161351D01*
X134513791Y-58290398D01*
X134656181Y-58349377D01*
X134769727Y-58396410D01*
X134859031Y-58414174D01*
X134890423Y-58420418D01*
X134997543Y-58441726D01*
X134997545Y-58441726D01*
X135066133Y-58455369D01*
X136396611Y-58455369D01*
X136465199Y-58441726D01*
X136465201Y-58441726D01*
X136572321Y-58420418D01*
X136603713Y-58414174D01*
X136693012Y-58396411D01*
X136693014Y-58396411D01*
X136693017Y-58396410D01*
X136762651Y-58367566D01*
X136948954Y-58290398D01*
X137142088Y-58161351D01*
X137142090Y-58161349D01*
X137142092Y-58161348D01*
X137219655Y-58083785D01*
X137297217Y-58161348D01*
X137297219Y-58161349D01*
X137297221Y-58161351D01*
X137490356Y-58290398D01*
X137632746Y-58349377D01*
X137746292Y-58396410D01*
X137835596Y-58414174D01*
X137866988Y-58420418D01*
X137974108Y-58441726D01*
X137974110Y-58441726D01*
X138042698Y-58455369D01*
X139373176Y-58455369D01*
X139441764Y-58441726D01*
X139441766Y-58441726D01*
X139548886Y-58420418D01*
X139580278Y-58414174D01*
X139669577Y-58396411D01*
X139669579Y-58396411D01*
X139669582Y-58396410D01*
X139739216Y-58367566D01*
X139925519Y-58290398D01*
X140118653Y-58161351D01*
X140118655Y-58161349D01*
X140118657Y-58161348D01*
X140196220Y-58083785D01*
X140273782Y-58161348D01*
X140273782Y-58161348D01*
G37*
X140273782Y-58161348D02*
X140273784Y-58161349D01*
X140273786Y-58161351D01*
X140466921Y-58290398D01*
X140609311Y-58349377D01*
X140722857Y-58396410D01*
X140812161Y-58414174D01*
X140843553Y-58420418D01*
X140950673Y-58441726D01*
X140950675Y-58441726D01*
X141019263Y-58455369D01*
X141780801Y-58455369D01*
X141297016Y-58655759D01*
X140808953Y-59143822D01*
X140544815Y-59781508D01*
X140544815Y-60471734D01*
X140808953Y-61109420D01*
X141297016Y-61597483D01*
X141934702Y-61861621D01*
X142624928Y-61861621D01*
X143262614Y-61597483D01*
X143750677Y-61109420D01*
X143951067Y-60625635D01*
X143951068Y-95346389D01*
X143750677Y-94862602D01*
X143262614Y-94374539D01*
X142624928Y-94110401D01*
X141934702Y-94110401D01*
X141297016Y-94374539D01*
X140808953Y-94862602D01*
X140544815Y-95500288D01*
X140544815Y-96190514D01*
X140808953Y-96828200D01*
X141297016Y-97316263D01*
X141780801Y-97516653D01*
X82056903Y-97516653D01*
X82540688Y-97316263D01*
X83028751Y-96828200D01*
X83292889Y-96190514D01*
X83292889Y-95500288D01*
X83028751Y-94862602D01*
X82540688Y-94374539D01*
X81903002Y-94110401D01*
X81212776Y-94110401D01*
X80575090Y-94374539D01*
X80087027Y-94862602D01*
X79886637Y-95346387D01*
X79886637Y-78643828D01*
X83682327Y-78643828D01*
X83682327Y-80243828D01*
X83731610Y-80491593D01*
X83871958Y-80701637D01*
X84082002Y-80841985D01*
X84329767Y-80891268D01*
X85929767Y-80891268D01*
X86177532Y-80841985D01*
X86387576Y-80701637D01*
X86527924Y-80491593D01*
X86577207Y-80243828D01*
X86577207Y-78643828D01*
X86527924Y-78396063D01*
X86387576Y-78186019D01*
X86177532Y-78045671D01*
X85929767Y-77996388D01*
X84329767Y-77996388D01*
X84082002Y-78045671D01*
X83871958Y-78186019D01*
X83731610Y-78396063D01*
X83682327Y-78643828D01*
X79886637Y-78643828D01*
X79886637Y-75728194D01*
X83682327Y-75728194D01*
X83682327Y-77328194D01*
X83731610Y-77575959D01*
X83871958Y-77786003D01*
X84082002Y-77926351D01*
X84329767Y-77975634D01*
X85929767Y-77975634D01*
X86177532Y-77926351D01*
X86387576Y-77786003D01*
X86527924Y-77575959D01*
X86577207Y-77328194D01*
X86577207Y-75728194D01*
X86527924Y-75480429D01*
X86387576Y-75270385D01*
X86177532Y-75130037D01*
X85929767Y-75080754D01*
X84329767Y-75080754D01*
X84082002Y-75130037D01*
X83871958Y-75270385D01*
X83731610Y-75480429D01*
X83682327Y-75728194D01*
X79886637Y-75728194D01*
X79886637Y-68442755D01*
X83694767Y-68442755D01*
X83694767Y-69013633D01*
X83913233Y-69541056D01*
X84316905Y-69944728D01*
X84844328Y-70163194D01*
X85415206Y-70163194D01*
X85942629Y-69944728D01*
X86346301Y-69541056D01*
X86474047Y-69232651D01*
X86508712Y-69316341D01*
X86933482Y-69741111D01*
X87488470Y-69970995D01*
X88089186Y-69970995D01*
X88298828Y-69884158D01*
X88298829Y-75529903D01*
X88298828Y-75529908D01*
X88298828Y-75529912D01*
X88283940Y-75604759D01*
X88298828Y-75679606D01*
X88298829Y-83380803D01*
X88061868Y-83478955D01*
X87566772Y-83974051D01*
X87298828Y-84620925D01*
X87298828Y-85321097D01*
X87566772Y-85967971D01*
X87599812Y-86001011D01*
X87488470Y-86001011D01*
X86933482Y-86230895D01*
X86508712Y-86655665D01*
X86474043Y-86739363D01*
X86346301Y-86430966D01*
X85942629Y-86027294D01*
X85415206Y-85808828D01*
X84844328Y-85808828D01*
X84316905Y-86027294D01*
X83913233Y-86430966D01*
X83694767Y-86958389D01*
X83694767Y-87529267D01*
X83913233Y-88056690D01*
X84316905Y-88460362D01*
X84844328Y-88678828D01*
X85415206Y-88678828D01*
X85942629Y-88460362D01*
X86346301Y-88056690D01*
X86363372Y-88015476D01*
X86508712Y-88366357D01*
X86933482Y-88791127D01*
X87488470Y-89021011D01*
X88089186Y-89021011D01*
X88644174Y-88791127D01*
X89068944Y-88366357D01*
X89298828Y-87811369D01*
X89298828Y-87210653D01*
X89206640Y-86988090D01*
X90239928Y-86988090D01*
X90239928Y-88033932D01*
X90640154Y-89000163D01*
X91379676Y-89739685D01*
X92345907Y-90139911D01*
X93391749Y-90139911D01*
X94357980Y-89739685D01*
X95097502Y-89000163D01*
X95497728Y-88033932D01*
X95497728Y-87210653D01*
X96438828Y-87210653D01*
X96438828Y-87811369D01*
X96668712Y-88366357D01*
X97093482Y-88791127D01*
X97648470Y-89021011D01*
X98249186Y-89021011D01*
X98804174Y-88791127D01*
X99228944Y-88366357D01*
X99458828Y-87811369D01*
X99458828Y-87210653D01*
X99354337Y-86958389D01*
X99768218Y-86958389D01*
X99768218Y-87529267D01*
X99986684Y-88056690D01*
X100390356Y-88460362D01*
X100917779Y-88678828D01*
X101488657Y-88678828D01*
X102016080Y-88460362D01*
X102419752Y-88056690D01*
X102638218Y-87529267D01*
X102638218Y-86958389D01*
X102419752Y-86430966D01*
X102016080Y-86027294D01*
X101488657Y-85808828D01*
X100917779Y-85808828D01*
X100390356Y-86027294D01*
X99986684Y-86430966D01*
X99768218Y-86958389D01*
X99354337Y-86958389D01*
X99228944Y-86655665D01*
X98804174Y-86230895D01*
X98249186Y-86001011D01*
X97648470Y-86001011D01*
X97093482Y-86230895D01*
X96668712Y-86655665D01*
X96438828Y-87210653D01*
X95497728Y-87210653D01*
X95497728Y-86988090D01*
X95097502Y-86021859D01*
X94357980Y-85282337D01*
X93391749Y-84882111D01*
X92345907Y-84882111D01*
X91379676Y-85282337D01*
X90640154Y-86021859D01*
X90239928Y-86988090D01*
X89206640Y-86988090D01*
X89100153Y-86731011D01*
X89408914Y-86731011D01*
X90055788Y-86463067D01*
X90550884Y-85967971D01*
X90818828Y-85321097D01*
X90818828Y-84620925D01*
X90550884Y-83974051D01*
X90055788Y-83478955D01*
X89818828Y-83380803D01*
X89818828Y-82080925D01*
X93648828Y-82080925D01*
X93648828Y-82781097D01*
X93916772Y-83427971D01*
X94411868Y-83923067D01*
X95058742Y-84191011D01*
X95758914Y-84191011D01*
X96405788Y-83923067D01*
X96900884Y-83427971D01*
X97168828Y-82781097D01*
X97168828Y-82080925D01*
X96900884Y-81434051D01*
X96405788Y-80938955D01*
X95758914Y-80671011D01*
X95058742Y-80671011D01*
X94411868Y-80938955D01*
X93916772Y-81434051D01*
X93648828Y-82080925D01*
X89818828Y-82080925D01*
X89818828Y-78643828D01*
X99755778Y-78643828D01*
X99755778Y-80243828D01*
X99805061Y-80491593D01*
X99945409Y-80701637D01*
X100155453Y-80841985D01*
X100403218Y-80891268D01*
X102003218Y-80891268D01*
X102250983Y-80841985D01*
X102461027Y-80701637D01*
X102601375Y-80491593D01*
X102650658Y-80243828D01*
X102650658Y-78643828D01*
X102601375Y-78396063D01*
X102461027Y-78186019D01*
X102250983Y-78045671D01*
X102003218Y-77996388D01*
X100403218Y-77996388D01*
X100155453Y-78045671D01*
X99945409Y-78186019D01*
X99805061Y-78396063D01*
X99755778Y-78643828D01*
X89818828Y-78643828D01*
X89818828Y-75919560D01*
X90010194Y-75728194D01*
X99755778Y-75728194D01*
X99755778Y-77328194D01*
X99805061Y-77575959D01*
X99945409Y-77786003D01*
X100155453Y-77926351D01*
X100403218Y-77975634D01*
X102003218Y-77975634D01*
X102250983Y-77926351D01*
X102461027Y-77786003D01*
X102601375Y-77575959D01*
X102650658Y-77328194D01*
X102650658Y-75728194D01*
X102601375Y-75480429D01*
X102461027Y-75270385D01*
X102250983Y-75130037D01*
X102003218Y-75080754D01*
X100403218Y-75080754D01*
X100155453Y-75130037D01*
X99945409Y-75270385D01*
X99805061Y-75480429D01*
X99755778Y-75728194D01*
X90010194Y-75728194D01*
X91397691Y-74340698D01*
X102977827Y-74340698D01*
X103017626Y-74436781D01*
X103431543Y-74850698D01*
X103017626Y-75264615D01*
X102787544Y-75820082D01*
X102787544Y-76421314D01*
X103017626Y-76976781D01*
X103431543Y-77390698D01*
X103017626Y-77804615D01*
X102787544Y-78360082D01*
X102787544Y-78961314D01*
X103017626Y-79516781D01*
X103431543Y-79930698D01*
X103017626Y-80344615D01*
X102787544Y-80900082D01*
X102787544Y-81501314D01*
X103017626Y-82056781D01*
X103431543Y-82470698D01*
X103017626Y-82884615D01*
X102787544Y-83440082D01*
X102787544Y-84041314D01*
X103017626Y-84596781D01*
X103431543Y-85010698D01*
X103017626Y-85424615D01*
X102787544Y-85980082D01*
X102787544Y-86581314D01*
X103017626Y-87136781D01*
X103431543Y-87550698D01*
X103017626Y-87964615D01*
X102787544Y-88520082D01*
X102787544Y-89121314D01*
X103017626Y-89676781D01*
X103431543Y-90090698D01*
X103017626Y-90504615D01*
X102787544Y-91060082D01*
X102787544Y-91661314D01*
X103017626Y-92216781D01*
X103442761Y-92641916D01*
X103998228Y-92871998D01*
X104599460Y-92871998D01*
X105154927Y-92641916D01*
X105580062Y-92216781D01*
X105810144Y-91661314D01*
X105810144Y-91060082D01*
X105580062Y-90504615D01*
X105166145Y-90090698D01*
X105580062Y-89676781D01*
X105810144Y-89121314D01*
X105810144Y-88617773D01*
X105983498Y-88791127D01*
X106538486Y-89021011D01*
X107139202Y-89021011D01*
X107694190Y-88791127D01*
X108118960Y-88366357D01*
X108348844Y-87811369D01*
X108348844Y-87210653D01*
X108256656Y-86988090D01*
X109289944Y-86988090D01*
X109289944Y-88033932D01*
X109690170Y-89000163D01*
X110429692Y-89739685D01*
X111395923Y-90139911D01*
X112441765Y-90139911D01*
X113407996Y-89739685D01*
X114147518Y-89000163D01*
X114547744Y-88033932D01*
X114547744Y-86988090D01*
X114147518Y-86021859D01*
X113407996Y-85282337D01*
X112441765Y-84882111D01*
X111395923Y-84882111D01*
X110429692Y-85282337D01*
X109690170Y-86021859D01*
X109289944Y-86988090D01*
X108256656Y-86988090D01*
X108150169Y-86731011D01*
X108458930Y-86731011D01*
X109105804Y-86463067D01*
X109600900Y-85967971D01*
X109868844Y-85321097D01*
X109868844Y-84620925D01*
X109600900Y-83974051D01*
X109105804Y-83478955D01*
X108868844Y-83380803D01*
X108868844Y-82080925D01*
X112698844Y-82080925D01*
X112698844Y-82781097D01*
X112966788Y-83427971D01*
X113461884Y-83923067D01*
X114108758Y-84191011D01*
X114808930Y-84191011D01*
X115455804Y-83923067D01*
X115950900Y-83427971D01*
X116218844Y-82781097D01*
X116218844Y-82080925D01*
X115950900Y-81434051D01*
X115455804Y-80938955D01*
X114808930Y-80671011D01*
X114108758Y-80671011D01*
X113461884Y-80938955D01*
X112966788Y-81434051D01*
X112698844Y-82080925D01*
X108868844Y-82080925D01*
X108868844Y-73893668D01*
X108883732Y-73818821D01*
X108868844Y-73743974D01*
X108868844Y-67938074D01*
X109289944Y-67938074D01*
X109289944Y-68983916D01*
X109690170Y-69950147D01*
X110429692Y-70689669D01*
X111395923Y-71089895D01*
X112441765Y-71089895D01*
X113407996Y-70689669D01*
X114147518Y-69950147D01*
X114547744Y-68983916D01*
X114547744Y-67938074D01*
X114147518Y-66971843D01*
X113407996Y-66232321D01*
X112441765Y-65832095D01*
X111395923Y-65832095D01*
X110429692Y-66232321D01*
X109690170Y-66971843D01*
X109289944Y-67938074D01*
X108868844Y-67938074D01*
X108868844Y-67511203D01*
X109105804Y-67413051D01*
X109600900Y-66917955D01*
X109868844Y-66271081D01*
X109868844Y-65570909D01*
X109600900Y-64924035D01*
X109105804Y-64428939D01*
X108458930Y-64160995D01*
X107758758Y-64160995D01*
X107111884Y-64428939D01*
X106616788Y-64924035D01*
X106348844Y-65570909D01*
X106348844Y-66271081D01*
X106616788Y-66917955D01*
X106649828Y-66950995D01*
X106538486Y-66950995D01*
X105983498Y-67180879D01*
X105558728Y-67605649D01*
X105530885Y-67672867D01*
X105361845Y-67617302D01*
X104478449Y-68500698D01*
X105361845Y-69384094D01*
X105561013Y-69318626D01*
X105983498Y-69741111D01*
X106538486Y-69970995D01*
X107139202Y-69970995D01*
X107348845Y-69884158D01*
X107348845Y-73504017D01*
X105582460Y-75270403D01*
X105580062Y-75264615D01*
X105166145Y-74850698D01*
X105580062Y-74436781D01*
X105810144Y-73881314D01*
X105810144Y-73280082D01*
X105580062Y-72724615D01*
X105154927Y-72299480D01*
X105122324Y-72285976D01*
X105182240Y-72103699D01*
X104298844Y-71220303D01*
X103415448Y-72103699D01*
X103475364Y-72285976D01*
X103442761Y-72299480D01*
X103017626Y-72724615D01*
X102977827Y-72820698D01*
X91157737Y-72820698D01*
X91082889Y-72805810D01*
X91008041Y-72820698D01*
X91008037Y-72820698D01*
X90786352Y-72864794D01*
X90534960Y-73032769D01*
X90492560Y-73096225D01*
X89818828Y-73769957D01*
X89818828Y-67938074D01*
X90239928Y-67938074D01*
X90239928Y-68983916D01*
X90640154Y-69950147D01*
X91379676Y-70689669D01*
X92345907Y-71089895D01*
X93391749Y-71089895D01*
X94077868Y-70805695D01*
X102775962Y-70805695D01*
X102801953Y-71406366D01*
X102981817Y-71840594D01*
X103235843Y-71924094D01*
X104119239Y-71040698D01*
X104478449Y-71040698D01*
X105361845Y-71924094D01*
X105615871Y-71840594D01*
X105821726Y-71275701D01*
X105795735Y-70675030D01*
X105615871Y-70240802D01*
X105361845Y-70157302D01*
X104478449Y-71040698D01*
X104119239Y-71040698D01*
X103235843Y-70157302D01*
X102981817Y-70240802D01*
X102775962Y-70805695D01*
X94077868Y-70805695D01*
X94357980Y-70689669D01*
X95097502Y-69950147D01*
X95497728Y-68983916D01*
X95497728Y-68160637D01*
X96438828Y-68160637D01*
X96438828Y-68761353D01*
X96668712Y-69316341D01*
X97093482Y-69741111D01*
X97648470Y-69970995D01*
X98249186Y-69970995D01*
X98804174Y-69741111D01*
X99228944Y-69316341D01*
X99458828Y-68761353D01*
X99458828Y-68442755D01*
X99768218Y-68442755D01*
X99768218Y-69013633D01*
X99986684Y-69541056D01*
X100390356Y-69944728D01*
X100917779Y-70163194D01*
X101488657Y-70163194D01*
X102016080Y-69944728D01*
X102397109Y-69563699D01*
X103415448Y-69563699D01*
X103483490Y-69770698D01*
X103415448Y-69977697D01*
X104298844Y-70861093D01*
X105182240Y-69977697D01*
X105114198Y-69770698D01*
X105182240Y-69563699D01*
X104298844Y-68680303D01*
X103415448Y-69563699D01*
X102397109Y-69563699D01*
X102419752Y-69541056D01*
X102638218Y-69013633D01*
X102638218Y-68442755D01*
X102564878Y-68265695D01*
X102775962Y-68265695D01*
X102801953Y-68866366D01*
X102981817Y-69300594D01*
X103235843Y-69384094D01*
X104119239Y-68500698D01*
X103235843Y-67617302D01*
X102981817Y-67700802D01*
X102775962Y-68265695D01*
X102564878Y-68265695D01*
X102419752Y-67915332D01*
X102016080Y-67511660D01*
X101488657Y-67293194D01*
X100917779Y-67293194D01*
X100390356Y-67511660D01*
X99986684Y-67915332D01*
X99768218Y-68442755D01*
X99458828Y-68442755D01*
X99458828Y-68160637D01*
X99228944Y-67605649D01*
X98804174Y-67180879D01*
X98249186Y-66950995D01*
X97648470Y-66950995D01*
X97093482Y-67180879D01*
X96668712Y-67605649D01*
X96438828Y-68160637D01*
X95497728Y-68160637D01*
X95497728Y-67938074D01*
X95097502Y-66971843D01*
X94357980Y-66232321D01*
X93391749Y-65832095D01*
X92345907Y-65832095D01*
X91379676Y-66232321D01*
X90640154Y-66971843D01*
X90239928Y-67938074D01*
X89818828Y-67938074D01*
X89818828Y-67511203D01*
X90055788Y-67413051D01*
X90550884Y-66917955D01*
X90818828Y-66271081D01*
X90818828Y-65570909D01*
X90656952Y-65180106D01*
X90680179Y-65203333D01*
X91281110Y-65452247D01*
X91931554Y-65452247D01*
X92532485Y-65203333D01*
X92992418Y-64743400D01*
X93241332Y-64142469D01*
X93241332Y-63492025D01*
X92992418Y-62891094D01*
X92532485Y-62431161D01*
X91931554Y-62182247D01*
X91591439Y-62182247D01*
X91615254Y-62158432D01*
X91648882Y-62077247D01*
X94223560Y-62077247D01*
X93916772Y-62384035D01*
X93648828Y-63030909D01*
X93648828Y-63731081D01*
X93916772Y-64377955D01*
X94411868Y-64873051D01*
X95058742Y-65140995D01*
X95758914Y-65140995D01*
X96405788Y-64873051D01*
X96900884Y-64377955D01*
X97168828Y-63731081D01*
X97168828Y-63030909D01*
X96900884Y-62384035D01*
X96594096Y-62077247D01*
X102978716Y-62077247D01*
X102964735Y-62086589D01*
X102824387Y-62296633D01*
X102775104Y-62544398D01*
X102775104Y-64296998D01*
X102824387Y-64544763D01*
X102964735Y-64754807D01*
X103174779Y-64895155D01*
X103218408Y-64903833D01*
X103017626Y-65104615D01*
X102787544Y-65660082D01*
X102787544Y-66261314D01*
X103017626Y-66816781D01*
X103442761Y-67241916D01*
X103475364Y-67255420D01*
X103415448Y-67437697D01*
X104298844Y-68321093D01*
X105182240Y-67437697D01*
X105122324Y-67255420D01*
X105154927Y-67241916D01*
X105580062Y-66816781D01*
X105810144Y-66261314D01*
X105810144Y-65660082D01*
X105580062Y-65104615D01*
X105379280Y-64903833D01*
X105422909Y-64895155D01*
X105632953Y-64754807D01*
X105773301Y-64544763D01*
X105822584Y-64296998D01*
X105822584Y-62544398D01*
X105773301Y-62296633D01*
X105632953Y-62086589D01*
X105618972Y-62077247D01*
X109934293Y-62077247D01*
X115602511Y-67745466D01*
X115638502Y-67799330D01*
X115488844Y-68160637D01*
X115488844Y-68761353D01*
X115718728Y-69316341D01*
X116143498Y-69741111D01*
X116698486Y-69970995D01*
X117299202Y-69970995D01*
X117854190Y-69741111D01*
X118252030Y-69343271D01*
X118257626Y-69356781D01*
X118671543Y-69770698D01*
X118257626Y-70184615D01*
X118027544Y-70740082D01*
X118027544Y-71341314D01*
X118257626Y-71896781D01*
X118671543Y-72310698D01*
X118257626Y-72724615D01*
X118027544Y-73280082D01*
X118027544Y-73881314D01*
X118257626Y-74436781D01*
X118671543Y-74850698D01*
X118257626Y-75264615D01*
X118027544Y-75820082D01*
X118027544Y-76421314D01*
X118257626Y-76976781D01*
X118671543Y-77390698D01*
X118257626Y-77804615D01*
X118027544Y-78360082D01*
X118027544Y-78961314D01*
X118257626Y-79516781D01*
X118671543Y-79930698D01*
X118257626Y-80344615D01*
X118027544Y-80900082D01*
X118027544Y-81501314D01*
X118257626Y-82056781D01*
X118671543Y-82470698D01*
X118257626Y-82884615D01*
X118027544Y-83440082D01*
X118027544Y-84041314D01*
X118257626Y-84596781D01*
X118671543Y-85010698D01*
X118257626Y-85424615D01*
X118027544Y-85980082D01*
X118027544Y-86404249D01*
X117854190Y-86230895D01*
X117299202Y-86001011D01*
X116698486Y-86001011D01*
X116143498Y-86230895D01*
X115718728Y-86655665D01*
X115488844Y-87210653D01*
X115488844Y-87811369D01*
X115718728Y-88366357D01*
X116143498Y-88791127D01*
X116698486Y-89021011D01*
X117299202Y-89021011D01*
X117854190Y-88791127D01*
X118027544Y-88617773D01*
X118027544Y-89121314D01*
X118257626Y-89676781D01*
X118671543Y-90090698D01*
X118257626Y-90504615D01*
X118027544Y-91060082D01*
X118027544Y-91661314D01*
X118257626Y-92216781D01*
X118682761Y-92641916D01*
X119238228Y-92871998D01*
X119839460Y-92871998D01*
X120394927Y-92641916D01*
X120820062Y-92216781D01*
X121050144Y-91661314D01*
X121050144Y-91060082D01*
X120820062Y-90504615D01*
X120406145Y-90090698D01*
X120820062Y-89676781D01*
X121050144Y-89121314D01*
X121050144Y-88520082D01*
X120820062Y-87964615D01*
X120406145Y-87550698D01*
X120820062Y-87136781D01*
X120893954Y-86958389D01*
X121199486Y-86958389D01*
X121199486Y-87529267D01*
X121417952Y-88056690D01*
X121821624Y-88460362D01*
X122349047Y-88678828D01*
X122919925Y-88678828D01*
X123447348Y-88460362D01*
X123851020Y-88056690D01*
X124069486Y-87529267D01*
X124069486Y-86958389D01*
X123851020Y-86430966D01*
X123447348Y-86027294D01*
X122919925Y-85808828D01*
X122349047Y-85808828D01*
X121821624Y-86027294D01*
X121417952Y-86430966D01*
X121199486Y-86958389D01*
X120893954Y-86958389D01*
X121050144Y-86581314D01*
X121050144Y-85980082D01*
X120946975Y-85731011D01*
X125568652Y-85731011D01*
X125666804Y-85967971D01*
X125699844Y-86001011D01*
X125588502Y-86001011D01*
X125033514Y-86230895D01*
X124608744Y-86655665D01*
X124378860Y-87210653D01*
X124378860Y-87811369D01*
X124608744Y-88366357D01*
X125033514Y-88791127D01*
X125588502Y-89021011D01*
X126189218Y-89021011D01*
X126744206Y-88791127D01*
X127168976Y-88366357D01*
X127398860Y-87811369D01*
X127398860Y-87210653D01*
X127306672Y-86988090D01*
X128339960Y-86988090D01*
X128339960Y-88033932D01*
X128740186Y-89000163D01*
X129479708Y-89739685D01*
X130445939Y-90139911D01*
X131491781Y-90139911D01*
X132458012Y-89739685D01*
X133197534Y-89000163D01*
X133597760Y-88033932D01*
X133597760Y-87210653D01*
X134538860Y-87210653D01*
X134538860Y-87811369D01*
X134768744Y-88366357D01*
X135193514Y-88791127D01*
X135748502Y-89021011D01*
X136349218Y-89021011D01*
X136904206Y-88791127D01*
X137328976Y-88366357D01*
X137558860Y-87811369D01*
X137558860Y-87210653D01*
X137328976Y-86655665D01*
X136904206Y-86230895D01*
X136349218Y-86001011D01*
X135748502Y-86001011D01*
X135193514Y-86230895D01*
X134768744Y-86655665D01*
X134538860Y-87210653D01*
X133597760Y-87210653D01*
X133597760Y-86988090D01*
X133197534Y-86021859D01*
X132458012Y-85282337D01*
X131491781Y-84882111D01*
X130445939Y-84882111D01*
X129479708Y-85282337D01*
X128740186Y-86021859D01*
X128339960Y-86988090D01*
X127306672Y-86988090D01*
X127200185Y-86731011D01*
X127508946Y-86731011D01*
X128155820Y-86463067D01*
X128650916Y-85967971D01*
X128918860Y-85321097D01*
X128918860Y-84620925D01*
X128650916Y-83974051D01*
X128155820Y-83478955D01*
X127932471Y-83386441D01*
X127933748Y-83380020D01*
X127918860Y-83305173D01*
X127918860Y-83305169D01*
X127903867Y-83229794D01*
X127903867Y-82080925D01*
X131748860Y-82080925D01*
X131748860Y-82781097D01*
X132016804Y-83427971D01*
X132511900Y-83923067D01*
X133158774Y-84191011D01*
X133858946Y-84191011D01*
X134505820Y-83923067D01*
X135000916Y-83427971D01*
X135268860Y-82781097D01*
X135268860Y-82080925D01*
X135000916Y-81434051D01*
X134505820Y-80938955D01*
X133858946Y-80671011D01*
X133158774Y-80671011D01*
X132511900Y-80938955D01*
X132016804Y-81434051D01*
X131748860Y-82080925D01*
X127903867Y-82080925D01*
X127903867Y-77608443D01*
X129468868Y-77608443D01*
X129716633Y-77559160D01*
X129926677Y-77418812D01*
X130043930Y-77243332D01*
X130094604Y-77380390D01*
X130704329Y-77606911D01*
X131354328Y-77582859D01*
X131843132Y-77380390D01*
X131941795Y-77113535D01*
X130968868Y-76140608D01*
X130954726Y-76154751D01*
X130775121Y-75975146D01*
X130789263Y-75961003D01*
X131148473Y-75961003D01*
X132121400Y-76933930D01*
X132127354Y-76931728D01*
X132542715Y-77347089D01*
X133143646Y-77596003D01*
X133794090Y-77596003D01*
X134395021Y-77347089D01*
X134854954Y-76887156D01*
X135103868Y-76286225D01*
X135103868Y-75635781D01*
X134854954Y-75034850D01*
X134395021Y-74574917D01*
X133794090Y-74326003D01*
X133143646Y-74326003D01*
X132542715Y-74574917D01*
X132127354Y-74990278D01*
X132121400Y-74988076D01*
X131148473Y-75961003D01*
X130789263Y-75961003D01*
X130775121Y-75946861D01*
X130954726Y-75767256D01*
X130968868Y-75781398D01*
X131941795Y-74808471D01*
X131843132Y-74541616D01*
X131233407Y-74315095D01*
X130583408Y-74339147D01*
X130094604Y-74541616D01*
X130043930Y-74678674D01*
X129926677Y-74503194D01*
X129716633Y-74362846D01*
X129468868Y-74313563D01*
X127903867Y-74313563D01*
X127903867Y-67938082D01*
X128339968Y-67938082D01*
X128339968Y-68983924D01*
X128740194Y-69950155D01*
X129479716Y-70689677D01*
X130445947Y-71089903D01*
X131491789Y-71089903D01*
X132458020Y-70689677D01*
X133197542Y-69950155D01*
X133597768Y-68983924D01*
X133597768Y-68120863D01*
X134338868Y-68120863D01*
X134338868Y-68801143D01*
X134599200Y-69429640D01*
X135080231Y-69910671D01*
X135708728Y-70171003D01*
X135751330Y-70171003D01*
X135950433Y-70304039D01*
X136568868Y-70427054D01*
X137187304Y-70304039D01*
X137711589Y-69953724D01*
X138061904Y-69429439D01*
X138153868Y-68967105D01*
X138153868Y-67954900D01*
X138061904Y-67492567D01*
X137711589Y-66968282D01*
X137187303Y-66617967D01*
X136568868Y-66494952D01*
X135950432Y-66617967D01*
X135751329Y-66751003D01*
X135708728Y-66751003D01*
X135080231Y-67011335D01*
X134599200Y-67492366D01*
X134338868Y-68120863D01*
X133597768Y-68120863D01*
X133597768Y-67938082D01*
X133197542Y-66971851D01*
X132458020Y-66232329D01*
X131491789Y-65832103D01*
X130445947Y-65832103D01*
X129479716Y-66232329D01*
X128740194Y-66971851D01*
X128339968Y-67938082D01*
X127903867Y-67938082D01*
X127903867Y-67662260D01*
X127918868Y-67586845D01*
X127918868Y-67586841D01*
X127933756Y-67511993D01*
X127932479Y-67505573D01*
X128155828Y-67413059D01*
X128650924Y-66917963D01*
X128918868Y-66271089D01*
X128918868Y-65570917D01*
X128650924Y-64924043D01*
X128155828Y-64428947D01*
X127918868Y-64330795D01*
X127918868Y-63085804D01*
X127977492Y-63027180D01*
X128143646Y-63096003D01*
X128794090Y-63096003D01*
X128951221Y-63030917D01*
X131748868Y-63030917D01*
X131748868Y-63731089D01*
X132016812Y-64377963D01*
X132511908Y-64873059D01*
X133158782Y-65141003D01*
X133858954Y-65141003D01*
X134505828Y-64873059D01*
X135000924Y-64377963D01*
X135268868Y-63731089D01*
X135268868Y-63030917D01*
X135000924Y-62384043D01*
X134898619Y-62281738D01*
X135103868Y-61786225D01*
X135103868Y-61135781D01*
X134854954Y-60534850D01*
X134395021Y-60074917D01*
X133794090Y-59826003D01*
X133143646Y-59826003D01*
X132542715Y-60074917D01*
X132082782Y-60534850D01*
X131833868Y-61135781D01*
X131833868Y-61786225D01*
X132062548Y-62338307D01*
X132016812Y-62384043D01*
X131748868Y-63030917D01*
X128951221Y-63030917D01*
X129395021Y-62847089D01*
X129854954Y-62387156D01*
X130103868Y-61786225D01*
X130103868Y-61135781D01*
X129854954Y-60534850D01*
X129395021Y-60074917D01*
X128794090Y-59826003D01*
X128143646Y-59826003D01*
X127542715Y-60074917D01*
X127082782Y-60534850D01*
X126833868Y-61135781D01*
X126833868Y-61786225D01*
X126902691Y-61952379D01*
X126674398Y-62180672D01*
X126610939Y-62223074D01*
X126442964Y-62474467D01*
X126398868Y-62696152D01*
X126398868Y-62696156D01*
X126383980Y-62771003D01*
X126398868Y-62845850D01*
X126398868Y-64330795D01*
X126161908Y-64428947D01*
X125666812Y-64924043D01*
X125398868Y-65570917D01*
X125398868Y-66271089D01*
X125502615Y-66521556D01*
X125368868Y-66494952D01*
X124750432Y-66617967D01*
X124226147Y-66968282D01*
X123875832Y-67492568D01*
X123783868Y-67954901D01*
X123783868Y-68443493D01*
X123447348Y-68106973D01*
X122919925Y-67888507D01*
X122349047Y-67888507D01*
X121821624Y-68106973D01*
X121417952Y-68510645D01*
X121199486Y-69038068D01*
X121199486Y-69608946D01*
X121417952Y-70136369D01*
X121821624Y-70540041D01*
X122349047Y-70758507D01*
X122919925Y-70758507D01*
X123447348Y-70540041D01*
X123851020Y-70136369D01*
X124041278Y-69677047D01*
X124226147Y-69953724D01*
X124750433Y-70304039D01*
X125368868Y-70427054D01*
X125987304Y-70304039D01*
X126186407Y-70171003D01*
X126229008Y-70171003D01*
X126383867Y-70106858D01*
X126383868Y-83290176D01*
X126368979Y-83365028D01*
X126374153Y-83391037D01*
X126161900Y-83478955D01*
X125666804Y-83974051D01*
X125568652Y-84211011D01*
X121083960Y-84211011D01*
X121010345Y-84137397D01*
X121050144Y-84041314D01*
X121050144Y-83440082D01*
X120820062Y-82884615D01*
X120406145Y-82470698D01*
X120820062Y-82056781D01*
X121050144Y-81501314D01*
X121050144Y-80900082D01*
X120820062Y-80344615D01*
X120406145Y-79930698D01*
X120820062Y-79516781D01*
X121050144Y-78961314D01*
X121050144Y-78360082D01*
X120820062Y-77804615D01*
X120406145Y-77390698D01*
X120820062Y-76976781D01*
X121050144Y-76421314D01*
X121050144Y-76323507D01*
X121187046Y-76323507D01*
X121187046Y-77923507D01*
X121236329Y-78171272D01*
X121311430Y-78283668D01*
X121236329Y-78396063D01*
X121187046Y-78643828D01*
X121187046Y-80243828D01*
X121236329Y-80491593D01*
X121376677Y-80701637D01*
X121586721Y-80841985D01*
X121834486Y-80891268D01*
X123434486Y-80891268D01*
X123682251Y-80841985D01*
X123892295Y-80701637D01*
X124032643Y-80491593D01*
X124081926Y-80243828D01*
X124081926Y-78643828D01*
X124032643Y-78396063D01*
X123957542Y-78283668D01*
X124032643Y-78171272D01*
X124081926Y-77923507D01*
X124081926Y-76323507D01*
X124032643Y-76075742D01*
X123892295Y-75865698D01*
X123682251Y-75725350D01*
X123434486Y-75676067D01*
X121834486Y-75676067D01*
X121586721Y-75725350D01*
X121376677Y-75865698D01*
X121236329Y-76075742D01*
X121187046Y-76323507D01*
X121050144Y-76323507D01*
X121050144Y-75820082D01*
X120820062Y-75264615D01*
X120406145Y-74850698D01*
X120820062Y-74436781D01*
X121050144Y-73881314D01*
X121050144Y-73280082D01*
X120820062Y-72724615D01*
X120406145Y-72310698D01*
X120820062Y-71896781D01*
X121050144Y-71341314D01*
X121050144Y-70740082D01*
X120820062Y-70184615D01*
X120406145Y-69770698D01*
X120820062Y-69356781D01*
X121050144Y-68801314D01*
X121050144Y-68200082D01*
X120820062Y-67644615D01*
X120394927Y-67219480D01*
X120362324Y-67205976D01*
X120422240Y-67023699D01*
X119538844Y-66140303D01*
X119524702Y-66154446D01*
X119345097Y-65974841D01*
X119359239Y-65960698D01*
X119718449Y-65960698D01*
X120601845Y-66844094D01*
X120855871Y-66760594D01*
X121061726Y-66195701D01*
X121035735Y-65595030D01*
X120855871Y-65160802D01*
X120601845Y-65077302D01*
X119718449Y-65960698D01*
X119359239Y-65960698D01*
X118475843Y-65077302D01*
X118221817Y-65160802D01*
X118015962Y-65725695D01*
X118041953Y-66326366D01*
X118114287Y-66500994D01*
X116507643Y-66500994D01*
X115048437Y-65041788D01*
X115455804Y-64873051D01*
X115950900Y-64377955D01*
X116218844Y-63731081D01*
X116218844Y-63120082D01*
X118027544Y-63120082D01*
X118027544Y-63721314D01*
X118257626Y-64276781D01*
X118682761Y-64701916D01*
X118715364Y-64715420D01*
X118655448Y-64897697D01*
X119538844Y-65781093D01*
X120422240Y-64897697D01*
X120362324Y-64715420D01*
X120394927Y-64701916D01*
X120820062Y-64276781D01*
X121050144Y-63721314D01*
X121050144Y-63120082D01*
X120820062Y-62564615D01*
X120394927Y-62139480D01*
X119839460Y-61909398D01*
X119238228Y-61909398D01*
X118682761Y-62139480D01*
X118257626Y-62564615D01*
X118027544Y-63120082D01*
X116218844Y-63120082D01*
X116218844Y-63030909D01*
X115950900Y-62384035D01*
X115455804Y-61888939D01*
X114808930Y-61620995D01*
X114108758Y-61620995D01*
X113461884Y-61888939D01*
X112966788Y-62384035D01*
X112798051Y-62791403D01*
X110839425Y-60832777D01*
X110797023Y-60769318D01*
X110545631Y-60601343D01*
X110323946Y-60557247D01*
X110323941Y-60557247D01*
X110249094Y-60542359D01*
X110174247Y-60557247D01*
X91648882Y-60557247D01*
X91615254Y-60476062D01*
X91197517Y-60058325D01*
X90651717Y-59832247D01*
X90060947Y-59832247D01*
X89515147Y-60058325D01*
X89097410Y-60476062D01*
X88871332Y-61021862D01*
X88871332Y-61612632D01*
X89097410Y-62158432D01*
X89515147Y-62576169D01*
X90060947Y-62802247D01*
X90309093Y-62802247D01*
X90220246Y-62891094D01*
X89971332Y-63492025D01*
X89971332Y-64142469D01*
X90114178Y-64487329D01*
X90055788Y-64428939D01*
X89408914Y-64160995D01*
X88708742Y-64160995D01*
X88061868Y-64428939D01*
X87566772Y-64924035D01*
X87298828Y-65570909D01*
X87298828Y-66271081D01*
X87566772Y-66917955D01*
X87599812Y-66950995D01*
X87488470Y-66950995D01*
X86933482Y-67180879D01*
X86508712Y-67605649D01*
X86363369Y-67956538D01*
X86346301Y-67915332D01*
X85942629Y-67511660D01*
X85415206Y-67293194D01*
X84844328Y-67293194D01*
X84316905Y-67511660D01*
X83913233Y-67915332D01*
X83694767Y-68442755D01*
X79886637Y-68442755D01*
X79886637Y-63492025D01*
X82971332Y-63492025D01*
X82971332Y-64142469D01*
X83220246Y-64743400D01*
X83680179Y-65203333D01*
X84281110Y-65452247D01*
X84931554Y-65452247D01*
X85532485Y-65203333D01*
X85992418Y-64743400D01*
X86241332Y-64142469D01*
X86241332Y-63492025D01*
X85992418Y-62891094D01*
X85902970Y-62801646D01*
X86217790Y-62787562D01*
X86640412Y-62612506D01*
X86720685Y-62361205D01*
X85856332Y-61496852D01*
X85842190Y-61510995D01*
X85662585Y-61331390D01*
X85676727Y-61317247D01*
X86035937Y-61317247D01*
X86900290Y-62181600D01*
X87151591Y-62101327D01*
X87353050Y-61545968D01*
X87326647Y-60955789D01*
X87151591Y-60533167D01*
X86900290Y-60452894D01*
X86035937Y-61317247D01*
X85676727Y-61317247D01*
X84812374Y-60452894D01*
X84561073Y-60533167D01*
X84359614Y-61088526D01*
X84386017Y-61678705D01*
X84561073Y-62101327D01*
X84812372Y-62181599D01*
X84811724Y-62182247D01*
X84281110Y-62182247D01*
X83680179Y-62431161D01*
X83220246Y-62891094D01*
X82971332Y-63492025D01*
X79886637Y-63492025D01*
X79886637Y-60625635D01*
X80087027Y-61109420D01*
X80575090Y-61597483D01*
X81212776Y-61861621D01*
X81903002Y-61861621D01*
X82540688Y-61597483D01*
X83028751Y-61109420D01*
X83292889Y-60471734D01*
X83292889Y-60273289D01*
X84991979Y-60273289D01*
X85856332Y-61137642D01*
X86720685Y-60273289D01*
X86640412Y-60021988D01*
X86085053Y-59820529D01*
X85494874Y-59846932D01*
X85072252Y-60021988D01*
X84991979Y-60273289D01*
X83292889Y-60273289D01*
X83292889Y-59781508D01*
X83028751Y-59143822D01*
X82540688Y-58655759D01*
X82056903Y-58455369D01*
X82818441Y-58455369D01*
X82887029Y-58441726D01*
X82887031Y-58441726D01*
X82994151Y-58420418D01*
X83025543Y-58414174D01*
X83114842Y-58396411D01*
X83114844Y-58396411D01*
X83114847Y-58396410D01*
X83184481Y-58367566D01*
X83370784Y-58290398D01*
X83563918Y-58161351D01*
X83563920Y-58161349D01*
X83563922Y-58161348D01*
X83641485Y-58083785D01*
X83719047Y-58161348D01*
X83719049Y-58161349D01*
X83719051Y-58161351D01*
X83912186Y-58290398D01*
X84054576Y-58349377D01*
X84168122Y-58396410D01*
X84257426Y-58414174D01*
X84288818Y-58420418D01*
X84395938Y-58441726D01*
X84395940Y-58441726D01*
X84464528Y-58455369D01*
X85795006Y-58455369D01*
X85863594Y-58441726D01*
X85863596Y-58441726D01*
X85970716Y-58420418D01*
X86002108Y-58414174D01*
X86091407Y-58396411D01*
X86091409Y-58396411D01*
X86091412Y-58396410D01*
X86161046Y-58367566D01*
X86347349Y-58290398D01*
X86540483Y-58161351D01*
X86540485Y-58161349D01*
X86540487Y-58161348D01*
X86618050Y-58083785D01*
X86695612Y-58161348D01*
X86695614Y-58161349D01*
X86695616Y-58161351D01*
X86888751Y-58290398D01*
X87031141Y-58349377D01*
X87144687Y-58396410D01*
X87233991Y-58414174D01*
X87265383Y-58420418D01*
X87372503Y-58441726D01*
X87372505Y-58441726D01*
X87441093Y-58455369D01*
X88771571Y-58455369D01*
X88840159Y-58441726D01*
X88840161Y-58441726D01*
X88947281Y-58420418D01*
X88978673Y-58414174D01*
X89067972Y-58396411D01*
X89067974Y-58396411D01*
X89067977Y-58396410D01*
X89137611Y-58367566D01*
X89323914Y-58290398D01*
X89517048Y-58161351D01*
X89517050Y-58161349D01*
X89517052Y-58161348D01*
X89594615Y-58083785D01*
X89672177Y-58161348D01*
X89672179Y-58161349D01*
X89672181Y-58161351D01*
X89865316Y-58290398D01*
X90007706Y-58349377D01*
X90121252Y-58396410D01*
X90210556Y-58414174D01*
X90241948Y-58420418D01*
X90349068Y-58441726D01*
X90349070Y-58441726D01*
X90417658Y-58455369D01*
X91748136Y-58455369D01*
X91816724Y-58441726D01*
X91816726Y-58441726D01*
X91923846Y-58420418D01*
X91955238Y-58414174D01*
X92044537Y-58396411D01*
X92044539Y-58396411D01*
X92044542Y-58396410D01*
X92114176Y-58367566D01*
X92300479Y-58290398D01*
X92493613Y-58161351D01*
X92493615Y-58161349D01*
X92493617Y-58161348D01*
X92571180Y-58083785D01*
X92648742Y-58161348D01*
X92648744Y-58161349D01*
X92648746Y-58161351D01*
X92841881Y-58290398D01*
X92984271Y-58349377D01*
X93097817Y-58396410D01*
X93187121Y-58414174D01*
X93218513Y-58420418D01*
X93325633Y-58441726D01*
X93325635Y-58441726D01*
X93394223Y-58455369D01*
X94724701Y-58455369D01*
X94793289Y-58441726D01*
X94793291Y-58441726D01*
X94900411Y-58420418D01*
X94931803Y-58414174D01*
X95021102Y-58396411D01*
X95021104Y-58396411D01*
X95021107Y-58396410D01*
X95090741Y-58367566D01*
X95277044Y-58290398D01*
X95470178Y-58161351D01*
X95470180Y-58161349D01*
X95470182Y-58161348D01*
X95547745Y-58083785D01*
X95625307Y-58161348D01*
X95625309Y-58161349D01*
X95625311Y-58161351D01*
X95818446Y-58290398D01*
X95960836Y-58349377D01*
X96074382Y-58396410D01*
X96163686Y-58414174D01*
X96195078Y-58420418D01*
X96302198Y-58441726D01*
X96302200Y-58441726D01*
X96370788Y-58455369D01*
X97701266Y-58455369D01*
X97769854Y-58441726D01*
X97769856Y-58441726D01*
X97876976Y-58420418D01*
X97908368Y-58414174D01*
X97997667Y-58396411D01*
X97997669Y-58396411D01*
X97997672Y-58396410D01*
X98067306Y-58367566D01*
X98253609Y-58290398D01*
X98446743Y-58161351D01*
X98446745Y-58161349D01*
X98446747Y-58161348D01*
X98524310Y-58083785D01*
X98601872Y-58161348D01*
X98601874Y-58161349D01*
X98601876Y-58161351D01*
X98795011Y-58290398D01*
X98937401Y-58349377D01*
X99050947Y-58396410D01*
X99140251Y-58414174D01*
X99171643Y-58420418D01*
X99278763Y-58441726D01*
X99278765Y-58441726D01*
X99347353Y-58455369D01*
X100677831Y-58455369D01*
X100746419Y-58441726D01*
X100746421Y-58441726D01*
X100853541Y-58420418D01*
X100884933Y-58414174D01*
X100974232Y-58396411D01*
X100974234Y-58396411D01*
X100974237Y-58396410D01*
X101043871Y-58367566D01*
X101230174Y-58290398D01*
X101423308Y-58161351D01*
X101423310Y-58161349D01*
X101423312Y-58161348D01*
X101500875Y-58083785D01*
X101578437Y-58161348D01*
X101578439Y-58161349D01*
X101578441Y-58161351D01*
X101771576Y-58290398D01*
X101913966Y-58349377D01*
X102027512Y-58396410D01*
X102116816Y-58414174D01*
X102148208Y-58420418D01*
X102255328Y-58441726D01*
X102255330Y-58441726D01*
X102323918Y-58455369D01*
X103654396Y-58455369D01*
X103722984Y-58441726D01*
X103722986Y-58441726D01*
X103830106Y-58420418D01*
X103861498Y-58414174D01*
X103950797Y-58396411D01*
X103950799Y-58396411D01*
X103950802Y-58396410D01*
X104020436Y-58367566D01*
X104206739Y-58290398D01*
X104399873Y-58161351D01*
X104399875Y-58161349D01*
X104399877Y-58161348D01*
X104477440Y-58083785D01*
X104555002Y-58161348D01*
X104555004Y-58161349D01*
X104555006Y-58161351D01*
X104748141Y-58290398D01*
X104890531Y-58349377D01*
X105004077Y-58396410D01*
X105093381Y-58414174D01*
X105124773Y-58420418D01*
X105231893Y-58441726D01*
X105231895Y-58441726D01*
X105300483Y-58455369D01*
X106630961Y-58455369D01*
X106699549Y-58441726D01*
X106699551Y-58441726D01*
X106806671Y-58420418D01*
X106838063Y-58414174D01*
X106927362Y-58396411D01*
X106927364Y-58396411D01*
X106927367Y-58396410D01*
X106997001Y-58367566D01*
X107183304Y-58290398D01*
X107376438Y-58161351D01*
X107376440Y-58161349D01*
X107376442Y-58161348D01*
X107454005Y-58083785D01*
X107531567Y-58161348D01*
X107531569Y-58161349D01*
X107531571Y-58161351D01*
X107724706Y-58290398D01*
X107867096Y-58349377D01*
X107980642Y-58396410D01*
X108069946Y-58414174D01*
X108101338Y-58420418D01*
X108208458Y-58441726D01*
X108208460Y-58441726D01*
X108277048Y-58455369D01*
X109607526Y-58455369D01*
X109676114Y-58441726D01*
X109676116Y-58441726D01*
X109783236Y-58420418D01*
X109814628Y-58414174D01*
X109903927Y-58396411D01*
X109903929Y-58396411D01*
X109903932Y-58396410D01*
X109973566Y-58367566D01*
X110159869Y-58290398D01*
X110353003Y-58161351D01*
X110353005Y-58161349D01*
X110353007Y-58161348D01*
X110430570Y-58083785D01*
X110508132Y-58161348D01*
X110508134Y-58161349D01*
X110508136Y-58161351D01*
X110701271Y-58290398D01*
X110843661Y-58349377D01*
X110957207Y-58396410D01*
X111046511Y-58414174D01*
X111077903Y-58420418D01*
X111185023Y-58441726D01*
X111185025Y-58441726D01*
X111253613Y-58455369D01*
X112584091Y-58455369D01*
X112652679Y-58441726D01*
X112652681Y-58441726D01*
X112759801Y-58420418D01*
X112791193Y-58414174D01*
X112880492Y-58396411D01*
X112880494Y-58396411D01*
X112880497Y-58396410D01*
X112950131Y-58367566D01*
X113136434Y-58290398D01*
X113329568Y-58161351D01*
X113329570Y-58161349D01*
X113329572Y-58161348D01*
X113407135Y-58083785D01*
X113484697Y-58161348D01*
X113484699Y-58161349D01*
X113484701Y-58161351D01*
X113677836Y-58290398D01*
X113820226Y-58349377D01*
X113933772Y-58396410D01*
X114023076Y-58414174D01*
X114054468Y-58420418D01*
X114161588Y-58441726D01*
X114161590Y-58441726D01*
X114230178Y-58455369D01*
X115560656Y-58455369D01*
X115629244Y-58441726D01*
X115629246Y-58441726D01*
X115736366Y-58420418D01*
X115767758Y-58414174D01*
X115857057Y-58396411D01*
X115857059Y-58396411D01*
X115857062Y-58396410D01*
X115926696Y-58367566D01*
X116112999Y-58290398D01*
X116306133Y-58161351D01*
X116306135Y-58161349D01*
X116306137Y-58161348D01*
X116383700Y-58083785D01*
X116461262Y-58161348D01*
X116461264Y-58161349D01*
X116461266Y-58161351D01*
X116654401Y-58290398D01*
X116796791Y-58349377D01*
X116910337Y-58396410D01*
X116999641Y-58414174D01*
X117031033Y-58420418D01*
X117138153Y-58441726D01*
X117138155Y-58441726D01*
X117206743Y-58455369D01*
X118537221Y-58455369D01*
X118605809Y-58441726D01*
X118605811Y-58441726D01*
X118712931Y-58420418D01*
X118744323Y-58414174D01*
X118833622Y-58396411D01*
X118833624Y-58396411D01*
X118833627Y-58396410D01*
X118903261Y-58367566D01*
X119089564Y-58290398D01*
X119282698Y-58161351D01*
X119282700Y-58161349D01*
X119282702Y-58161348D01*
X119360265Y-58083785D01*
X119437827Y-58161348D01*
X119437829Y-58161349D01*
X119437831Y-58161351D01*
X119630966Y-58290398D01*
X119773356Y-58349377D01*
X119886902Y-58396410D01*
X119976206Y-58414174D01*
X120007598Y-58420418D01*
X120114718Y-58441726D01*
X120114720Y-58441726D01*
X120183308Y-58455369D01*
X121513786Y-58455369D01*
X121582374Y-58441726D01*
X121582376Y-58441726D01*
X121689496Y-58420418D01*
X121720888Y-58414174D01*
X121810187Y-58396411D01*
X121810189Y-58396411D01*
X121810192Y-58396410D01*
X121879826Y-58367566D01*
X122066129Y-58290398D01*
X122259263Y-58161351D01*
X122259265Y-58161349D01*
X122259267Y-58161348D01*
X122336830Y-58083785D01*
X122414392Y-58161348D01*
X122414394Y-58161349D01*
X122414396Y-58161351D01*
X122607531Y-58290398D01*
X122749921Y-58349377D01*
X122863467Y-58396410D01*
X122952771Y-58414174D01*
X122984163Y-58420418D01*
X123091283Y-58441726D01*
X123091285Y-58441726D01*
X123159873Y-58455369D01*
X124490351Y-58455369D01*
X124558939Y-58441726D01*
X124558941Y-58441726D01*
X124666061Y-58420418D01*
X124697453Y-58414174D01*
X124786752Y-58396411D01*
X124786754Y-58396411D01*
X124786757Y-58396410D01*
X124856391Y-58367566D01*
X125042694Y-58290398D01*
X125235828Y-58161351D01*
X125235830Y-58161349D01*
X125235832Y-58161348D01*
X125313395Y-58083785D01*
X125390957Y-58161348D01*
X125390959Y-58161349D01*
X125390961Y-58161351D01*
X125584096Y-58290398D01*
X125726486Y-58349377D01*
X125840032Y-58396410D01*
X125929336Y-58414174D01*
X125960728Y-58420418D01*
X126067848Y-58441726D01*
X126067850Y-58441726D01*
X126136438Y-58455369D01*
X127466916Y-58455369D01*
X127535504Y-58441726D01*
X127535506Y-58441726D01*
X127642626Y-58420418D01*
X127674018Y-58414174D01*
X127763317Y-58396411D01*
X127763319Y-58396411D01*
X127763322Y-58396410D01*
X127832956Y-58367566D01*
X128019259Y-58290398D01*
X128212393Y-58161351D01*
X128212395Y-58161349D01*
X128212397Y-58161348D01*
X128289960Y-58083785D01*
X128367522Y-58161348D01*
X128367524Y-58161349D01*
X128367526Y-58161351D01*
X128560661Y-58290398D01*
X128703051Y-58349377D01*
X128816597Y-58396410D01*
X128905901Y-58414174D01*
X128937293Y-58420418D01*
X129044413Y-58441726D01*
X129044415Y-58441726D01*
X129113003Y-58455369D01*
X130443481Y-58455369D01*
X130512069Y-58441726D01*
X130512071Y-58441726D01*
X130619191Y-58420418D01*
X130650583Y-58414174D01*
X130739882Y-58396411D01*
X130739884Y-58396411D01*
X130739887Y-58396410D01*
X130809521Y-58367566D01*
X130995824Y-58290398D01*
X131188958Y-58161351D01*
X131188960Y-58161349D01*
X131188962Y-58161348D01*
X131266525Y-58083785D01*
X131344087Y-58161348D01*
X131344089Y-58161349D01*
X131344091Y-58161351D01*
X131537226Y-58290398D01*
X131679616Y-58349377D01*
X131793162Y-58396410D01*
X131882466Y-58414174D01*
X131913858Y-58420418D01*
X132020978Y-58441726D01*
X132020980Y-58441726D01*
X132089568Y-58455369D01*
X133420046Y-58455369D01*
X133488634Y-58441726D01*
X133488636Y-58441726D01*
X133595756Y-58420418D01*
X133627148Y-58414174D01*
X133716447Y-58396411D01*
X133716449Y-58396411D01*
X133716452Y-58396410D01*
X133786086Y-58367566D01*
X133972389Y-58290398D01*
X134165523Y-58161351D01*
X134165525Y-58161349D01*
X134165527Y-58161348D01*
X134243090Y-58083785D01*
X134320652Y-58161348D01*
X134320654Y-58161349D01*
X134320656Y-58161351D01*
X134513791Y-58290398D01*
X134656181Y-58349377D01*
X134769727Y-58396410D01*
X134859031Y-58414174D01*
X134890423Y-58420418D01*
X134997543Y-58441726D01*
X134997545Y-58441726D01*
X135066133Y-58455369D01*
X136396611Y-58455369D01*
X136465199Y-58441726D01*
X136465201Y-58441726D01*
X136572321Y-58420418D01*
X136603713Y-58414174D01*
X136693012Y-58396411D01*
X136693014Y-58396411D01*
X136693017Y-58396410D01*
X136762651Y-58367566D01*
X136948954Y-58290398D01*
X137142088Y-58161351D01*
X137142090Y-58161349D01*
X137142092Y-58161348D01*
X137219655Y-58083785D01*
X137297217Y-58161348D01*
X137297219Y-58161349D01*
X137297221Y-58161351D01*
X137490356Y-58290398D01*
X137632746Y-58349377D01*
X137746292Y-58396410D01*
X137835596Y-58414174D01*
X137866988Y-58420418D01*
X137974108Y-58441726D01*
X137974110Y-58441726D01*
X138042698Y-58455369D01*
X139373176Y-58455369D01*
X139441764Y-58441726D01*
X139441766Y-58441726D01*
X139548886Y-58420418D01*
X139580278Y-58414174D01*
X139669577Y-58396411D01*
X139669579Y-58396411D01*
X139669582Y-58396410D01*
X139739216Y-58367566D01*
X139925519Y-58290398D01*
X140118653Y-58161351D01*
X140118655Y-58161349D01*
X140118657Y-58161348D01*
X140196220Y-58083785D01*
X140273782Y-58161348D01*
M02*
