%TF.GenerationSoftware,KiCad,Pcbnew,(5.0.1)-3*%
%TF.CreationDate,2018-12-08T15:20:53+01:00*%
%TF.ProjectId,SamplrPad,53616D706C725061642E6B696361645F,rev?*%
%TF.SameCoordinates,Original*%
%TF.FileFunction,Legend,Top*%
%TF.FilePolarity,Positive*%
%FSLAX46Y46*%
G04 Gerber Fmt 4.6, Leading zero omitted, Abs format (unit mm)*
G04 Created by KiCad (PCBNEW (5.0.1)-3) date 8/12/2018 15:20:53*
%MOMM*%
%LPD*%
G01*
G04 APERTURE LIST*
%ADD10C,0.300000*%
%ADD11C,0.150000*%
%ADD12C,0.120000*%
%ADD13C,0.010000*%
G04 APERTURE END LIST*
D10*
X88722399Y-28871709D02*
X87722399Y-28871709D01*
X88008113Y-28871709D02*
X87865256Y-28800280D01*
X87793828Y-28728852D01*
X87722399Y-28585995D01*
X87722399Y-28443137D01*
X88650970Y-27371709D02*
X88722399Y-27514566D01*
X88722399Y-27800280D01*
X88650970Y-27943137D01*
X88508113Y-28014566D01*
X87936685Y-28014566D01*
X87793828Y-27943137D01*
X87722399Y-27800280D01*
X87722399Y-27514566D01*
X87793828Y-27371709D01*
X87936685Y-27300280D01*
X88079542Y-27300280D01*
X88222399Y-28014566D01*
X87722399Y-26800280D02*
X88722399Y-26443137D01*
X87722399Y-26085995D01*
X88722399Y-24728852D02*
X88722399Y-25585995D01*
X88722399Y-25157423D02*
X87222399Y-25157423D01*
X87436685Y-25300280D01*
X87579542Y-25443137D01*
X87650970Y-25585995D01*
X134965256Y-43000280D02*
X135965256Y-43000280D01*
X135679542Y-43000280D02*
X135822399Y-43071709D01*
X135893828Y-43143137D01*
X135965256Y-43285995D01*
X135965256Y-43428852D01*
X135036685Y-44500280D02*
X134965256Y-44357423D01*
X134965256Y-44071709D01*
X135036685Y-43928852D01*
X135179542Y-43857423D01*
X135750970Y-43857423D01*
X135893828Y-43928852D01*
X135965256Y-44071709D01*
X135965256Y-44357423D01*
X135893828Y-44500280D01*
X135750970Y-44571709D01*
X135608113Y-44571709D01*
X135465256Y-43857423D01*
X135965256Y-45071709D02*
X134965256Y-45428852D01*
X135965256Y-45785995D01*
X134965256Y-47143137D02*
X134965256Y-46285995D01*
X134965256Y-46714566D02*
X136465256Y-46714566D01*
X136250970Y-46571709D01*
X136108113Y-46428852D01*
X136036685Y-46285995D01*
X90986685Y-52614566D02*
X90986685Y-51614566D01*
X90986685Y-51757423D02*
X91058113Y-51685995D01*
X91200970Y-51614566D01*
X91415256Y-51614566D01*
X91558113Y-51685995D01*
X91629542Y-51828852D01*
X91629542Y-52614566D01*
X91629542Y-51828852D02*
X91700970Y-51685995D01*
X91843828Y-51614566D01*
X92058113Y-51614566D01*
X92200970Y-51685995D01*
X92272399Y-51828852D01*
X92272399Y-52614566D01*
X93629542Y-52614566D02*
X93629542Y-51828852D01*
X93558113Y-51685995D01*
X93415256Y-51614566D01*
X93129542Y-51614566D01*
X92986685Y-51685995D01*
X93629542Y-52543137D02*
X93486685Y-52614566D01*
X93129542Y-52614566D01*
X92986685Y-52543137D01*
X92915256Y-52400280D01*
X92915256Y-52257423D01*
X92986685Y-52114566D01*
X93129542Y-52043137D01*
X93486685Y-52043137D01*
X93629542Y-51971709D01*
X94986685Y-52614566D02*
X94986685Y-51114566D01*
X94986685Y-52543137D02*
X94843828Y-52614566D01*
X94558113Y-52614566D01*
X94415256Y-52543137D01*
X94343828Y-52471709D01*
X94272399Y-52328852D01*
X94272399Y-51900280D01*
X94343828Y-51757423D01*
X94415256Y-51685995D01*
X94558113Y-51614566D01*
X94843828Y-51614566D01*
X94986685Y-51685995D01*
X96272399Y-52543137D02*
X96129542Y-52614566D01*
X95843828Y-52614566D01*
X95700970Y-52543137D01*
X95629542Y-52400280D01*
X95629542Y-51828852D01*
X95700970Y-51685995D01*
X95843828Y-51614566D01*
X96129542Y-51614566D01*
X96272399Y-51685995D01*
X96343828Y-51828852D01*
X96343828Y-51971709D01*
X95629542Y-52114566D01*
X98129542Y-52614566D02*
X98129542Y-51114566D01*
X98129542Y-51685995D02*
X98272399Y-51614566D01*
X98558113Y-51614566D01*
X98700970Y-51685995D01*
X98772399Y-51757423D01*
X98843828Y-51900280D01*
X98843828Y-52328852D01*
X98772399Y-52471709D01*
X98700970Y-52543137D01*
X98558113Y-52614566D01*
X98272399Y-52614566D01*
X98129542Y-52543137D01*
X99343828Y-51614566D02*
X99700970Y-52614566D01*
X100058113Y-51614566D02*
X99700970Y-52614566D01*
X99558113Y-52971709D01*
X99486685Y-53043137D01*
X99343828Y-53114566D01*
X101772399Y-52614566D02*
X101772399Y-51614566D01*
X101772399Y-51114566D02*
X101700970Y-51185995D01*
X101772399Y-51257423D01*
X101843828Y-51185995D01*
X101772399Y-51114566D01*
X101772399Y-51257423D01*
X102486685Y-52614566D02*
X102486685Y-51114566D01*
X102629542Y-52043137D02*
X103058113Y-52614566D01*
X103058113Y-51614566D02*
X102486685Y-52185995D01*
X103700970Y-51614566D02*
X103700970Y-52614566D01*
X103700970Y-51757423D02*
X103772399Y-51685995D01*
X103915256Y-51614566D01*
X104129542Y-51614566D01*
X104272399Y-51685995D01*
X104343828Y-51828852D01*
X104343828Y-52614566D01*
X105272399Y-52614566D02*
X105129542Y-52543137D01*
X105058113Y-52471709D01*
X104986685Y-52328852D01*
X104986685Y-51900280D01*
X105058113Y-51757423D01*
X105129542Y-51685995D01*
X105272399Y-51614566D01*
X105486685Y-51614566D01*
X105629542Y-51685995D01*
X105700970Y-51757423D01*
X105772399Y-51900280D01*
X105772399Y-52328852D01*
X105700970Y-52471709D01*
X105629542Y-52543137D01*
X105486685Y-52614566D01*
X105272399Y-52614566D01*
X137986685Y-31293137D02*
X137986685Y-30721709D01*
X137843828Y-30435995D01*
X137700970Y-30293137D01*
X137272399Y-30007423D01*
X136700970Y-29864566D01*
X135558113Y-29864566D01*
X135272399Y-30007423D01*
X135129542Y-30150280D01*
X134986685Y-30435995D01*
X134986685Y-31007423D01*
X135129542Y-31293137D01*
X135272399Y-31435995D01*
X135558113Y-31578852D01*
X136272399Y-31578852D01*
X136558113Y-31435995D01*
X136700970Y-31293137D01*
X136843828Y-31007423D01*
X136843828Y-30435995D01*
X136700970Y-30150280D01*
X136558113Y-30007423D01*
X136272399Y-29864566D01*
X136986685Y-32864566D02*
X133986685Y-32864566D01*
X136843828Y-32864566D02*
X136986685Y-33150280D01*
X136986685Y-33721709D01*
X136843828Y-34007423D01*
X136700970Y-34150280D01*
X136415256Y-34293137D01*
X135558113Y-34293137D01*
X135272399Y-34150280D01*
X135129542Y-34007423D01*
X134986685Y-33721709D01*
X134986685Y-33150280D01*
X135129542Y-32864566D01*
X134986685Y-36864566D02*
X136558113Y-36864566D01*
X136843828Y-36721709D01*
X136986685Y-36435995D01*
X136986685Y-35864566D01*
X136843828Y-35578852D01*
X135129542Y-36864566D02*
X134986685Y-36578852D01*
X134986685Y-35864566D01*
X135129542Y-35578852D01*
X135415256Y-35435995D01*
X135700970Y-35435995D01*
X135986685Y-35578852D01*
X136129542Y-35864566D01*
X136129542Y-36578852D01*
X136272399Y-36864566D01*
X135129542Y-39578852D02*
X134986685Y-39293137D01*
X134986685Y-38721709D01*
X135129542Y-38435995D01*
X135272399Y-38293137D01*
X135558113Y-38150280D01*
X136415256Y-38150280D01*
X136700970Y-38293137D01*
X136843828Y-38435995D01*
X136986685Y-38721709D01*
X136986685Y-39293137D01*
X136843828Y-39578852D01*
X134986685Y-40864566D02*
X137986685Y-40864566D01*
X136129542Y-41150280D02*
X134986685Y-42007423D01*
X136986685Y-42007423D02*
X135843828Y-40864566D01*
X85700970Y-40578852D02*
X85700970Y-41150280D01*
X85843828Y-41435995D01*
X85986685Y-41578852D01*
X86415256Y-41864566D01*
X86986685Y-42007423D01*
X88129542Y-42007423D01*
X88415256Y-41864566D01*
X88558113Y-41721709D01*
X88700970Y-41435995D01*
X88700970Y-40864566D01*
X88558113Y-40578852D01*
X88415256Y-40435995D01*
X88129542Y-40293137D01*
X87415256Y-40293137D01*
X87129542Y-40435995D01*
X86986685Y-40578852D01*
X86843828Y-40864566D01*
X86843828Y-41435995D01*
X86986685Y-41721709D01*
X87129542Y-41864566D01*
X87415256Y-42007423D01*
X86700970Y-39007423D02*
X89700970Y-39007423D01*
X86843828Y-39007423D02*
X86700970Y-38721709D01*
X86700970Y-38150280D01*
X86843828Y-37864566D01*
X86986685Y-37721709D01*
X87272399Y-37578852D01*
X88129542Y-37578852D01*
X88415256Y-37721709D01*
X88558113Y-37864566D01*
X88700970Y-38150280D01*
X88700970Y-38721709D01*
X88558113Y-39007423D01*
X88700970Y-35007423D02*
X87129542Y-35007423D01*
X86843828Y-35150280D01*
X86700970Y-35435995D01*
X86700970Y-36007423D01*
X86843828Y-36293137D01*
X88558113Y-35007423D02*
X88700970Y-35293137D01*
X88700970Y-36007423D01*
X88558113Y-36293137D01*
X88272399Y-36435995D01*
X87986685Y-36435995D01*
X87700970Y-36293137D01*
X87558113Y-36007423D01*
X87558113Y-35293137D01*
X87415256Y-35007423D01*
X88558113Y-32293137D02*
X88700970Y-32578852D01*
X88700970Y-33150280D01*
X88558113Y-33435995D01*
X88415256Y-33578852D01*
X88129542Y-33721709D01*
X87272399Y-33721709D01*
X86986685Y-33578852D01*
X86843828Y-33435995D01*
X86700970Y-33150280D01*
X86700970Y-32578852D01*
X86843828Y-32293137D01*
X88700970Y-31007423D02*
X85700970Y-31007423D01*
X87558113Y-30721709D02*
X88700970Y-29864566D01*
X86700970Y-29864566D02*
X87843828Y-31007423D01*
D11*
X141089189Y-57745369D02*
X142279815Y-57745369D01*
X141089189Y-56554743D02*
X142279815Y-56554743D01*
X81557889Y-57745369D02*
X82748515Y-57745369D01*
X81557889Y-56554743D02*
X82748515Y-56554743D01*
X138112624Y-56554743D02*
X139303250Y-56554743D01*
X135136059Y-56554743D02*
X136326685Y-56554743D01*
X141089189Y-57745369D02*
G75*
G02X141089189Y-56554743I0J595313D01*
G01*
X139303250Y-56554743D02*
G75*
G02X139303250Y-57745369I0J-595313D01*
G01*
X138112624Y-57745369D02*
X139303250Y-57745369D01*
X138112624Y-57745369D02*
G75*
G02X138112624Y-56554743I0J595313D01*
G01*
X136326685Y-56554743D02*
G75*
G02X136326685Y-57745369I0J-595313D01*
G01*
X132159494Y-56554743D02*
X133350120Y-56554743D01*
X135136059Y-57745369D02*
X136326685Y-57745369D01*
X135136059Y-57745369D02*
G75*
G02X135136059Y-56554743I0J595313D01*
G01*
X133350120Y-56554743D02*
G75*
G02X133350120Y-57745369I0J-595313D01*
G01*
X129182929Y-56554743D02*
X130373555Y-56554743D01*
X132159494Y-57745369D02*
X133350120Y-57745369D01*
X132159494Y-57745369D02*
G75*
G02X132159494Y-56554743I0J595313D01*
G01*
X130373555Y-56554743D02*
G75*
G02X130373555Y-57745369I0J-595313D01*
G01*
X126206364Y-56554743D02*
X127396990Y-56554743D01*
X129182929Y-57745369D02*
X130373555Y-57745369D01*
X129182929Y-57745369D02*
G75*
G02X129182929Y-56554743I0J595313D01*
G01*
X127396990Y-56554743D02*
G75*
G02X127396990Y-57745369I0J-595313D01*
G01*
X123229799Y-56554743D02*
X124420425Y-56554743D01*
X126206364Y-57745369D02*
X127396990Y-57745369D01*
X126206364Y-57745369D02*
G75*
G02X126206364Y-56554743I0J595313D01*
G01*
X124420425Y-56554743D02*
G75*
G02X124420425Y-57745369I0J-595313D01*
G01*
X120253234Y-56554743D02*
X121443860Y-56554743D01*
X123229799Y-57745369D02*
X124420425Y-57745369D01*
X123229799Y-57745369D02*
G75*
G02X123229799Y-56554743I0J595313D01*
G01*
X121443860Y-56554743D02*
G75*
G02X121443860Y-57745369I0J-595313D01*
G01*
X117276669Y-56554743D02*
X118467295Y-56554743D01*
X120253234Y-57745369D02*
X121443860Y-57745369D01*
X120253234Y-57745369D02*
G75*
G02X120253234Y-56554743I0J595313D01*
G01*
X118467295Y-56554743D02*
G75*
G02X118467295Y-57745369I0J-595313D01*
G01*
X114300104Y-56554743D02*
X115490730Y-56554743D01*
X117276669Y-57745369D02*
X118467295Y-57745369D01*
X117276669Y-57745369D02*
G75*
G02X117276669Y-56554743I0J595313D01*
G01*
X115490730Y-56554743D02*
G75*
G02X115490730Y-57745369I0J-595313D01*
G01*
X111323539Y-56554743D02*
X112514165Y-56554743D01*
X114300104Y-57745369D02*
X115490730Y-57745369D01*
X114300104Y-57745369D02*
G75*
G02X114300104Y-56554743I0J595313D01*
G01*
X112514165Y-56554743D02*
G75*
G02X112514165Y-57745369I0J-595313D01*
G01*
X108346974Y-56554743D02*
X109537600Y-56554743D01*
X111323539Y-57745369D02*
X112514165Y-57745369D01*
X111323539Y-57745369D02*
G75*
G02X111323539Y-56554743I0J595313D01*
G01*
X109537600Y-56554743D02*
G75*
G02X109537600Y-57745369I0J-595313D01*
G01*
X105370409Y-56554743D02*
X106561035Y-56554743D01*
X108346974Y-57745369D02*
X109537600Y-57745369D01*
X108346974Y-57745369D02*
G75*
G02X108346974Y-56554743I0J595313D01*
G01*
X106561035Y-56554743D02*
G75*
G02X106561035Y-57745369I0J-595313D01*
G01*
X102393844Y-56554743D02*
X103584470Y-56554743D01*
X105370409Y-57745369D02*
X106561035Y-57745369D01*
X105370409Y-57745369D02*
G75*
G02X105370409Y-56554743I0J595313D01*
G01*
X103584470Y-56554743D02*
G75*
G02X103584470Y-57745369I0J-595313D01*
G01*
X99417279Y-56554743D02*
X100607905Y-56554743D01*
X102393844Y-57745369D02*
X103584470Y-57745369D01*
X102393844Y-57745369D02*
G75*
G02X102393844Y-56554743I0J595313D01*
G01*
X100607905Y-56554743D02*
G75*
G02X100607905Y-57745369I0J-595313D01*
G01*
X96440714Y-56554743D02*
X97631340Y-56554743D01*
X99417279Y-57745369D02*
X100607905Y-57745369D01*
X99417279Y-57745369D02*
G75*
G02X99417279Y-56554743I0J595313D01*
G01*
X97631340Y-56554743D02*
G75*
G02X97631340Y-57745369I0J-595313D01*
G01*
X93464149Y-56554743D02*
X94654775Y-56554743D01*
X96440714Y-57745369D02*
X97631340Y-57745369D01*
X96440714Y-57745369D02*
G75*
G02X96440714Y-56554743I0J595313D01*
G01*
X94654775Y-56554743D02*
G75*
G02X94654775Y-57745369I0J-595313D01*
G01*
X90487584Y-56554743D02*
X91678210Y-56554743D01*
X93464149Y-57745369D02*
X94654775Y-57745369D01*
X93464149Y-57745369D02*
G75*
G02X93464149Y-56554743I0J595313D01*
G01*
X91678210Y-56554743D02*
G75*
G02X91678210Y-57745369I0J-595313D01*
G01*
X87511019Y-56554743D02*
X88701645Y-56554743D01*
X90487584Y-57745369D02*
X91678210Y-57745369D01*
X90487584Y-57745369D02*
G75*
G02X90487584Y-56554743I0J595313D01*
G01*
X88701645Y-56554743D02*
G75*
G02X88701645Y-57745369I0J-595313D01*
G01*
X84534454Y-56554743D02*
X85725080Y-56554743D01*
X87511019Y-57745369D02*
X88701645Y-57745369D01*
X87511019Y-57745369D02*
G75*
G02X87511019Y-56554743I0J595313D01*
G01*
X85725080Y-56554743D02*
G75*
G02X85725080Y-57745369I0J-595313D01*
G01*
X84534454Y-57745369D02*
X85725080Y-57745369D01*
X84534454Y-57745369D02*
G75*
G02X84534454Y-56554743I0J595313D01*
G01*
X82748515Y-56554743D02*
G75*
G02X82748515Y-57745369I0J-595313D01*
G01*
X142279815Y-16073459D02*
G75*
G02X144661067Y-18454711I0J-2381252D01*
G01*
X144661067Y-54173491D02*
G75*
G02X142279815Y-56554743I-2381252J0D01*
G01*
X81557889Y-56554743D02*
G75*
G02X79176637Y-54173491I0J2381252D01*
G01*
X79176637Y-18454711D02*
G75*
G02X81557889Y-16073459I2381252J0D01*
G01*
X144661067Y-18454711D02*
X144661067Y-54173491D01*
X142279815Y-98226653D02*
X81557889Y-98226653D01*
X79176637Y-54173491D02*
X79176637Y-18454711D01*
X79176637Y-60126621D02*
G75*
G02X81557889Y-57745369I2381252J0D01*
G01*
X142279815Y-57745369D02*
G75*
G02X144661067Y-60126621I0J-2381252D01*
G01*
X144661067Y-95845401D02*
G75*
G02X142279815Y-98226653I-2381252J0D01*
G01*
X81557889Y-98226653D02*
G75*
G02X79176637Y-95845401I0J2381252D01*
G01*
X144661067Y-60126621D02*
X144661067Y-95845401D01*
X81557889Y-16073459D02*
X142279815Y-16073459D01*
X79176637Y-95845401D02*
X79176637Y-60126621D01*
X123968868Y-73461003D02*
X123968868Y-75461003D01*
X125968868Y-61461003D02*
X123968868Y-61461003D01*
X123968868Y-61461003D02*
X123968868Y-63461003D01*
X135968868Y-61461003D02*
X137968868Y-61461003D01*
X137968868Y-75461003D02*
X137968868Y-73461003D01*
X137968868Y-61461003D02*
X137968868Y-63461003D01*
X135968868Y-75461003D02*
X137968868Y-75461003D01*
X123968868Y-75461003D02*
X125968868Y-75461003D01*
D12*
X130968868Y-68961003D02*
X130968868Y-67961003D01*
X130468868Y-68461003D02*
X131468868Y-68461003D01*
X134468868Y-62361003D02*
X136868868Y-62361003D01*
X129668868Y-62361003D02*
X132268868Y-62361003D01*
X125068868Y-62361003D02*
X127468868Y-62361003D01*
X126868868Y-75661003D02*
X127168868Y-75961003D01*
X126868868Y-76261003D02*
X126868868Y-75661003D01*
X127168868Y-75961003D02*
X126868868Y-76261003D01*
X125068868Y-74561003D02*
X136868868Y-74561003D01*
X125068868Y-70461003D02*
X125068868Y-74561003D01*
X136868868Y-70461003D02*
X136868868Y-74561003D01*
X136868868Y-62361003D02*
X136868868Y-66461003D01*
X125068868Y-66461003D02*
X125068868Y-62361003D01*
X133968868Y-68461003D02*
G75*
G03X133968868Y-68461003I-3000000J0D01*
G01*
D13*
G36*
X90266448Y-28488375D02*
X90326839Y-27979340D01*
X90421540Y-27449578D01*
X90545513Y-26924774D01*
X90693725Y-26430617D01*
X90793180Y-26156995D01*
X91109363Y-25456616D01*
X91494981Y-24792126D01*
X91953454Y-24158770D01*
X92488203Y-23551795D01*
X93063434Y-23001077D01*
X93257091Y-22846386D01*
X93510347Y-22669369D01*
X93804846Y-22480728D01*
X94122228Y-22291166D01*
X94444135Y-22111386D01*
X94752208Y-21952088D01*
X95028090Y-21823977D01*
X95198737Y-21756252D01*
X95322741Y-21711083D01*
X95425195Y-21672190D01*
X95431570Y-21669662D01*
X95576462Y-21616191D01*
X95748267Y-21561781D01*
X95960225Y-21502799D01*
X96225575Y-21435607D01*
X96557557Y-21356571D01*
X96649261Y-21335287D01*
X96757280Y-21320879D01*
X96935545Y-21309144D01*
X97169678Y-21300087D01*
X97445300Y-21293713D01*
X97748035Y-21290026D01*
X98063502Y-21289032D01*
X98377323Y-21290734D01*
X98675122Y-21295139D01*
X98942518Y-21302250D01*
X99165134Y-21312072D01*
X99328592Y-21324611D01*
X99397091Y-21334378D01*
X99914383Y-21450399D01*
X100377123Y-21580260D01*
X100815340Y-21733978D01*
X101259063Y-21921570D01*
X101506404Y-22037991D01*
X101727297Y-22153284D01*
X101979902Y-22298286D01*
X102244078Y-22460176D01*
X102499686Y-22626134D01*
X102726585Y-22783339D01*
X102904637Y-22918970D01*
X102947895Y-22955624D01*
X103057901Y-23051420D01*
X103201300Y-23175049D01*
X103345763Y-23298648D01*
X103568269Y-23509091D01*
X103817298Y-23781235D01*
X104081364Y-24101124D01*
X104348979Y-24454806D01*
X104608656Y-24828325D01*
X104623919Y-24851342D01*
X104749594Y-25038698D01*
X104859937Y-25198100D01*
X104946270Y-25317408D01*
X104999917Y-25384483D01*
X105012314Y-25394712D01*
X105044619Y-25360036D01*
X105104713Y-25268200D01*
X105181140Y-25137069D01*
X105203115Y-25097197D01*
X105451302Y-24694545D01*
X105762421Y-24274384D01*
X106121478Y-23852125D01*
X106513484Y-23443177D01*
X106923448Y-23062951D01*
X107336378Y-22726856D01*
X107737283Y-22450303D01*
X107835237Y-22391483D01*
X108126995Y-22224254D01*
X108371145Y-22090541D01*
X108591669Y-21978656D01*
X108812551Y-21876915D01*
X109057774Y-21773632D01*
X109306320Y-21674703D01*
X109443882Y-21626863D01*
X109633261Y-21568593D01*
X109843804Y-21508624D01*
X110044858Y-21455686D01*
X110205770Y-21418509D01*
X110205904Y-21418482D01*
X110381861Y-21382198D01*
X110565185Y-21343293D01*
X110616233Y-21332202D01*
X110711559Y-21320537D01*
X110878007Y-21310052D01*
X111102037Y-21301185D01*
X111370107Y-21294374D01*
X111668677Y-21290056D01*
X111962737Y-21288662D01*
X112277549Y-21290259D01*
X112574493Y-21294758D01*
X112840027Y-21301721D01*
X113060611Y-21310711D01*
X113222703Y-21321289D01*
X113309241Y-21332202D01*
X113479685Y-21369267D01*
X113665429Y-21409246D01*
X113719570Y-21420807D01*
X114201735Y-21546589D01*
X114724811Y-21726050D01*
X114862570Y-21779731D01*
X115570015Y-22106854D01*
X116244618Y-22508388D01*
X116878970Y-22977983D01*
X117465661Y-23509293D01*
X117997279Y-24095971D01*
X118466416Y-24731668D01*
X118650720Y-25024579D01*
X118746431Y-25179373D01*
X118828644Y-25302418D01*
X118886666Y-25378261D01*
X118907047Y-25394995D01*
X118942578Y-25361055D01*
X119009542Y-25269800D01*
X119096767Y-25137083D01*
X119153213Y-25045745D01*
X119485552Y-24544612D01*
X119867954Y-24051993D01*
X120285327Y-23584183D01*
X120722582Y-23157477D01*
X121164629Y-22788171D01*
X121403070Y-22616276D01*
X122034546Y-22227080D01*
X122687699Y-21898331D01*
X123348100Y-21636333D01*
X124001318Y-21447393D01*
X124154737Y-21413759D01*
X124318811Y-21378732D01*
X124475893Y-21343038D01*
X124540648Y-21327323D01*
X124634987Y-21314863D01*
X124799966Y-21304913D01*
X125021598Y-21297437D01*
X125285894Y-21292399D01*
X125578867Y-21289763D01*
X125886529Y-21289492D01*
X126194892Y-21291550D01*
X126489967Y-21295899D01*
X126757768Y-21302505D01*
X126984305Y-21311331D01*
X127155592Y-21322339D01*
X127252424Y-21334378D01*
X127515959Y-21393084D01*
X127804569Y-21466122D01*
X128094424Y-21546708D01*
X128361698Y-21628057D01*
X128582562Y-21703388D01*
X128673820Y-21739040D01*
X129123354Y-21933937D01*
X129509407Y-22117779D01*
X129850221Y-22301637D01*
X130164041Y-22496579D01*
X130469111Y-22713674D01*
X130783672Y-22963991D01*
X131008795Y-23155778D01*
X131166060Y-23299456D01*
X131345837Y-23474617D01*
X131532807Y-23665163D01*
X131711654Y-23854992D01*
X131867059Y-24028006D01*
X131983706Y-24168104D01*
X132024386Y-24223227D01*
X132081165Y-24300360D01*
X132113744Y-24336662D01*
X132185621Y-24417066D01*
X132284008Y-24559067D01*
X132401682Y-24748986D01*
X132531420Y-24973144D01*
X132666001Y-25217862D01*
X132798201Y-25469461D01*
X132920797Y-25714263D01*
X133026568Y-25938589D01*
X133108290Y-26128759D01*
X133158740Y-26271096D01*
X133171737Y-26340371D01*
X133196395Y-26421523D01*
X133205428Y-26434279D01*
X133245596Y-26513823D01*
X133295475Y-26660372D01*
X133350990Y-26857395D01*
X133408067Y-27088361D01*
X133462631Y-27336737D01*
X133510606Y-27585994D01*
X133547919Y-27819598D01*
X133549239Y-27829162D01*
X133569299Y-28034233D01*
X133582368Y-28293680D01*
X133588857Y-28592747D01*
X133589178Y-28916678D01*
X133583742Y-29250716D01*
X133572963Y-29580107D01*
X133557250Y-29890093D01*
X133537016Y-30165920D01*
X133512672Y-30392831D01*
X133484631Y-30556070D01*
X133471883Y-30601995D01*
X133442380Y-30703633D01*
X133405785Y-30848203D01*
X133384334Y-30940662D01*
X133258071Y-31399550D01*
X133077142Y-31880864D01*
X132955191Y-32155078D01*
X132893861Y-32289907D01*
X132850020Y-32392567D01*
X132833072Y-32441030D01*
X132833070Y-32441168D01*
X132812116Y-32486408D01*
X132755713Y-32587304D01*
X132673549Y-32727882D01*
X132575311Y-32892167D01*
X132470686Y-33064183D01*
X132369363Y-33227956D01*
X132281029Y-33367510D01*
X132215373Y-33466871D01*
X132189859Y-33501829D01*
X131851638Y-33908320D01*
X131547109Y-34254628D01*
X131264149Y-34551773D01*
X130990636Y-34810771D01*
X130714448Y-35042641D01*
X130423463Y-35258401D01*
X130105557Y-35469069D01*
X129859154Y-35620220D01*
X129694827Y-35722634D01*
X129561536Y-35813689D01*
X129473972Y-35882809D01*
X129446404Y-35917366D01*
X129480943Y-35958259D01*
X129574199Y-36028781D01*
X129710625Y-36117897D01*
X129826110Y-36186946D01*
X130242622Y-36453311D01*
X130674852Y-36776702D01*
X131100737Y-37138373D01*
X131498213Y-37519580D01*
X131845218Y-37901577D01*
X131847656Y-37904495D01*
X132057673Y-38174933D01*
X132276430Y-38489887D01*
X132493364Y-38831277D01*
X132697914Y-39181022D01*
X132879517Y-39521042D01*
X133027610Y-39833257D01*
X133131630Y-40099586D01*
X133133681Y-40105829D01*
X133176087Y-40221469D01*
X133214154Y-40302735D01*
X133222712Y-40315379D01*
X133250625Y-40387966D01*
X133256404Y-40444496D01*
X133271687Y-40535903D01*
X133291010Y-40573612D01*
X133318824Y-40634876D01*
X133353768Y-40750001D01*
X133377446Y-40846662D01*
X133414425Y-41009019D01*
X133450896Y-41163269D01*
X133466764Y-41227662D01*
X133507410Y-41441685D01*
X133540679Y-41722790D01*
X133566178Y-42053682D01*
X133583516Y-42417066D01*
X133592301Y-42795646D01*
X133592143Y-43172127D01*
X133582650Y-43529214D01*
X133563431Y-43849611D01*
X133534094Y-44116023D01*
X133532373Y-44127495D01*
X133372593Y-44903437D01*
X133134652Y-45646929D01*
X132818754Y-46357578D01*
X132425100Y-47034989D01*
X131953895Y-47678766D01*
X131405342Y-48288516D01*
X131374240Y-48319750D01*
X131164144Y-48522319D01*
X130939625Y-48726109D01*
X130713442Y-48920692D01*
X130498351Y-49095643D01*
X130307111Y-49240533D01*
X130152478Y-49344936D01*
X130060278Y-49393691D01*
X130001909Y-49425695D01*
X129902527Y-49487482D01*
X129848570Y-49522665D01*
X129737093Y-49588892D01*
X129571184Y-49678423D01*
X129373622Y-49779815D01*
X129167182Y-49881625D01*
X128974642Y-49972409D01*
X128818778Y-50040724D01*
X128811404Y-50043732D01*
X128695816Y-50090441D01*
X128620904Y-50120548D01*
X128469218Y-50175641D01*
X128270383Y-50240475D01*
X128059376Y-50304223D01*
X127871179Y-50356057D01*
X127816570Y-50369522D01*
X127657781Y-50407220D01*
X127505705Y-50443831D01*
X127456737Y-50455790D01*
X127238014Y-50496785D01*
X126953507Y-50531041D01*
X126621871Y-50558013D01*
X126261762Y-50577160D01*
X125891835Y-50587939D01*
X125644692Y-50589216D01*
X125644692Y-50424313D01*
X126434274Y-50408323D01*
X127222456Y-50309982D01*
X127660938Y-50218549D01*
X128391167Y-50000576D01*
X129099498Y-49702651D01*
X129781304Y-49327709D01*
X130431960Y-48878683D01*
X131046838Y-48358507D01*
X131621313Y-47770117D01*
X131744791Y-47628321D01*
X131920650Y-47400617D01*
X132113105Y-47115003D01*
X132311622Y-46790563D01*
X132505667Y-46446381D01*
X132684706Y-46101539D01*
X132838205Y-45775123D01*
X132955631Y-45486216D01*
X132999538Y-45355162D01*
X133041245Y-45225368D01*
X133079945Y-45117951D01*
X133086812Y-45101162D01*
X133128672Y-44977188D01*
X133178359Y-44790012D01*
X133231634Y-44560235D01*
X133284259Y-44308456D01*
X133331994Y-44055277D01*
X133370601Y-43821298D01*
X133395842Y-43627120D01*
X133400372Y-43577162D01*
X133408692Y-43386937D01*
X133410275Y-43139820D01*
X133405915Y-42855960D01*
X133396403Y-42555504D01*
X133382532Y-42258601D01*
X133365095Y-41985400D01*
X133344884Y-41756048D01*
X133322692Y-41590693D01*
X133322108Y-41587495D01*
X133251067Y-41241314D01*
X133168266Y-40902319D01*
X133080424Y-40595844D01*
X132994260Y-40347222D01*
X132990874Y-40338662D01*
X132945336Y-40222968D01*
X132916389Y-40148162D01*
X132809361Y-39890169D01*
X132670677Y-39588839D01*
X132513831Y-39272461D01*
X132364967Y-38992194D01*
X132257524Y-38818591D01*
X132105236Y-38601360D01*
X131921820Y-38358019D01*
X131720996Y-38106085D01*
X131516481Y-37863075D01*
X131321995Y-37646507D01*
X131260611Y-37582030D01*
X130887392Y-37220610D01*
X130501311Y-36896692D01*
X130083298Y-36596245D01*
X129614280Y-36305243D01*
X129245254Y-36099566D01*
X129117053Y-36024292D01*
X129027345Y-35959088D01*
X128994046Y-35917133D01*
X128994402Y-35915026D01*
X129035372Y-35877963D01*
X129134666Y-35812289D01*
X129275567Y-35728602D01*
X129381612Y-35669529D01*
X130067023Y-35251079D01*
X130700175Y-34771253D01*
X131277117Y-34235227D01*
X131793898Y-33648178D01*
X132246565Y-33015282D01*
X132631166Y-32341714D01*
X132943751Y-31632652D01*
X133180368Y-30893272D01*
X133250292Y-30601995D01*
X133283623Y-30449663D01*
X133323929Y-30266015D01*
X133347801Y-30157495D01*
X133372283Y-29987968D01*
X133389271Y-29735489D01*
X133398786Y-29399591D01*
X133400894Y-28993329D01*
X133396685Y-28602559D01*
X133385187Y-28276573D01*
X133364067Y-27995631D01*
X133330990Y-27739996D01*
X133283621Y-27489929D01*
X133219624Y-27225692D01*
X133170545Y-27045995D01*
X133124028Y-26878217D01*
X133084225Y-26729864D01*
X133058950Y-26630131D01*
X133057230Y-26622662D01*
X133028063Y-26525134D01*
X133004348Y-26474495D01*
X132975336Y-26410792D01*
X132935659Y-26298874D01*
X132917630Y-26241662D01*
X132858933Y-26084840D01*
X132764751Y-25875677D01*
X132645034Y-25633272D01*
X132509733Y-25376727D01*
X132368799Y-25125142D01*
X132232182Y-24897618D01*
X132156670Y-24780965D01*
X131975282Y-24527057D01*
X131759174Y-24249895D01*
X131528429Y-23973567D01*
X131303126Y-23722159D01*
X131112034Y-23527975D01*
X130566475Y-23056727D01*
X129977230Y-22634444D01*
X129356677Y-22267633D01*
X128717192Y-21962802D01*
X128071151Y-21726459D01*
X127430932Y-21565112D01*
X127350904Y-21550359D01*
X126959447Y-21484250D01*
X126632019Y-21436657D01*
X126350334Y-21406277D01*
X126096109Y-21391806D01*
X125851056Y-21391942D01*
X125596891Y-21405382D01*
X125467070Y-21416105D01*
X124946296Y-21470318D01*
X124490651Y-21535383D01*
X124080800Y-21616306D01*
X123697409Y-21718092D01*
X123321142Y-21845748D01*
X122932665Y-22004280D01*
X122592345Y-22160395D01*
X121920990Y-22526309D01*
X121286932Y-22963292D01*
X120698032Y-23463749D01*
X120162151Y-24020085D01*
X119687152Y-24624705D01*
X119280895Y-25270014D01*
X119180862Y-25456322D01*
X119072390Y-25651881D01*
X118984459Y-25769991D01*
X118908693Y-25812776D01*
X118836713Y-25782361D01*
X118760142Y-25680871D01*
X118703708Y-25577339D01*
X118314797Y-24902449D01*
X117858621Y-24271127D01*
X117341725Y-23688854D01*
X116770655Y-23161108D01*
X116151956Y-22693369D01*
X115492173Y-22291117D01*
X114797853Y-21959831D01*
X114079404Y-21706123D01*
X113500710Y-21562871D01*
X112894829Y-21461030D01*
X112297177Y-21405769D01*
X111962737Y-21397108D01*
X111185413Y-21440104D01*
X110412389Y-21563826D01*
X109656174Y-21765396D01*
X108929279Y-22041936D01*
X108703070Y-22146683D01*
X107990983Y-22537039D01*
X107333696Y-22990828D01*
X106733643Y-23505720D01*
X106193255Y-24079387D01*
X105714964Y-24709500D01*
X105301203Y-25393731D01*
X105290305Y-25414146D01*
X105180933Y-25613121D01*
X105098942Y-25744067D01*
X105036832Y-25816106D01*
X104987105Y-25838356D01*
X104951279Y-25826491D01*
X104913047Y-25777826D01*
X104848206Y-25672079D01*
X104767903Y-25527947D01*
X104726809Y-25449984D01*
X104339112Y-24791461D01*
X103884723Y-24179595D01*
X103370003Y-23618241D01*
X102801311Y-23111252D01*
X102185006Y-22662483D01*
X101527448Y-22275788D01*
X100834995Y-21955020D01*
X100114007Y-21704036D01*
X99370844Y-21526687D01*
X98611865Y-21426829D01*
X98052725Y-21405077D01*
X97745545Y-21408379D01*
X97477550Y-21419773D01*
X97226883Y-21442069D01*
X96971685Y-21478078D01*
X96690100Y-21530610D01*
X96360269Y-21602475D01*
X96165236Y-21647759D01*
X95844888Y-21736367D01*
X95489534Y-21856592D01*
X95127810Y-21997207D01*
X94788351Y-22146987D01*
X94499794Y-22294705D01*
X94466624Y-22313688D01*
X94351223Y-22378605D01*
X94267908Y-22421454D01*
X94241247Y-22431662D01*
X94199758Y-22454133D01*
X94102332Y-22515568D01*
X93962825Y-22607003D01*
X93795092Y-22719471D01*
X93766915Y-22738579D01*
X93345143Y-23056003D01*
X92916767Y-23435354D01*
X92499903Y-23857581D01*
X92112667Y-24303634D01*
X91773174Y-24754462D01*
X91603205Y-25013995D01*
X91221036Y-25715498D01*
X90915191Y-26452305D01*
X90687611Y-27219279D01*
X90587629Y-27702162D01*
X90497431Y-28389424D01*
X90472185Y-29056834D01*
X90512816Y-29722833D01*
X90620247Y-30405861D01*
X90750883Y-30961829D01*
X90822181Y-31218241D01*
X90879150Y-31397221D01*
X90920982Y-31496302D01*
X90930431Y-31510046D01*
X90963866Y-31587748D01*
X90965403Y-31605757D01*
X90983900Y-31676822D01*
X91034464Y-31806920D01*
X91109704Y-31980171D01*
X91202228Y-32180697D01*
X91304646Y-32392620D01*
X91409568Y-32600062D01*
X91509602Y-32787144D01*
X91542542Y-32845662D01*
X91798301Y-33243039D01*
X92116344Y-33657594D01*
X92481188Y-34073039D01*
X92877348Y-34473082D01*
X93289337Y-34841432D01*
X93701670Y-35161800D01*
X93826438Y-35248350D01*
X93978576Y-35345066D01*
X94174812Y-35461978D01*
X94383876Y-35580708D01*
X94493188Y-35640226D01*
X94658852Y-35733555D01*
X94792331Y-35817912D01*
X94878242Y-35882977D01*
X94902404Y-35914761D01*
X94867339Y-35957405D01*
X94772915Y-36027167D01*
X94635283Y-36112872D01*
X94532629Y-36170581D01*
X93859723Y-36577920D01*
X93234379Y-37044643D01*
X92664721Y-37563490D01*
X92158872Y-38127204D01*
X91802723Y-38609875D01*
X91683847Y-38789417D01*
X91576275Y-38956260D01*
X91492558Y-39090670D01*
X91447957Y-39167649D01*
X91186231Y-39692335D01*
X90975751Y-40177840D01*
X90809727Y-40646633D01*
X90681373Y-41121183D01*
X90583903Y-41623961D01*
X90510528Y-42177435D01*
X90495786Y-42319941D01*
X90469843Y-42923804D01*
X90505094Y-43559309D01*
X90599539Y-44201751D01*
X90676418Y-44550829D01*
X90775659Y-44930946D01*
X90875694Y-45265092D01*
X90984979Y-45574430D01*
X91111970Y-45880122D01*
X91265120Y-46203333D01*
X91452885Y-46565224D01*
X91560661Y-46764131D01*
X91655482Y-46918253D01*
X91792672Y-47116537D01*
X91957933Y-47340238D01*
X92136966Y-47570611D01*
X92315473Y-47788911D01*
X92479157Y-47976392D01*
X92514180Y-48014223D01*
X93054769Y-48533852D01*
X93649428Y-49002737D01*
X94286027Y-49413546D01*
X94952438Y-49758947D01*
X95636529Y-50031608D01*
X96066570Y-50161533D01*
X96343836Y-50233395D01*
X96575713Y-50288443D01*
X96781235Y-50328922D01*
X96979433Y-50357077D01*
X97189340Y-50375154D01*
X97429989Y-50385399D01*
X97720413Y-50390057D01*
X98013904Y-50391290D01*
X98376261Y-50390360D01*
X98672446Y-50384937D01*
X98920917Y-50372979D01*
X99140132Y-50352444D01*
X99348551Y-50321288D01*
X99564631Y-50277470D01*
X99806831Y-50218945D01*
X99981278Y-50173567D01*
X100511132Y-50009459D01*
X101049383Y-49793381D01*
X101612745Y-49518300D01*
X101866237Y-49380479D01*
X102235732Y-49149700D01*
X102627396Y-48861816D01*
X103021731Y-48533423D01*
X103399235Y-48181119D01*
X103740410Y-47821500D01*
X103856137Y-47686786D01*
X104105106Y-47364255D01*
X104355847Y-46997511D01*
X104584252Y-46622955D01*
X104695638Y-46419090D01*
X104807499Y-46214017D01*
X104894507Y-46080580D01*
X104962846Y-46011643D01*
X105018704Y-46000071D01*
X105045859Y-46015165D01*
X105087592Y-46069864D01*
X105157509Y-46182176D01*
X105245017Y-46334451D01*
X105318927Y-46470099D01*
X105717360Y-47130390D01*
X106179217Y-47739195D01*
X106698587Y-48293619D01*
X107269559Y-48790763D01*
X107886219Y-49227732D01*
X108542655Y-49601629D01*
X109232957Y-49909557D01*
X109951211Y-50148618D01*
X110691505Y-50315917D01*
X111447929Y-50408556D01*
X112214568Y-50423639D01*
X112985513Y-50358268D01*
X113190404Y-50326990D01*
X113961649Y-50155888D01*
X114704246Y-49907135D01*
X115413223Y-49584369D01*
X116083606Y-49191228D01*
X116710422Y-48731350D01*
X117288700Y-48208373D01*
X117813465Y-47625935D01*
X118279746Y-46987675D01*
X118672773Y-46316134D01*
X118767477Y-46146867D01*
X118845826Y-46048406D01*
X118917659Y-46022193D01*
X118992818Y-46069670D01*
X119081144Y-46192278D01*
X119192478Y-46391459D01*
X119192939Y-46392329D01*
X119575339Y-47032943D01*
X120022769Y-47639724D01*
X120525025Y-48201681D01*
X121071902Y-48707826D01*
X121653197Y-49147170D01*
X121896846Y-49304058D01*
X122598685Y-49684796D01*
X123330706Y-49988192D01*
X124086592Y-50213246D01*
X124860026Y-50358953D01*
X125644692Y-50424313D01*
X125644692Y-50589216D01*
X125530746Y-50589806D01*
X125197149Y-50582220D01*
X124909701Y-50564636D01*
X124687057Y-50536512D01*
X124686452Y-50536402D01*
X124211648Y-50441456D01*
X123792576Y-50337869D01*
X123400302Y-50216382D01*
X123005893Y-50067737D01*
X122580415Y-49882677D01*
X122440237Y-49817664D01*
X122003377Y-49597005D01*
X121606345Y-49360553D01*
X121230387Y-49094714D01*
X120856747Y-48785896D01*
X120466671Y-48420507D01*
X120344737Y-48298934D01*
X120002972Y-47939466D01*
X119712616Y-47599202D01*
X119453384Y-47252313D01*
X119204990Y-46872969D01*
X119136420Y-46760416D01*
X119046032Y-46616109D01*
X118969216Y-46504567D01*
X118917641Y-46442258D01*
X118905553Y-46434662D01*
X118870409Y-46468959D01*
X118805435Y-46560899D01*
X118721816Y-46694053D01*
X118675882Y-46772038D01*
X118388985Y-47218019D01*
X118042539Y-47671438D01*
X117650990Y-48117789D01*
X117228780Y-48542571D01*
X116790355Y-48931280D01*
X116350158Y-49269412D01*
X115922633Y-49542465D01*
X115909289Y-49549985D01*
X115471822Y-49780625D01*
X115030575Y-49985644D01*
X114605137Y-50156851D01*
X114215096Y-50286054D01*
X114037070Y-50332911D01*
X113898384Y-50365588D01*
X113737916Y-50403436D01*
X113698404Y-50412762D01*
X113498387Y-50457838D01*
X113316694Y-50492734D01*
X113136808Y-50518994D01*
X112942212Y-50538158D01*
X112716388Y-50551770D01*
X112442821Y-50561371D01*
X112104992Y-50568504D01*
X112014365Y-50569990D01*
X111666201Y-50574399D01*
X111389145Y-50575008D01*
X111169699Y-50571280D01*
X110994368Y-50562679D01*
X110849653Y-50548670D01*
X110722060Y-50528716D01*
X110659698Y-50516177D01*
X110406667Y-50461391D01*
X110217050Y-50418818D01*
X110071278Y-50383850D01*
X109949785Y-50351878D01*
X109888404Y-50334530D01*
X109736745Y-50291859D01*
X109592070Y-50252599D01*
X109455615Y-50209211D01*
X109266260Y-50139489D01*
X109047728Y-50053118D01*
X108823741Y-49959784D01*
X108618022Y-49869174D01*
X108454293Y-49790973D01*
X108427904Y-49777266D01*
X107761660Y-49386816D01*
X107143123Y-48948840D01*
X106583685Y-48472197D01*
X106094740Y-47965747D01*
X106087446Y-47957327D01*
X105974329Y-47820060D01*
X105841862Y-47649141D01*
X105699281Y-47457702D01*
X105555823Y-47258876D01*
X105420724Y-47065796D01*
X105303220Y-46891593D01*
X105212548Y-46749399D01*
X105157943Y-46652349D01*
X105146129Y-46618933D01*
X105121871Y-46562468D01*
X105067054Y-46481202D01*
X104988920Y-46379576D01*
X104807836Y-46692869D01*
X104396561Y-47328008D01*
X103921810Y-47925232D01*
X103392534Y-48476694D01*
X102817681Y-48974543D01*
X102206203Y-49410932D01*
X101567048Y-49778011D01*
X100998404Y-50033718D01*
X100621004Y-50171539D01*
X100227556Y-50297116D01*
X99851137Y-50400425D01*
X99601404Y-50456965D01*
X99429346Y-50492081D01*
X99257158Y-50528373D01*
X99188046Y-50543401D01*
X99077732Y-50557442D01*
X98898862Y-50568316D01*
X98667489Y-50576057D01*
X98399663Y-50580697D01*
X98111435Y-50582268D01*
X97818857Y-50580803D01*
X97537980Y-50576335D01*
X97284854Y-50568896D01*
X97075532Y-50558518D01*
X96926064Y-50545233D01*
X96884716Y-50538740D01*
X96703596Y-50502925D01*
X96512984Y-50465237D01*
X96447570Y-50452304D01*
X96225008Y-50402082D01*
X95968842Y-50334625D01*
X95708710Y-50258570D01*
X95474247Y-50182555D01*
X95304570Y-50119200D01*
X94705959Y-49853731D01*
X94175243Y-49580992D01*
X93695746Y-49289727D01*
X93250789Y-48968677D01*
X92823696Y-48606585D01*
X92397790Y-48192192D01*
X92302279Y-48092557D01*
X91830003Y-47537275D01*
X91408832Y-46925801D01*
X91051289Y-46277312D01*
X90901413Y-45947829D01*
X90847625Y-45820730D01*
X90802472Y-45714094D01*
X90793886Y-45693829D01*
X90750147Y-45579046D01*
X90694344Y-45417637D01*
X90637996Y-45244293D01*
X90592620Y-45093704D01*
X90583048Y-45058829D01*
X90517709Y-44809748D01*
X90470120Y-44620881D01*
X90435394Y-44470857D01*
X90408647Y-44338305D01*
X90384992Y-44201853D01*
X90379821Y-44169829D01*
X90308591Y-43676086D01*
X90264540Y-43240244D01*
X90247661Y-42840023D01*
X90257947Y-42453142D01*
X90295390Y-42057319D01*
X90359982Y-41630274D01*
X90378914Y-41523995D01*
X90423794Y-41299857D01*
X90478016Y-41062675D01*
X90536971Y-40829297D01*
X90596049Y-40616572D01*
X90650641Y-40441347D01*
X90696135Y-40320470D01*
X90720045Y-40277279D01*
X90752262Y-40199536D01*
X90753737Y-40181567D01*
X90771365Y-40107368D01*
X90825209Y-39969679D01*
X90916707Y-39765154D01*
X91047298Y-39490446D01*
X91077402Y-39428495D01*
X91432546Y-38777871D01*
X91839572Y-38182580D01*
X92310853Y-37625655D01*
X92622305Y-37309881D01*
X92853322Y-37091310D01*
X93053242Y-36912786D01*
X93243779Y-36757329D01*
X93446648Y-36607959D01*
X93683563Y-36447696D01*
X93919119Y-36295829D01*
X94107358Y-36173365D01*
X94268763Y-36063264D01*
X94390247Y-35974850D01*
X94458724Y-35917447D01*
X94468766Y-35904193D01*
X94449880Y-35847774D01*
X94407559Y-35819526D01*
X94168098Y-35702279D01*
X93887809Y-35530965D01*
X93580018Y-35316604D01*
X93258053Y-35070210D01*
X92935239Y-34802803D01*
X92624903Y-34525398D01*
X92340372Y-34249014D01*
X92094970Y-33984667D01*
X91910622Y-33755270D01*
X91838415Y-33656493D01*
X91737756Y-33519427D01*
X91631233Y-33374829D01*
X91513907Y-33206780D01*
X91396556Y-33024184D01*
X91316667Y-32887995D01*
X91232359Y-32734257D01*
X91150232Y-32585573D01*
X91106456Y-32506995D01*
X91037344Y-32370918D01*
X90966626Y-32212807D01*
X90948578Y-32168329D01*
X90889960Y-32022708D01*
X90833033Y-31886941D01*
X90817251Y-31850829D01*
X90735316Y-31641114D01*
X90642696Y-31358163D01*
X90542583Y-31012264D01*
X90459272Y-30697245D01*
X90410037Y-30468284D01*
X90361909Y-30181287D01*
X90318149Y-29862857D01*
X90282014Y-29539597D01*
X90256761Y-29238111D01*
X90245651Y-28985002D01*
X90245403Y-28950995D01*
X90266448Y-28488375D01*
X90266448Y-28488375D01*
G37*
X90266448Y-28488375D02*
X90326839Y-27979340D01*
X90421540Y-27449578D01*
X90545513Y-26924774D01*
X90693725Y-26430617D01*
X90793180Y-26156995D01*
X91109363Y-25456616D01*
X91494981Y-24792126D01*
X91953454Y-24158770D01*
X92488203Y-23551795D01*
X93063434Y-23001077D01*
X93257091Y-22846386D01*
X93510347Y-22669369D01*
X93804846Y-22480728D01*
X94122228Y-22291166D01*
X94444135Y-22111386D01*
X94752208Y-21952088D01*
X95028090Y-21823977D01*
X95198737Y-21756252D01*
X95322741Y-21711083D01*
X95425195Y-21672190D01*
X95431570Y-21669662D01*
X95576462Y-21616191D01*
X95748267Y-21561781D01*
X95960225Y-21502799D01*
X96225575Y-21435607D01*
X96557557Y-21356571D01*
X96649261Y-21335287D01*
X96757280Y-21320879D01*
X96935545Y-21309144D01*
X97169678Y-21300087D01*
X97445300Y-21293713D01*
X97748035Y-21290026D01*
X98063502Y-21289032D01*
X98377323Y-21290734D01*
X98675122Y-21295139D01*
X98942518Y-21302250D01*
X99165134Y-21312072D01*
X99328592Y-21324611D01*
X99397091Y-21334378D01*
X99914383Y-21450399D01*
X100377123Y-21580260D01*
X100815340Y-21733978D01*
X101259063Y-21921570D01*
X101506404Y-22037991D01*
X101727297Y-22153284D01*
X101979902Y-22298286D01*
X102244078Y-22460176D01*
X102499686Y-22626134D01*
X102726585Y-22783339D01*
X102904637Y-22918970D01*
X102947895Y-22955624D01*
X103057901Y-23051420D01*
X103201300Y-23175049D01*
X103345763Y-23298648D01*
X103568269Y-23509091D01*
X103817298Y-23781235D01*
X104081364Y-24101124D01*
X104348979Y-24454806D01*
X104608656Y-24828325D01*
X104623919Y-24851342D01*
X104749594Y-25038698D01*
X104859937Y-25198100D01*
X104946270Y-25317408D01*
X104999917Y-25384483D01*
X105012314Y-25394712D01*
X105044619Y-25360036D01*
X105104713Y-25268200D01*
X105181140Y-25137069D01*
X105203115Y-25097197D01*
X105451302Y-24694545D01*
X105762421Y-24274384D01*
X106121478Y-23852125D01*
X106513484Y-23443177D01*
X106923448Y-23062951D01*
X107336378Y-22726856D01*
X107737283Y-22450303D01*
X107835237Y-22391483D01*
X108126995Y-22224254D01*
X108371145Y-22090541D01*
X108591669Y-21978656D01*
X108812551Y-21876915D01*
X109057774Y-21773632D01*
X109306320Y-21674703D01*
X109443882Y-21626863D01*
X109633261Y-21568593D01*
X109843804Y-21508624D01*
X110044858Y-21455686D01*
X110205770Y-21418509D01*
X110205904Y-21418482D01*
X110381861Y-21382198D01*
X110565185Y-21343293D01*
X110616233Y-21332202D01*
X110711559Y-21320537D01*
X110878007Y-21310052D01*
X111102037Y-21301185D01*
X111370107Y-21294374D01*
X111668677Y-21290056D01*
X111962737Y-21288662D01*
X112277549Y-21290259D01*
X112574493Y-21294758D01*
X112840027Y-21301721D01*
X113060611Y-21310711D01*
X113222703Y-21321289D01*
X113309241Y-21332202D01*
X113479685Y-21369267D01*
X113665429Y-21409246D01*
X113719570Y-21420807D01*
X114201735Y-21546589D01*
X114724811Y-21726050D01*
X114862570Y-21779731D01*
X115570015Y-22106854D01*
X116244618Y-22508388D01*
X116878970Y-22977983D01*
X117465661Y-23509293D01*
X117997279Y-24095971D01*
X118466416Y-24731668D01*
X118650720Y-25024579D01*
X118746431Y-25179373D01*
X118828644Y-25302418D01*
X118886666Y-25378261D01*
X118907047Y-25394995D01*
X118942578Y-25361055D01*
X119009542Y-25269800D01*
X119096767Y-25137083D01*
X119153213Y-25045745D01*
X119485552Y-24544612D01*
X119867954Y-24051993D01*
X120285327Y-23584183D01*
X120722582Y-23157477D01*
X121164629Y-22788171D01*
X121403070Y-22616276D01*
X122034546Y-22227080D01*
X122687699Y-21898331D01*
X123348100Y-21636333D01*
X124001318Y-21447393D01*
X124154737Y-21413759D01*
X124318811Y-21378732D01*
X124475893Y-21343038D01*
X124540648Y-21327323D01*
X124634987Y-21314863D01*
X124799966Y-21304913D01*
X125021598Y-21297437D01*
X125285894Y-21292399D01*
X125578867Y-21289763D01*
X125886529Y-21289492D01*
X126194892Y-21291550D01*
X126489967Y-21295899D01*
X126757768Y-21302505D01*
X126984305Y-21311331D01*
X127155592Y-21322339D01*
X127252424Y-21334378D01*
X127515959Y-21393084D01*
X127804569Y-21466122D01*
X128094424Y-21546708D01*
X128361698Y-21628057D01*
X128582562Y-21703388D01*
X128673820Y-21739040D01*
X129123354Y-21933937D01*
X129509407Y-22117779D01*
X129850221Y-22301637D01*
X130164041Y-22496579D01*
X130469111Y-22713674D01*
X130783672Y-22963991D01*
X131008795Y-23155778D01*
X131166060Y-23299456D01*
X131345837Y-23474617D01*
X131532807Y-23665163D01*
X131711654Y-23854992D01*
X131867059Y-24028006D01*
X131983706Y-24168104D01*
X132024386Y-24223227D01*
X132081165Y-24300360D01*
X132113744Y-24336662D01*
X132185621Y-24417066D01*
X132284008Y-24559067D01*
X132401682Y-24748986D01*
X132531420Y-24973144D01*
X132666001Y-25217862D01*
X132798201Y-25469461D01*
X132920797Y-25714263D01*
X133026568Y-25938589D01*
X133108290Y-26128759D01*
X133158740Y-26271096D01*
X133171737Y-26340371D01*
X133196395Y-26421523D01*
X133205428Y-26434279D01*
X133245596Y-26513823D01*
X133295475Y-26660372D01*
X133350990Y-26857395D01*
X133408067Y-27088361D01*
X133462631Y-27336737D01*
X133510606Y-27585994D01*
X133547919Y-27819598D01*
X133549239Y-27829162D01*
X133569299Y-28034233D01*
X133582368Y-28293680D01*
X133588857Y-28592747D01*
X133589178Y-28916678D01*
X133583742Y-29250716D01*
X133572963Y-29580107D01*
X133557250Y-29890093D01*
X133537016Y-30165920D01*
X133512672Y-30392831D01*
X133484631Y-30556070D01*
X133471883Y-30601995D01*
X133442380Y-30703633D01*
X133405785Y-30848203D01*
X133384334Y-30940662D01*
X133258071Y-31399550D01*
X133077142Y-31880864D01*
X132955191Y-32155078D01*
X132893861Y-32289907D01*
X132850020Y-32392567D01*
X132833072Y-32441030D01*
X132833070Y-32441168D01*
X132812116Y-32486408D01*
X132755713Y-32587304D01*
X132673549Y-32727882D01*
X132575311Y-32892167D01*
X132470686Y-33064183D01*
X132369363Y-33227956D01*
X132281029Y-33367510D01*
X132215373Y-33466871D01*
X132189859Y-33501829D01*
X131851638Y-33908320D01*
X131547109Y-34254628D01*
X131264149Y-34551773D01*
X130990636Y-34810771D01*
X130714448Y-35042641D01*
X130423463Y-35258401D01*
X130105557Y-35469069D01*
X129859154Y-35620220D01*
X129694827Y-35722634D01*
X129561536Y-35813689D01*
X129473972Y-35882809D01*
X129446404Y-35917366D01*
X129480943Y-35958259D01*
X129574199Y-36028781D01*
X129710625Y-36117897D01*
X129826110Y-36186946D01*
X130242622Y-36453311D01*
X130674852Y-36776702D01*
X131100737Y-37138373D01*
X131498213Y-37519580D01*
X131845218Y-37901577D01*
X131847656Y-37904495D01*
X132057673Y-38174933D01*
X132276430Y-38489887D01*
X132493364Y-38831277D01*
X132697914Y-39181022D01*
X132879517Y-39521042D01*
X133027610Y-39833257D01*
X133131630Y-40099586D01*
X133133681Y-40105829D01*
X133176087Y-40221469D01*
X133214154Y-40302735D01*
X133222712Y-40315379D01*
X133250625Y-40387966D01*
X133256404Y-40444496D01*
X133271687Y-40535903D01*
X133291010Y-40573612D01*
X133318824Y-40634876D01*
X133353768Y-40750001D01*
X133377446Y-40846662D01*
X133414425Y-41009019D01*
X133450896Y-41163269D01*
X133466764Y-41227662D01*
X133507410Y-41441685D01*
X133540679Y-41722790D01*
X133566178Y-42053682D01*
X133583516Y-42417066D01*
X133592301Y-42795646D01*
X133592143Y-43172127D01*
X133582650Y-43529214D01*
X133563431Y-43849611D01*
X133534094Y-44116023D01*
X133532373Y-44127495D01*
X133372593Y-44903437D01*
X133134652Y-45646929D01*
X132818754Y-46357578D01*
X132425100Y-47034989D01*
X131953895Y-47678766D01*
X131405342Y-48288516D01*
X131374240Y-48319750D01*
X131164144Y-48522319D01*
X130939625Y-48726109D01*
X130713442Y-48920692D01*
X130498351Y-49095643D01*
X130307111Y-49240533D01*
X130152478Y-49344936D01*
X130060278Y-49393691D01*
X130001909Y-49425695D01*
X129902527Y-49487482D01*
X129848570Y-49522665D01*
X129737093Y-49588892D01*
X129571184Y-49678423D01*
X129373622Y-49779815D01*
X129167182Y-49881625D01*
X128974642Y-49972409D01*
X128818778Y-50040724D01*
X128811404Y-50043732D01*
X128695816Y-50090441D01*
X128620904Y-50120548D01*
X128469218Y-50175641D01*
X128270383Y-50240475D01*
X128059376Y-50304223D01*
X127871179Y-50356057D01*
X127816570Y-50369522D01*
X127657781Y-50407220D01*
X127505705Y-50443831D01*
X127456737Y-50455790D01*
X127238014Y-50496785D01*
X126953507Y-50531041D01*
X126621871Y-50558013D01*
X126261762Y-50577160D01*
X125891835Y-50587939D01*
X125644692Y-50589216D01*
X125644692Y-50424313D01*
X126434274Y-50408323D01*
X127222456Y-50309982D01*
X127660938Y-50218549D01*
X128391167Y-50000576D01*
X129099498Y-49702651D01*
X129781304Y-49327709D01*
X130431960Y-48878683D01*
X131046838Y-48358507D01*
X131621313Y-47770117D01*
X131744791Y-47628321D01*
X131920650Y-47400617D01*
X132113105Y-47115003D01*
X132311622Y-46790563D01*
X132505667Y-46446381D01*
X132684706Y-46101539D01*
X132838205Y-45775123D01*
X132955631Y-45486216D01*
X132999538Y-45355162D01*
X133041245Y-45225368D01*
X133079945Y-45117951D01*
X133086812Y-45101162D01*
X133128672Y-44977188D01*
X133178359Y-44790012D01*
X133231634Y-44560235D01*
X133284259Y-44308456D01*
X133331994Y-44055277D01*
X133370601Y-43821298D01*
X133395842Y-43627120D01*
X133400372Y-43577162D01*
X133408692Y-43386937D01*
X133410275Y-43139820D01*
X133405915Y-42855960D01*
X133396403Y-42555504D01*
X133382532Y-42258601D01*
X133365095Y-41985400D01*
X133344884Y-41756048D01*
X133322692Y-41590693D01*
X133322108Y-41587495D01*
X133251067Y-41241314D01*
X133168266Y-40902319D01*
X133080424Y-40595844D01*
X132994260Y-40347222D01*
X132990874Y-40338662D01*
X132945336Y-40222968D01*
X132916389Y-40148162D01*
X132809361Y-39890169D01*
X132670677Y-39588839D01*
X132513831Y-39272461D01*
X132364967Y-38992194D01*
X132257524Y-38818591D01*
X132105236Y-38601360D01*
X131921820Y-38358019D01*
X131720996Y-38106085D01*
X131516481Y-37863075D01*
X131321995Y-37646507D01*
X131260611Y-37582030D01*
X130887392Y-37220610D01*
X130501311Y-36896692D01*
X130083298Y-36596245D01*
X129614280Y-36305243D01*
X129245254Y-36099566D01*
X129117053Y-36024292D01*
X129027345Y-35959088D01*
X128994046Y-35917133D01*
X128994402Y-35915026D01*
X129035372Y-35877963D01*
X129134666Y-35812289D01*
X129275567Y-35728602D01*
X129381612Y-35669529D01*
X130067023Y-35251079D01*
X130700175Y-34771253D01*
X131277117Y-34235227D01*
X131793898Y-33648178D01*
X132246565Y-33015282D01*
X132631166Y-32341714D01*
X132943751Y-31632652D01*
X133180368Y-30893272D01*
X133250292Y-30601995D01*
X133283623Y-30449663D01*
X133323929Y-30266015D01*
X133347801Y-30157495D01*
X133372283Y-29987968D01*
X133389271Y-29735489D01*
X133398786Y-29399591D01*
X133400894Y-28993329D01*
X133396685Y-28602559D01*
X133385187Y-28276573D01*
X133364067Y-27995631D01*
X133330990Y-27739996D01*
X133283621Y-27489929D01*
X133219624Y-27225692D01*
X133170545Y-27045995D01*
X133124028Y-26878217D01*
X133084225Y-26729864D01*
X133058950Y-26630131D01*
X133057230Y-26622662D01*
X133028063Y-26525134D01*
X133004348Y-26474495D01*
X132975336Y-26410792D01*
X132935659Y-26298874D01*
X132917630Y-26241662D01*
X132858933Y-26084840D01*
X132764751Y-25875677D01*
X132645034Y-25633272D01*
X132509733Y-25376727D01*
X132368799Y-25125142D01*
X132232182Y-24897618D01*
X132156670Y-24780965D01*
X131975282Y-24527057D01*
X131759174Y-24249895D01*
X131528429Y-23973567D01*
X131303126Y-23722159D01*
X131112034Y-23527975D01*
X130566475Y-23056727D01*
X129977230Y-22634444D01*
X129356677Y-22267633D01*
X128717192Y-21962802D01*
X128071151Y-21726459D01*
X127430932Y-21565112D01*
X127350904Y-21550359D01*
X126959447Y-21484250D01*
X126632019Y-21436657D01*
X126350334Y-21406277D01*
X126096109Y-21391806D01*
X125851056Y-21391942D01*
X125596891Y-21405382D01*
X125467070Y-21416105D01*
X124946296Y-21470318D01*
X124490651Y-21535383D01*
X124080800Y-21616306D01*
X123697409Y-21718092D01*
X123321142Y-21845748D01*
X122932665Y-22004280D01*
X122592345Y-22160395D01*
X121920990Y-22526309D01*
X121286932Y-22963292D01*
X120698032Y-23463749D01*
X120162151Y-24020085D01*
X119687152Y-24624705D01*
X119280895Y-25270014D01*
X119180862Y-25456322D01*
X119072390Y-25651881D01*
X118984459Y-25769991D01*
X118908693Y-25812776D01*
X118836713Y-25782361D01*
X118760142Y-25680871D01*
X118703708Y-25577339D01*
X118314797Y-24902449D01*
X117858621Y-24271127D01*
X117341725Y-23688854D01*
X116770655Y-23161108D01*
X116151956Y-22693369D01*
X115492173Y-22291117D01*
X114797853Y-21959831D01*
X114079404Y-21706123D01*
X113500710Y-21562871D01*
X112894829Y-21461030D01*
X112297177Y-21405769D01*
X111962737Y-21397108D01*
X111185413Y-21440104D01*
X110412389Y-21563826D01*
X109656174Y-21765396D01*
X108929279Y-22041936D01*
X108703070Y-22146683D01*
X107990983Y-22537039D01*
X107333696Y-22990828D01*
X106733643Y-23505720D01*
X106193255Y-24079387D01*
X105714964Y-24709500D01*
X105301203Y-25393731D01*
X105290305Y-25414146D01*
X105180933Y-25613121D01*
X105098942Y-25744067D01*
X105036832Y-25816106D01*
X104987105Y-25838356D01*
X104951279Y-25826491D01*
X104913047Y-25777826D01*
X104848206Y-25672079D01*
X104767903Y-25527947D01*
X104726809Y-25449984D01*
X104339112Y-24791461D01*
X103884723Y-24179595D01*
X103370003Y-23618241D01*
X102801311Y-23111252D01*
X102185006Y-22662483D01*
X101527448Y-22275788D01*
X100834995Y-21955020D01*
X100114007Y-21704036D01*
X99370844Y-21526687D01*
X98611865Y-21426829D01*
X98052725Y-21405077D01*
X97745545Y-21408379D01*
X97477550Y-21419773D01*
X97226883Y-21442069D01*
X96971685Y-21478078D01*
X96690100Y-21530610D01*
X96360269Y-21602475D01*
X96165236Y-21647759D01*
X95844888Y-21736367D01*
X95489534Y-21856592D01*
X95127810Y-21997207D01*
X94788351Y-22146987D01*
X94499794Y-22294705D01*
X94466624Y-22313688D01*
X94351223Y-22378605D01*
X94267908Y-22421454D01*
X94241247Y-22431662D01*
X94199758Y-22454133D01*
X94102332Y-22515568D01*
X93962825Y-22607003D01*
X93795092Y-22719471D01*
X93766915Y-22738579D01*
X93345143Y-23056003D01*
X92916767Y-23435354D01*
X92499903Y-23857581D01*
X92112667Y-24303634D01*
X91773174Y-24754462D01*
X91603205Y-25013995D01*
X91221036Y-25715498D01*
X90915191Y-26452305D01*
X90687611Y-27219279D01*
X90587629Y-27702162D01*
X90497431Y-28389424D01*
X90472185Y-29056834D01*
X90512816Y-29722833D01*
X90620247Y-30405861D01*
X90750883Y-30961829D01*
X90822181Y-31218241D01*
X90879150Y-31397221D01*
X90920982Y-31496302D01*
X90930431Y-31510046D01*
X90963866Y-31587748D01*
X90965403Y-31605757D01*
X90983900Y-31676822D01*
X91034464Y-31806920D01*
X91109704Y-31980171D01*
X91202228Y-32180697D01*
X91304646Y-32392620D01*
X91409568Y-32600062D01*
X91509602Y-32787144D01*
X91542542Y-32845662D01*
X91798301Y-33243039D01*
X92116344Y-33657594D01*
X92481188Y-34073039D01*
X92877348Y-34473082D01*
X93289337Y-34841432D01*
X93701670Y-35161800D01*
X93826438Y-35248350D01*
X93978576Y-35345066D01*
X94174812Y-35461978D01*
X94383876Y-35580708D01*
X94493188Y-35640226D01*
X94658852Y-35733555D01*
X94792331Y-35817912D01*
X94878242Y-35882977D01*
X94902404Y-35914761D01*
X94867339Y-35957405D01*
X94772915Y-36027167D01*
X94635283Y-36112872D01*
X94532629Y-36170581D01*
X93859723Y-36577920D01*
X93234379Y-37044643D01*
X92664721Y-37563490D01*
X92158872Y-38127204D01*
X91802723Y-38609875D01*
X91683847Y-38789417D01*
X91576275Y-38956260D01*
X91492558Y-39090670D01*
X91447957Y-39167649D01*
X91186231Y-39692335D01*
X90975751Y-40177840D01*
X90809727Y-40646633D01*
X90681373Y-41121183D01*
X90583903Y-41623961D01*
X90510528Y-42177435D01*
X90495786Y-42319941D01*
X90469843Y-42923804D01*
X90505094Y-43559309D01*
X90599539Y-44201751D01*
X90676418Y-44550829D01*
X90775659Y-44930946D01*
X90875694Y-45265092D01*
X90984979Y-45574430D01*
X91111970Y-45880122D01*
X91265120Y-46203333D01*
X91452885Y-46565224D01*
X91560661Y-46764131D01*
X91655482Y-46918253D01*
X91792672Y-47116537D01*
X91957933Y-47340238D01*
X92136966Y-47570611D01*
X92315473Y-47788911D01*
X92479157Y-47976392D01*
X92514180Y-48014223D01*
X93054769Y-48533852D01*
X93649428Y-49002737D01*
X94286027Y-49413546D01*
X94952438Y-49758947D01*
X95636529Y-50031608D01*
X96066570Y-50161533D01*
X96343836Y-50233395D01*
X96575713Y-50288443D01*
X96781235Y-50328922D01*
X96979433Y-50357077D01*
X97189340Y-50375154D01*
X97429989Y-50385399D01*
X97720413Y-50390057D01*
X98013904Y-50391290D01*
X98376261Y-50390360D01*
X98672446Y-50384937D01*
X98920917Y-50372979D01*
X99140132Y-50352444D01*
X99348551Y-50321288D01*
X99564631Y-50277470D01*
X99806831Y-50218945D01*
X99981278Y-50173567D01*
X100511132Y-50009459D01*
X101049383Y-49793381D01*
X101612745Y-49518300D01*
X101866237Y-49380479D01*
X102235732Y-49149700D01*
X102627396Y-48861816D01*
X103021731Y-48533423D01*
X103399235Y-48181119D01*
X103740410Y-47821500D01*
X103856137Y-47686786D01*
X104105106Y-47364255D01*
X104355847Y-46997511D01*
X104584252Y-46622955D01*
X104695638Y-46419090D01*
X104807499Y-46214017D01*
X104894507Y-46080580D01*
X104962846Y-46011643D01*
X105018704Y-46000071D01*
X105045859Y-46015165D01*
X105087592Y-46069864D01*
X105157509Y-46182176D01*
X105245017Y-46334451D01*
X105318927Y-46470099D01*
X105717360Y-47130390D01*
X106179217Y-47739195D01*
X106698587Y-48293619D01*
X107269559Y-48790763D01*
X107886219Y-49227732D01*
X108542655Y-49601629D01*
X109232957Y-49909557D01*
X109951211Y-50148618D01*
X110691505Y-50315917D01*
X111447929Y-50408556D01*
X112214568Y-50423639D01*
X112985513Y-50358268D01*
X113190404Y-50326990D01*
X113961649Y-50155888D01*
X114704246Y-49907135D01*
X115413223Y-49584369D01*
X116083606Y-49191228D01*
X116710422Y-48731350D01*
X117288700Y-48208373D01*
X117813465Y-47625935D01*
X118279746Y-46987675D01*
X118672773Y-46316134D01*
X118767477Y-46146867D01*
X118845826Y-46048406D01*
X118917659Y-46022193D01*
X118992818Y-46069670D01*
X119081144Y-46192278D01*
X119192478Y-46391459D01*
X119192939Y-46392329D01*
X119575339Y-47032943D01*
X120022769Y-47639724D01*
X120525025Y-48201681D01*
X121071902Y-48707826D01*
X121653197Y-49147170D01*
X121896846Y-49304058D01*
X122598685Y-49684796D01*
X123330706Y-49988192D01*
X124086592Y-50213246D01*
X124860026Y-50358953D01*
X125644692Y-50424313D01*
X125644692Y-50589216D01*
X125530746Y-50589806D01*
X125197149Y-50582220D01*
X124909701Y-50564636D01*
X124687057Y-50536512D01*
X124686452Y-50536402D01*
X124211648Y-50441456D01*
X123792576Y-50337869D01*
X123400302Y-50216382D01*
X123005893Y-50067737D01*
X122580415Y-49882677D01*
X122440237Y-49817664D01*
X122003377Y-49597005D01*
X121606345Y-49360553D01*
X121230387Y-49094714D01*
X120856747Y-48785896D01*
X120466671Y-48420507D01*
X120344737Y-48298934D01*
X120002972Y-47939466D01*
X119712616Y-47599202D01*
X119453384Y-47252313D01*
X119204990Y-46872969D01*
X119136420Y-46760416D01*
X119046032Y-46616109D01*
X118969216Y-46504567D01*
X118917641Y-46442258D01*
X118905553Y-46434662D01*
X118870409Y-46468959D01*
X118805435Y-46560899D01*
X118721816Y-46694053D01*
X118675882Y-46772038D01*
X118388985Y-47218019D01*
X118042539Y-47671438D01*
X117650990Y-48117789D01*
X117228780Y-48542571D01*
X116790355Y-48931280D01*
X116350158Y-49269412D01*
X115922633Y-49542465D01*
X115909289Y-49549985D01*
X115471822Y-49780625D01*
X115030575Y-49985644D01*
X114605137Y-50156851D01*
X114215096Y-50286054D01*
X114037070Y-50332911D01*
X113898384Y-50365588D01*
X113737916Y-50403436D01*
X113698404Y-50412762D01*
X113498387Y-50457838D01*
X113316694Y-50492734D01*
X113136808Y-50518994D01*
X112942212Y-50538158D01*
X112716388Y-50551770D01*
X112442821Y-50561371D01*
X112104992Y-50568504D01*
X112014365Y-50569990D01*
X111666201Y-50574399D01*
X111389145Y-50575008D01*
X111169699Y-50571280D01*
X110994368Y-50562679D01*
X110849653Y-50548670D01*
X110722060Y-50528716D01*
X110659698Y-50516177D01*
X110406667Y-50461391D01*
X110217050Y-50418818D01*
X110071278Y-50383850D01*
X109949785Y-50351878D01*
X109888404Y-50334530D01*
X109736745Y-50291859D01*
X109592070Y-50252599D01*
X109455615Y-50209211D01*
X109266260Y-50139489D01*
X109047728Y-50053118D01*
X108823741Y-49959784D01*
X108618022Y-49869174D01*
X108454293Y-49790973D01*
X108427904Y-49777266D01*
X107761660Y-49386816D01*
X107143123Y-48948840D01*
X106583685Y-48472197D01*
X106094740Y-47965747D01*
X106087446Y-47957327D01*
X105974329Y-47820060D01*
X105841862Y-47649141D01*
X105699281Y-47457702D01*
X105555823Y-47258876D01*
X105420724Y-47065796D01*
X105303220Y-46891593D01*
X105212548Y-46749399D01*
X105157943Y-46652349D01*
X105146129Y-46618933D01*
X105121871Y-46562468D01*
X105067054Y-46481202D01*
X104988920Y-46379576D01*
X104807836Y-46692869D01*
X104396561Y-47328008D01*
X103921810Y-47925232D01*
X103392534Y-48476694D01*
X102817681Y-48974543D01*
X102206203Y-49410932D01*
X101567048Y-49778011D01*
X100998404Y-50033718D01*
X100621004Y-50171539D01*
X100227556Y-50297116D01*
X99851137Y-50400425D01*
X99601404Y-50456965D01*
X99429346Y-50492081D01*
X99257158Y-50528373D01*
X99188046Y-50543401D01*
X99077732Y-50557442D01*
X98898862Y-50568316D01*
X98667489Y-50576057D01*
X98399663Y-50580697D01*
X98111435Y-50582268D01*
X97818857Y-50580803D01*
X97537980Y-50576335D01*
X97284854Y-50568896D01*
X97075532Y-50558518D01*
X96926064Y-50545233D01*
X96884716Y-50538740D01*
X96703596Y-50502925D01*
X96512984Y-50465237D01*
X96447570Y-50452304D01*
X96225008Y-50402082D01*
X95968842Y-50334625D01*
X95708710Y-50258570D01*
X95474247Y-50182555D01*
X95304570Y-50119200D01*
X94705959Y-49853731D01*
X94175243Y-49580992D01*
X93695746Y-49289727D01*
X93250789Y-48968677D01*
X92823696Y-48606585D01*
X92397790Y-48192192D01*
X92302279Y-48092557D01*
X91830003Y-47537275D01*
X91408832Y-46925801D01*
X91051289Y-46277312D01*
X90901413Y-45947829D01*
X90847625Y-45820730D01*
X90802472Y-45714094D01*
X90793886Y-45693829D01*
X90750147Y-45579046D01*
X90694344Y-45417637D01*
X90637996Y-45244293D01*
X90592620Y-45093704D01*
X90583048Y-45058829D01*
X90517709Y-44809748D01*
X90470120Y-44620881D01*
X90435394Y-44470857D01*
X90408647Y-44338305D01*
X90384992Y-44201853D01*
X90379821Y-44169829D01*
X90308591Y-43676086D01*
X90264540Y-43240244D01*
X90247661Y-42840023D01*
X90257947Y-42453142D01*
X90295390Y-42057319D01*
X90359982Y-41630274D01*
X90378914Y-41523995D01*
X90423794Y-41299857D01*
X90478016Y-41062675D01*
X90536971Y-40829297D01*
X90596049Y-40616572D01*
X90650641Y-40441347D01*
X90696135Y-40320470D01*
X90720045Y-40277279D01*
X90752262Y-40199536D01*
X90753737Y-40181567D01*
X90771365Y-40107368D01*
X90825209Y-39969679D01*
X90916707Y-39765154D01*
X91047298Y-39490446D01*
X91077402Y-39428495D01*
X91432546Y-38777871D01*
X91839572Y-38182580D01*
X92310853Y-37625655D01*
X92622305Y-37309881D01*
X92853322Y-37091310D01*
X93053242Y-36912786D01*
X93243779Y-36757329D01*
X93446648Y-36607959D01*
X93683563Y-36447696D01*
X93919119Y-36295829D01*
X94107358Y-36173365D01*
X94268763Y-36063264D01*
X94390247Y-35974850D01*
X94458724Y-35917447D01*
X94468766Y-35904193D01*
X94449880Y-35847774D01*
X94407559Y-35819526D01*
X94168098Y-35702279D01*
X93887809Y-35530965D01*
X93580018Y-35316604D01*
X93258053Y-35070210D01*
X92935239Y-34802803D01*
X92624903Y-34525398D01*
X92340372Y-34249014D01*
X92094970Y-33984667D01*
X91910622Y-33755270D01*
X91838415Y-33656493D01*
X91737756Y-33519427D01*
X91631233Y-33374829D01*
X91513907Y-33206780D01*
X91396556Y-33024184D01*
X91316667Y-32887995D01*
X91232359Y-32734257D01*
X91150232Y-32585573D01*
X91106456Y-32506995D01*
X91037344Y-32370918D01*
X90966626Y-32212807D01*
X90948578Y-32168329D01*
X90889960Y-32022708D01*
X90833033Y-31886941D01*
X90817251Y-31850829D01*
X90735316Y-31641114D01*
X90642696Y-31358163D01*
X90542583Y-31012264D01*
X90459272Y-30697245D01*
X90410037Y-30468284D01*
X90361909Y-30181287D01*
X90318149Y-29862857D01*
X90282014Y-29539597D01*
X90256761Y-29238111D01*
X90245651Y-28985002D01*
X90245403Y-28950995D01*
X90266448Y-28488375D01*
G36*
X119427861Y-42122893D02*
X119554455Y-41406125D01*
X119763418Y-40701767D01*
X120054450Y-40014495D01*
X120072063Y-39978829D01*
X120370224Y-39439761D01*
X120707036Y-38951342D01*
X121100672Y-38488585D01*
X121319097Y-38264329D01*
X121874245Y-37774334D01*
X122473964Y-37356305D01*
X123118030Y-37010361D01*
X123806219Y-36736622D01*
X124538307Y-36535207D01*
X124573249Y-36527639D01*
X124719745Y-36497859D01*
X124852957Y-36475771D01*
X124988270Y-36460589D01*
X125141067Y-36451532D01*
X125326731Y-36447814D01*
X125560648Y-36448654D01*
X125858199Y-36453268D01*
X125985422Y-36455734D01*
X126369262Y-36465525D01*
X126685077Y-36479535D01*
X126949489Y-36500090D01*
X127179118Y-36529517D01*
X127390585Y-36570143D01*
X127600512Y-36624295D01*
X127825518Y-36694300D01*
X127922404Y-36726898D01*
X128228440Y-36843883D01*
X128561248Y-36992325D01*
X128901473Y-37161832D01*
X129229761Y-37342012D01*
X129526757Y-37522471D01*
X129773106Y-37692816D01*
X129878912Y-37777495D01*
X129957679Y-37845151D01*
X130077586Y-37948154D01*
X130215551Y-38066674D01*
X130246150Y-38092962D01*
X130482790Y-38317113D01*
X130737162Y-38593517D01*
X130989764Y-38898387D01*
X131221097Y-39207936D01*
X131411659Y-39498375D01*
X131445119Y-39555495D01*
X131508274Y-39672847D01*
X131594432Y-39841686D01*
X131691123Y-40036621D01*
X131785875Y-40232262D01*
X131866219Y-40403218D01*
X131912950Y-40507995D01*
X131998873Y-40728978D01*
X132074971Y-40968517D01*
X132146196Y-41245011D01*
X132217496Y-41576859D01*
X132260317Y-41799162D01*
X132281980Y-41963009D01*
X132298993Y-42185902D01*
X132311211Y-42449751D01*
X132318487Y-42736464D01*
X132320675Y-43027947D01*
X132317627Y-43306110D01*
X132309197Y-43552861D01*
X132295240Y-43750106D01*
X132277114Y-43873495D01*
X132245222Y-44017184D01*
X132208452Y-44191097D01*
X132191205Y-44275662D01*
X132149891Y-44447656D01*
X132087183Y-44669455D01*
X132012262Y-44911912D01*
X131934311Y-45145882D01*
X131862512Y-45342216D01*
X131831134Y-45418662D01*
X131498800Y-46076587D01*
X131097950Y-46687563D01*
X130633153Y-47247385D01*
X130108979Y-47751847D01*
X129529996Y-48196746D01*
X128900774Y-48577874D01*
X128225882Y-48891028D01*
X127943570Y-48996521D01*
X127496741Y-49124882D01*
X126996894Y-49220945D01*
X126465600Y-49283549D01*
X125940299Y-49310715D01*
X125940299Y-48747272D01*
X126632525Y-48698657D01*
X127319433Y-48565572D01*
X127747337Y-48438968D01*
X128377132Y-48183305D01*
X128976039Y-47851092D01*
X129538232Y-47446653D01*
X130057883Y-46974312D01*
X130529164Y-46438391D01*
X130640587Y-46292500D01*
X130751213Y-46140420D01*
X130842908Y-46008837D01*
X130903462Y-45915575D01*
X130920197Y-45884329D01*
X130954532Y-45812381D01*
X131015488Y-45699564D01*
X131054994Y-45630329D01*
X131209994Y-45324589D01*
X131358295Y-44958502D01*
X131491940Y-44556380D01*
X131602969Y-44142533D01*
X131683424Y-43741273D01*
X131692464Y-43682995D01*
X131706817Y-43524588D01*
X131714212Y-43304855D01*
X131715247Y-43042782D01*
X131710519Y-42757353D01*
X131700624Y-42467554D01*
X131686159Y-42192370D01*
X131667721Y-41950786D01*
X131645907Y-41761787D01*
X131629247Y-41672162D01*
X131551084Y-41362709D01*
X131480423Y-41111444D01*
X131408795Y-40893408D01*
X131327730Y-40683643D01*
X131228757Y-40457190D01*
X131183879Y-40359829D01*
X130861590Y-39765946D01*
X130469454Y-39212001D01*
X130015223Y-38704952D01*
X129506650Y-38251761D01*
X128951488Y-37859388D01*
X128357492Y-37534793D01*
X127774237Y-37298905D01*
X127487983Y-37205884D01*
X127238376Y-37135730D01*
X127004534Y-37085348D01*
X126765576Y-37051641D01*
X126500619Y-37031514D01*
X126188783Y-37021871D01*
X125890404Y-37019624D01*
X125555026Y-37021050D01*
X125288599Y-37026898D01*
X125075476Y-37038126D01*
X124900012Y-37055694D01*
X124746561Y-37080562D01*
X124683904Y-37093637D01*
X123998463Y-37287394D01*
X123350282Y-37554316D01*
X122744133Y-37890125D01*
X122184793Y-38290544D01*
X121677036Y-38751294D01*
X121225639Y-39268099D01*
X120835377Y-39836680D01*
X120511024Y-40452759D01*
X120281782Y-41037162D01*
X120215809Y-41242495D01*
X120165148Y-41422770D01*
X120125383Y-41600335D01*
X120092095Y-41797535D01*
X120060867Y-42036716D01*
X120030885Y-42306206D01*
X119998244Y-42872095D01*
X120018369Y-43432289D01*
X120090100Y-43956325D01*
X120094676Y-43979329D01*
X120139100Y-44168305D01*
X120202583Y-44399031D01*
X120277029Y-44645531D01*
X120354345Y-44881827D01*
X120426439Y-45081942D01*
X120473723Y-45195951D01*
X120522752Y-45306511D01*
X120552393Y-45381346D01*
X120556404Y-45396539D01*
X120576767Y-45439122D01*
X120632145Y-45539148D01*
X120713970Y-45681470D01*
X120809077Y-45843205D01*
X121206234Y-46431954D01*
X121662071Y-46962312D01*
X122171834Y-47430781D01*
X122730767Y-47833861D01*
X123334116Y-48168054D01*
X123977125Y-48429859D01*
X124542987Y-48590942D01*
X125243529Y-48711379D01*
X125940299Y-48747272D01*
X125940299Y-49310715D01*
X125924426Y-49311536D01*
X125394944Y-49303748D01*
X124898722Y-49259024D01*
X124482820Y-49182499D01*
X124164249Y-49101964D01*
X123897968Y-49025436D01*
X123656557Y-48943051D01*
X123412593Y-48844947D01*
X123138654Y-48721261D01*
X122948237Y-48630541D01*
X122360664Y-48302070D01*
X121801189Y-47899951D01*
X121280285Y-47433352D01*
X120808426Y-46911438D01*
X120480876Y-46471421D01*
X120341302Y-46247978D01*
X120188108Y-45972962D01*
X120035157Y-45673935D01*
X119896316Y-45378462D01*
X119785447Y-45114105D01*
X119751110Y-45020579D01*
X119545258Y-44300915D01*
X119422965Y-43574963D01*
X119383931Y-42847397D01*
X119427861Y-42122893D01*
X119427861Y-42122893D01*
G37*
X119427861Y-42122893D02*
X119554455Y-41406125D01*
X119763418Y-40701767D01*
X120054450Y-40014495D01*
X120072063Y-39978829D01*
X120370224Y-39439761D01*
X120707036Y-38951342D01*
X121100672Y-38488585D01*
X121319097Y-38264329D01*
X121874245Y-37774334D01*
X122473964Y-37356305D01*
X123118030Y-37010361D01*
X123806219Y-36736622D01*
X124538307Y-36535207D01*
X124573249Y-36527639D01*
X124719745Y-36497859D01*
X124852957Y-36475771D01*
X124988270Y-36460589D01*
X125141067Y-36451532D01*
X125326731Y-36447814D01*
X125560648Y-36448654D01*
X125858199Y-36453268D01*
X125985422Y-36455734D01*
X126369262Y-36465525D01*
X126685077Y-36479535D01*
X126949489Y-36500090D01*
X127179118Y-36529517D01*
X127390585Y-36570143D01*
X127600512Y-36624295D01*
X127825518Y-36694300D01*
X127922404Y-36726898D01*
X128228440Y-36843883D01*
X128561248Y-36992325D01*
X128901473Y-37161832D01*
X129229761Y-37342012D01*
X129526757Y-37522471D01*
X129773106Y-37692816D01*
X129878912Y-37777495D01*
X129957679Y-37845151D01*
X130077586Y-37948154D01*
X130215551Y-38066674D01*
X130246150Y-38092962D01*
X130482790Y-38317113D01*
X130737162Y-38593517D01*
X130989764Y-38898387D01*
X131221097Y-39207936D01*
X131411659Y-39498375D01*
X131445119Y-39555495D01*
X131508274Y-39672847D01*
X131594432Y-39841686D01*
X131691123Y-40036621D01*
X131785875Y-40232262D01*
X131866219Y-40403218D01*
X131912950Y-40507995D01*
X131998873Y-40728978D01*
X132074971Y-40968517D01*
X132146196Y-41245011D01*
X132217496Y-41576859D01*
X132260317Y-41799162D01*
X132281980Y-41963009D01*
X132298993Y-42185902D01*
X132311211Y-42449751D01*
X132318487Y-42736464D01*
X132320675Y-43027947D01*
X132317627Y-43306110D01*
X132309197Y-43552861D01*
X132295240Y-43750106D01*
X132277114Y-43873495D01*
X132245222Y-44017184D01*
X132208452Y-44191097D01*
X132191205Y-44275662D01*
X132149891Y-44447656D01*
X132087183Y-44669455D01*
X132012262Y-44911912D01*
X131934311Y-45145882D01*
X131862512Y-45342216D01*
X131831134Y-45418662D01*
X131498800Y-46076587D01*
X131097950Y-46687563D01*
X130633153Y-47247385D01*
X130108979Y-47751847D01*
X129529996Y-48196746D01*
X128900774Y-48577874D01*
X128225882Y-48891028D01*
X127943570Y-48996521D01*
X127496741Y-49124882D01*
X126996894Y-49220945D01*
X126465600Y-49283549D01*
X125940299Y-49310715D01*
X125940299Y-48747272D01*
X126632525Y-48698657D01*
X127319433Y-48565572D01*
X127747337Y-48438968D01*
X128377132Y-48183305D01*
X128976039Y-47851092D01*
X129538232Y-47446653D01*
X130057883Y-46974312D01*
X130529164Y-46438391D01*
X130640587Y-46292500D01*
X130751213Y-46140420D01*
X130842908Y-46008837D01*
X130903462Y-45915575D01*
X130920197Y-45884329D01*
X130954532Y-45812381D01*
X131015488Y-45699564D01*
X131054994Y-45630329D01*
X131209994Y-45324589D01*
X131358295Y-44958502D01*
X131491940Y-44556380D01*
X131602969Y-44142533D01*
X131683424Y-43741273D01*
X131692464Y-43682995D01*
X131706817Y-43524588D01*
X131714212Y-43304855D01*
X131715247Y-43042782D01*
X131710519Y-42757353D01*
X131700624Y-42467554D01*
X131686159Y-42192370D01*
X131667721Y-41950786D01*
X131645907Y-41761787D01*
X131629247Y-41672162D01*
X131551084Y-41362709D01*
X131480423Y-41111444D01*
X131408795Y-40893408D01*
X131327730Y-40683643D01*
X131228757Y-40457190D01*
X131183879Y-40359829D01*
X130861590Y-39765946D01*
X130469454Y-39212001D01*
X130015223Y-38704952D01*
X129506650Y-38251761D01*
X128951488Y-37859388D01*
X128357492Y-37534793D01*
X127774237Y-37298905D01*
X127487983Y-37205884D01*
X127238376Y-37135730D01*
X127004534Y-37085348D01*
X126765576Y-37051641D01*
X126500619Y-37031514D01*
X126188783Y-37021871D01*
X125890404Y-37019624D01*
X125555026Y-37021050D01*
X125288599Y-37026898D01*
X125075476Y-37038126D01*
X124900012Y-37055694D01*
X124746561Y-37080562D01*
X124683904Y-37093637D01*
X123998463Y-37287394D01*
X123350282Y-37554316D01*
X122744133Y-37890125D01*
X122184793Y-38290544D01*
X121677036Y-38751294D01*
X121225639Y-39268099D01*
X120835377Y-39836680D01*
X120511024Y-40452759D01*
X120281782Y-41037162D01*
X120215809Y-41242495D01*
X120165148Y-41422770D01*
X120125383Y-41600335D01*
X120092095Y-41797535D01*
X120060867Y-42036716D01*
X120030885Y-42306206D01*
X119998244Y-42872095D01*
X120018369Y-43432289D01*
X120090100Y-43956325D01*
X120094676Y-43979329D01*
X120139100Y-44168305D01*
X120202583Y-44399031D01*
X120277029Y-44645531D01*
X120354345Y-44881827D01*
X120426439Y-45081942D01*
X120473723Y-45195951D01*
X120522752Y-45306511D01*
X120552393Y-45381346D01*
X120556404Y-45396539D01*
X120576767Y-45439122D01*
X120632145Y-45539148D01*
X120713970Y-45681470D01*
X120809077Y-45843205D01*
X121206234Y-46431954D01*
X121662071Y-46962312D01*
X122171834Y-47430781D01*
X122730767Y-47833861D01*
X123334116Y-48168054D01*
X123977125Y-48429859D01*
X124542987Y-48590942D01*
X125243529Y-48711379D01*
X125940299Y-48747272D01*
X125940299Y-49310715D01*
X125924426Y-49311536D01*
X125394944Y-49303748D01*
X124898722Y-49259024D01*
X124482820Y-49182499D01*
X124164249Y-49101964D01*
X123897968Y-49025436D01*
X123656557Y-48943051D01*
X123412593Y-48844947D01*
X123138654Y-48721261D01*
X122948237Y-48630541D01*
X122360664Y-48302070D01*
X121801189Y-47899951D01*
X121280285Y-47433352D01*
X120808426Y-46911438D01*
X120480876Y-46471421D01*
X120341302Y-46247978D01*
X120188108Y-45972962D01*
X120035157Y-45673935D01*
X119896316Y-45378462D01*
X119785447Y-45114105D01*
X119751110Y-45020579D01*
X119545258Y-44300915D01*
X119422965Y-43574963D01*
X119383931Y-42847397D01*
X119427861Y-42122893D01*
G36*
X119407706Y-28437934D02*
X119413213Y-28379495D01*
X119498052Y-27769458D01*
X119627163Y-27207831D01*
X119808573Y-26666507D01*
X120050308Y-26117379D01*
X120071714Y-26073844D01*
X120347776Y-25575636D01*
X120670043Y-25109012D01*
X121052781Y-24654481D01*
X121297237Y-24399572D01*
X121848361Y-23905934D01*
X122443623Y-23483312D01*
X123079052Y-23133939D01*
X123750678Y-22860048D01*
X124334654Y-22691194D01*
X124509603Y-22648531D01*
X124694343Y-22602026D01*
X124736820Y-22591068D01*
X124863484Y-22570787D01*
X125057634Y-22555275D01*
X125302228Y-22544510D01*
X125580220Y-22538471D01*
X125874568Y-22537138D01*
X126168227Y-22540488D01*
X126444154Y-22548501D01*
X126685304Y-22561155D01*
X126874633Y-22578429D01*
X126969904Y-22593851D01*
X127221817Y-22650388D01*
X127414725Y-22695838D01*
X127572475Y-22736561D01*
X127718910Y-22778918D01*
X127877875Y-22829270D01*
X127985904Y-22864873D01*
X128422220Y-23031556D01*
X128868032Y-23241364D01*
X129299378Y-23481076D01*
X129692297Y-23737468D01*
X129996737Y-23974545D01*
X130107248Y-24075051D01*
X130255103Y-24216446D01*
X130422985Y-24381401D01*
X130593574Y-24552588D01*
X130749552Y-24712680D01*
X130873600Y-24844350D01*
X130932955Y-24911268D01*
X131004334Y-25002617D01*
X131097553Y-25130681D01*
X131200814Y-25278084D01*
X131302318Y-25427448D01*
X131390269Y-25561399D01*
X131452867Y-25662559D01*
X131478316Y-25713553D01*
X131478404Y-25714632D01*
X131500141Y-25765048D01*
X131552748Y-25849825D01*
X131555694Y-25854127D01*
X131608109Y-25945439D01*
X131678948Y-26088571D01*
X131755141Y-26256750D01*
X131775857Y-26305162D01*
X131844413Y-26463286D01*
X131903783Y-26592323D01*
X131944280Y-26671510D01*
X131952566Y-26684045D01*
X131979943Y-26755864D01*
X131986404Y-26819130D01*
X132001308Y-26903962D01*
X132023856Y-26937146D01*
X132058988Y-26992048D01*
X132084751Y-27077227D01*
X132109959Y-27192583D01*
X132144458Y-27338730D01*
X132155784Y-27384662D01*
X132201859Y-27578440D01*
X132236816Y-27753571D01*
X132262378Y-27927734D01*
X132280271Y-28118609D01*
X132292218Y-28343872D01*
X132299946Y-28621205D01*
X132304453Y-28908662D01*
X132306535Y-29294302D01*
X132301868Y-29603589D01*
X132290142Y-29844591D01*
X132271047Y-30025377D01*
X132258996Y-30093995D01*
X132186593Y-30429053D01*
X132121025Y-30701837D01*
X132064274Y-30904486D01*
X132029330Y-31004162D01*
X131996160Y-31087862D01*
X131945156Y-31219426D01*
X131897876Y-31342829D01*
X131803573Y-31566209D01*
X131675398Y-31835226D01*
X131525808Y-32124651D01*
X131396289Y-32358829D01*
X131221877Y-32628760D01*
X130994205Y-32928254D01*
X130729799Y-33238933D01*
X130445189Y-33542422D01*
X130156899Y-33820345D01*
X129881460Y-34054324D01*
X129848570Y-34079708D01*
X129236613Y-34493737D01*
X128582876Y-34834722D01*
X127886486Y-35103021D01*
X127146569Y-35298991D01*
X126652404Y-35386239D01*
X126445816Y-35405804D01*
X126180060Y-35416064D01*
X125879771Y-35417510D01*
X125803830Y-35415827D01*
X125803830Y-34836314D01*
X126069076Y-34835474D01*
X126315552Y-34829757D01*
X126523277Y-34819096D01*
X126672273Y-34803428D01*
X126701687Y-34797928D01*
X126849969Y-34766347D01*
X127030961Y-34729271D01*
X127139237Y-34707740D01*
X127690721Y-34561985D01*
X128248145Y-34343563D01*
X128795638Y-34061617D01*
X129317328Y-33725290D01*
X129797342Y-33343724D01*
X130206304Y-32941041D01*
X130479626Y-32609306D01*
X130746784Y-32229849D01*
X130993836Y-31825970D01*
X131206841Y-31420967D01*
X131371858Y-31038141D01*
X131411146Y-30927444D01*
X131482024Y-30697845D01*
X131553746Y-30435994D01*
X131618788Y-30171984D01*
X131669626Y-29935911D01*
X131693569Y-29797662D01*
X131708488Y-29630213D01*
X131716061Y-29402057D01*
X131716903Y-29132848D01*
X131711626Y-28842238D01*
X131700845Y-28549880D01*
X131685173Y-28275428D01*
X131665225Y-28038533D01*
X131641613Y-27858849D01*
X131631421Y-27807995D01*
X131573219Y-27564695D01*
X131525078Y-27377763D01*
X131479685Y-27220704D01*
X131429726Y-27067022D01*
X131415253Y-27024829D01*
X131342975Y-26838109D01*
X131244200Y-26612971D01*
X131130027Y-26371949D01*
X131011555Y-26137577D01*
X130899881Y-25932387D01*
X130806106Y-25778915D01*
X130790631Y-25756628D01*
X130536224Y-25411336D01*
X130307682Y-25124787D01*
X130090752Y-24881168D01*
X129871177Y-24664663D01*
X129634703Y-24459459D01*
X129584801Y-24418926D01*
X129002969Y-23998254D01*
X128403781Y-23659694D01*
X127782888Y-23401695D01*
X127135945Y-23222710D01*
X126458602Y-23121187D01*
X125869237Y-23094641D01*
X125268550Y-23118850D01*
X124713012Y-23196404D01*
X124177934Y-23332779D01*
X123638630Y-23533449D01*
X123393034Y-23643808D01*
X122759382Y-23985496D01*
X122187632Y-24384879D01*
X121677167Y-24842557D01*
X121227369Y-25359131D01*
X120837620Y-25935202D01*
X120613378Y-26347495D01*
X120339546Y-26990471D01*
X120144315Y-27654815D01*
X120028199Y-28332879D01*
X119991710Y-29017014D01*
X120035361Y-29699571D01*
X120159665Y-30372900D01*
X120309580Y-30877162D01*
X120554371Y-31464421D01*
X120871128Y-32039424D01*
X121247471Y-32582546D01*
X121671021Y-33074161D01*
X121739188Y-33143576D01*
X122241581Y-33592935D01*
X122783898Y-33974366D01*
X123371634Y-34290685D01*
X124010279Y-34544709D01*
X124705327Y-34739254D01*
X124954738Y-34792206D01*
X125095268Y-34810222D01*
X125296947Y-34823622D01*
X125539794Y-34832341D01*
X125803830Y-34836314D01*
X125803830Y-35415827D01*
X125569582Y-35410633D01*
X125274128Y-35395923D01*
X125018044Y-35373872D01*
X124853237Y-35350383D01*
X124434028Y-35265804D01*
X124074437Y-35177366D01*
X123749509Y-35077293D01*
X123434284Y-34957806D01*
X123103807Y-34811128D01*
X123066847Y-34793662D01*
X122418668Y-34440017D01*
X121822469Y-34021017D01*
X121281546Y-33540575D01*
X120799192Y-33002603D01*
X120378701Y-32411014D01*
X120023368Y-31769721D01*
X119736488Y-31082636D01*
X119609081Y-30686662D01*
X119514479Y-30283976D01*
X119444572Y-29828677D01*
X119401828Y-29349848D01*
X119388716Y-28876572D01*
X119407706Y-28437934D01*
X119407706Y-28437934D01*
G37*
X119407706Y-28437934D02*
X119413213Y-28379495D01*
X119498052Y-27769458D01*
X119627163Y-27207831D01*
X119808573Y-26666507D01*
X120050308Y-26117379D01*
X120071714Y-26073844D01*
X120347776Y-25575636D01*
X120670043Y-25109012D01*
X121052781Y-24654481D01*
X121297237Y-24399572D01*
X121848361Y-23905934D01*
X122443623Y-23483312D01*
X123079052Y-23133939D01*
X123750678Y-22860048D01*
X124334654Y-22691194D01*
X124509603Y-22648531D01*
X124694343Y-22602026D01*
X124736820Y-22591068D01*
X124863484Y-22570787D01*
X125057634Y-22555275D01*
X125302228Y-22544510D01*
X125580220Y-22538471D01*
X125874568Y-22537138D01*
X126168227Y-22540488D01*
X126444154Y-22548501D01*
X126685304Y-22561155D01*
X126874633Y-22578429D01*
X126969904Y-22593851D01*
X127221817Y-22650388D01*
X127414725Y-22695838D01*
X127572475Y-22736561D01*
X127718910Y-22778918D01*
X127877875Y-22829270D01*
X127985904Y-22864873D01*
X128422220Y-23031556D01*
X128868032Y-23241364D01*
X129299378Y-23481076D01*
X129692297Y-23737468D01*
X129996737Y-23974545D01*
X130107248Y-24075051D01*
X130255103Y-24216446D01*
X130422985Y-24381401D01*
X130593574Y-24552588D01*
X130749552Y-24712680D01*
X130873600Y-24844350D01*
X130932955Y-24911268D01*
X131004334Y-25002617D01*
X131097553Y-25130681D01*
X131200814Y-25278084D01*
X131302318Y-25427448D01*
X131390269Y-25561399D01*
X131452867Y-25662559D01*
X131478316Y-25713553D01*
X131478404Y-25714632D01*
X131500141Y-25765048D01*
X131552748Y-25849825D01*
X131555694Y-25854127D01*
X131608109Y-25945439D01*
X131678948Y-26088571D01*
X131755141Y-26256750D01*
X131775857Y-26305162D01*
X131844413Y-26463286D01*
X131903783Y-26592323D01*
X131944280Y-26671510D01*
X131952566Y-26684045D01*
X131979943Y-26755864D01*
X131986404Y-26819130D01*
X132001308Y-26903962D01*
X132023856Y-26937146D01*
X132058988Y-26992048D01*
X132084751Y-27077227D01*
X132109959Y-27192583D01*
X132144458Y-27338730D01*
X132155784Y-27384662D01*
X132201859Y-27578440D01*
X132236816Y-27753571D01*
X132262378Y-27927734D01*
X132280271Y-28118609D01*
X132292218Y-28343872D01*
X132299946Y-28621205D01*
X132304453Y-28908662D01*
X132306535Y-29294302D01*
X132301868Y-29603589D01*
X132290142Y-29844591D01*
X132271047Y-30025377D01*
X132258996Y-30093995D01*
X132186593Y-30429053D01*
X132121025Y-30701837D01*
X132064274Y-30904486D01*
X132029330Y-31004162D01*
X131996160Y-31087862D01*
X131945156Y-31219426D01*
X131897876Y-31342829D01*
X131803573Y-31566209D01*
X131675398Y-31835226D01*
X131525808Y-32124651D01*
X131396289Y-32358829D01*
X131221877Y-32628760D01*
X130994205Y-32928254D01*
X130729799Y-33238933D01*
X130445189Y-33542422D01*
X130156899Y-33820345D01*
X129881460Y-34054324D01*
X129848570Y-34079708D01*
X129236613Y-34493737D01*
X128582876Y-34834722D01*
X127886486Y-35103021D01*
X127146569Y-35298991D01*
X126652404Y-35386239D01*
X126445816Y-35405804D01*
X126180060Y-35416064D01*
X125879771Y-35417510D01*
X125803830Y-35415827D01*
X125803830Y-34836314D01*
X126069076Y-34835474D01*
X126315552Y-34829757D01*
X126523277Y-34819096D01*
X126672273Y-34803428D01*
X126701687Y-34797928D01*
X126849969Y-34766347D01*
X127030961Y-34729271D01*
X127139237Y-34707740D01*
X127690721Y-34561985D01*
X128248145Y-34343563D01*
X128795638Y-34061617D01*
X129317328Y-33725290D01*
X129797342Y-33343724D01*
X130206304Y-32941041D01*
X130479626Y-32609306D01*
X130746784Y-32229849D01*
X130993836Y-31825970D01*
X131206841Y-31420967D01*
X131371858Y-31038141D01*
X131411146Y-30927444D01*
X131482024Y-30697845D01*
X131553746Y-30435994D01*
X131618788Y-30171984D01*
X131669626Y-29935911D01*
X131693569Y-29797662D01*
X131708488Y-29630213D01*
X131716061Y-29402057D01*
X131716903Y-29132848D01*
X131711626Y-28842238D01*
X131700845Y-28549880D01*
X131685173Y-28275428D01*
X131665225Y-28038533D01*
X131641613Y-27858849D01*
X131631421Y-27807995D01*
X131573219Y-27564695D01*
X131525078Y-27377763D01*
X131479685Y-27220704D01*
X131429726Y-27067022D01*
X131415253Y-27024829D01*
X131342975Y-26838109D01*
X131244200Y-26612971D01*
X131130027Y-26371949D01*
X131011555Y-26137577D01*
X130899881Y-25932387D01*
X130806106Y-25778915D01*
X130790631Y-25756628D01*
X130536224Y-25411336D01*
X130307682Y-25124787D01*
X130090752Y-24881168D01*
X129871177Y-24664663D01*
X129634703Y-24459459D01*
X129584801Y-24418926D01*
X129002969Y-23998254D01*
X128403781Y-23659694D01*
X127782888Y-23401695D01*
X127135945Y-23222710D01*
X126458602Y-23121187D01*
X125869237Y-23094641D01*
X125268550Y-23118850D01*
X124713012Y-23196404D01*
X124177934Y-23332779D01*
X123638630Y-23533449D01*
X123393034Y-23643808D01*
X122759382Y-23985496D01*
X122187632Y-24384879D01*
X121677167Y-24842557D01*
X121227369Y-25359131D01*
X120837620Y-25935202D01*
X120613378Y-26347495D01*
X120339546Y-26990471D01*
X120144315Y-27654815D01*
X120028199Y-28332879D01*
X119991710Y-29017014D01*
X120035361Y-29699571D01*
X120159665Y-30372900D01*
X120309580Y-30877162D01*
X120554371Y-31464421D01*
X120871128Y-32039424D01*
X121247471Y-32582546D01*
X121671021Y-33074161D01*
X121739188Y-33143576D01*
X122241581Y-33592935D01*
X122783898Y-33974366D01*
X123371634Y-34290685D01*
X124010279Y-34544709D01*
X124705327Y-34739254D01*
X124954738Y-34792206D01*
X125095268Y-34810222D01*
X125296947Y-34823622D01*
X125539794Y-34832341D01*
X125803830Y-34836314D01*
X125803830Y-35415827D01*
X125569582Y-35410633D01*
X125274128Y-35395923D01*
X125018044Y-35373872D01*
X124853237Y-35350383D01*
X124434028Y-35265804D01*
X124074437Y-35177366D01*
X123749509Y-35077293D01*
X123434284Y-34957806D01*
X123103807Y-34811128D01*
X123066847Y-34793662D01*
X122418668Y-34440017D01*
X121822469Y-34021017D01*
X121281546Y-33540575D01*
X120799192Y-33002603D01*
X120378701Y-32411014D01*
X120023368Y-31769721D01*
X119736488Y-31082636D01*
X119609081Y-30686662D01*
X119514479Y-30283976D01*
X119444572Y-29828677D01*
X119401828Y-29349848D01*
X119388716Y-28876572D01*
X119407706Y-28437934D01*
G36*
X117536065Y-35409414D02*
X117554429Y-34971781D01*
X117587395Y-34585689D01*
X117637044Y-34234899D01*
X117705457Y-33903171D01*
X117794717Y-33574266D01*
X117854363Y-33385927D01*
X117935636Y-33148110D01*
X118005057Y-32968469D01*
X118073750Y-32823689D01*
X118152841Y-32690455D01*
X118253456Y-32545454D01*
X118259240Y-32537493D01*
X118412003Y-32362006D01*
X118573402Y-32257146D01*
X118767412Y-32210271D01*
X118890605Y-32204615D01*
X119055447Y-32215532D01*
X119176952Y-32255839D01*
X119262681Y-32311676D01*
X119433397Y-32482463D01*
X119598012Y-32725688D01*
X119748508Y-33029144D01*
X119773497Y-33089265D01*
X119835762Y-33243272D01*
X119889233Y-33375548D01*
X119922603Y-33458118D01*
X119923159Y-33459495D01*
X119957396Y-33564530D01*
X119983990Y-33671162D01*
X120009977Y-33794537D01*
X120042015Y-33945939D01*
X120051082Y-33988662D01*
X120082201Y-34141761D01*
X120117800Y-34326223D01*
X120137613Y-34433162D01*
X120152072Y-34555157D01*
X120164971Y-34744262D01*
X120176126Y-34986186D01*
X120185352Y-35266639D01*
X120192464Y-35571328D01*
X120197277Y-35885963D01*
X120199607Y-36196253D01*
X120199270Y-36487906D01*
X120196079Y-36746631D01*
X120189851Y-36958137D01*
X120180402Y-37108133D01*
X120172907Y-37163662D01*
X120144026Y-37312065D01*
X120109869Y-37496628D01*
X120086256Y-37629329D01*
X119977848Y-38142413D01*
X119843882Y-38585970D01*
X119685683Y-38957185D01*
X119504576Y-39253246D01*
X119301886Y-39471337D01*
X119176851Y-39559891D01*
X118970857Y-39644493D01*
X118840142Y-39646460D01*
X118840142Y-39466820D01*
X118990170Y-39447153D01*
X119142141Y-39346610D01*
X119301960Y-39164083D01*
X119337237Y-39114996D01*
X119514610Y-38805530D01*
X119667804Y-38424724D01*
X119795344Y-37982804D01*
X119895758Y-37489994D01*
X119967574Y-36956520D01*
X120009318Y-36392607D01*
X120019518Y-35808479D01*
X119996701Y-35214363D01*
X119959750Y-34792995D01*
X119903505Y-34397286D01*
X119823432Y-34005456D01*
X119723910Y-33630254D01*
X119609314Y-33284426D01*
X119484023Y-32980721D01*
X119352414Y-32731887D01*
X119218864Y-32550672D01*
X119175067Y-32507843D01*
X119004095Y-32399925D01*
X118834004Y-32375207D01*
X118666493Y-32432227D01*
X118503258Y-32569523D01*
X118345998Y-32785632D01*
X118196412Y-33079092D01*
X118056196Y-33448439D01*
X118045616Y-33480662D01*
X117986329Y-33679679D01*
X117931626Y-33891356D01*
X117894758Y-34062745D01*
X117857907Y-34262221D01*
X117816262Y-34480546D01*
X117794430Y-34591912D01*
X117774354Y-34745494D01*
X117759386Y-34967719D01*
X117749395Y-35242725D01*
X117744250Y-35554652D01*
X117743817Y-35887639D01*
X117747965Y-36225824D01*
X117756562Y-36553346D01*
X117769476Y-36854343D01*
X117786574Y-37112955D01*
X117807725Y-37313321D01*
X117817607Y-37375329D01*
X117916436Y-37860590D01*
X118020589Y-38269166D01*
X118133025Y-38609005D01*
X118256704Y-38888058D01*
X118394586Y-39114271D01*
X118522284Y-39267960D01*
X118686149Y-39406719D01*
X118840142Y-39466820D01*
X118840142Y-39646460D01*
X118771505Y-39647493D01*
X118565010Y-39568839D01*
X118545331Y-39557593D01*
X118348287Y-39400000D01*
X118168309Y-39167102D01*
X118003994Y-38856471D01*
X117853936Y-38465680D01*
X117784520Y-38241895D01*
X117704865Y-37945478D01*
X117642624Y-37658512D01*
X117596022Y-37364738D01*
X117563283Y-37047896D01*
X117542628Y-36691728D01*
X117532281Y-36279975D01*
X117530221Y-35914829D01*
X117536065Y-35409414D01*
X117536065Y-35409414D01*
G37*
X117536065Y-35409414D02*
X117554429Y-34971781D01*
X117587395Y-34585689D01*
X117637044Y-34234899D01*
X117705457Y-33903171D01*
X117794717Y-33574266D01*
X117854363Y-33385927D01*
X117935636Y-33148110D01*
X118005057Y-32968469D01*
X118073750Y-32823689D01*
X118152841Y-32690455D01*
X118253456Y-32545454D01*
X118259240Y-32537493D01*
X118412003Y-32362006D01*
X118573402Y-32257146D01*
X118767412Y-32210271D01*
X118890605Y-32204615D01*
X119055447Y-32215532D01*
X119176952Y-32255839D01*
X119262681Y-32311676D01*
X119433397Y-32482463D01*
X119598012Y-32725688D01*
X119748508Y-33029144D01*
X119773497Y-33089265D01*
X119835762Y-33243272D01*
X119889233Y-33375548D01*
X119922603Y-33458118D01*
X119923159Y-33459495D01*
X119957396Y-33564530D01*
X119983990Y-33671162D01*
X120009977Y-33794537D01*
X120042015Y-33945939D01*
X120051082Y-33988662D01*
X120082201Y-34141761D01*
X120117800Y-34326223D01*
X120137613Y-34433162D01*
X120152072Y-34555157D01*
X120164971Y-34744262D01*
X120176126Y-34986186D01*
X120185352Y-35266639D01*
X120192464Y-35571328D01*
X120197277Y-35885963D01*
X120199607Y-36196253D01*
X120199270Y-36487906D01*
X120196079Y-36746631D01*
X120189851Y-36958137D01*
X120180402Y-37108133D01*
X120172907Y-37163662D01*
X120144026Y-37312065D01*
X120109869Y-37496628D01*
X120086256Y-37629329D01*
X119977848Y-38142413D01*
X119843882Y-38585970D01*
X119685683Y-38957185D01*
X119504576Y-39253246D01*
X119301886Y-39471337D01*
X119176851Y-39559891D01*
X118970857Y-39644493D01*
X118840142Y-39646460D01*
X118840142Y-39466820D01*
X118990170Y-39447153D01*
X119142141Y-39346610D01*
X119301960Y-39164083D01*
X119337237Y-39114996D01*
X119514610Y-38805530D01*
X119667804Y-38424724D01*
X119795344Y-37982804D01*
X119895758Y-37489994D01*
X119967574Y-36956520D01*
X120009318Y-36392607D01*
X120019518Y-35808479D01*
X119996701Y-35214363D01*
X119959750Y-34792995D01*
X119903505Y-34397286D01*
X119823432Y-34005456D01*
X119723910Y-33630254D01*
X119609314Y-33284426D01*
X119484023Y-32980721D01*
X119352414Y-32731887D01*
X119218864Y-32550672D01*
X119175067Y-32507843D01*
X119004095Y-32399925D01*
X118834004Y-32375207D01*
X118666493Y-32432227D01*
X118503258Y-32569523D01*
X118345998Y-32785632D01*
X118196412Y-33079092D01*
X118056196Y-33448439D01*
X118045616Y-33480662D01*
X117986329Y-33679679D01*
X117931626Y-33891356D01*
X117894758Y-34062745D01*
X117857907Y-34262221D01*
X117816262Y-34480546D01*
X117794430Y-34591912D01*
X117774354Y-34745494D01*
X117759386Y-34967719D01*
X117749395Y-35242725D01*
X117744250Y-35554652D01*
X117743817Y-35887639D01*
X117747965Y-36225824D01*
X117756562Y-36553346D01*
X117769476Y-36854343D01*
X117786574Y-37112955D01*
X117807725Y-37313321D01*
X117817607Y-37375329D01*
X117916436Y-37860590D01*
X118020589Y-38269166D01*
X118133025Y-38609005D01*
X118256704Y-38888058D01*
X118394586Y-39114271D01*
X118522284Y-39267960D01*
X118686149Y-39406719D01*
X118840142Y-39466820D01*
X118840142Y-39646460D01*
X118771505Y-39647493D01*
X118565010Y-39568839D01*
X118545331Y-39557593D01*
X118348287Y-39400000D01*
X118168309Y-39167102D01*
X118003994Y-38856471D01*
X117853936Y-38465680D01*
X117784520Y-38241895D01*
X117704865Y-37945478D01*
X117642624Y-37658512D01*
X117596022Y-37364738D01*
X117563283Y-37047896D01*
X117542628Y-36691728D01*
X117532281Y-36279975D01*
X117530221Y-35914829D01*
X117536065Y-35409414D01*
G36*
X105487746Y-42614537D02*
X105494342Y-42341376D01*
X105507645Y-42111192D01*
X105527855Y-41944247D01*
X105528875Y-41938829D01*
X105582328Y-41666111D01*
X105627131Y-41453198D01*
X105669077Y-41276466D01*
X105713956Y-41112293D01*
X105767558Y-40937058D01*
X105796598Y-40846662D01*
X106058584Y-40173972D01*
X106393532Y-39539560D01*
X106796553Y-38948424D01*
X107262759Y-38405560D01*
X107787261Y-37915966D01*
X108365169Y-37484638D01*
X108991596Y-37116574D01*
X109661651Y-36816772D01*
X109783458Y-36771543D01*
X109938063Y-36718444D01*
X110100449Y-36668840D01*
X110288998Y-36617779D01*
X110522088Y-36560308D01*
X110818101Y-36491475D01*
X110849066Y-36484414D01*
X110944279Y-36472313D01*
X111108584Y-36461658D01*
X111326412Y-36453027D01*
X111582192Y-36446998D01*
X111860356Y-36444146D01*
X111939888Y-36443995D01*
X112266840Y-36445252D01*
X112525823Y-36449764D01*
X112733505Y-36458647D01*
X112906558Y-36473018D01*
X113061650Y-36493991D01*
X113215452Y-36522681D01*
X113261338Y-36532419D01*
X113989219Y-36731224D01*
X114677101Y-37002856D01*
X115321631Y-37345522D01*
X115919458Y-37757425D01*
X116467230Y-38236771D01*
X116494966Y-38264187D01*
X116822002Y-38606903D01*
X117110628Y-38944496D01*
X117349700Y-39263160D01*
X117519965Y-39534329D01*
X117657520Y-39786153D01*
X117774844Y-40008151D01*
X117865794Y-40188281D01*
X117924223Y-40314504D01*
X117941255Y-40359829D01*
X117967647Y-40440392D01*
X118013842Y-40572748D01*
X118070196Y-40729307D01*
X118074407Y-40740829D01*
X118141358Y-40934225D01*
X118206864Y-41140369D01*
X118250278Y-41291162D01*
X118327912Y-41655389D01*
X118385151Y-42072531D01*
X118420714Y-42516818D01*
X118433315Y-42962478D01*
X118421671Y-43383739D01*
X118384500Y-43754829D01*
X118375732Y-43809995D01*
X118217371Y-44542989D01*
X117997875Y-45220835D01*
X117713649Y-45850496D01*
X117361097Y-46438935D01*
X116936626Y-46993113D01*
X116483319Y-47474974D01*
X116005182Y-47904763D01*
X115518107Y-48268967D01*
X115009560Y-48573748D01*
X114467006Y-48825273D01*
X113877908Y-49029706D01*
X113229731Y-49193211D01*
X112834093Y-49269576D01*
X112568709Y-49300939D01*
X112244527Y-49316003D01*
X112175166Y-49315942D01*
X112175166Y-48742680D01*
X112836825Y-48679234D01*
X113493627Y-48537822D01*
X114135988Y-48321186D01*
X114754320Y-48032065D01*
X115339039Y-47673202D01*
X115434070Y-47605702D01*
X115643599Y-47437199D01*
X115883075Y-47217770D01*
X116134527Y-46966292D01*
X116379986Y-46701644D01*
X116601481Y-46442701D01*
X116781041Y-46208341D01*
X116824136Y-46145511D01*
X117093171Y-45707064D01*
X117314143Y-45270631D01*
X117493506Y-44818231D01*
X117637717Y-44331880D01*
X117753229Y-43793596D01*
X117822007Y-43365495D01*
X117832282Y-43219414D01*
X117833183Y-43011425D01*
X117825866Y-42763631D01*
X117811488Y-42498134D01*
X117791206Y-42237035D01*
X117766177Y-42002436D01*
X117742236Y-41841495D01*
X117592939Y-41224624D01*
X117368833Y-40605638D01*
X117077338Y-40002600D01*
X116794733Y-39534937D01*
X116623289Y-39302837D01*
X116401777Y-39041087D01*
X116149049Y-38769217D01*
X115883955Y-38506757D01*
X115625346Y-38273238D01*
X115412904Y-38103351D01*
X115134817Y-37917716D01*
X114804438Y-37727158D01*
X114451668Y-37547072D01*
X114106405Y-37392855D01*
X113838622Y-37292767D01*
X113554540Y-37201854D01*
X113314225Y-37133293D01*
X113096776Y-37083974D01*
X112881293Y-37050786D01*
X112646877Y-37030621D01*
X112372627Y-37020368D01*
X112037642Y-37016918D01*
X111983904Y-37016800D01*
X111658984Y-37017683D01*
X111398035Y-37023314D01*
X111180381Y-37036484D01*
X110985350Y-37059987D01*
X110792266Y-37096613D01*
X110580456Y-37149155D01*
X110329245Y-37220405D01*
X110205904Y-37256911D01*
X109580343Y-37486748D01*
X108984202Y-37792075D01*
X108424885Y-38166627D01*
X107909795Y-38604140D01*
X107446335Y-39098349D01*
X107041907Y-39642992D01*
X106713967Y-40211662D01*
X106436302Y-40846432D01*
X106240770Y-41483647D01*
X106125176Y-42133318D01*
X106087323Y-42805457D01*
X106092040Y-43047995D01*
X106154176Y-43747778D01*
X106287654Y-44407879D01*
X106495697Y-45038900D01*
X106781528Y-45651440D01*
X106996163Y-46021673D01*
X107203945Y-46318815D01*
X107467170Y-46638795D01*
X107767538Y-46962854D01*
X108086747Y-47272232D01*
X108406499Y-47548169D01*
X108693946Y-47762144D01*
X108820777Y-47840055D01*
X108997853Y-47938665D01*
X109206633Y-48048723D01*
X109428577Y-48160979D01*
X109645143Y-48266182D01*
X109837790Y-48355082D01*
X109987978Y-48418428D01*
X110057737Y-48442562D01*
X110509203Y-48559064D01*
X110911988Y-48643662D01*
X111293465Y-48701658D01*
X111518237Y-48725419D01*
X112175166Y-48742680D01*
X112175166Y-49315942D01*
X111885645Y-49315685D01*
X111516164Y-49300901D01*
X111160182Y-49272570D01*
X110841800Y-49231606D01*
X110608070Y-49184886D01*
X110478996Y-49153624D01*
X110315204Y-49115586D01*
X110227070Y-49095705D01*
X110091666Y-49061262D01*
X109989745Y-49027499D01*
X109954020Y-49009269D01*
X109876017Y-48975938D01*
X109860112Y-48974662D01*
X109782337Y-48956145D01*
X109646323Y-48905655D01*
X109468684Y-48830788D01*
X109266037Y-48739139D01*
X109054994Y-48638301D01*
X108852170Y-48535869D01*
X108674180Y-48439437D01*
X108618404Y-48407072D01*
X108249324Y-48173951D01*
X107926039Y-47936425D01*
X107614824Y-47668405D01*
X107409959Y-47472335D01*
X106907069Y-46921741D01*
X106480724Y-46338078D01*
X106128677Y-45717057D01*
X105848686Y-45054389D01*
X105638504Y-44345787D01*
X105548380Y-43915829D01*
X105524438Y-43731712D01*
X105506204Y-43489263D01*
X105493877Y-43208742D01*
X105487658Y-42910413D01*
X105487746Y-42614537D01*
X105487746Y-42614537D01*
G37*
X105487746Y-42614537D02*
X105494342Y-42341376D01*
X105507645Y-42111192D01*
X105527855Y-41944247D01*
X105528875Y-41938829D01*
X105582328Y-41666111D01*
X105627131Y-41453198D01*
X105669077Y-41276466D01*
X105713956Y-41112293D01*
X105767558Y-40937058D01*
X105796598Y-40846662D01*
X106058584Y-40173972D01*
X106393532Y-39539560D01*
X106796553Y-38948424D01*
X107262759Y-38405560D01*
X107787261Y-37915966D01*
X108365169Y-37484638D01*
X108991596Y-37116574D01*
X109661651Y-36816772D01*
X109783458Y-36771543D01*
X109938063Y-36718444D01*
X110100449Y-36668840D01*
X110288998Y-36617779D01*
X110522088Y-36560308D01*
X110818101Y-36491475D01*
X110849066Y-36484414D01*
X110944279Y-36472313D01*
X111108584Y-36461658D01*
X111326412Y-36453027D01*
X111582192Y-36446998D01*
X111860356Y-36444146D01*
X111939888Y-36443995D01*
X112266840Y-36445252D01*
X112525823Y-36449764D01*
X112733505Y-36458647D01*
X112906558Y-36473018D01*
X113061650Y-36493991D01*
X113215452Y-36522681D01*
X113261338Y-36532419D01*
X113989219Y-36731224D01*
X114677101Y-37002856D01*
X115321631Y-37345522D01*
X115919458Y-37757425D01*
X116467230Y-38236771D01*
X116494966Y-38264187D01*
X116822002Y-38606903D01*
X117110628Y-38944496D01*
X117349700Y-39263160D01*
X117519965Y-39534329D01*
X117657520Y-39786153D01*
X117774844Y-40008151D01*
X117865794Y-40188281D01*
X117924223Y-40314504D01*
X117941255Y-40359829D01*
X117967647Y-40440392D01*
X118013842Y-40572748D01*
X118070196Y-40729307D01*
X118074407Y-40740829D01*
X118141358Y-40934225D01*
X118206864Y-41140369D01*
X118250278Y-41291162D01*
X118327912Y-41655389D01*
X118385151Y-42072531D01*
X118420714Y-42516818D01*
X118433315Y-42962478D01*
X118421671Y-43383739D01*
X118384500Y-43754829D01*
X118375732Y-43809995D01*
X118217371Y-44542989D01*
X117997875Y-45220835D01*
X117713649Y-45850496D01*
X117361097Y-46438935D01*
X116936626Y-46993113D01*
X116483319Y-47474974D01*
X116005182Y-47904763D01*
X115518107Y-48268967D01*
X115009560Y-48573748D01*
X114467006Y-48825273D01*
X113877908Y-49029706D01*
X113229731Y-49193211D01*
X112834093Y-49269576D01*
X112568709Y-49300939D01*
X112244527Y-49316003D01*
X112175166Y-49315942D01*
X112175166Y-48742680D01*
X112836825Y-48679234D01*
X113493627Y-48537822D01*
X114135988Y-48321186D01*
X114754320Y-48032065D01*
X115339039Y-47673202D01*
X115434070Y-47605702D01*
X115643599Y-47437199D01*
X115883075Y-47217770D01*
X116134527Y-46966292D01*
X116379986Y-46701644D01*
X116601481Y-46442701D01*
X116781041Y-46208341D01*
X116824136Y-46145511D01*
X117093171Y-45707064D01*
X117314143Y-45270631D01*
X117493506Y-44818231D01*
X117637717Y-44331880D01*
X117753229Y-43793596D01*
X117822007Y-43365495D01*
X117832282Y-43219414D01*
X117833183Y-43011425D01*
X117825866Y-42763631D01*
X117811488Y-42498134D01*
X117791206Y-42237035D01*
X117766177Y-42002436D01*
X117742236Y-41841495D01*
X117592939Y-41224624D01*
X117368833Y-40605638D01*
X117077338Y-40002600D01*
X116794733Y-39534937D01*
X116623289Y-39302837D01*
X116401777Y-39041087D01*
X116149049Y-38769217D01*
X115883955Y-38506757D01*
X115625346Y-38273238D01*
X115412904Y-38103351D01*
X115134817Y-37917716D01*
X114804438Y-37727158D01*
X114451668Y-37547072D01*
X114106405Y-37392855D01*
X113838622Y-37292767D01*
X113554540Y-37201854D01*
X113314225Y-37133293D01*
X113096776Y-37083974D01*
X112881293Y-37050786D01*
X112646877Y-37030621D01*
X112372627Y-37020368D01*
X112037642Y-37016918D01*
X111983904Y-37016800D01*
X111658984Y-37017683D01*
X111398035Y-37023314D01*
X111180381Y-37036484D01*
X110985350Y-37059987D01*
X110792266Y-37096613D01*
X110580456Y-37149155D01*
X110329245Y-37220405D01*
X110205904Y-37256911D01*
X109580343Y-37486748D01*
X108984202Y-37792075D01*
X108424885Y-38166627D01*
X107909795Y-38604140D01*
X107446335Y-39098349D01*
X107041907Y-39642992D01*
X106713967Y-40211662D01*
X106436302Y-40846432D01*
X106240770Y-41483647D01*
X106125176Y-42133318D01*
X106087323Y-42805457D01*
X106092040Y-43047995D01*
X106154176Y-43747778D01*
X106287654Y-44407879D01*
X106495697Y-45038900D01*
X106781528Y-45651440D01*
X106996163Y-46021673D01*
X107203945Y-46318815D01*
X107467170Y-46638795D01*
X107767538Y-46962854D01*
X108086747Y-47272232D01*
X108406499Y-47548169D01*
X108693946Y-47762144D01*
X108820777Y-47840055D01*
X108997853Y-47938665D01*
X109206633Y-48048723D01*
X109428577Y-48160979D01*
X109645143Y-48266182D01*
X109837790Y-48355082D01*
X109987978Y-48418428D01*
X110057737Y-48442562D01*
X110509203Y-48559064D01*
X110911988Y-48643662D01*
X111293465Y-48701658D01*
X111518237Y-48725419D01*
X112175166Y-48742680D01*
X112175166Y-49315942D01*
X111885645Y-49315685D01*
X111516164Y-49300901D01*
X111160182Y-49272570D01*
X110841800Y-49231606D01*
X110608070Y-49184886D01*
X110478996Y-49153624D01*
X110315204Y-49115586D01*
X110227070Y-49095705D01*
X110091666Y-49061262D01*
X109989745Y-49027499D01*
X109954020Y-49009269D01*
X109876017Y-48975938D01*
X109860112Y-48974662D01*
X109782337Y-48956145D01*
X109646323Y-48905655D01*
X109468684Y-48830788D01*
X109266037Y-48739139D01*
X109054994Y-48638301D01*
X108852170Y-48535869D01*
X108674180Y-48439437D01*
X108618404Y-48407072D01*
X108249324Y-48173951D01*
X107926039Y-47936425D01*
X107614824Y-47668405D01*
X107409959Y-47472335D01*
X106907069Y-46921741D01*
X106480724Y-46338078D01*
X106128677Y-45717057D01*
X105848686Y-45054389D01*
X105638504Y-44345787D01*
X105548380Y-43915829D01*
X105524438Y-43731712D01*
X105506204Y-43489263D01*
X105493877Y-43208742D01*
X105487658Y-42910413D01*
X105487746Y-42614537D01*
G36*
X105486517Y-29021849D02*
X105517652Y-28302352D01*
X105611707Y-27631609D01*
X105772062Y-26998182D01*
X106002098Y-26390629D01*
X106305196Y-25797509D01*
X106560157Y-25388509D01*
X106987782Y-24811587D01*
X107454068Y-24306234D01*
X107967768Y-23864807D01*
X108537634Y-23479667D01*
X109084070Y-23185332D01*
X109294463Y-23083621D01*
X109449053Y-23010437D01*
X109568155Y-22957233D01*
X109672085Y-22915465D01*
X109781157Y-22876584D01*
X109915687Y-22832046D01*
X109951904Y-22820254D01*
X110567456Y-22652144D01*
X111190988Y-22543074D01*
X111802736Y-22495498D01*
X112382940Y-22511871D01*
X112412609Y-22514587D01*
X112628724Y-22536926D01*
X112830716Y-22561032D01*
X112994005Y-22583787D01*
X113084570Y-22599860D01*
X113458888Y-22686099D01*
X113753921Y-22761384D01*
X113974176Y-22826905D01*
X114058237Y-22856589D01*
X114156017Y-22892866D01*
X114280194Y-22937881D01*
X114291070Y-22941776D01*
X114551353Y-23048081D01*
X114852211Y-23192478D01*
X115167253Y-23361254D01*
X115470085Y-23540698D01*
X115582237Y-23612620D01*
X115916213Y-23856287D01*
X116261215Y-24150872D01*
X116601484Y-24479817D01*
X116921262Y-24826562D01*
X117204790Y-25174549D01*
X117436309Y-25507218D01*
X117520149Y-25648995D01*
X117751254Y-26083489D01*
X117936391Y-26473735D01*
X118083078Y-26841123D01*
X118198832Y-27207041D01*
X118291169Y-27592875D01*
X118367608Y-28020014D01*
X118378506Y-28091225D01*
X118409820Y-28377535D01*
X118427756Y-28711598D01*
X118432356Y-29065880D01*
X118423660Y-29412848D01*
X118401711Y-29724967D01*
X118375732Y-29924662D01*
X118208722Y-30675568D01*
X117968988Y-31383295D01*
X117656677Y-32047568D01*
X117271932Y-32668111D01*
X116814899Y-33244647D01*
X116422293Y-33650363D01*
X115869121Y-34119604D01*
X115272818Y-34519143D01*
X114640168Y-34847667D01*
X113977951Y-35103863D01*
X113292952Y-35286419D01*
X112591952Y-35394022D01*
X111941570Y-35422718D01*
X111941570Y-34849832D01*
X112632500Y-34809820D01*
X113310859Y-34688105D01*
X113969682Y-34487466D01*
X114602008Y-34210683D01*
X115200874Y-33860532D01*
X115759316Y-33439794D01*
X115988391Y-33234943D01*
X116462252Y-32732527D01*
X116870151Y-32182879D01*
X117209649Y-31593337D01*
X117478306Y-30971241D01*
X117673681Y-30323930D01*
X117793334Y-29658742D01*
X117834826Y-28983017D01*
X117795717Y-28304093D01*
X117743436Y-27956162D01*
X117575136Y-27266427D01*
X117328661Y-26607754D01*
X117006056Y-25984127D01*
X116609363Y-25399528D01*
X116167520Y-24885786D01*
X115663379Y-24416258D01*
X115118109Y-24016753D01*
X114527420Y-23684970D01*
X113887027Y-23418607D01*
X113192641Y-23215364D01*
X112957570Y-23163123D01*
X112669476Y-23120701D01*
X112324289Y-23096856D01*
X111947456Y-23091316D01*
X111564425Y-23103805D01*
X111200643Y-23134051D01*
X110881559Y-23181780D01*
X110862070Y-23185663D01*
X110503056Y-23265257D01*
X110195057Y-23350870D01*
X109904587Y-23453799D01*
X109598160Y-23585342D01*
X109401570Y-23678401D01*
X108782932Y-24024226D01*
X108219004Y-24433354D01*
X107712686Y-24902127D01*
X107266881Y-25426884D01*
X106884486Y-26003966D01*
X106568404Y-26629714D01*
X106321534Y-27300467D01*
X106212749Y-27702162D01*
X106172019Y-27882688D01*
X106142548Y-28041873D01*
X106122529Y-28199881D01*
X106110156Y-28376879D01*
X106103623Y-28593032D01*
X106101125Y-28868506D01*
X106100915Y-28950995D01*
X106102611Y-29273940D01*
X106109722Y-29529690D01*
X106123418Y-29735610D01*
X106144868Y-29909065D01*
X106175243Y-30067421D01*
X106176465Y-30072829D01*
X106372098Y-30769812D01*
X106631954Y-31427266D01*
X106952203Y-32038681D01*
X107329018Y-32597549D01*
X107758569Y-33097361D01*
X108187452Y-33491615D01*
X108757399Y-33904465D01*
X109367634Y-34246469D01*
X110010276Y-34514776D01*
X110677445Y-34706535D01*
X111361261Y-34818897D01*
X111941570Y-34849832D01*
X111941570Y-35422718D01*
X111881734Y-35425359D01*
X111169080Y-35379117D01*
X110460774Y-35253983D01*
X109763598Y-35048646D01*
X109570904Y-34976441D01*
X108939412Y-34690921D01*
X108356020Y-34347289D01*
X107809272Y-33937650D01*
X107287711Y-33454110D01*
X107144454Y-33304215D01*
X106714491Y-32784253D01*
X106337270Y-32207720D01*
X106020957Y-31590029D01*
X105773722Y-30946592D01*
X105641103Y-30467530D01*
X105583091Y-30208160D01*
X105541522Y-29994806D01*
X105513739Y-29802608D01*
X105497081Y-29606707D01*
X105488892Y-29382243D01*
X105486513Y-29104355D01*
X105486517Y-29021849D01*
X105486517Y-29021849D01*
G37*
X105486517Y-29021849D02*
X105517652Y-28302352D01*
X105611707Y-27631609D01*
X105772062Y-26998182D01*
X106002098Y-26390629D01*
X106305196Y-25797509D01*
X106560157Y-25388509D01*
X106987782Y-24811587D01*
X107454068Y-24306234D01*
X107967768Y-23864807D01*
X108537634Y-23479667D01*
X109084070Y-23185332D01*
X109294463Y-23083621D01*
X109449053Y-23010437D01*
X109568155Y-22957233D01*
X109672085Y-22915465D01*
X109781157Y-22876584D01*
X109915687Y-22832046D01*
X109951904Y-22820254D01*
X110567456Y-22652144D01*
X111190988Y-22543074D01*
X111802736Y-22495498D01*
X112382940Y-22511871D01*
X112412609Y-22514587D01*
X112628724Y-22536926D01*
X112830716Y-22561032D01*
X112994005Y-22583787D01*
X113084570Y-22599860D01*
X113458888Y-22686099D01*
X113753921Y-22761384D01*
X113974176Y-22826905D01*
X114058237Y-22856589D01*
X114156017Y-22892866D01*
X114280194Y-22937881D01*
X114291070Y-22941776D01*
X114551353Y-23048081D01*
X114852211Y-23192478D01*
X115167253Y-23361254D01*
X115470085Y-23540698D01*
X115582237Y-23612620D01*
X115916213Y-23856287D01*
X116261215Y-24150872D01*
X116601484Y-24479817D01*
X116921262Y-24826562D01*
X117204790Y-25174549D01*
X117436309Y-25507218D01*
X117520149Y-25648995D01*
X117751254Y-26083489D01*
X117936391Y-26473735D01*
X118083078Y-26841123D01*
X118198832Y-27207041D01*
X118291169Y-27592875D01*
X118367608Y-28020014D01*
X118378506Y-28091225D01*
X118409820Y-28377535D01*
X118427756Y-28711598D01*
X118432356Y-29065880D01*
X118423660Y-29412848D01*
X118401711Y-29724967D01*
X118375732Y-29924662D01*
X118208722Y-30675568D01*
X117968988Y-31383295D01*
X117656677Y-32047568D01*
X117271932Y-32668111D01*
X116814899Y-33244647D01*
X116422293Y-33650363D01*
X115869121Y-34119604D01*
X115272818Y-34519143D01*
X114640168Y-34847667D01*
X113977951Y-35103863D01*
X113292952Y-35286419D01*
X112591952Y-35394022D01*
X111941570Y-35422718D01*
X111941570Y-34849832D01*
X112632500Y-34809820D01*
X113310859Y-34688105D01*
X113969682Y-34487466D01*
X114602008Y-34210683D01*
X115200874Y-33860532D01*
X115759316Y-33439794D01*
X115988391Y-33234943D01*
X116462252Y-32732527D01*
X116870151Y-32182879D01*
X117209649Y-31593337D01*
X117478306Y-30971241D01*
X117673681Y-30323930D01*
X117793334Y-29658742D01*
X117834826Y-28983017D01*
X117795717Y-28304093D01*
X117743436Y-27956162D01*
X117575136Y-27266427D01*
X117328661Y-26607754D01*
X117006056Y-25984127D01*
X116609363Y-25399528D01*
X116167520Y-24885786D01*
X115663379Y-24416258D01*
X115118109Y-24016753D01*
X114527420Y-23684970D01*
X113887027Y-23418607D01*
X113192641Y-23215364D01*
X112957570Y-23163123D01*
X112669476Y-23120701D01*
X112324289Y-23096856D01*
X111947456Y-23091316D01*
X111564425Y-23103805D01*
X111200643Y-23134051D01*
X110881559Y-23181780D01*
X110862070Y-23185663D01*
X110503056Y-23265257D01*
X110195057Y-23350870D01*
X109904587Y-23453799D01*
X109598160Y-23585342D01*
X109401570Y-23678401D01*
X108782932Y-24024226D01*
X108219004Y-24433354D01*
X107712686Y-24902127D01*
X107266881Y-25426884D01*
X106884486Y-26003966D01*
X106568404Y-26629714D01*
X106321534Y-27300467D01*
X106212749Y-27702162D01*
X106172019Y-27882688D01*
X106142548Y-28041873D01*
X106122529Y-28199881D01*
X106110156Y-28376879D01*
X106103623Y-28593032D01*
X106101125Y-28868506D01*
X106100915Y-28950995D01*
X106102611Y-29273940D01*
X106109722Y-29529690D01*
X106123418Y-29735610D01*
X106144868Y-29909065D01*
X106175243Y-30067421D01*
X106176465Y-30072829D01*
X106372098Y-30769812D01*
X106631954Y-31427266D01*
X106952203Y-32038681D01*
X107329018Y-32597549D01*
X107758569Y-33097361D01*
X108187452Y-33491615D01*
X108757399Y-33904465D01*
X109367634Y-34246469D01*
X110010276Y-34514776D01*
X110677445Y-34706535D01*
X111361261Y-34818897D01*
X111941570Y-34849832D01*
X111941570Y-35422718D01*
X111881734Y-35425359D01*
X111169080Y-35379117D01*
X110460774Y-35253983D01*
X109763598Y-35048646D01*
X109570904Y-34976441D01*
X108939412Y-34690921D01*
X108356020Y-34347289D01*
X107809272Y-33937650D01*
X107287711Y-33454110D01*
X107144454Y-33304215D01*
X106714491Y-32784253D01*
X106337270Y-32207720D01*
X106020957Y-31590029D01*
X105773722Y-30946592D01*
X105641103Y-30467530D01*
X105583091Y-30208160D01*
X105541522Y-29994806D01*
X105513739Y-29802608D01*
X105497081Y-29606707D01*
X105488892Y-29382243D01*
X105486513Y-29104355D01*
X105486517Y-29021849D01*
G36*
X103607806Y-35872495D02*
X103611979Y-35486982D01*
X103621559Y-35164730D01*
X103638520Y-34884406D01*
X103664834Y-34624675D01*
X103702476Y-34364203D01*
X103753419Y-34081654D01*
X103790716Y-33894967D01*
X103840893Y-33692078D01*
X103913345Y-33450924D01*
X103997361Y-33203432D01*
X104082233Y-32981532D01*
X104142676Y-32845662D01*
X104237759Y-32689682D01*
X104364587Y-32530861D01*
X104505645Y-32386532D01*
X104643416Y-32274026D01*
X104760386Y-32210675D01*
X104791652Y-32203486D01*
X105042367Y-32204903D01*
X105260469Y-32273916D01*
X105453759Y-32415352D01*
X105630042Y-32634038D01*
X105714601Y-32774505D01*
X105881612Y-33135022D01*
X106024725Y-33564761D01*
X106142209Y-34051231D01*
X106232330Y-34581940D01*
X106293354Y-35144395D01*
X106323550Y-35726105D01*
X106321183Y-36314577D01*
X106285351Y-36888495D01*
X106233861Y-37298905D01*
X106157355Y-37719195D01*
X106061010Y-38128790D01*
X105950000Y-38507113D01*
X105829504Y-38833589D01*
X105755487Y-38994684D01*
X105638923Y-39187042D01*
X105495041Y-39369495D01*
X105344719Y-39518133D01*
X105226437Y-39600569D01*
X105022473Y-39664245D01*
X104947838Y-39658102D01*
X104947838Y-39466595D01*
X105117966Y-39424890D01*
X105282252Y-39302078D01*
X105439044Y-39101617D01*
X105586689Y-38826962D01*
X105723533Y-38481571D01*
X105847925Y-38068900D01*
X105958210Y-37592405D01*
X106028902Y-37205995D01*
X106043280Y-37070436D01*
X106054766Y-36866378D01*
X106063333Y-36609941D01*
X106068951Y-36317246D01*
X106071592Y-36004410D01*
X106071226Y-35687555D01*
X106067825Y-35382799D01*
X106061360Y-35106264D01*
X106051802Y-34874067D01*
X106039122Y-34702330D01*
X106033468Y-34656198D01*
X105945183Y-34150971D01*
X105836353Y-33696532D01*
X105709360Y-33298478D01*
X105566585Y-32962407D01*
X105410411Y-32693916D01*
X105243219Y-32498604D01*
X105067393Y-32382068D01*
X105065345Y-32381214D01*
X104966783Y-32351917D01*
X104881226Y-32366847D01*
X104799061Y-32409489D01*
X104606298Y-32567392D01*
X104429260Y-32804912D01*
X104269853Y-33118133D01*
X104129986Y-33503140D01*
X104011564Y-33956019D01*
X103985470Y-34079700D01*
X103861547Y-34871257D01*
X103804653Y-35673791D01*
X103814405Y-36472292D01*
X103890425Y-37251746D01*
X104032330Y-37997143D01*
X104090478Y-38221995D01*
X104196190Y-38544687D01*
X104323217Y-38833829D01*
X104464983Y-39079878D01*
X104614915Y-39273292D01*
X104766440Y-39404527D01*
X104912985Y-39464041D01*
X104947838Y-39466595D01*
X104947838Y-39658102D01*
X104820053Y-39647582D01*
X104622613Y-39554887D01*
X104433588Y-39390466D01*
X104256415Y-39158625D01*
X104094529Y-38863672D01*
X103951365Y-38509912D01*
X103830361Y-38101653D01*
X103755098Y-37756329D01*
X103704362Y-37473956D01*
X103666220Y-37227678D01*
X103639063Y-36996916D01*
X103621283Y-36761092D01*
X103611269Y-36499627D01*
X103607413Y-36191942D01*
X103607806Y-35872495D01*
X103607806Y-35872495D01*
G37*
X103607806Y-35872495D02*
X103611979Y-35486982D01*
X103621559Y-35164730D01*
X103638520Y-34884406D01*
X103664834Y-34624675D01*
X103702476Y-34364203D01*
X103753419Y-34081654D01*
X103790716Y-33894967D01*
X103840893Y-33692078D01*
X103913345Y-33450924D01*
X103997361Y-33203432D01*
X104082233Y-32981532D01*
X104142676Y-32845662D01*
X104237759Y-32689682D01*
X104364587Y-32530861D01*
X104505645Y-32386532D01*
X104643416Y-32274026D01*
X104760386Y-32210675D01*
X104791652Y-32203486D01*
X105042367Y-32204903D01*
X105260469Y-32273916D01*
X105453759Y-32415352D01*
X105630042Y-32634038D01*
X105714601Y-32774505D01*
X105881612Y-33135022D01*
X106024725Y-33564761D01*
X106142209Y-34051231D01*
X106232330Y-34581940D01*
X106293354Y-35144395D01*
X106323550Y-35726105D01*
X106321183Y-36314577D01*
X106285351Y-36888495D01*
X106233861Y-37298905D01*
X106157355Y-37719195D01*
X106061010Y-38128790D01*
X105950000Y-38507113D01*
X105829504Y-38833589D01*
X105755487Y-38994684D01*
X105638923Y-39187042D01*
X105495041Y-39369495D01*
X105344719Y-39518133D01*
X105226437Y-39600569D01*
X105022473Y-39664245D01*
X104947838Y-39658102D01*
X104947838Y-39466595D01*
X105117966Y-39424890D01*
X105282252Y-39302078D01*
X105439044Y-39101617D01*
X105586689Y-38826962D01*
X105723533Y-38481571D01*
X105847925Y-38068900D01*
X105958210Y-37592405D01*
X106028902Y-37205995D01*
X106043280Y-37070436D01*
X106054766Y-36866378D01*
X106063333Y-36609941D01*
X106068951Y-36317246D01*
X106071592Y-36004410D01*
X106071226Y-35687555D01*
X106067825Y-35382799D01*
X106061360Y-35106264D01*
X106051802Y-34874067D01*
X106039122Y-34702330D01*
X106033468Y-34656198D01*
X105945183Y-34150971D01*
X105836353Y-33696532D01*
X105709360Y-33298478D01*
X105566585Y-32962407D01*
X105410411Y-32693916D01*
X105243219Y-32498604D01*
X105067393Y-32382068D01*
X105065345Y-32381214D01*
X104966783Y-32351917D01*
X104881226Y-32366847D01*
X104799061Y-32409489D01*
X104606298Y-32567392D01*
X104429260Y-32804912D01*
X104269853Y-33118133D01*
X104129986Y-33503140D01*
X104011564Y-33956019D01*
X103985470Y-34079700D01*
X103861547Y-34871257D01*
X103804653Y-35673791D01*
X103814405Y-36472292D01*
X103890425Y-37251746D01*
X104032330Y-37997143D01*
X104090478Y-38221995D01*
X104196190Y-38544687D01*
X104323217Y-38833829D01*
X104464983Y-39079878D01*
X104614915Y-39273292D01*
X104766440Y-39404527D01*
X104912985Y-39464041D01*
X104947838Y-39466595D01*
X104947838Y-39658102D01*
X104820053Y-39647582D01*
X104622613Y-39554887D01*
X104433588Y-39390466D01*
X104256415Y-39158625D01*
X104094529Y-38863672D01*
X103951365Y-38509912D01*
X103830361Y-38101653D01*
X103755098Y-37756329D01*
X103704362Y-37473956D01*
X103666220Y-37227678D01*
X103639063Y-36996916D01*
X103621283Y-36761092D01*
X103611269Y-36499627D01*
X103607413Y-36191942D01*
X103607806Y-35872495D01*
G36*
X91614778Y-41990645D02*
X91700209Y-41482771D01*
X91736509Y-41333495D01*
X91807797Y-41072140D01*
X91866113Y-40876940D01*
X91898330Y-40783162D01*
X91934615Y-40685388D01*
X91979654Y-40561216D01*
X91983555Y-40550329D01*
X92165048Y-40121541D01*
X92406488Y-39671085D01*
X92694616Y-39219823D01*
X93016169Y-38788618D01*
X93338580Y-38418607D01*
X93859576Y-37922578D01*
X94416271Y-37498845D01*
X95015239Y-37143598D01*
X95663054Y-36853030D01*
X96366289Y-36623333D01*
X96497131Y-36588703D01*
X96695296Y-36538630D01*
X96856563Y-36501116D01*
X96998929Y-36474290D01*
X97140394Y-36456276D01*
X97298954Y-36445204D01*
X97492608Y-36439198D01*
X97739352Y-36436386D01*
X97971570Y-36435240D01*
X98306260Y-36436669D01*
X98604383Y-36443428D01*
X98852651Y-36454971D01*
X99037781Y-36470750D01*
X99114570Y-36482329D01*
X99710762Y-36619883D01*
X100245435Y-36784553D01*
X100739476Y-36984024D01*
X101213773Y-37225981D01*
X101349556Y-37304568D01*
X101961716Y-37716243D01*
X102517587Y-38189384D01*
X103013909Y-38719453D01*
X103447421Y-39301912D01*
X103814860Y-39932222D01*
X104112965Y-40605844D01*
X104338475Y-41318242D01*
X104391058Y-41536937D01*
X104440903Y-41830053D01*
X104476109Y-42183143D01*
X104496342Y-42572730D01*
X104501263Y-42975336D01*
X104490537Y-43367485D01*
X104463828Y-43725700D01*
X104426319Y-43997065D01*
X104256648Y-44698789D01*
X104007641Y-45380281D01*
X103683857Y-46032707D01*
X103289858Y-46647235D01*
X102830204Y-47215031D01*
X102685300Y-47369663D01*
X102158639Y-47854188D01*
X101579720Y-48277230D01*
X100957940Y-48633651D01*
X100302697Y-48918317D01*
X99623388Y-49126091D01*
X99368570Y-49182304D01*
X99192983Y-49217021D01*
X99000047Y-49255170D01*
X98931424Y-49268740D01*
X98784259Y-49287521D01*
X98573530Y-49300991D01*
X98320174Y-49309150D01*
X98229640Y-49310087D01*
X98229640Y-48746340D01*
X98910186Y-48683113D01*
X99581984Y-48538866D01*
X100238866Y-48313695D01*
X100688265Y-48107079D01*
X101293237Y-47751527D01*
X101847158Y-47331269D01*
X102345396Y-46851929D01*
X102783320Y-46319132D01*
X103156299Y-45738503D01*
X103459701Y-45115666D01*
X103686090Y-44466162D01*
X103783167Y-44087401D01*
X103855740Y-43727169D01*
X103894300Y-43450162D01*
X103901837Y-43307830D01*
X103903490Y-43108010D01*
X103900031Y-42870893D01*
X103892231Y-42616672D01*
X103880863Y-42365541D01*
X103866697Y-42137690D01*
X103850507Y-41953313D01*
X103833063Y-41832602D01*
X103832350Y-41829386D01*
X103776647Y-41586086D01*
X103732940Y-41403640D01*
X103695490Y-41260118D01*
X103658559Y-41133584D01*
X103616410Y-41002107D01*
X103614002Y-40994829D01*
X103525560Y-40758951D01*
X103406004Y-40483101D01*
X103268562Y-40194580D01*
X103126464Y-39920690D01*
X102992939Y-39688733D01*
X102944678Y-39613485D01*
X102532550Y-39070850D01*
X102057351Y-38575837D01*
X101528980Y-38136234D01*
X100957331Y-37759826D01*
X100352301Y-37454401D01*
X100045904Y-37332744D01*
X99909331Y-37284177D01*
X99788896Y-37244238D01*
X99657697Y-37204684D01*
X99488833Y-37157270D01*
X99347404Y-37118677D01*
X99219535Y-37092440D01*
X99031533Y-37064254D01*
X98806029Y-37036421D01*
X98565655Y-37011240D01*
X98333042Y-36991013D01*
X98130822Y-36978041D01*
X97981626Y-36974626D01*
X97945602Y-36976152D01*
X97473983Y-37017204D01*
X97068932Y-37066923D01*
X96712449Y-37129896D01*
X96386534Y-37210711D01*
X96073188Y-37313956D01*
X95754410Y-37444219D01*
X95412199Y-37606089D01*
X95348205Y-37638187D01*
X94940079Y-37865166D01*
X94567130Y-38119832D01*
X94204496Y-38420495D01*
X93926351Y-38685174D01*
X93475358Y-39177511D01*
X93101591Y-39679725D01*
X92797619Y-40202916D01*
X92578495Y-40698495D01*
X92521848Y-40845932D01*
X92473315Y-40971601D01*
X92447768Y-41037162D01*
X92385140Y-41229859D01*
X92320685Y-41489794D01*
X92258195Y-41799728D01*
X92201459Y-42142418D01*
X92194733Y-42188271D01*
X92153215Y-42710491D01*
X92170115Y-43269452D01*
X92242258Y-43843803D01*
X92366470Y-44412192D01*
X92539575Y-44953267D01*
X92643519Y-45206995D01*
X92950253Y-45798810D01*
X93327754Y-46359211D01*
X93766784Y-46878707D01*
X94258106Y-47347804D01*
X94792483Y-47757010D01*
X95360678Y-48096831D01*
X95543377Y-48187137D01*
X96197216Y-48448947D01*
X96866985Y-48629354D01*
X97546517Y-48728453D01*
X98229640Y-48746340D01*
X98229640Y-49310087D01*
X98045126Y-49311997D01*
X97769324Y-49309533D01*
X97513704Y-49301757D01*
X97299201Y-49288670D01*
X97146752Y-49270272D01*
X97138716Y-49268740D01*
X96957596Y-49232925D01*
X96766984Y-49195237D01*
X96701570Y-49182304D01*
X96028333Y-49006931D01*
X95371828Y-48752782D01*
X94741671Y-48425447D01*
X94147480Y-48030518D01*
X93598869Y-47573586D01*
X93160415Y-47123481D01*
X92928298Y-46837474D01*
X92690249Y-46504341D01*
X92462560Y-46149634D01*
X92261520Y-45798906D01*
X92103421Y-45477708D01*
X92087030Y-45439829D01*
X92033080Y-45312772D01*
X91987835Y-45206149D01*
X91979219Y-45185829D01*
X91820137Y-44731960D01*
X91698774Y-44220953D01*
X91616343Y-43672064D01*
X91574058Y-43104547D01*
X91573132Y-42537656D01*
X91614778Y-41990645D01*
X91614778Y-41990645D01*
G37*
X91614778Y-41990645D02*
X91700209Y-41482771D01*
X91736509Y-41333495D01*
X91807797Y-41072140D01*
X91866113Y-40876940D01*
X91898330Y-40783162D01*
X91934615Y-40685388D01*
X91979654Y-40561216D01*
X91983555Y-40550329D01*
X92165048Y-40121541D01*
X92406488Y-39671085D01*
X92694616Y-39219823D01*
X93016169Y-38788618D01*
X93338580Y-38418607D01*
X93859576Y-37922578D01*
X94416271Y-37498845D01*
X95015239Y-37143598D01*
X95663054Y-36853030D01*
X96366289Y-36623333D01*
X96497131Y-36588703D01*
X96695296Y-36538630D01*
X96856563Y-36501116D01*
X96998929Y-36474290D01*
X97140394Y-36456276D01*
X97298954Y-36445204D01*
X97492608Y-36439198D01*
X97739352Y-36436386D01*
X97971570Y-36435240D01*
X98306260Y-36436669D01*
X98604383Y-36443428D01*
X98852651Y-36454971D01*
X99037781Y-36470750D01*
X99114570Y-36482329D01*
X99710762Y-36619883D01*
X100245435Y-36784553D01*
X100739476Y-36984024D01*
X101213773Y-37225981D01*
X101349556Y-37304568D01*
X101961716Y-37716243D01*
X102517587Y-38189384D01*
X103013909Y-38719453D01*
X103447421Y-39301912D01*
X103814860Y-39932222D01*
X104112965Y-40605844D01*
X104338475Y-41318242D01*
X104391058Y-41536937D01*
X104440903Y-41830053D01*
X104476109Y-42183143D01*
X104496342Y-42572730D01*
X104501263Y-42975336D01*
X104490537Y-43367485D01*
X104463828Y-43725700D01*
X104426319Y-43997065D01*
X104256648Y-44698789D01*
X104007641Y-45380281D01*
X103683857Y-46032707D01*
X103289858Y-46647235D01*
X102830204Y-47215031D01*
X102685300Y-47369663D01*
X102158639Y-47854188D01*
X101579720Y-48277230D01*
X100957940Y-48633651D01*
X100302697Y-48918317D01*
X99623388Y-49126091D01*
X99368570Y-49182304D01*
X99192983Y-49217021D01*
X99000047Y-49255170D01*
X98931424Y-49268740D01*
X98784259Y-49287521D01*
X98573530Y-49300991D01*
X98320174Y-49309150D01*
X98229640Y-49310087D01*
X98229640Y-48746340D01*
X98910186Y-48683113D01*
X99581984Y-48538866D01*
X100238866Y-48313695D01*
X100688265Y-48107079D01*
X101293237Y-47751527D01*
X101847158Y-47331269D01*
X102345396Y-46851929D01*
X102783320Y-46319132D01*
X103156299Y-45738503D01*
X103459701Y-45115666D01*
X103686090Y-44466162D01*
X103783167Y-44087401D01*
X103855740Y-43727169D01*
X103894300Y-43450162D01*
X103901837Y-43307830D01*
X103903490Y-43108010D01*
X103900031Y-42870893D01*
X103892231Y-42616672D01*
X103880863Y-42365541D01*
X103866697Y-42137690D01*
X103850507Y-41953313D01*
X103833063Y-41832602D01*
X103832350Y-41829386D01*
X103776647Y-41586086D01*
X103732940Y-41403640D01*
X103695490Y-41260118D01*
X103658559Y-41133584D01*
X103616410Y-41002107D01*
X103614002Y-40994829D01*
X103525560Y-40758951D01*
X103406004Y-40483101D01*
X103268562Y-40194580D01*
X103126464Y-39920690D01*
X102992939Y-39688733D01*
X102944678Y-39613485D01*
X102532550Y-39070850D01*
X102057351Y-38575837D01*
X101528980Y-38136234D01*
X100957331Y-37759826D01*
X100352301Y-37454401D01*
X100045904Y-37332744D01*
X99909331Y-37284177D01*
X99788896Y-37244238D01*
X99657697Y-37204684D01*
X99488833Y-37157270D01*
X99347404Y-37118677D01*
X99219535Y-37092440D01*
X99031533Y-37064254D01*
X98806029Y-37036421D01*
X98565655Y-37011240D01*
X98333042Y-36991013D01*
X98130822Y-36978041D01*
X97981626Y-36974626D01*
X97945602Y-36976152D01*
X97473983Y-37017204D01*
X97068932Y-37066923D01*
X96712449Y-37129896D01*
X96386534Y-37210711D01*
X96073188Y-37313956D01*
X95754410Y-37444219D01*
X95412199Y-37606089D01*
X95348205Y-37638187D01*
X94940079Y-37865166D01*
X94567130Y-38119832D01*
X94204496Y-38420495D01*
X93926351Y-38685174D01*
X93475358Y-39177511D01*
X93101591Y-39679725D01*
X92797619Y-40202916D01*
X92578495Y-40698495D01*
X92521848Y-40845932D01*
X92473315Y-40971601D01*
X92447768Y-41037162D01*
X92385140Y-41229859D01*
X92320685Y-41489794D01*
X92258195Y-41799728D01*
X92201459Y-42142418D01*
X92194733Y-42188271D01*
X92153215Y-42710491D01*
X92170115Y-43269452D01*
X92242258Y-43843803D01*
X92366470Y-44412192D01*
X92539575Y-44953267D01*
X92643519Y-45206995D01*
X92950253Y-45798810D01*
X93327754Y-46359211D01*
X93766784Y-46878707D01*
X94258106Y-47347804D01*
X94792483Y-47757010D01*
X95360678Y-48096831D01*
X95543377Y-48187137D01*
X96197216Y-48448947D01*
X96866985Y-48629354D01*
X97546517Y-48728453D01*
X98229640Y-48746340D01*
X98229640Y-49310087D01*
X98045126Y-49311997D01*
X97769324Y-49309533D01*
X97513704Y-49301757D01*
X97299201Y-49288670D01*
X97146752Y-49270272D01*
X97138716Y-49268740D01*
X96957596Y-49232925D01*
X96766984Y-49195237D01*
X96701570Y-49182304D01*
X96028333Y-49006931D01*
X95371828Y-48752782D01*
X94741671Y-48425447D01*
X94147480Y-48030518D01*
X93598869Y-47573586D01*
X93160415Y-47123481D01*
X92928298Y-46837474D01*
X92690249Y-46504341D01*
X92462560Y-46149634D01*
X92261520Y-45798906D01*
X92103421Y-45477708D01*
X92087030Y-45439829D01*
X92033080Y-45312772D01*
X91987835Y-45206149D01*
X91979219Y-45185829D01*
X91820137Y-44731960D01*
X91698774Y-44220953D01*
X91616343Y-43672064D01*
X91574058Y-43104547D01*
X91573132Y-42537656D01*
X91614778Y-41990645D01*
G36*
X91582013Y-28374542D02*
X91608780Y-28066728D01*
X91640745Y-27873727D01*
X91670819Y-27733471D01*
X91707784Y-27558247D01*
X91730733Y-27448162D01*
X91764216Y-27306825D01*
X91797528Y-27198597D01*
X91818886Y-27153945D01*
X91850686Y-27078714D01*
X91854403Y-27043174D01*
X91873269Y-26950142D01*
X91925192Y-26798241D01*
X92003162Y-26603187D01*
X92100168Y-26380698D01*
X92209200Y-26146489D01*
X92323246Y-25916277D01*
X92435297Y-25705780D01*
X92504625Y-25585495D01*
X92744298Y-25229187D01*
X93038999Y-24859720D01*
X93372234Y-24493704D01*
X93727510Y-24147748D01*
X94088333Y-23838460D01*
X94438209Y-23582452D01*
X94584904Y-23490691D01*
X95137128Y-23191722D01*
X95682381Y-22952469D01*
X96241144Y-22766283D01*
X96833899Y-22626514D01*
X97481128Y-22526516D01*
X97596183Y-22513199D01*
X97912975Y-22494230D01*
X98274738Y-22498524D01*
X98645642Y-22524056D01*
X98989858Y-22568804D01*
X99156904Y-22601343D01*
X99530712Y-22688722D01*
X99840548Y-22768779D01*
X100105973Y-22847975D01*
X100346550Y-22932773D01*
X100581844Y-23029636D01*
X100831417Y-23145026D01*
X100892570Y-23174707D01*
X101316666Y-23394762D01*
X101682964Y-23615931D01*
X102016627Y-23856249D01*
X102342817Y-24133748D01*
X102666623Y-24446145D01*
X103147321Y-24990896D01*
X103563477Y-25586604D01*
X103910540Y-26224841D01*
X104183956Y-26897182D01*
X104379173Y-27595198D01*
X104386718Y-27630238D01*
X104437347Y-27938823D01*
X104473396Y-28304244D01*
X104494448Y-28702479D01*
X104500088Y-29109510D01*
X104489899Y-29501317D01*
X104463466Y-29853879D01*
X104429414Y-30096646D01*
X104256407Y-30815760D01*
X104008764Y-31500543D01*
X103690388Y-32146230D01*
X103305183Y-32748055D01*
X102857051Y-33301252D01*
X102349895Y-33801056D01*
X101787616Y-34242701D01*
X101174119Y-34621421D01*
X100513306Y-34932451D01*
X100448070Y-34958359D01*
X99883348Y-35157759D01*
X99350971Y-35298725D01*
X98826956Y-35386036D01*
X98287324Y-35424472D01*
X98095356Y-35427256D01*
X98013666Y-35423067D01*
X98013666Y-34852034D01*
X98713735Y-34811167D01*
X99402694Y-34688426D01*
X100072100Y-34486454D01*
X100713511Y-34207893D01*
X101318485Y-33855387D01*
X101421737Y-33785070D01*
X101593906Y-33651597D01*
X101802713Y-33468950D01*
X102031518Y-33253752D01*
X102263680Y-33022628D01*
X102482558Y-32792204D01*
X102671512Y-32579105D01*
X102813899Y-32399956D01*
X102828144Y-32379995D01*
X102968109Y-32163689D01*
X103122816Y-31897331D01*
X103276772Y-31609954D01*
X103414482Y-31330590D01*
X103520452Y-31088272D01*
X103528527Y-31067662D01*
X103645353Y-30726151D01*
X103750278Y-30345583D01*
X103834499Y-29962122D01*
X103889214Y-29611934D01*
X103894300Y-29564829D01*
X103903260Y-29395717D01*
X103904228Y-29168039D01*
X103898246Y-28904060D01*
X103886358Y-28626039D01*
X103869606Y-28356241D01*
X103849034Y-28116927D01*
X103825685Y-27930359D01*
X103814966Y-27871495D01*
X103745796Y-27562636D01*
X103678602Y-27307341D01*
X103604031Y-27075267D01*
X103512735Y-26836074D01*
X103448463Y-26682189D01*
X103130480Y-26042209D01*
X102746184Y-25454559D01*
X102297203Y-24921050D01*
X101785168Y-24443497D01*
X101211710Y-24023712D01*
X100874583Y-23820283D01*
X100332396Y-23552625D01*
X99756231Y-23342747D01*
X99129643Y-23184964D01*
X98924070Y-23146000D01*
X98732466Y-23121949D01*
X98486663Y-23105295D01*
X98207800Y-23096027D01*
X97917015Y-23094134D01*
X97635445Y-23099605D01*
X97384231Y-23112430D01*
X97184510Y-23132597D01*
X97103737Y-23146935D01*
X96782777Y-23220391D01*
X96527736Y-23281751D01*
X96321672Y-23336328D01*
X96147645Y-23389434D01*
X95988716Y-23446380D01*
X95827944Y-23512478D01*
X95648389Y-23593040D01*
X95579737Y-23624816D01*
X95019546Y-23928126D01*
X94486877Y-24300412D01*
X93991000Y-24731649D01*
X93541185Y-25211812D01*
X93146703Y-25730873D01*
X92816823Y-26278806D01*
X92560817Y-26845587D01*
X92533851Y-26918995D01*
X92488261Y-27043006D01*
X92448607Y-27145462D01*
X92446006Y-27151829D01*
X92408976Y-27265287D01*
X92363341Y-27439643D01*
X92314104Y-27652231D01*
X92266267Y-27880382D01*
X92224833Y-28101430D01*
X92195714Y-28285975D01*
X92152391Y-28900103D01*
X92183951Y-29533228D01*
X92287199Y-30171603D01*
X92458941Y-30801479D01*
X92695982Y-31409109D01*
X92995127Y-31980746D01*
X93089664Y-32132609D01*
X93503058Y-32697224D01*
X93973407Y-33204213D01*
X94494336Y-33650054D01*
X95059472Y-34031228D01*
X95662441Y-34344216D01*
X96296869Y-34585496D01*
X96956383Y-34751550D01*
X97634609Y-34838856D01*
X98013666Y-34852034D01*
X98013666Y-35423067D01*
X97335303Y-35388279D01*
X96603486Y-35269653D01*
X95901788Y-35072188D01*
X95232090Y-34796696D01*
X94596278Y-34443989D01*
X93996234Y-34014879D01*
X93433841Y-33510176D01*
X93280534Y-33352414D01*
X92881037Y-32879840D01*
X92521911Y-32356904D01*
X92211589Y-31800009D01*
X91958505Y-31225558D01*
X91771094Y-30649953D01*
X91681238Y-30242162D01*
X91631439Y-29890374D01*
X91596281Y-29508056D01*
X91576100Y-29114869D01*
X91571232Y-28730476D01*
X91582013Y-28374542D01*
X91582013Y-28374542D01*
G37*
X91582013Y-28374542D02*
X91608780Y-28066728D01*
X91640745Y-27873727D01*
X91670819Y-27733471D01*
X91707784Y-27558247D01*
X91730733Y-27448162D01*
X91764216Y-27306825D01*
X91797528Y-27198597D01*
X91818886Y-27153945D01*
X91850686Y-27078714D01*
X91854403Y-27043174D01*
X91873269Y-26950142D01*
X91925192Y-26798241D01*
X92003162Y-26603187D01*
X92100168Y-26380698D01*
X92209200Y-26146489D01*
X92323246Y-25916277D01*
X92435297Y-25705780D01*
X92504625Y-25585495D01*
X92744298Y-25229187D01*
X93038999Y-24859720D01*
X93372234Y-24493704D01*
X93727510Y-24147748D01*
X94088333Y-23838460D01*
X94438209Y-23582452D01*
X94584904Y-23490691D01*
X95137128Y-23191722D01*
X95682381Y-22952469D01*
X96241144Y-22766283D01*
X96833899Y-22626514D01*
X97481128Y-22526516D01*
X97596183Y-22513199D01*
X97912975Y-22494230D01*
X98274738Y-22498524D01*
X98645642Y-22524056D01*
X98989858Y-22568804D01*
X99156904Y-22601343D01*
X99530712Y-22688722D01*
X99840548Y-22768779D01*
X100105973Y-22847975D01*
X100346550Y-22932773D01*
X100581844Y-23029636D01*
X100831417Y-23145026D01*
X100892570Y-23174707D01*
X101316666Y-23394762D01*
X101682964Y-23615931D01*
X102016627Y-23856249D01*
X102342817Y-24133748D01*
X102666623Y-24446145D01*
X103147321Y-24990896D01*
X103563477Y-25586604D01*
X103910540Y-26224841D01*
X104183956Y-26897182D01*
X104379173Y-27595198D01*
X104386718Y-27630238D01*
X104437347Y-27938823D01*
X104473396Y-28304244D01*
X104494448Y-28702479D01*
X104500088Y-29109510D01*
X104489899Y-29501317D01*
X104463466Y-29853879D01*
X104429414Y-30096646D01*
X104256407Y-30815760D01*
X104008764Y-31500543D01*
X103690388Y-32146230D01*
X103305183Y-32748055D01*
X102857051Y-33301252D01*
X102349895Y-33801056D01*
X101787616Y-34242701D01*
X101174119Y-34621421D01*
X100513306Y-34932451D01*
X100448070Y-34958359D01*
X99883348Y-35157759D01*
X99350971Y-35298725D01*
X98826956Y-35386036D01*
X98287324Y-35424472D01*
X98095356Y-35427256D01*
X98013666Y-35423067D01*
X98013666Y-34852034D01*
X98713735Y-34811167D01*
X99402694Y-34688426D01*
X100072100Y-34486454D01*
X100713511Y-34207893D01*
X101318485Y-33855387D01*
X101421737Y-33785070D01*
X101593906Y-33651597D01*
X101802713Y-33468950D01*
X102031518Y-33253752D01*
X102263680Y-33022628D01*
X102482558Y-32792204D01*
X102671512Y-32579105D01*
X102813899Y-32399956D01*
X102828144Y-32379995D01*
X102968109Y-32163689D01*
X103122816Y-31897331D01*
X103276772Y-31609954D01*
X103414482Y-31330590D01*
X103520452Y-31088272D01*
X103528527Y-31067662D01*
X103645353Y-30726151D01*
X103750278Y-30345583D01*
X103834499Y-29962122D01*
X103889214Y-29611934D01*
X103894300Y-29564829D01*
X103903260Y-29395717D01*
X103904228Y-29168039D01*
X103898246Y-28904060D01*
X103886358Y-28626039D01*
X103869606Y-28356241D01*
X103849034Y-28116927D01*
X103825685Y-27930359D01*
X103814966Y-27871495D01*
X103745796Y-27562636D01*
X103678602Y-27307341D01*
X103604031Y-27075267D01*
X103512735Y-26836074D01*
X103448463Y-26682189D01*
X103130480Y-26042209D01*
X102746184Y-25454559D01*
X102297203Y-24921050D01*
X101785168Y-24443497D01*
X101211710Y-24023712D01*
X100874583Y-23820283D01*
X100332396Y-23552625D01*
X99756231Y-23342747D01*
X99129643Y-23184964D01*
X98924070Y-23146000D01*
X98732466Y-23121949D01*
X98486663Y-23105295D01*
X98207800Y-23096027D01*
X97917015Y-23094134D01*
X97635445Y-23099605D01*
X97384231Y-23112430D01*
X97184510Y-23132597D01*
X97103737Y-23146935D01*
X96782777Y-23220391D01*
X96527736Y-23281751D01*
X96321672Y-23336328D01*
X96147645Y-23389434D01*
X95988716Y-23446380D01*
X95827944Y-23512478D01*
X95648389Y-23593040D01*
X95579737Y-23624816D01*
X95019546Y-23928126D01*
X94486877Y-24300412D01*
X93991000Y-24731649D01*
X93541185Y-25211812D01*
X93146703Y-25730873D01*
X92816823Y-26278806D01*
X92560817Y-26845587D01*
X92533851Y-26918995D01*
X92488261Y-27043006D01*
X92448607Y-27145462D01*
X92446006Y-27151829D01*
X92408976Y-27265287D01*
X92363341Y-27439643D01*
X92314104Y-27652231D01*
X92266267Y-27880382D01*
X92224833Y-28101430D01*
X92195714Y-28285975D01*
X92152391Y-28900103D01*
X92183951Y-29533228D01*
X92287199Y-30171603D01*
X92458941Y-30801479D01*
X92695982Y-31409109D01*
X92995127Y-31980746D01*
X93089664Y-32132609D01*
X93503058Y-32697224D01*
X93973407Y-33204213D01*
X94494336Y-33650054D01*
X95059472Y-34031228D01*
X95662441Y-34344216D01*
X96296869Y-34585496D01*
X96956383Y-34751550D01*
X97634609Y-34838856D01*
X98013666Y-34852034D01*
X98013666Y-35423067D01*
X97335303Y-35388279D01*
X96603486Y-35269653D01*
X95901788Y-35072188D01*
X95232090Y-34796696D01*
X94596278Y-34443989D01*
X93996234Y-34014879D01*
X93433841Y-33510176D01*
X93280534Y-33352414D01*
X92881037Y-32879840D01*
X92521911Y-32356904D01*
X92211589Y-31800009D01*
X91958505Y-31225558D01*
X91771094Y-30649953D01*
X91681238Y-30242162D01*
X91631439Y-29890374D01*
X91596281Y-29508056D01*
X91576100Y-29114869D01*
X91571232Y-28730476D01*
X91582013Y-28374542D01*
D11*
X104918844Y-73460995D02*
X104918844Y-75460995D01*
X106918844Y-61460995D02*
X104918844Y-61460995D01*
X104918844Y-61460995D02*
X104918844Y-63460995D01*
X116918844Y-61460995D02*
X118918844Y-61460995D01*
X118918844Y-75460995D02*
X118918844Y-73460995D01*
X118918844Y-61460995D02*
X118918844Y-63460995D01*
X116918844Y-75460995D02*
X118918844Y-75460995D01*
X104918844Y-75460995D02*
X106918844Y-75460995D01*
X85868828Y-73460995D02*
X85868828Y-75460995D01*
X87868828Y-61460995D02*
X85868828Y-61460995D01*
X85868828Y-61460995D02*
X85868828Y-63460995D01*
X97868828Y-61460995D02*
X99868828Y-61460995D01*
X99868828Y-75460995D02*
X99868828Y-73460995D01*
X99868828Y-61460995D02*
X99868828Y-63460995D01*
X97868828Y-75460995D02*
X99868828Y-75460995D01*
X85868828Y-75460995D02*
X87868828Y-75460995D01*
X85868828Y-92511011D02*
X85868828Y-94511011D01*
X87868828Y-80511011D02*
X85868828Y-80511011D01*
X85868828Y-80511011D02*
X85868828Y-82511011D01*
X97868828Y-80511011D02*
X99868828Y-80511011D01*
X99868828Y-94511011D02*
X99868828Y-92511011D01*
X99868828Y-80511011D02*
X99868828Y-82511011D01*
X97868828Y-94511011D02*
X99868828Y-94511011D01*
X85868828Y-94511011D02*
X87868828Y-94511011D01*
X104918844Y-92511011D02*
X104918844Y-94511011D01*
X106918844Y-80511011D02*
X104918844Y-80511011D01*
X104918844Y-80511011D02*
X104918844Y-82511011D01*
X116918844Y-80511011D02*
X118918844Y-80511011D01*
X118918844Y-94511011D02*
X118918844Y-92511011D01*
X118918844Y-80511011D02*
X118918844Y-82511011D01*
X116918844Y-94511011D02*
X118918844Y-94511011D01*
X104918844Y-94511011D02*
X106918844Y-94511011D01*
X123968860Y-92511011D02*
X123968860Y-94511011D01*
X125968860Y-80511011D02*
X123968860Y-80511011D01*
X123968860Y-80511011D02*
X123968860Y-82511011D01*
X135968860Y-80511011D02*
X137968860Y-80511011D01*
X137968860Y-94511011D02*
X137968860Y-92511011D01*
X137968860Y-80511011D02*
X137968860Y-82511011D01*
X135968860Y-94511011D02*
X137968860Y-94511011D01*
X123968860Y-94511011D02*
X125968860Y-94511011D01*
M02*
