%TF.GenerationSoftware,KiCad,Pcbnew,(5.0.1)-3*%
%TF.CreationDate,2018-12-08T15:20:53+01:00*%
%TF.ProjectId,SamplrPad,53616D706C725061642E6B696361645F,rev?*%
%TF.SameCoordinates,Original*%
%TF.FileFunction,Profile,NP*%
%FSLAX46Y46*%
G04 Gerber Fmt 4.6, Leading zero omitted, Abs format (unit mm)*
G04 Created by KiCad (PCBNEW (5.0.1)-3) date 8/12/2018 15:20:53*
%MOMM*%
%LPD*%
G01*
G04 APERTURE LIST*
%ADD10C,0.150000*%
G04 APERTURE END LIST*
D10*
X141089189Y-57745369D02*
X142279815Y-57745369D01*
X141089189Y-56554743D02*
X142279815Y-56554743D01*
X81557889Y-57745369D02*
X82748515Y-57745369D01*
X81557889Y-56554743D02*
X82748515Y-56554743D01*
X138112624Y-56554743D02*
X139303250Y-56554743D01*
X135136059Y-56554743D02*
X136326685Y-56554743D01*
X141089189Y-57745369D02*
G75*
G02X141089189Y-56554743I0J595313D01*
G01*
X139303250Y-56554743D02*
G75*
G02X139303250Y-57745369I0J-595313D01*
G01*
X138112624Y-57745369D02*
X139303250Y-57745369D01*
X138112624Y-57745369D02*
G75*
G02X138112624Y-56554743I0J595313D01*
G01*
X136326685Y-56554743D02*
G75*
G02X136326685Y-57745369I0J-595313D01*
G01*
X132159494Y-56554743D02*
X133350120Y-56554743D01*
X135136059Y-57745369D02*
X136326685Y-57745369D01*
X135136059Y-57745369D02*
G75*
G02X135136059Y-56554743I0J595313D01*
G01*
X133350120Y-56554743D02*
G75*
G02X133350120Y-57745369I0J-595313D01*
G01*
X129182929Y-56554743D02*
X130373555Y-56554743D01*
X132159494Y-57745369D02*
X133350120Y-57745369D01*
X132159494Y-57745369D02*
G75*
G02X132159494Y-56554743I0J595313D01*
G01*
X130373555Y-56554743D02*
G75*
G02X130373555Y-57745369I0J-595313D01*
G01*
X126206364Y-56554743D02*
X127396990Y-56554743D01*
X129182929Y-57745369D02*
X130373555Y-57745369D01*
X129182929Y-57745369D02*
G75*
G02X129182929Y-56554743I0J595313D01*
G01*
X127396990Y-56554743D02*
G75*
G02X127396990Y-57745369I0J-595313D01*
G01*
X123229799Y-56554743D02*
X124420425Y-56554743D01*
X126206364Y-57745369D02*
X127396990Y-57745369D01*
X126206364Y-57745369D02*
G75*
G02X126206364Y-56554743I0J595313D01*
G01*
X124420425Y-56554743D02*
G75*
G02X124420425Y-57745369I0J-595313D01*
G01*
X120253234Y-56554743D02*
X121443860Y-56554743D01*
X123229799Y-57745369D02*
X124420425Y-57745369D01*
X123229799Y-57745369D02*
G75*
G02X123229799Y-56554743I0J595313D01*
G01*
X121443860Y-56554743D02*
G75*
G02X121443860Y-57745369I0J-595313D01*
G01*
X117276669Y-56554743D02*
X118467295Y-56554743D01*
X120253234Y-57745369D02*
X121443860Y-57745369D01*
X120253234Y-57745369D02*
G75*
G02X120253234Y-56554743I0J595313D01*
G01*
X118467295Y-56554743D02*
G75*
G02X118467295Y-57745369I0J-595313D01*
G01*
X114300104Y-56554743D02*
X115490730Y-56554743D01*
X117276669Y-57745369D02*
X118467295Y-57745369D01*
X117276669Y-57745369D02*
G75*
G02X117276669Y-56554743I0J595313D01*
G01*
X115490730Y-56554743D02*
G75*
G02X115490730Y-57745369I0J-595313D01*
G01*
X111323539Y-56554743D02*
X112514165Y-56554743D01*
X114300104Y-57745369D02*
X115490730Y-57745369D01*
X114300104Y-57745369D02*
G75*
G02X114300104Y-56554743I0J595313D01*
G01*
X112514165Y-56554743D02*
G75*
G02X112514165Y-57745369I0J-595313D01*
G01*
X108346974Y-56554743D02*
X109537600Y-56554743D01*
X111323539Y-57745369D02*
X112514165Y-57745369D01*
X111323539Y-57745369D02*
G75*
G02X111323539Y-56554743I0J595313D01*
G01*
X109537600Y-56554743D02*
G75*
G02X109537600Y-57745369I0J-595313D01*
G01*
X105370409Y-56554743D02*
X106561035Y-56554743D01*
X108346974Y-57745369D02*
X109537600Y-57745369D01*
X108346974Y-57745369D02*
G75*
G02X108346974Y-56554743I0J595313D01*
G01*
X106561035Y-56554743D02*
G75*
G02X106561035Y-57745369I0J-595313D01*
G01*
X102393844Y-56554743D02*
X103584470Y-56554743D01*
X105370409Y-57745369D02*
X106561035Y-57745369D01*
X105370409Y-57745369D02*
G75*
G02X105370409Y-56554743I0J595313D01*
G01*
X103584470Y-56554743D02*
G75*
G02X103584470Y-57745369I0J-595313D01*
G01*
X99417279Y-56554743D02*
X100607905Y-56554743D01*
X102393844Y-57745369D02*
X103584470Y-57745369D01*
X102393844Y-57745369D02*
G75*
G02X102393844Y-56554743I0J595313D01*
G01*
X100607905Y-56554743D02*
G75*
G02X100607905Y-57745369I0J-595313D01*
G01*
X96440714Y-56554743D02*
X97631340Y-56554743D01*
X99417279Y-57745369D02*
X100607905Y-57745369D01*
X99417279Y-57745369D02*
G75*
G02X99417279Y-56554743I0J595313D01*
G01*
X97631340Y-56554743D02*
G75*
G02X97631340Y-57745369I0J-595313D01*
G01*
X93464149Y-56554743D02*
X94654775Y-56554743D01*
X96440714Y-57745369D02*
X97631340Y-57745369D01*
X96440714Y-57745369D02*
G75*
G02X96440714Y-56554743I0J595313D01*
G01*
X94654775Y-56554743D02*
G75*
G02X94654775Y-57745369I0J-595313D01*
G01*
X90487584Y-56554743D02*
X91678210Y-56554743D01*
X93464149Y-57745369D02*
X94654775Y-57745369D01*
X93464149Y-57745369D02*
G75*
G02X93464149Y-56554743I0J595313D01*
G01*
X91678210Y-56554743D02*
G75*
G02X91678210Y-57745369I0J-595313D01*
G01*
X87511019Y-56554743D02*
X88701645Y-56554743D01*
X90487584Y-57745369D02*
X91678210Y-57745369D01*
X90487584Y-57745369D02*
G75*
G02X90487584Y-56554743I0J595313D01*
G01*
X88701645Y-56554743D02*
G75*
G02X88701645Y-57745369I0J-595313D01*
G01*
X84534454Y-56554743D02*
X85725080Y-56554743D01*
X87511019Y-57745369D02*
X88701645Y-57745369D01*
X87511019Y-57745369D02*
G75*
G02X87511019Y-56554743I0J595313D01*
G01*
X85725080Y-56554743D02*
G75*
G02X85725080Y-57745369I0J-595313D01*
G01*
X84534454Y-57745369D02*
X85725080Y-57745369D01*
X84534454Y-57745369D02*
G75*
G02X84534454Y-56554743I0J595313D01*
G01*
X82748515Y-56554743D02*
G75*
G02X82748515Y-57745369I0J-595313D01*
G01*
X142279815Y-16073459D02*
G75*
G02X144661067Y-18454711I0J-2381252D01*
G01*
X144661067Y-54173491D02*
G75*
G02X142279815Y-56554743I-2381252J0D01*
G01*
X81557889Y-56554743D02*
G75*
G02X79176637Y-54173491I0J2381252D01*
G01*
X79176637Y-18454711D02*
G75*
G02X81557889Y-16073459I2381252J0D01*
G01*
X144661067Y-18454711D02*
X144661067Y-54173491D01*
X142279815Y-98226653D02*
X81557889Y-98226653D01*
X79176637Y-54173491D02*
X79176637Y-18454711D01*
X79176637Y-60126621D02*
G75*
G02X81557889Y-57745369I2381252J0D01*
G01*
X142279815Y-57745369D02*
G75*
G02X144661067Y-60126621I0J-2381252D01*
G01*
X144661067Y-95845401D02*
G75*
G02X142279815Y-98226653I-2381252J0D01*
G01*
X81557889Y-98226653D02*
G75*
G02X79176637Y-95845401I0J2381252D01*
G01*
X144661067Y-60126621D02*
X144661067Y-95845401D01*
X81557889Y-16073459D02*
X142279815Y-16073459D01*
X79176637Y-95845401D02*
X79176637Y-60126621D01*
M02*
